  0
SECTION
  2
HEADER
  9
$ACADVER
  1
AC1032
  9
$ACADMAINTVER
 90
      155
  9
$DWGCODEPAGE
  3
ANSI_1252
  9
$LASTSAVEDBY
  1
Mingze
  9
$REQUIREDVERSIONS
160
                 0
  9
$INSBASE
 10
0.0
 20
0.0
 30
0.0
  9
$EXTMIN
 10
5.58891799107832
 20
8.595638724992427
 30
0.0
  9
$EXTMAX
 10
326.4830196345251
 20
147.4031830417514
 30
0.0
  9
$LIMMIN
 10
0.0
 20
0.0
  9
$LIMMAX
 10
12.0
 20
9.0
  9
$ORTHOMODE
 70
     0
  9
$REGENMODE
 70
     1
  9
$FILLMODE
 70
     1
  9
$QTEXTMODE
 70
     0
  9
$MIRRTEXT
 70
     0
  9
$LTSCALE
 40
1.0
  9
$ATTMODE
 70
     1
  9
$TEXTSIZE
 40
0.2
  9
$TRACEWID
 40
0.05
  9
$TEXTSTYLE
  7
Standard
  9
$CLAYER
  8
0
  9
$CELTYPE
  6
ByLayer
  9
$CECOLOR
 62
   256
  9
$CELTSCALE
 40
1.0
  9
$DISPSILH
 70
     0
  9
$DIMSCALE
 40
1.0
  9
$DIMASZ
 40
0.18
  9
$DIMEXO
 40
0.0625
  9
$DIMDLI
 40
0.38
  9
$DIMRND
 40
0.0
  9
$DIMDLE
 40
0.0
  9
$DIMEXE
 40
0.18
  9
$DIMTP
 40
0.0
  9
$DIMTM
 40
0.0
  9
$DIMTXT
 40
0.18
  9
$DIMCEN
 40
0.09
  9
$DIMTSZ
 40
0.0
  9
$DIMTOL
 70
     0
  9
$DIMLIM
 70
     0
  9
$DIMTIH
 70
     1
  9
$DIMTOH
 70
     1
  9
$DIMSE1
 70
     0
  9
$DIMSE2
 70
     0
  9
$DIMTAD
 70
     0
  9
$DIMZIN
 70
     0
  9
$DIMBLK
  1

  9
$DIMASO
 70
     1
  9
$DIMSHO
 70
     1
  9
$DIMPOST
  1

  9
$DIMAPOST
  1

  9
$DIMALT
 70
     0
  9
$DIMALTD
 70
     2
  9
$DIMALTF
 40
25.4
  9
$DIMLFAC
 40
1.0
  9
$DIMTOFL
 70
     0
  9
$DIMTVP
 40
0.0
  9
$DIMTIX
 70
     0
  9
$DIMSOXD
 70
     0
  9
$DIMSAH
 70
     0
  9
$DIMBLK1
  1

  9
$DIMBLK2
  1

  9
$DIMSTYLE
  2
Standard
  9
$DIMCLRD
 70
     0
  9
$DIMCLRE
 70
     0
  9
$DIMCLRT
 70
     0
  9
$DIMTFAC
 40
1.0
  9
$DIMGAP
 40
0.09
  9
$DIMJUST
 70
     0
  9
$DIMSD1
 70
     0
  9
$DIMSD2
 70
     0
  9
$DIMTOLJ
 70
     1
  9
$DIMTZIN
 70
     0
  9
$DIMALTZ
 70
     0
  9
$DIMALTTZ
 70
     0
  9
$DIMUPT
 70
     0
  9
$DIMDEC
 70
     4
  9
$DIMTDEC
 70
     4
  9
$DIMALTU
 70
     2
  9
$DIMALTTD
 70
     2
  9
$DIMTXSTY
  7
Standard
  9
$DIMAUNIT
 70
     0
  9
$DIMADEC
 70
     0
  9
$DIMALTRND
 40
0.0
  9
$DIMAZIN
 70
     0
  9
$DIMDSEP
 70
    46
  9
$DIMATFIT
 70
     3
  9
$DIMFRAC
 70
     0
  9
$DIMLDRBLK
  1

  9
$DIMLUNIT
 70
     2
  9
$DIMLWD
 70
    -2
  9
$DIMLWE
 70
    -2
  9
$DIMTMOVE
 70
     0
  9
$DIMFXL
 40
1.0
  9
$DIMFXLON
 70
     0
  9
$DIMJOGANG
 40
0.7853981633974483
  9
$DIMTFILL
 70
     0
  9
$DIMTFILLCLR
 70
     0
  9
$DIMARCSYM
 70
     0
  9
$DIMLTYPE
  6

  9
$DIMLTEX1
  6

  9
$DIMLTEX2
  6

  9
$DIMTXTDIRECTION
 70
     0
  9
$LUNITS
 70
     2
  9
$LUPREC
 70
     4
  9
$SKETCHINC
 40
0.1
  9
$FILLETRAD
 40
0.0
  9
$AUNITS
 70
     0
  9
$AUPREC
 70
     0
  9
$MENU
  1
.
  9
$ELEVATION
 40
0.0
  9
$PELEVATION
 40
0.0
  9
$THICKNESS
 40
0.0
  9
$LIMCHECK
 70
     0
  9
$CHAMFERA
 40
0.0
  9
$CHAMFERB
 40
0.0
  9
$CHAMFERC
 40
0.0
  9
$CHAMFERD
 40
0.0
  9
$SKPOLY
 70
     0
  9
$TDCREATE
 40
2459123.560960648
  9
$TDUCREATE
 40
2459123.727627315
  9
$TDUPDATE
 40
2459185.481724537
  9
$TDUUPDATE
 40
2459185.690057871
  9
$TDINDWG
 40
0.2172800926
  9
$TDUSRTIMER
 40
0.2172800926
  9
$USRTIMER
 70
     1
  9
$ANGBASE
 50
0.0
  9
$ANGDIR
 70
     0
  9
$PDMODE
 70
     0
  9
$PDSIZE
 40
0.0
  9
$PLINEWID
 40
0.0
  9
$SPLFRAME
 70
     0
  9
$SPLINETYPE
 70
     6
  9
$SPLINESEGS
 70
     8
  9
$HANDSEED
  5
3DA
  9
$SURFTAB1
 70
     6
  9
$SURFTAB2
 70
     6
  9
$SURFTYPE
 70
     6
  9
$SURFU
 70
     6
  9
$SURFV
 70
     6
  9
$UCSBASE
  2

  9
$UCSNAME
  2

  9
$UCSORG
 10
0.0
 20
0.0
 30
0.0
  9
$UCSXDIR
 10
1.0
 20
0.0
 30
0.0
  9
$UCSYDIR
 10
0.0
 20
1.0
 30
0.0
  9
$UCSORTHOREF
  2

  9
$UCSORTHOVIEW
 70
     0
  9
$UCSORGTOP
 10
0.0
 20
0.0
 30
0.0
  9
$UCSORGBOTTOM
 10
0.0
 20
0.0
 30
0.0
  9
$UCSORGLEFT
 10
0.0
 20
0.0
 30
0.0
  9
$UCSORGRIGHT
 10
0.0
 20
0.0
 30
0.0
  9
$UCSORGFRONT
 10
0.0
 20
0.0
 30
0.0
  9
$UCSORGBACK
 10
0.0
 20
0.0
 30
0.0
  9
$PUCSBASE
  2

  9
$PUCSNAME
  2

  9
$PUCSORG
 10
0.0
 20
0.0
 30
0.0
  9
$PUCSXDIR
 10
1.0
 20
0.0
 30
0.0
  9
$PUCSYDIR
 10
0.0
 20
1.0
 30
0.0
  9
$PUCSORTHOREF
  2

  9
$PUCSORTHOVIEW
 70
     0
  9
$PUCSORGTOP
 10
0.0
 20
0.0
 30
0.0
  9
$PUCSORGBOTTOM
 10
0.0
 20
0.0
 30
0.0
  9
$PUCSORGLEFT
 10
0.0
 20
0.0
 30
0.0
  9
$PUCSORGRIGHT
 10
0.0
 20
0.0
 30
0.0
  9
$PUCSORGFRONT
 10
0.0
 20
0.0
 30
0.0
  9
$PUCSORGBACK
 10
0.0
 20
0.0
 30
0.0
  9
$USERI1
 70
     0
  9
$USERI2
 70
     0
  9
$USERI3
 70
     0
  9
$USERI4
 70
     0
  9
$USERI5
 70
     0
  9
$USERR1
 40
0.0
  9
$USERR2
 40
0.0
  9
$USERR3
 40
0.0
  9
$USERR4
 40
0.0
  9
$USERR5
 40
0.0
  9
$WORLDVIEW
 70
     1
  9
$SHADEDGE
 70
     3
  9
$SHADEDIF
 70
    70
  9
$TILEMODE
 70
     1
  9
$MAXACTVP
 70
    64
  9
$PINSBASE
 10
0.0
 20
0.0
 30
0.0
  9
$PLIMCHECK
 70
     0
  9
$PEXTMIN
 10
1.099999975970409
 20
0.8499999759704115
 30
0.0
  9
$PEXTMAX
 10
9.899999783733695
 20
7.649999783733695
 30
0.0
  9
$PLIMMIN
 10
0.0
 20
0.0
  9
$PLIMMAX
 10
10.99999975970411
 20
8.49999975970411
  9
$UNITMODE
 70
     0
  9
$VISRETAIN
 70
     1
  9
$PLINEGEN
 70
     0
  9
$PSLTSCALE
 70
     1
  9
$TREEDEPTH
 70
  3020
  9
$CMLSTYLE
  2
Standard
  9
$CMLJUST
 70
     0
  9
$CMLSCALE
 40
1.0
  9
$PROXYGRAPHICS
 70
     1
  9
$MEASUREMENT
 70
     0
  9
$CELWEIGHT
370
    -1
  9
$ENDCAPS
280
     0
  9
$JOINSTYLE
280
     0
  9
$LWDISPLAY
290
     0
  9
$INSUNITS
 70
     4
  9
$HYPERLINKBASE
  1

  9
$STYLESHEET
  1

  9
$XEDIT
290
     1
  9
$CEPSNTYPE
380
     0
  9
$PSTYLEMODE
290
     1
  9
$FINGERPRINTGUID
  2
{12CDE7C1-4107-7C45-A4FD-21FE4EA9F474}
  9
$VERSIONGUID
  2
{69931B8E-78CC-2E41-87AC-0E06F05BE580}
  9
$EXTNAMES
290
     1
  9
$PSVPSCALE
 40
0.0
  9
$OLESTARTUP
290
     0
  9
$SORTENTS
280
   127
  9
$INDEXCTL
280
     0
  9
$HIDETEXT
280
     1
  9
$XCLIPFRAME
280
     2
  9
$HALOGAP
280
     0
  9
$OBSCOLOR
 70
   257
  9
$OBSLTYPE
280
     0
  9
$INTERSECTIONDISPLAY
280
     0
  9
$INTERSECTIONCOLOR
 70
   257
  9
$DIMASSOC
280
     2
  9
$PROJECTNAME
  1

  9
$CAMERADISPLAY
290
     0
  9
$LENSLENGTH
 40
50.0
  9
$CAMERAHEIGHT
 40
0.0
  9
$STEPSPERSEC
 40
2.0
  9
$STEPSIZE
 40
6.0
  9
$3DDWFPREC
 40
2.0
  9
$PSOLWIDTH
 40
0.25
  9
$PSOLHEIGHT
 40
4.0
  9
$LOFTANG1
 40
1.570796326794896
  9
$LOFTANG2
 40
1.570796326794896
  9
$LOFTMAG1
 40
0.0
  9
$LOFTMAG2
 40
0.0
  9
$LOFTPARAM
 70
     7
  9
$LOFTNORMALS
280
     1
  9
$LATITUDE
 40
37.795
  9
$LONGITUDE
 40
-122.394
  9
$NORTHDIRECTION
 40
0.0
  9
$TIMEZONE
 70
 -8000
  9
$LIGHTGLYPHDISPLAY
280
     1
  9
$TILEMODELIGHTSYNCH
280
     1
  9
$CMATERIAL
347
11
  9
$SOLIDHIST
280
     0
  9
$SHOWHIST
280
     1
  9
$DWFFRAME
280
     2
  9
$DGNFRAME
280
     0
  9
$REALWORLDSCALE
290
     1
  9
$INTERFERECOLOR
 62
     1
  9
$INTERFEREOBJVS
345
33
  9
$INTERFEREVPVS
346
30
  9
$CSHADOW
280
     0
  9
$SHADOWPLANELOCATION
 40
0.0
  0
ENDSEC
  0
SECTION
  2
CLASSES
  0
CLASS
  1
ACDBDICTIONARYWDFLT
  2
AcDbDictionaryWithDefault
  3
ObjectDBX Classes
 90
        0
 91
        1
280
     0
281
     0
  0
CLASS
  1
MATERIAL
  2
AcDbMaterial
  3
ObjectDBX Classes
 90
     1153
 91
        3
280
     0
281
     0
  0
CLASS
  1
VISUALSTYLE
  2
AcDbVisualStyle
  3
ObjectDBX Classes
 90
     4095
 91
       24
280
     0
281
     0
  0
CLASS
  1
SCALE
  2
AcDbScale
  3
ObjectDBX Classes
 90
     1153
 91
       17
280
     0
281
     0
  0
CLASS
  1
TABLESTYLE
  2
AcDbTableStyle
  3
ObjectDBX Classes
 90
     4095
 91
        1
280
     0
281
     0
  0
CLASS
  1
MLEADERSTYLE
  2
AcDbMLeaderStyle
  3
ACDB_MLEADERSTYLE_CLASS
 90
     4095
 91
        1
280
     0
281
     0
  0
CLASS
  1
ACDBSECTIONVIEWSTYLE
  2
AcDbSectionViewStyle
  3
ObjectDBX Classes
 90
     1025
 91
        2
280
     0
281
     0
  0
CLASS
  1
ACDBDETAILVIEWSTYLE
  2
AcDbDetailViewStyle
  3
ObjectDBX Classes
 90
     1025
 91
        2
280
     0
281
     0
  0
CLASS
  1
DICTIONARYVAR
  2
AcDbDictionaryVar
  3
ObjectDBX Classes
 90
        0
 91
        5
280
     0
281
     0
  0
CLASS
  1
CELLSTYLEMAP
  2
AcDbCellStyleMap
  3
ObjectDBX Classes
 90
     1152
 91
        3
280
     0
281
     0
  0
CLASS
  1
SOLID_BACKGROUND
  2
AcDbSolidBackground
  3
SCENEOE
 90
     4095
 91
        0
280
     0
281
     0
  0
CLASS
  1
NPOCOLLECTION
  2
AcDbImpNonPersistentObjectsCollection
  3
ObjectDBX Classes
 90
     1153
 91
        0
280
     0
281
     0
  0
CLASS
  1
GROUND_PLANE_BACKGROUND
  2
AcDbGroundPlaneBackground
  3
SCENEOE
 90
     4095
 91
        0
280
     0
281
     0
  0
CLASS
  1
SORTENTSTABLE
  2
AcDbSortentsTable
  3
ObjectDBX Classes
 90
        0
 91
        2
280
     0
281
     0
  0
ENDSEC
  0
SECTION
  2
TABLES
  0
TABLE
  2
VPORT
  5
8
330
0
100
AcDbSymbolTable
 70
     1
1001
ACAD
1000
DbSaveVer
1071
      224
  0
VPORT
  5
57
330
8
100
AcDbSymbolTableRecord
100
AcDbViewportTableRecord
  2
*Active
 70
     0
 10
0.0
 20
0.0
 11
1.0
 21
1.0
 12
139.5294010865798
 22
29.48954763469144
 13
0.0
 23
0.0
 14
1.0
 24
1.0
 15
0.0
 25
0.0
 16
-0.000000000000032
 26
0.0
 36
129.5642271430423
 17
16.60359600186348
 27
7.799941092729567
 37
0.0
 40
345.3665189348312
 41
2.02319236016371
 42
50.0
 43
0.0
 44
0.0
 50
0.0
 51
0.0
 71
     0
 72
   100
 73
     1
 74
     1
 75
     0
 76
     0
 77
     0
 78
     0
281
     0
 65
     1
110
0.0
120
0.0
130
0.0
111
1.0
121
0.0
131
0.0
112
0.0
122
1.0
132
0.0
 79
     0
146
0.0
348
2F
 60
     3
 61
     5
292
     1
282
     1
141
0.0
142
0.0
 63
   250
421
  3355443
1001
ACAD_NAV_VCDISPLAY
1070
     3
  0
ENDTAB
  0
TABLE
  2
LTYPE
  5
5
330
0
100
AcDbSymbolTable
 70
     1
  0
LTYPE
  5
5B
330
5
100
AcDbSymbolTableRecord
100
AcDbLinetypeTableRecord
  2
ByBlock
 70
     0
  3

 72
    65
 73
     0
 40
0.0
  0
LTYPE
  5
5C
330
5
100
AcDbSymbolTableRecord
100
AcDbLinetypeTableRecord
  2
ByLayer
 70
     0
  3

 72
    65
 73
     0
 40
0.0
  0
LTYPE
  5
5D
330
5
100
AcDbSymbolTableRecord
100
AcDbLinetypeTableRecord
  2
Continuous
 70
     0
  3
Solid line
 72
    65
 73
     0
 40
0.0
  0
ENDTAB
  0
TABLE
  2
LAYER
  5
2
102
{ACAD_XDICTIONARY
360
B4
102
}
330
0
100
AcDbSymbolTable
 70
     2
  0
LAYER
  5
54
330
2
100
AcDbSymbolTableRecord
100
AcDbLayerTableRecord
  2
0
 70
     0
 62
     7
  6
Continuous
370
    -3
390
F
347
21
348
0
  0
LAYER
  5
7A
330
2
100
AcDbSymbolTableRecord
100
AcDbLayerTableRecord
  2
GanJing-open-layer v1_0
 70
     0
 62
     7
  6
Continuous
370
    -3
390
F
347
21
348
0
1001
NFusion_SketchTransform
1000
1.000000;0.000000;0.000000;0.000000;0.000000;1.000000;0.000000;0.000000;0.000000;0.000000;1.000000;0.000000;0.000000;0.000000;0.000000;1.000000
  0
ENDTAB
  0
TABLE
  2
STYLE
  5
3
330
0
100
AcDbSymbolTable
 70
     2
  0
STYLE
  5
55
330
3
100
AcDbSymbolTableRecord
100
AcDbTextStyleTableRecord
  2
Standard
 70
     0
 40
0.0
 41
1.0
 50
0.0
 71
     0
 42
0.2
  3
txt
  4

  0
STYLE
  5
5A
330
3
100
AcDbSymbolTableRecord
100
AcDbTextStyleTableRecord
  2
Annotative
 70
     0
 40
0.0
 41
1.0
 50
0.0
 71
     0
 42
0.2
  3
txt
  4

1001
AcadAnnotative
1000
AnnotativeData
1002
{
1070
     1
1070
     1
1002
}
  0
ENDTAB
  0
TABLE
  2
VIEW
  5
6
330
0
100
AcDbSymbolTable
 70
     0
  0
ENDTAB
  0
TABLE
  2
UCS
  5
7
330
0
100
AcDbSymbolTable
 70
     0
  0
ENDTAB
  0
TABLE
  2
APPID
  5
9
330
0
100
AcDbSymbolTable
 70
     9
  0
APPID
  5
56
330
9
100
AcDbSymbolTableRecord
100
AcDbRegAppTableRecord
  2
ACAD
 70
     0
  0
APPID
  5
5E
330
9
100
AcDbSymbolTableRecord
100
AcDbRegAppTableRecord
  2
AcadAnnotative
 70
     0
  0
APPID
  5
78
330
9
100
AcDbSymbolTableRecord
100
AcDbRegAppTableRecord
  2
EDIT_IN_FUSION_ACAD_ADDIN
 70
     0
  0
APPID
  5
79
330
9
100
AcDbSymbolTableRecord
100
AcDbRegAppTableRecord
  2
NFusion_SketchTransform
 70
     0
  0
APPID
  5
BA
330
9
100
AcDbSymbolTableRecord
100
AcDbRegAppTableRecord
  2
ACAD_NAV_VCDISPLAY
 70
     0
  0
APPID
  5
C0
330
9
100
AcDbSymbolTableRecord
100
AcDbRegAppTableRecord
  2
ACAD_PSEXT
 70
     0
  0
APPID
  5
D0
330
9
100
AcDbSymbolTableRecord
100
AcDbRegAppTableRecord
  2
ACAD_EXEMPT_FROM_CAD_STANDARDS
 70
     0
  0
APPID
  5
360
330
9
100
AcDbSymbolTableRecord
100
AcDbRegAppTableRecord
  2
ACAD_DSTYLE_DIMJAG
 70
     0
  0
APPID
  5
361
330
9
100
AcDbSymbolTableRecord
100
AcDbRegAppTableRecord
  2
ACAD_DSTYLE_DIMTALN
 70
     0
  0
ENDTAB
  0
TABLE
  2
DIMSTYLE
  5
A
330
0
100
AcDbSymbolTable
 70
     3
100
AcDbDimStyleTable
 71
     1
340
58
  0
DIMSTYLE
105
58
330
A
100
AcDbSymbolTableRecord
100
AcDbDimStyleTableRecord
  2
Standard
 70
     0
340
55
  0
DIMSTYLE
105
59
330
A
100
AcDbSymbolTableRecord
100
AcDbDimStyleTableRecord
  2
Annotative
 70
     0
340
55
1001
AcadAnnotative
1000
AnnotativeData
1002
{
1070
     1
1070
     1
1002
}
  0
DIMSTYLE
105
35F
330
A
100
AcDbSymbolTableRecord
100
AcDbDimStyleTableRecord
  2
ISO-25
 70
     0
 41
2.5
 42
0.625
 43
3.75
 44
1.25
 73
     0
 74
     0
 77
     1
 78
     8
140
2.5
141
2.5
143
0.03937007874016
147
0.625
171
     3
172
     1
271
     2
272
     2
274
     3
278
    44
283
     0
284
     8
340
55
  0
ENDTAB
  0
TABLE
  2
BLOCK_RECORD
  5
1
330
0
100
AcDbSymbolTable
 70
     5
  0
BLOCK_RECORD
  5
70
330
1
100
AcDbSymbolTableRecord
100
AcDbBlockTableRecord
  2
*Model_Space
340
73
 70
     0
280
     1
281
     0
  0
BLOCK_RECORD
  5
6C
330
1
100
AcDbSymbolTableRecord
100
AcDbBlockTableRecord
  2
*Paper_Space
340
6F
 70
     0
280
     1
281
     0
  0
BLOCK_RECORD
  5
74
330
1
100
AcDbSymbolTableRecord
100
AcDbBlockTableRecord
  2
*Paper_Space0
340
77
 70
     0
280
     1
281
     0
  0
BLOCK_RECORD
  5
FA
102
{ACAD_XDICTIONARY
360
FB
102
}
330
1
100
AcDbSymbolTableRecord
100
AcDbBlockTableRecord
  2
discipline-plate-base
340
0
102
{BLKREFS
331
365
102
}
 70
     4
280
     1
281
     0
  0
BLOCK_RECORD
  5
364
102
{ACAD_XDICTIONARY
360
366
102
}
330
1
100
AcDbSymbolTableRecord
100
AcDbBlockTableRecord
  2
A$C7790b3b6
340
0
 70
     4
280
     1
281
     0
  0
ENDTAB
  0
ENDSEC
  0
SECTION
  2
BLOCKS
  0
BLOCK
  5
71
330
70
100
AcDbEntity
  8
0
100
AcDbBlockBegin
  2
*Model_Space
 70
     0
 10
0.0
 20
0.0
 30
0.0
  3
*Model_Space
  1

  0
ENDBLK
  5
72
330
70
100
AcDbEntity
  8
0
100
AcDbBlockEnd
  0
BLOCK
  5
6D
330
6C
100
AcDbEntity
 67
     1
  8
0
100
AcDbBlockBegin
  2
*Paper_Space
 70
     0
 10
0.0
 20
0.0
 30
0.0
  3
*Paper_Space
  1

  0
ENDBLK
  5
6E
330
6C
100
AcDbEntity
 67
     1
  8
0
100
AcDbBlockEnd
  0
BLOCK
  5
75
330
74
100
AcDbEntity
 67
     1
  8
0
100
AcDbBlockBegin
  2
*Paper_Space0
 70
     0
 10
0.0
 20
0.0
 30
0.0
  3
*Paper_Space0
  1

  0
ENDBLK
  5
76
330
74
100
AcDbEntity
 67
     1
  8
0
100
AcDbBlockEnd
  0
BLOCK
  5
FD
330
FA
100
AcDbEntity
  8
0
100
AcDbBlockBegin
  2
discipline-plate-base
 70
     0
 10
0.0
 20
0.0
 30
0.0
  3
discipline-plate-base
  1

  0
LINE
  5
FE
330
FA
100
AcDbEntity
  8
0
100
AcDbLine
 10
3.274999999999999
 20
-2.524999999999999
 30
0.0
 11
15.775
 21
-2.524999999999999
 31
0.0
  0
LINE
  5
FF
330
FA
100
AcDbEntity
  8
0
100
AcDbLine
 10
3.274999999999999
 20
-16.525
 30
0.0
 11
15.775
 21
-16.525
 31
0.0
  0
LINE
  5
100
330
FA
100
AcDbEntity
  8
0
100
AcDbLine
 10
2.524999999999999
 20
-3.274999999999999
 30
0.0
 11
2.524999999999999
 21
-15.775
 31
0.0
  0
LINE
  5
101
330
FA
100
AcDbEntity
  8
0
100
AcDbLine
 10
16.525
 20
-3.274999999999999
 30
0.0
 11
16.525
 21
-15.775
 31
0.0
  0
ARC
  5
102
330
FA
100
AcDbEntity
  8
0
100
AcDbCircle
 10
3.274999999999999
 20
-3.274999999999999
 30
0.0
 40
0.75
100
AcDbArc
 50
90.0
 51
180.0
  0
ARC
  5
103
330
FA
100
AcDbEntity
  8
0
100
AcDbCircle
 10
15.775
 20
-3.274999999999999
 30
0.0
 40
0.75
100
AcDbArc
 50
0.0
 51
90.0
  0
ARC
  5
104
330
FA
100
AcDbEntity
  8
0
100
AcDbCircle
 10
3.274999999999999
 20
-15.775
 30
0.0
 40
0.75
100
AcDbArc
 50
180.0
 51
270.0
  0
ARC
  5
105
330
FA
100
AcDbEntity
  8
0
100
AcDbCircle
 10
15.775
 20
-15.775
 30
0.0
 40
0.75
100
AcDbArc
 50
270.0
 51
360.0
  0
LINE
  5
106
330
FA
100
AcDbEntity
  8
0
100
AcDbLine
 10
22.325
 20
-2.524999999999999
 30
0.0
 11
34.825
 21
-2.524999999999999
 31
0.0
  0
LINE
  5
107
330
FA
100
AcDbEntity
  8
0
100
AcDbLine
 10
22.325
 20
-16.525
 30
0.0
 11
34.825
 21
-16.525
 31
0.0
  0
LINE
  5
108
330
FA
100
AcDbEntity
  8
0
100
AcDbLine
 10
21.575
 20
-3.274999999999999
 30
0.0
 11
21.575
 21
-15.775
 31
0.0
  0
LINE
  5
109
330
FA
100
AcDbEntity
  8
0
100
AcDbLine
 10
35.575
 20
-3.274999999999999
 30
0.0
 11
35.575
 21
-15.775
 31
0.0
  0
ARC
  5
10A
330
FA
100
AcDbEntity
  8
0
100
AcDbCircle
 10
22.325
 20
-3.274999999999999
 30
0.0
 40
0.75
100
AcDbArc
 50
90.0
 51
180.0
  0
ARC
  5
10B
330
FA
100
AcDbEntity
  8
0
100
AcDbCircle
 10
34.825
 20
-3.274999999999999
 30
0.0
 40
0.75
100
AcDbArc
 50
0.0
 51
90.0
  0
ARC
  5
10C
330
FA
100
AcDbEntity
  8
0
100
AcDbCircle
 10
22.325
 20
-15.775
 30
0.0
 40
0.75
100
AcDbArc
 50
180.0
 51
270.0
  0
ARC
  5
10D
330
FA
100
AcDbEntity
  8
0
100
AcDbCircle
 10
34.825
 20
-15.775
 30
0.0
 40
0.75
100
AcDbArc
 50
270.0
 51
360.0
  0
LINE
  5
10E
330
FA
100
AcDbEntity
  8
0
100
AcDbLine
 10
41.375
 20
-2.524999999999999
 30
0.0
 11
53.875
 21
-2.524999999999999
 31
0.0
  0
LINE
  5
10F
330
FA
100
AcDbEntity
  8
0
100
AcDbLine
 10
41.375
 20
-16.525
 30
0.0
 11
53.875
 21
-16.525
 31
0.0
  0
LINE
  5
110
330
FA
100
AcDbEntity
  8
0
100
AcDbLine
 10
40.625
 20
-3.274999999999999
 30
0.0
 11
40.625
 21
-15.775
 31
0.0
  0
LINE
  5
111
330
FA
100
AcDbEntity
  8
0
100
AcDbLine
 10
54.625
 20
-3.274999999999999
 30
0.0
 11
54.625
 21
-15.775
 31
0.0
  0
ARC
  5
112
330
FA
100
AcDbEntity
  8
0
100
AcDbCircle
 10
41.375
 20
-3.274999999999999
 30
0.0
 40
0.75
100
AcDbArc
 50
90.0
 51
180.0
  0
ARC
  5
113
330
FA
100
AcDbEntity
  8
0
100
AcDbCircle
 10
53.875
 20
-3.274999999999999
 30
0.0
 40
0.75
100
AcDbArc
 50
0.0
 51
90.0
  0
ARC
  5
114
330
FA
100
AcDbEntity
  8
0
100
AcDbCircle
 10
41.375
 20
-15.775
 30
0.0
 40
0.75
100
AcDbArc
 50
180.0
 51
270.0
  0
ARC
  5
115
330
FA
100
AcDbEntity
  8
0
100
AcDbCircle
 10
53.875
 20
-15.775
 30
0.0
 40
0.75
100
AcDbArc
 50
270.0
 51
360.0
  0
LINE
  5
116
330
FA
100
AcDbEntity
  8
0
100
AcDbLine
 10
60.425
 20
-2.524999999999999
 30
0.0
 11
72.925
 21
-2.524999999999999
 31
0.0
  0
LINE
  5
117
330
FA
100
AcDbEntity
  8
0
100
AcDbLine
 10
60.425
 20
-16.525
 30
0.0
 11
72.925
 21
-16.525
 31
0.0
  0
LINE
  5
118
330
FA
100
AcDbEntity
  8
0
100
AcDbLine
 10
59.675
 20
-3.274999999999999
 30
0.0
 11
59.675
 21
-15.775
 31
0.0
  0
LINE
  5
119
330
FA
100
AcDbEntity
  8
0
100
AcDbLine
 10
73.67499999999998
 20
-3.274999999999999
 30
0.0
 11
73.67499999999998
 21
-15.775
 31
0.0
  0
ARC
  5
11A
330
FA
100
AcDbEntity
  8
0
100
AcDbCircle
 10
60.425
 20
-3.274999999999999
 30
0.0
 40
0.75
100
AcDbArc
 50
90.0
 51
180.0
  0
ARC
  5
11B
330
FA
100
AcDbEntity
  8
0
100
AcDbCircle
 10
72.925
 20
-3.274999999999999
 30
0.0
 40
0.75
100
AcDbArc
 50
0.0
 51
90.0
  0
ARC
  5
11C
330
FA
100
AcDbEntity
  8
0
100
AcDbCircle
 10
60.425
 20
-15.775
 30
0.0
 40
0.75
100
AcDbArc
 50
180.0
 51
270.0
  0
ARC
  5
11D
330
FA
100
AcDbEntity
  8
0
100
AcDbCircle
 10
72.925
 20
-15.775
 30
0.0
 40
0.75
100
AcDbArc
 50
270.0
 51
360.0
  0
LINE
  5
11E
330
FA
100
AcDbEntity
  8
0
100
AcDbLine
 10
79.47499999999998
 20
-2.524999999999999
 30
0.0
 11
91.97499999999999
 21
-2.524999999999999
 31
0.0
  0
LINE
  5
11F
330
FA
100
AcDbEntity
  8
0
100
AcDbLine
 10
79.47499999999998
 20
-16.525
 30
0.0
 11
91.97499999999999
 21
-16.525
 31
0.0
  0
LINE
  5
120
330
FA
100
AcDbEntity
  8
0
100
AcDbLine
 10
78.72499999999998
 20
-3.274999999999999
 30
0.0
 11
78.72499999999998
 21
-15.775
 31
0.0
  0
LINE
  5
121
330
FA
100
AcDbEntity
  8
0
100
AcDbLine
 10
92.72499999999999
 20
-3.274999999999999
 30
0.0
 11
92.72499999999999
 21
-15.775
 31
0.0
  0
ARC
  5
122
330
FA
100
AcDbEntity
  8
0
100
AcDbCircle
 10
79.47499999999998
 20
-3.274999999999999
 30
0.0
 40
0.75
100
AcDbArc
 50
90.0
 51
180.0
  0
ARC
  5
123
330
FA
100
AcDbEntity
  8
0
100
AcDbCircle
 10
91.97499999999999
 20
-3.274999999999999
 30
0.0
 40
0.75
100
AcDbArc
 50
0.0
 51
90.0
  0
ARC
  5
124
330
FA
100
AcDbEntity
  8
0
100
AcDbCircle
 10
79.47499999999998
 20
-15.775
 30
0.0
 40
0.75
100
AcDbArc
 50
180.0
 51
270.0
  0
ARC
  5
125
330
FA
100
AcDbEntity
  8
0
100
AcDbCircle
 10
91.97499999999999
 20
-15.775
 30
0.0
 40
0.75
100
AcDbArc
 50
270.0
 51
360.0
  0
LINE
  5
126
330
FA
100
AcDbEntity
  8
0
100
AcDbLine
 10
98.525
 20
-2.524999999999999
 30
0.0
 11
111.025
 21
-2.524999999999999
 31
0.0
  0
LINE
  5
127
330
FA
100
AcDbEntity
  8
0
100
AcDbLine
 10
98.525
 20
-16.525
 30
0.0
 11
111.025
 21
-16.525
 31
0.0
  0
LINE
  5
128
330
FA
100
AcDbEntity
  8
0
100
AcDbLine
 10
97.77500000000001
 20
-3.274999999999999
 30
0.0
 11
97.77500000000001
 21
-15.775
 31
0.0
  0
LINE
  5
129
330
FA
100
AcDbEntity
  8
0
100
AcDbLine
 10
111.775
 20
-3.274999999999999
 30
0.0
 11
111.775
 21
-15.775
 31
0.0
  0
ARC
  5
12A
330
FA
100
AcDbEntity
  8
0
100
AcDbCircle
 10
98.525
 20
-3.274999999999999
 30
0.0
 40
0.75
100
AcDbArc
 50
90.0
 51
180.0
  0
ARC
  5
12B
330
FA
100
AcDbEntity
  8
0
100
AcDbCircle
 10
111.025
 20
-3.274999999999999
 30
0.0
 40
0.75
100
AcDbArc
 50
0.0
 51
90.0
  0
ARC
  5
12C
330
FA
100
AcDbEntity
  8
0
100
AcDbCircle
 10
98.525
 20
-15.775
 30
0.0
 40
0.75
100
AcDbArc
 50
180.0
 51
270.0
  0
ARC
  5
12D
330
FA
100
AcDbEntity
  8
0
100
AcDbCircle
 10
111.025
 20
-15.775
 30
0.0
 40
0.75
100
AcDbArc
 50
270.0
 51
360.0
  0
LINE
  5
12E
330
FA
100
AcDbEntity
  8
0
100
AcDbLine
 10
117.575
 20
-2.524999999999999
 30
0.0
 11
130.075
 21
-2.524999999999999
 31
0.0
  0
LINE
  5
12F
330
FA
100
AcDbEntity
  8
0
100
AcDbLine
 10
117.575
 20
-16.525
 30
0.0
 11
130.075
 21
-16.525
 31
0.0
  0
LINE
  5
130
330
FA
100
AcDbEntity
  8
0
100
AcDbLine
 10
116.825
 20
-3.274999999999999
 30
0.0
 11
116.825
 21
-15.775
 31
0.0
  0
LINE
  5
131
330
FA
100
AcDbEntity
  8
0
100
AcDbLine
 10
130.825
 20
-3.274999999999999
 30
0.0
 11
130.825
 21
-15.775
 31
0.0
  0
ARC
  5
132
330
FA
100
AcDbEntity
  8
0
100
AcDbCircle
 10
117.575
 20
-3.274999999999999
 30
0.0
 40
0.75
100
AcDbArc
 50
90.0
 51
180.0
  0
ARC
  5
133
330
FA
100
AcDbEntity
  8
0
100
AcDbCircle
 10
130.075
 20
-3.274999999999999
 30
0.0
 40
0.75
100
AcDbArc
 50
0.0
 51
90.0
  0
ARC
  5
134
330
FA
100
AcDbEntity
  8
0
100
AcDbCircle
 10
117.575
 20
-15.775
 30
0.0
 40
0.75
100
AcDbArc
 50
180.0
 51
270.0
  0
ARC
  5
135
330
FA
100
AcDbEntity
  8
0
100
AcDbCircle
 10
130.075
 20
-15.775
 30
0.0
 40
0.75
100
AcDbArc
 50
270.0
 51
360.0
  0
LINE
  5
136
330
FA
100
AcDbEntity
  8
0
100
AcDbLine
 10
136.625
 20
-2.524999999999999
 30
0.0
 11
149.125
 21
-2.524999999999999
 31
0.0
  0
LINE
  5
137
330
FA
100
AcDbEntity
  8
0
100
AcDbLine
 10
136.625
 20
-16.525
 30
0.0
 11
149.125
 21
-16.525
 31
0.0
  0
LINE
  5
138
330
FA
100
AcDbEntity
  8
0
100
AcDbLine
 10
135.875
 20
-3.274999999999999
 30
0.0
 11
135.875
 21
-15.775
 31
0.0
  0
LINE
  5
139
330
FA
100
AcDbEntity
  8
0
100
AcDbLine
 10
149.875
 20
-3.274999999999999
 30
0.0
 11
149.875
 21
-15.775
 31
0.0
  0
ARC
  5
13A
330
FA
100
AcDbEntity
  8
0
100
AcDbCircle
 10
136.625
 20
-3.274999999999999
 30
0.0
 40
0.75
100
AcDbArc
 50
90.0
 51
180.0
  0
ARC
  5
13B
330
FA
100
AcDbEntity
  8
0
100
AcDbCircle
 10
149.125
 20
-3.274999999999999
 30
0.0
 40
0.75
100
AcDbArc
 50
0.0
 51
90.0
  0
ARC
  5
13C
330
FA
100
AcDbEntity
  8
0
100
AcDbCircle
 10
136.625
 20
-15.775
 30
0.0
 40
0.75
100
AcDbArc
 50
180.0
 51
270.0
  0
ARC
  5
13D
330
FA
100
AcDbEntity
  8
0
100
AcDbCircle
 10
149.125
 20
-15.775
 30
0.0
 40
0.75
100
AcDbArc
 50
270.0
 51
360.0
  0
LINE
  5
13E
330
FA
100
AcDbEntity
  8
0
100
AcDbLine
 10
155.675
 20
-2.524999999999999
 30
0.0
 11
168.175
 21
-2.524999999999999
 31
0.0
  0
LINE
  5
13F
330
FA
100
AcDbEntity
  8
0
100
AcDbLine
 10
155.675
 20
-16.525
 30
0.0
 11
168.175
 21
-16.525
 31
0.0
  0
LINE
  5
140
330
FA
100
AcDbEntity
  8
0
100
AcDbLine
 10
154.925
 20
-3.274999999999999
 30
0.0
 11
154.925
 21
-15.775
 31
0.0
  0
LINE
  5
141
330
FA
100
AcDbEntity
  8
0
100
AcDbLine
 10
168.925
 20
-3.274999999999999
 30
0.0
 11
168.925
 21
-15.775
 31
0.0
  0
ARC
  5
142
330
FA
100
AcDbEntity
  8
0
100
AcDbCircle
 10
155.675
 20
-3.274999999999999
 30
0.0
 40
0.75
100
AcDbArc
 50
90.0
 51
180.0
  0
ARC
  5
143
330
FA
100
AcDbEntity
  8
0
100
AcDbCircle
 10
168.175
 20
-3.274999999999999
 30
0.0
 40
0.75
100
AcDbArc
 50
0.0
 51
90.0
  0
ARC
  5
144
330
FA
100
AcDbEntity
  8
0
100
AcDbCircle
 10
155.675
 20
-15.775
 30
0.0
 40
0.75
100
AcDbArc
 50
180.0
 51
270.0
  0
ARC
  5
145
330
FA
100
AcDbEntity
  8
0
100
AcDbCircle
 10
168.175
 20
-15.775
 30
0.0
 40
0.75
100
AcDbArc
 50
270.0
 51
360.0
  0
LINE
  5
146
330
FA
100
AcDbEntity
  8
0
100
AcDbLine
 10
174.725
 20
-2.524999999999999
 30
0.0
 11
187.225
 21
-2.524999999999999
 31
0.0
  0
LINE
  5
147
330
FA
100
AcDbEntity
  8
0
100
AcDbLine
 10
174.725
 20
-16.525
 30
0.0
 11
187.225
 21
-16.525
 31
0.0
  0
LINE
  5
148
330
FA
100
AcDbEntity
  8
0
100
AcDbLine
 10
173.975
 20
-3.274999999999999
 30
0.0
 11
173.975
 21
-15.775
 31
0.0
  0
LINE
  5
149
330
FA
100
AcDbEntity
  8
0
100
AcDbLine
 10
187.975
 20
-3.274999999999999
 30
0.0
 11
187.975
 21
-15.775
 31
0.0
  0
ARC
  5
14A
330
FA
100
AcDbEntity
  8
0
100
AcDbCircle
 10
174.725
 20
-3.274999999999999
 30
0.0
 40
0.75
100
AcDbArc
 50
90.0
 51
180.0
  0
ARC
  5
14B
330
FA
100
AcDbEntity
  8
0
100
AcDbCircle
 10
187.225
 20
-3.274999999999999
 30
0.0
 40
0.75
100
AcDbArc
 50
0.0
 51
90.0
  0
ARC
  5
14C
330
FA
100
AcDbEntity
  8
0
100
AcDbCircle
 10
174.725
 20
-15.775
 30
0.0
 40
0.75
100
AcDbArc
 50
180.0
 51
270.0
  0
ARC
  5
14D
330
FA
100
AcDbEntity
  8
0
100
AcDbCircle
 10
187.225
 20
-15.775
 30
0.0
 40
0.75
100
AcDbArc
 50
270.0
 51
360.0
  0
LINE
  5
14E
330
FA
100
AcDbEntity
  8
0
100
AcDbLine
 10
193.775
 20
-2.524999999999999
 30
0.0
 11
206.275
 21
-2.524999999999999
 31
0.0
  0
LINE
  5
14F
330
FA
100
AcDbEntity
  8
0
100
AcDbLine
 10
193.775
 20
-16.525
 30
0.0
 11
206.275
 21
-16.525
 31
0.0
  0
LINE
  5
150
330
FA
100
AcDbEntity
  8
0
100
AcDbLine
 10
193.025
 20
-3.274999999999999
 30
0.0
 11
193.025
 21
-15.775
 31
0.0
  0
LINE
  5
151
330
FA
100
AcDbEntity
  8
0
100
AcDbLine
 10
207.025
 20
-3.274999999999999
 30
0.0
 11
207.025
 21
-15.775
 31
0.0
  0
ARC
  5
152
330
FA
100
AcDbEntity
  8
0
100
AcDbCircle
 10
193.775
 20
-3.274999999999999
 30
0.0
 40
0.75
100
AcDbArc
 50
90.0
 51
180.0
  0
ARC
  5
153
330
FA
100
AcDbEntity
  8
0
100
AcDbCircle
 10
206.275
 20
-3.274999999999999
 30
0.0
 40
0.75
100
AcDbArc
 50
0.0
 51
90.0
  0
ARC
  5
154
330
FA
100
AcDbEntity
  8
0
100
AcDbCircle
 10
193.775
 20
-15.775
 30
0.0
 40
0.75
100
AcDbArc
 50
180.0
 51
270.0
  0
ARC
  5
155
330
FA
100
AcDbEntity
  8
0
100
AcDbCircle
 10
206.275
 20
-15.775
 30
0.0
 40
0.75
100
AcDbArc
 50
270.0
 51
360.0
  0
LINE
  5
156
330
FA
100
AcDbEntity
  8
0
100
AcDbLine
 10
212.825
 20
-2.524999999999999
 30
0.0
 11
225.325
 21
-2.524999999999999
 31
0.0
  0
LINE
  5
157
330
FA
100
AcDbEntity
  8
0
100
AcDbLine
 10
212.825
 20
-16.525
 30
0.0
 11
225.325
 21
-16.525
 31
0.0
  0
LINE
  5
158
330
FA
100
AcDbEntity
  8
0
100
AcDbLine
 10
212.075
 20
-3.274999999999999
 30
0.0
 11
212.075
 21
-15.775
 31
0.0
  0
LINE
  5
159
330
FA
100
AcDbEntity
  8
0
100
AcDbLine
 10
226.075
 20
-3.274999999999999
 30
0.0
 11
226.075
 21
-15.775
 31
0.0
  0
ARC
  5
15A
330
FA
100
AcDbEntity
  8
0
100
AcDbCircle
 10
212.825
 20
-3.274999999999999
 30
0.0
 40
0.75
100
AcDbArc
 50
90.0
 51
180.0
  0
ARC
  5
15B
330
FA
100
AcDbEntity
  8
0
100
AcDbCircle
 10
225.325
 20
-3.274999999999999
 30
0.0
 40
0.75
100
AcDbArc
 50
0.0
 51
90.0
  0
ARC
  5
15C
330
FA
100
AcDbEntity
  8
0
100
AcDbCircle
 10
212.825
 20
-15.775
 30
0.0
 40
0.75
100
AcDbArc
 50
180.0
 51
270.0
  0
ARC
  5
15D
330
FA
100
AcDbEntity
  8
0
100
AcDbCircle
 10
225.325
 20
-15.775
 30
0.0
 40
0.75
100
AcDbArc
 50
270.0
 51
360.0
  0
LINE
  5
15E
330
FA
100
AcDbEntity
  8
0
100
AcDbLine
 10
231.875
 20
-2.524999999999999
 30
0.0
 11
244.375
 21
-2.524999999999999
 31
0.0
  0
LINE
  5
15F
330
FA
100
AcDbEntity
  8
0
100
AcDbLine
 10
231.875
 20
-16.525
 30
0.0
 11
244.375
 21
-16.525
 31
0.0
  0
LINE
  5
160
330
FA
100
AcDbEntity
  8
0
100
AcDbLine
 10
231.125
 20
-3.274999999999999
 30
0.0
 11
231.125
 21
-15.775
 31
0.0
  0
LINE
  5
161
330
FA
100
AcDbEntity
  8
0
100
AcDbLine
 10
245.125
 20
-3.274999999999999
 30
0.0
 11
245.125
 21
-15.775
 31
0.0
  0
ARC
  5
162
330
FA
100
AcDbEntity
  8
0
100
AcDbCircle
 10
231.875
 20
-3.274999999999999
 30
0.0
 40
0.75
100
AcDbArc
 50
90.0
 51
180.0
  0
ARC
  5
163
330
FA
100
AcDbEntity
  8
0
100
AcDbCircle
 10
244.375
 20
-3.274999999999999
 30
0.0
 40
0.75
100
AcDbArc
 50
0.0
 51
90.0
  0
ARC
  5
164
330
FA
100
AcDbEntity
  8
0
100
AcDbCircle
 10
231.875
 20
-15.775
 30
0.0
 40
0.75
100
AcDbArc
 50
180.0
 51
270.0
  0
ARC
  5
165
330
FA
100
AcDbEntity
  8
0
100
AcDbCircle
 10
244.375
 20
-15.775
 30
0.0
 40
0.75
100
AcDbArc
 50
270.0
 51
360.0
  0
LINE
  5
166
330
FA
100
AcDbEntity
  8
0
100
AcDbLine
 10
260.45
 20
-2.524999999999999
 30
0.0
 11
272.95
 21
-2.524999999999999
 31
0.0
  0
ARC
  5
167
330
FA
100
AcDbEntity
  8
0
100
AcDbCircle
 10
260.45
 20
-3.274999999999999
 30
0.0
 40
0.75
100
AcDbArc
 50
90.0
 51
154.6230664748475
  0
ARC
  5
168
330
FA
100
AcDbEntity
  8
0
100
AcDbCircle
 10
272.95
 20
-3.274999999999999
 30
0.0
 40
0.75
100
AcDbArc
 50
25.37693352515252
 51
90.0
  0
LINE
  5
169
330
FA
100
AcDbEntity
  8
0
100
AcDbLine
 10
275.888
 20
-18.525
 30
0.0
 11
281.388
 21
-18.525
 31
0.0
  0
LINE
  5
16A
330
FA
100
AcDbEntity
  8
0
100
AcDbLine
 10
282.138
 20
-4.275
 30
0.0
 11
282.138
 21
-17.775
 31
0.0
  0
ARC
  5
16B
330
FA
100
AcDbEntity
  8
0
100
AcDbCircle
 10
281.388
 20
-4.275
 30
0.0
 40
0.75
100
AcDbArc
 50
0.0
 51
90.0
  0
ARC
  5
16C
330
FA
100
AcDbEntity
  8
0
100
AcDbCircle
 10
275.888
 20
-17.775
 30
0.0
 40
0.75
100
AcDbArc
 50
180.0
 51
270.0
  0
ARC
  5
16D
330
FA
100
AcDbEntity
  8
0
100
AcDbCircle
 10
281.388
 20
-17.775
 30
0.0
 40
0.75
100
AcDbArc
 50
270.0
 51
360.0
  0
LINE
  5
16E
330
FA
100
AcDbEntity
  8
0
100
AcDbLine
 10
252.012
 20
-18.525
 30
0.0
 11
257.512
 21
-18.525
 31
0.0
  0
LINE
  5
16F
330
FA
100
AcDbEntity
  8
0
100
AcDbLine
 10
251.262
 20
-4.275
 30
0.0
 11
251.262
 21
-17.775
 31
0.0
  0
ARC
  5
170
330
FA
100
AcDbEntity
  8
0
100
AcDbCircle
 10
252.012
 20
-4.275
 30
0.0
 40
0.75
100
AcDbArc
 50
90.0
 51
180.0
  0
ARC
  5
171
330
FA
100
AcDbEntity
  8
0
100
AcDbCircle
 10
252.012
 20
-17.775
 30
0.0
 40
0.75
100
AcDbArc
 50
180.0
 51
270.0
  0
ARC
  5
172
330
FA
100
AcDbEntity
  8
0
100
AcDbCircle
 10
257.512
 20
-17.775
 30
0.0
 40
0.75
100
AcDbArc
 50
270.0
 51
360.0
  0
LINE
  5
173
330
FA
100
AcDbEntity
  8
0
100
AcDbLine
 10
289.025
 20
-2.524999999999999
 30
0.0
 11
301.525
 21
-2.524999999999999
 31
0.0
  0
LINE
  5
174
330
FA
100
AcDbEntity
  8
0
100
AcDbLine
 10
289.025
 20
-16.525
 30
0.0
 11
301.525
 21
-16.525
 31
0.0
  0
LINE
  5
175
330
FA
100
AcDbEntity
  8
0
100
AcDbLine
 10
288.275
 20
-3.274999999999999
 30
0.0
 11
288.275
 21
-15.775
 31
0.0
  0
LINE
  5
176
330
FA
100
AcDbEntity
  8
0
100
AcDbLine
 10
302.275
 20
-3.274999999999999
 30
0.0
 11
302.275
 21
-15.775
 31
0.0
  0
ARC
  5
177
330
FA
100
AcDbEntity
  8
0
100
AcDbCircle
 10
289.025
 20
-3.274999999999999
 30
0.0
 40
0.75
100
AcDbArc
 50
90.0
 51
180.0
  0
ARC
  5
178
330
FA
100
AcDbEntity
  8
0
100
AcDbCircle
 10
301.525
 20
-3.274999999999999
 30
0.0
 40
0.75
100
AcDbArc
 50
0.0
 51
90.0
  0
ARC
  5
179
330
FA
100
AcDbEntity
  8
0
100
AcDbCircle
 10
289.025
 20
-15.775
 30
0.0
 40
0.75
100
AcDbArc
 50
180.0
 51
270.0
  0
ARC
  5
17A
330
FA
100
AcDbEntity
  8
0
100
AcDbCircle
 10
301.525
 20
-15.775
 30
0.0
 40
0.75
100
AcDbArc
 50
270.0
 51
360.0
  0
LINE
  5
17B
330
FA
100
AcDbEntity
  8
0
100
AcDbLine
 10
8.037499999999999
 20
-21.575
 30
0.0
 11
20.5375
 21
-21.575
 31
0.0
  0
LINE
  5
17C
330
FA
100
AcDbEntity
  8
0
100
AcDbLine
 10
8.037499999999999
 20
-35.575
 30
0.0
 11
20.5375
 21
-35.575
 31
0.0
  0
LINE
  5
17D
330
FA
100
AcDbEntity
  8
0
100
AcDbLine
 10
7.287499999999997
 20
-22.325
 30
0.0
 11
7.287499999999997
 21
-34.825
 31
0.0
  0
LINE
  5
17E
330
FA
100
AcDbEntity
  8
0
100
AcDbLine
 10
21.2875
 20
-22.325
 30
0.0
 11
21.2875
 21
-34.825
 31
0.0
  0
ARC
  5
17F
330
FA
100
AcDbEntity
  8
0
100
AcDbCircle
 10
8.037499999999999
 20
-22.325
 30
0.0
 40
0.75
100
AcDbArc
 50
90.0
 51
180.0
  0
ARC
  5
180
330
FA
100
AcDbEntity
  8
0
100
AcDbCircle
 10
20.5375
 20
-22.325
 30
0.0
 40
0.75
100
AcDbArc
 50
0.0
 51
90.0
  0
ARC
  5
181
330
FA
100
AcDbEntity
  8
0
100
AcDbCircle
 10
8.037499999999999
 20
-34.825
 30
0.0
 40
0.75
100
AcDbArc
 50
180.0
 51
270.0
  0
ARC
  5
182
330
FA
100
AcDbEntity
  8
0
100
AcDbCircle
 10
20.5375
 20
-34.825
 30
0.0
 40
0.75
100
AcDbArc
 50
270.0
 51
360.0
  0
LINE
  5
183
330
FA
100
AcDbEntity
  8
0
100
AcDbLine
 10
31.85
 20
-21.575
 30
0.0
 11
44.35
 21
-21.575
 31
0.0
  0
LINE
  5
184
330
FA
100
AcDbEntity
  8
0
100
AcDbLine
 10
31.85
 20
-35.575
 30
0.0
 11
44.35
 21
-35.575
 31
0.0
  0
LINE
  5
185
330
FA
100
AcDbEntity
  8
0
100
AcDbLine
 10
31.1
 20
-22.325
 30
0.0
 11
31.1
 21
-34.825
 31
0.0
  0
LINE
  5
186
330
FA
100
AcDbEntity
  8
0
100
AcDbLine
 10
45.1
 20
-22.325
 30
0.0
 11
45.1
 21
-34.825
 31
0.0
  0
ARC
  5
187
330
FA
100
AcDbEntity
  8
0
100
AcDbCircle
 10
31.85
 20
-22.325
 30
0.0
 40
0.75
100
AcDbArc
 50
90.0
 51
180.0
  0
ARC
  5
188
330
FA
100
AcDbEntity
  8
0
100
AcDbCircle
 10
44.35
 20
-22.325
 30
0.0
 40
0.75
100
AcDbArc
 50
0.0
 51
90.0
  0
ARC
  5
189
330
FA
100
AcDbEntity
  8
0
100
AcDbCircle
 10
31.85
 20
-34.825
 30
0.0
 40
0.75
100
AcDbArc
 50
180.0
 51
270.0
  0
ARC
  5
18A
330
FA
100
AcDbEntity
  8
0
100
AcDbCircle
 10
44.35
 20
-34.825
 30
0.0
 40
0.75
100
AcDbArc
 50
270.0
 51
360.0
  0
LINE
  5
18B
330
FA
100
AcDbEntity
  8
0
100
AcDbLine
 10
50.89999999999999
 20
-21.575
 30
0.0
 11
63.39999999999999
 21
-21.575
 31
0.0
  0
LINE
  5
18C
330
FA
100
AcDbEntity
  8
0
100
AcDbLine
 10
50.89999999999999
 20
-35.575
 30
0.0
 11
63.39999999999999
 21
-35.575
 31
0.0
  0
LINE
  5
18D
330
FA
100
AcDbEntity
  8
0
100
AcDbLine
 10
50.15
 20
-22.325
 30
0.0
 11
50.15
 21
-34.825
 31
0.0
  0
LINE
  5
18E
330
FA
100
AcDbEntity
  8
0
100
AcDbLine
 10
64.15
 20
-22.325
 30
0.0
 11
64.15
 21
-34.825
 31
0.0
  0
ARC
  5
18F
330
FA
100
AcDbEntity
  8
0
100
AcDbCircle
 10
50.89999999999999
 20
-22.325
 30
0.0
 40
0.75
100
AcDbArc
 50
90.0
 51
180.0
  0
ARC
  5
190
330
FA
100
AcDbEntity
  8
0
100
AcDbCircle
 10
63.39999999999999
 20
-22.325
 30
0.0
 40
0.75
100
AcDbArc
 50
0.0
 51
90.0
  0
ARC
  5
191
330
FA
100
AcDbEntity
  8
0
100
AcDbCircle
 10
50.89999999999999
 20
-34.825
 30
0.0
 40
0.75
100
AcDbArc
 50
180.0
 51
270.0
  0
ARC
  5
192
330
FA
100
AcDbEntity
  8
0
100
AcDbCircle
 10
63.39999999999999
 20
-34.825
 30
0.0
 40
0.75
100
AcDbArc
 50
270.0
 51
360.0
  0
LINE
  5
193
330
FA
100
AcDbEntity
  8
0
100
AcDbLine
 10
69.95
 20
-21.575
 30
0.0
 11
82.45
 21
-21.575
 31
0.0
  0
LINE
  5
194
330
FA
100
AcDbEntity
  8
0
100
AcDbLine
 10
69.95
 20
-35.575
 30
0.0
 11
82.45
 21
-35.575
 31
0.0
  0
LINE
  5
195
330
FA
100
AcDbEntity
  8
0
100
AcDbLine
 10
69.2
 20
-22.325
 30
0.0
 11
69.2
 21
-34.825
 31
0.0
  0
LINE
  5
196
330
FA
100
AcDbEntity
  8
0
100
AcDbLine
 10
83.2
 20
-22.325
 30
0.0
 11
83.2
 21
-34.825
 31
0.0
  0
ARC
  5
197
330
FA
100
AcDbEntity
  8
0
100
AcDbCircle
 10
69.95
 20
-22.325
 30
0.0
 40
0.75
100
AcDbArc
 50
90.0
 51
180.0
  0
ARC
  5
198
330
FA
100
AcDbEntity
  8
0
100
AcDbCircle
 10
82.45
 20
-22.325
 30
0.0
 40
0.75
100
AcDbArc
 50
0.0
 51
90.0
  0
ARC
  5
199
330
FA
100
AcDbEntity
  8
0
100
AcDbCircle
 10
69.95
 20
-34.825
 30
0.0
 40
0.75
100
AcDbArc
 50
180.0
 51
270.0
  0
ARC
  5
19A
330
FA
100
AcDbEntity
  8
0
100
AcDbCircle
 10
82.45
 20
-34.825
 30
0.0
 40
0.75
100
AcDbArc
 50
270.0
 51
360.0
  0
LINE
  5
19B
330
FA
100
AcDbEntity
  8
0
100
AcDbLine
 10
89.0
 20
-21.575
 30
0.0
 11
101.5
 21
-21.575
 31
0.0
  0
LINE
  5
19C
330
FA
100
AcDbEntity
  8
0
100
AcDbLine
 10
89.0
 20
-35.575
 30
0.0
 11
101.5
 21
-35.575
 31
0.0
  0
LINE
  5
19D
330
FA
100
AcDbEntity
  8
0
100
AcDbLine
 10
88.25000000000001
 20
-22.325
 30
0.0
 11
88.25000000000001
 21
-34.825
 31
0.0
  0
LINE
  5
19E
330
FA
100
AcDbEntity
  8
0
100
AcDbLine
 10
102.25
 20
-22.325
 30
0.0
 11
102.25
 21
-34.825
 31
0.0
  0
ARC
  5
19F
330
FA
100
AcDbEntity
  8
0
100
AcDbCircle
 10
89.0
 20
-22.325
 30
0.0
 40
0.75
100
AcDbArc
 50
90.0
 51
180.0
  0
ARC
  5
1A0
330
FA
100
AcDbEntity
  8
0
100
AcDbCircle
 10
101.5
 20
-22.325
 30
0.0
 40
0.75
100
AcDbArc
 50
0.0
 51
90.0
  0
ARC
  5
1A1
330
FA
100
AcDbEntity
  8
0
100
AcDbCircle
 10
89.0
 20
-34.825
 30
0.0
 40
0.75
100
AcDbArc
 50
180.0
 51
270.0
  0
ARC
  5
1A2
330
FA
100
AcDbEntity
  8
0
100
AcDbCircle
 10
101.5
 20
-34.825
 30
0.0
 40
0.75
100
AcDbArc
 50
270.0
 51
360.0
  0
LINE
  5
1A3
330
FA
100
AcDbEntity
  8
0
100
AcDbLine
 10
108.05
 20
-21.575
 30
0.0
 11
120.55
 21
-21.575
 31
0.0
  0
LINE
  5
1A4
330
FA
100
AcDbEntity
  8
0
100
AcDbLine
 10
108.05
 20
-35.575
 30
0.0
 11
120.55
 21
-35.575
 31
0.0
  0
LINE
  5
1A5
330
FA
100
AcDbEntity
  8
0
100
AcDbLine
 10
107.3
 20
-22.325
 30
0.0
 11
107.3
 21
-34.825
 31
0.0
  0
LINE
  5
1A6
330
FA
100
AcDbEntity
  8
0
100
AcDbLine
 10
121.3
 20
-22.325
 30
0.0
 11
121.3
 21
-34.825
 31
0.0
  0
ARC
  5
1A7
330
FA
100
AcDbEntity
  8
0
100
AcDbCircle
 10
108.05
 20
-22.325
 30
0.0
 40
0.75
100
AcDbArc
 50
90.0
 51
180.0
  0
ARC
  5
1A8
330
FA
100
AcDbEntity
  8
0
100
AcDbCircle
 10
120.55
 20
-22.325
 30
0.0
 40
0.75
100
AcDbArc
 50
0.0
 51
90.0
  0
ARC
  5
1A9
330
FA
100
AcDbEntity
  8
0
100
AcDbCircle
 10
108.05
 20
-34.825
 30
0.0
 40
0.75
100
AcDbArc
 50
180.0
 51
270.0
  0
ARC
  5
1AA
330
FA
100
AcDbEntity
  8
0
100
AcDbCircle
 10
120.55
 20
-34.825
 30
0.0
 40
0.75
100
AcDbArc
 50
270.0
 51
360.0
  0
LINE
  5
1AB
330
FA
100
AcDbEntity
  8
0
100
AcDbLine
 10
127.1
 20
-21.575
 30
0.0
 11
139.6
 21
-21.575
 31
0.0
  0
LINE
  5
1AC
330
FA
100
AcDbEntity
  8
0
100
AcDbLine
 10
127.1
 20
-35.575
 30
0.0
 11
139.6
 21
-35.575
 31
0.0
  0
LINE
  5
1AD
330
FA
100
AcDbEntity
  8
0
100
AcDbLine
 10
126.35
 20
-22.325
 30
0.0
 11
126.35
 21
-34.825
 31
0.0
  0
LINE
  5
1AE
330
FA
100
AcDbEntity
  8
0
100
AcDbLine
 10
140.35
 20
-22.325
 30
0.0
 11
140.35
 21
-34.825
 31
0.0
  0
ARC
  5
1AF
330
FA
100
AcDbEntity
  8
0
100
AcDbCircle
 10
127.1
 20
-22.325
 30
0.0
 40
0.75
100
AcDbArc
 50
90.0
 51
180.0
  0
ARC
  5
1B0
330
FA
100
AcDbEntity
  8
0
100
AcDbCircle
 10
139.6
 20
-22.325
 30
0.0
 40
0.75
100
AcDbArc
 50
0.0
 51
90.0
  0
ARC
  5
1B1
330
FA
100
AcDbEntity
  8
0
100
AcDbCircle
 10
127.1
 20
-34.825
 30
0.0
 40
0.75
100
AcDbArc
 50
180.0
 51
270.0
  0
ARC
  5
1B2
330
FA
100
AcDbEntity
  8
0
100
AcDbCircle
 10
139.6
 20
-34.825
 30
0.0
 40
0.75
100
AcDbArc
 50
270.0
 51
360.0
  0
LINE
  5
1B3
330
FA
100
AcDbEntity
  8
0
100
AcDbLine
 10
146.15
 20
-21.575
 30
0.0
 11
158.65
 21
-21.575
 31
0.0
  0
LINE
  5
1B4
330
FA
100
AcDbEntity
  8
0
100
AcDbLine
 10
146.15
 20
-35.575
 30
0.0
 11
158.65
 21
-35.575
 31
0.0
  0
LINE
  5
1B5
330
FA
100
AcDbEntity
  8
0
100
AcDbLine
 10
145.4
 20
-22.325
 30
0.0
 11
145.4
 21
-34.825
 31
0.0
  0
LINE
  5
1B6
330
FA
100
AcDbEntity
  8
0
100
AcDbLine
 10
159.4
 20
-22.325
 30
0.0
 11
159.4
 21
-34.825
 31
0.0
  0
ARC
  5
1B7
330
FA
100
AcDbEntity
  8
0
100
AcDbCircle
 10
146.15
 20
-22.325
 30
0.0
 40
0.75
100
AcDbArc
 50
90.0
 51
180.0
  0
ARC
  5
1B8
330
FA
100
AcDbEntity
  8
0
100
AcDbCircle
 10
158.65
 20
-22.325
 30
0.0
 40
0.75
100
AcDbArc
 50
0.0
 51
90.0
  0
ARC
  5
1B9
330
FA
100
AcDbEntity
  8
0
100
AcDbCircle
 10
146.15
 20
-34.825
 30
0.0
 40
0.75
100
AcDbArc
 50
180.0
 51
270.0
  0
ARC
  5
1BA
330
FA
100
AcDbEntity
  8
0
100
AcDbCircle
 10
158.65
 20
-34.825
 30
0.0
 40
0.75
100
AcDbArc
 50
270.0
 51
360.0
  0
LINE
  5
1BB
330
FA
100
AcDbEntity
  8
0
100
AcDbLine
 10
165.2
 20
-21.575
 30
0.0
 11
177.7
 21
-21.575
 31
0.0
  0
LINE
  5
1BC
330
FA
100
AcDbEntity
  8
0
100
AcDbLine
 10
165.2
 20
-35.575
 30
0.0
 11
177.7
 21
-35.575
 31
0.0
  0
LINE
  5
1BD
330
FA
100
AcDbEntity
  8
0
100
AcDbLine
 10
164.45
 20
-22.325
 30
0.0
 11
164.45
 21
-34.825
 31
0.0
  0
LINE
  5
1BE
330
FA
100
AcDbEntity
  8
0
100
AcDbLine
 10
178.45
 20
-22.325
 30
0.0
 11
178.45
 21
-34.825
 31
0.0
  0
ARC
  5
1BF
330
FA
100
AcDbEntity
  8
0
100
AcDbCircle
 10
165.2
 20
-22.325
 30
0.0
 40
0.75
100
AcDbArc
 50
90.0
 51
180.0
  0
ARC
  5
1C0
330
FA
100
AcDbEntity
  8
0
100
AcDbCircle
 10
177.7
 20
-22.325
 30
0.0
 40
0.75
100
AcDbArc
 50
0.0
 51
90.0
  0
ARC
  5
1C1
330
FA
100
AcDbEntity
  8
0
100
AcDbCircle
 10
165.2
 20
-34.825
 30
0.0
 40
0.75
100
AcDbArc
 50
180.0
 51
270.0
  0
ARC
  5
1C2
330
FA
100
AcDbEntity
  8
0
100
AcDbCircle
 10
177.7
 20
-34.825
 30
0.0
 40
0.75
100
AcDbArc
 50
270.0
 51
360.0
  0
LINE
  5
1C3
330
FA
100
AcDbEntity
  8
0
100
AcDbLine
 10
184.25
 20
-21.575
 30
0.0
 11
196.75
 21
-21.575
 31
0.0
  0
LINE
  5
1C4
330
FA
100
AcDbEntity
  8
0
100
AcDbLine
 10
184.25
 20
-35.575
 30
0.0
 11
196.75
 21
-35.575
 31
0.0
  0
LINE
  5
1C5
330
FA
100
AcDbEntity
  8
0
100
AcDbLine
 10
183.5
 20
-22.325
 30
0.0
 11
183.5
 21
-34.825
 31
0.0
  0
LINE
  5
1C6
330
FA
100
AcDbEntity
  8
0
100
AcDbLine
 10
197.5
 20
-22.325
 30
0.0
 11
197.5
 21
-34.825
 31
0.0
  0
ARC
  5
1C7
330
FA
100
AcDbEntity
  8
0
100
AcDbCircle
 10
184.25
 20
-22.325
 30
0.0
 40
0.75
100
AcDbArc
 50
90.0
 51
180.0
  0
ARC
  5
1C8
330
FA
100
AcDbEntity
  8
0
100
AcDbCircle
 10
196.75
 20
-22.325
 30
0.0
 40
0.75
100
AcDbArc
 50
0.0
 51
90.0
  0
ARC
  5
1C9
330
FA
100
AcDbEntity
  8
0
100
AcDbCircle
 10
184.25
 20
-34.825
 30
0.0
 40
0.75
100
AcDbArc
 50
180.0
 51
270.0
  0
ARC
  5
1CA
330
FA
100
AcDbEntity
  8
0
100
AcDbCircle
 10
196.75
 20
-34.825
 30
0.0
 40
0.75
100
AcDbArc
 50
270.0
 51
360.0
  0
LINE
  5
1CB
330
FA
100
AcDbEntity
  8
0
100
AcDbLine
 10
203.3
 20
-21.575
 30
0.0
 11
215.8
 21
-21.575
 31
0.0
  0
LINE
  5
1CC
330
FA
100
AcDbEntity
  8
0
100
AcDbLine
 10
203.3
 20
-35.575
 30
0.0
 11
215.8
 21
-35.575
 31
0.0
  0
LINE
  5
1CD
330
FA
100
AcDbEntity
  8
0
100
AcDbLine
 10
202.55
 20
-22.325
 30
0.0
 11
202.55
 21
-34.825
 31
0.0
  0
LINE
  5
1CE
330
FA
100
AcDbEntity
  8
0
100
AcDbLine
 10
216.55
 20
-22.325
 30
0.0
 11
216.55
 21
-34.825
 31
0.0
  0
ARC
  5
1CF
330
FA
100
AcDbEntity
  8
0
100
AcDbCircle
 10
203.3
 20
-22.325
 30
0.0
 40
0.75
100
AcDbArc
 50
90.0
 51
180.0
  0
ARC
  5
1D0
330
FA
100
AcDbEntity
  8
0
100
AcDbCircle
 10
215.8
 20
-22.325
 30
0.0
 40
0.75
100
AcDbArc
 50
0.0
 51
90.0
  0
ARC
  5
1D1
330
FA
100
AcDbEntity
  8
0
100
AcDbCircle
 10
203.3
 20
-34.825
 30
0.0
 40
0.75
100
AcDbArc
 50
180.0
 51
270.0
  0
ARC
  5
1D2
330
FA
100
AcDbEntity
  8
0
100
AcDbCircle
 10
215.8
 20
-34.825
 30
0.0
 40
0.75
100
AcDbArc
 50
270.0
 51
360.0
  0
LINE
  5
1D3
330
FA
100
AcDbEntity
  8
0
100
AcDbLine
 10
222.35
 20
-21.575
 30
0.0
 11
234.85
 21
-21.575
 31
0.0
  0
LINE
  5
1D4
330
FA
100
AcDbEntity
  8
0
100
AcDbLine
 10
222.35
 20
-35.575
 30
0.0
 11
234.85
 21
-35.575
 31
0.0
  0
LINE
  5
1D5
330
FA
100
AcDbEntity
  8
0
100
AcDbLine
 10
221.6
 20
-22.325
 30
0.0
 11
221.6
 21
-34.825
 31
0.0
  0
LINE
  5
1D6
330
FA
100
AcDbEntity
  8
0
100
AcDbLine
 10
235.6
 20
-22.325
 30
0.0
 11
235.6
 21
-34.825
 31
0.0
  0
ARC
  5
1D7
330
FA
100
AcDbEntity
  8
0
100
AcDbCircle
 10
222.35
 20
-22.325
 30
0.0
 40
0.75
100
AcDbArc
 50
90.0
 51
180.0
  0
ARC
  5
1D8
330
FA
100
AcDbEntity
  8
0
100
AcDbCircle
 10
234.85
 20
-22.325
 30
0.0
 40
0.75
100
AcDbArc
 50
0.0
 51
90.0
  0
ARC
  5
1D9
330
FA
100
AcDbEntity
  8
0
100
AcDbCircle
 10
222.35
 20
-34.825
 30
0.0
 40
0.75
100
AcDbArc
 50
180.0
 51
270.0
  0
ARC
  5
1DA
330
FA
100
AcDbEntity
  8
0
100
AcDbCircle
 10
234.85
 20
-34.825
 30
0.0
 40
0.75
100
AcDbArc
 50
270.0
 51
360.0
  0
LINE
  5
1DB
330
FA
100
AcDbEntity
  8
0
100
AcDbLine
 10
241.4
 20
-21.575
 30
0.0
 11
253.9
 21
-21.575
 31
0.0
  0
LINE
  5
1DC
330
FA
100
AcDbEntity
  8
0
100
AcDbLine
 10
241.4
 20
-35.575
 30
0.0
 11
253.9
 21
-35.575
 31
0.0
  0
LINE
  5
1DD
330
FA
100
AcDbEntity
  8
0
100
AcDbLine
 10
240.65
 20
-22.325
 30
0.0
 11
240.65
 21
-34.825
 31
0.0
  0
LINE
  5
1DE
330
FA
100
AcDbEntity
  8
0
100
AcDbLine
 10
254.65
 20
-22.325
 30
0.0
 11
254.65
 21
-34.825
 31
0.0
  0
ARC
  5
1DF
330
FA
100
AcDbEntity
  8
0
100
AcDbCircle
 10
241.4
 20
-22.325
 30
0.0
 40
0.75
100
AcDbArc
 50
90.0
 51
180.0
  0
ARC
  5
1E0
330
FA
100
AcDbEntity
  8
0
100
AcDbCircle
 10
253.9
 20
-22.325
 30
0.0
 40
0.75
100
AcDbArc
 50
0.0
 51
90.0
  0
ARC
  5
1E1
330
FA
100
AcDbEntity
  8
0
100
AcDbCircle
 10
241.4
 20
-34.825
 30
0.0
 40
0.75
100
AcDbArc
 50
180.0
 51
270.0
  0
ARC
  5
1E2
330
FA
100
AcDbEntity
  8
0
100
AcDbCircle
 10
253.9
 20
-34.825
 30
0.0
 40
0.75
100
AcDbArc
 50
270.0
 51
360.0
  0
LINE
  5
1E3
330
FA
100
AcDbEntity
  8
0
100
AcDbLine
 10
265.2125
 20
-21.575
 30
0.0
 11
277.7125
 21
-21.575
 31
0.0
  0
LINE
  5
1E4
330
FA
100
AcDbEntity
  8
0
100
AcDbLine
 10
264.4625
 20
-22.325
 30
0.0
 11
264.4625
 21
-34.825
 31
0.0
  0
ARC
  5
1E5
330
FA
100
AcDbEntity
  8
0
100
AcDbCircle
 10
265.2125
 20
-22.325
 30
0.0
 40
0.75
100
AcDbArc
 50
90.0
 51
180.0
  0
ARC
  5
1E6
330
FA
100
AcDbEntity
  8
0
100
AcDbCircle
 10
277.7125
 20
-22.325
 30
0.0
 40
0.75
100
AcDbArc
 50
21.65319504317855
 51
90.0
  0
ARC
  5
1E7
330
FA
100
AcDbEntity
  8
0
100
AcDbCircle
 10
265.2125
 20
-34.825
 30
0.0
 40
0.75
100
AcDbArc
 50
180.0
 51
270.0
  0
LINE
  5
1E8
330
FA
100
AcDbEntity
  8
0
100
AcDbLine
 10
280.84375
 20
-31.85
 30
0.0
 11
280.84375
 21
-44.35
 31
0.0
  0
ARC
  5
1E9
330
FA
100
AcDbEntity
  8
0
100
AcDbCircle
 10
280.09375
 20
-31.85
 30
0.0
 40
0.75
100
AcDbArc
 50
0.0
 51
64.62306647484883
  0
ARC
  5
1EA
330
FA
100
AcDbEntity
  8
0
100
AcDbCircle
 10
280.09375
 20
-44.35
 30
0.0
 40
0.75
100
AcDbArc
 50
295.3769335251512
 51
0.0
  0
ARC
  5
1EB
330
FA
100
AcDbEntity
  8
0
100
AcDbCircle
 10
279.09375
 20
-23.412
 30
0.0
 40
0.75
100
AcDbArc
 50
0.0
 51
81.94355519641666
  0
LINE
  5
1EC
330
FA
100
AcDbEntity
  8
0
100
AcDbLine
 10
289.025
 20
-21.575
 30
0.0
 11
301.525
 21
-21.575
 31
0.0
  0
LINE
  5
1ED
330
FA
100
AcDbEntity
  8
0
100
AcDbLine
 10
289.025
 20
-35.575
 30
0.0
 11
301.525
 21
-35.575
 31
0.0
  0
LINE
  5
1EE
330
FA
100
AcDbEntity
  8
0
100
AcDbLine
 10
288.275
 20
-22.325
 30
0.0
 11
288.275
 21
-34.825
 31
0.0
  0
LINE
  5
1EF
330
FA
100
AcDbEntity
  8
0
100
AcDbLine
 10
302.275
 20
-22.325
 30
0.0
 11
302.275
 21
-34.825
 31
0.0
  0
ARC
  5
1F0
330
FA
100
AcDbEntity
  8
0
100
AcDbCircle
 10
289.025
 20
-22.325
 30
0.0
 40
0.75
100
AcDbArc
 50
90.0
 51
180.0
  0
ARC
  5
1F1
330
FA
100
AcDbEntity
  8
0
100
AcDbCircle
 10
301.525
 20
-22.325
 30
0.0
 40
0.75
100
AcDbArc
 50
0.0
 51
90.0
  0
ARC
  5
1F2
330
FA
100
AcDbEntity
  8
0
100
AcDbCircle
 10
289.025
 20
-34.825
 30
0.0
 40
0.75
100
AcDbArc
 50
180.0
 51
270.0
  0
ARC
  5
1F3
330
FA
100
AcDbEntity
  8
0
100
AcDbCircle
 10
301.525
 20
-34.825
 30
0.0
 40
0.75
100
AcDbArc
 50
270.0
 51
360.0
  0
LINE
  5
1F4
330
FA
100
AcDbEntity
  8
0
100
AcDbLine
 10
4.90625
 20
-41.375
 30
0.0
 11
4.90625
 21
-53.875
 31
0.0
  0
ARC
  5
1F5
330
FA
100
AcDbEntity
  8
0
100
AcDbCircle
 10
5.65625
 20
-41.375
 30
0.0
 40
0.75
100
AcDbArc
 50
90.0
 51
180.0
  0
ARC
  5
1F6
330
FA
100
AcDbEntity
  8
0
100
AcDbCircle
 10
5.65625
 20
-53.875
 30
0.0
 40
0.75
100
AcDbArc
 50
180.0
 51
270.0
  0
LINE
  5
1F7
330
FA
100
AcDbEntity
  8
0
100
AcDbLine
 10
23.66875
 20
-41.375
 30
0.0
 11
23.66875
 21
-53.875
 31
0.0
  0
ARC
  5
1F8
330
FA
100
AcDbEntity
  8
0
100
AcDbCircle
 10
22.91875
 20
-41.375
 30
0.0
 40
0.75
100
AcDbArc
 50
0.0
 51
90.0
  0
ARC
  5
1F9
330
FA
100
AcDbEntity
  8
0
100
AcDbCircle
 10
22.91875
 20
-53.875
 30
0.0
 40
0.75
100
AcDbArc
 50
270.0
 51
360.0
  0
LINE
  5
1FA
330
FA
100
AcDbEntity
  8
0
100
AcDbLine
 10
36.6125
 20
-40.625
 30
0.0
 11
49.11249999999999
 21
-40.625
 31
0.0
  0
LINE
  5
1FB
330
FA
100
AcDbEntity
  8
0
100
AcDbLine
 10
36.6125
 20
-54.625
 30
0.0
 11
49.11249999999999
 21
-54.625
 31
0.0
  0
LINE
  5
1FC
330
FA
100
AcDbEntity
  8
0
100
AcDbLine
 10
35.8625
 20
-41.375
 30
0.0
 11
35.8625
 21
-53.875
 31
0.0
  0
LINE
  5
1FD
330
FA
100
AcDbEntity
  8
0
100
AcDbLine
 10
49.8625
 20
-41.375
 30
0.0
 11
49.8625
 21
-53.875
 31
0.0
  0
ARC
  5
1FE
330
FA
100
AcDbEntity
  8
0
100
AcDbCircle
 10
36.6125
 20
-41.375
 30
0.0
 40
0.75
100
AcDbArc
 50
90.0
 51
180.0
  0
ARC
  5
1FF
330
FA
100
AcDbEntity
  8
0
100
AcDbCircle
 10
49.11249999999999
 20
-41.375
 30
0.0
 40
0.75
100
AcDbArc
 50
0.0
 51
90.0
  0
ARC
  5
200
330
FA
100
AcDbEntity
  8
0
100
AcDbCircle
 10
36.6125
 20
-53.875
 30
0.0
 40
0.75
100
AcDbArc
 50
180.0
 51
270.0
  0
ARC
  5
201
330
FA
100
AcDbEntity
  8
0
100
AcDbCircle
 10
49.11249999999999
 20
-53.875
 30
0.0
 40
0.75
100
AcDbArc
 50
270.0
 51
360.0
  0
LINE
  5
202
330
FA
100
AcDbEntity
  8
0
100
AcDbLine
 10
55.6625
 20
-40.625
 30
0.0
 11
68.1625
 21
-40.625
 31
0.0
  0
LINE
  5
203
330
FA
100
AcDbEntity
  8
0
100
AcDbLine
 10
55.6625
 20
-54.625
 30
0.0
 11
68.1625
 21
-54.625
 31
0.0
  0
LINE
  5
204
330
FA
100
AcDbEntity
  8
0
100
AcDbLine
 10
54.9125
 20
-41.375
 30
0.0
 11
54.9125
 21
-53.875
 31
0.0
  0
LINE
  5
205
330
FA
100
AcDbEntity
  8
0
100
AcDbLine
 10
68.91249999999999
 20
-41.375
 30
0.0
 11
68.91249999999999
 21
-53.875
 31
0.0
  0
ARC
  5
206
330
FA
100
AcDbEntity
  8
0
100
AcDbCircle
 10
55.6625
 20
-41.375
 30
0.0
 40
0.75
100
AcDbArc
 50
90.0
 51
180.0
  0
ARC
  5
207
330
FA
100
AcDbEntity
  8
0
100
AcDbCircle
 10
68.1625
 20
-41.375
 30
0.0
 40
0.75
100
AcDbArc
 50
0.0
 51
90.0
  0
ARC
  5
208
330
FA
100
AcDbEntity
  8
0
100
AcDbCircle
 10
55.6625
 20
-53.875
 30
0.0
 40
0.75
100
AcDbArc
 50
180.0
 51
270.0
  0
ARC
  5
209
330
FA
100
AcDbEntity
  8
0
100
AcDbCircle
 10
68.1625
 20
-53.875
 30
0.0
 40
0.75
100
AcDbArc
 50
270.0
 51
360.0
  0
LINE
  5
20A
330
FA
100
AcDbEntity
  8
0
100
AcDbLine
 10
74.71250000000002
 20
-40.625
 30
0.0
 11
87.21250000000003
 21
-40.625
 31
0.0
  0
LINE
  5
20B
330
FA
100
AcDbEntity
  8
0
100
AcDbLine
 10
74.71250000000002
 20
-54.625
 30
0.0
 11
87.21250000000003
 21
-54.625
 31
0.0
  0
LINE
  5
20C
330
FA
100
AcDbEntity
  8
0
100
AcDbLine
 10
73.96250000000001
 20
-41.375
 30
0.0
 11
73.96250000000001
 21
-53.875
 31
0.0
  0
LINE
  5
20D
330
FA
100
AcDbEntity
  8
0
100
AcDbLine
 10
87.9625
 20
-41.375
 30
0.0
 11
87.9625
 21
-53.875
 31
0.0
  0
ARC
  5
20E
330
FA
100
AcDbEntity
  8
0
100
AcDbCircle
 10
74.71250000000002
 20
-41.375
 30
0.0
 40
0.75
100
AcDbArc
 50
90.0
 51
180.0
  0
ARC
  5
20F
330
FA
100
AcDbEntity
  8
0
100
AcDbCircle
 10
87.21250000000003
 20
-41.375
 30
0.0
 40
0.75
100
AcDbArc
 50
0.0
 51
90.0
  0
ARC
  5
210
330
FA
100
AcDbEntity
  8
0
100
AcDbCircle
 10
74.71250000000002
 20
-53.875
 30
0.0
 40
0.75
100
AcDbArc
 50
180.0
 51
270.0
  0
ARC
  5
211
330
FA
100
AcDbEntity
  8
0
100
AcDbCircle
 10
87.21250000000003
 20
-53.875
 30
0.0
 40
0.75
100
AcDbArc
 50
270.0
 51
360.0
  0
LINE
  5
212
330
FA
100
AcDbEntity
  8
0
100
AcDbLine
 10
93.7625
 20
-40.625
 30
0.0
 11
106.2625
 21
-40.625
 31
0.0
  0
LINE
  5
213
330
FA
100
AcDbEntity
  8
0
100
AcDbLine
 10
93.7625
 20
-54.625
 30
0.0
 11
106.2625
 21
-54.625
 31
0.0
  0
LINE
  5
214
330
FA
100
AcDbEntity
  8
0
100
AcDbLine
 10
93.01250000000001
 20
-41.375
 30
0.0
 11
93.01250000000001
 21
-53.875
 31
0.0
  0
LINE
  5
215
330
FA
100
AcDbEntity
  8
0
100
AcDbLine
 10
107.0125
 20
-41.375
 30
0.0
 11
107.0125
 21
-53.875
 31
0.0
  0
ARC
  5
216
330
FA
100
AcDbEntity
  8
0
100
AcDbCircle
 10
93.7625
 20
-41.375
 30
0.0
 40
0.75
100
AcDbArc
 50
90.0
 51
180.0
  0
ARC
  5
217
330
FA
100
AcDbEntity
  8
0
100
AcDbCircle
 10
106.2625
 20
-41.375
 30
0.0
 40
0.75
100
AcDbArc
 50
0.0
 51
90.0
  0
ARC
  5
218
330
FA
100
AcDbEntity
  8
0
100
AcDbCircle
 10
93.7625
 20
-53.875
 30
0.0
 40
0.75
100
AcDbArc
 50
180.0
 51
270.0
  0
ARC
  5
219
330
FA
100
AcDbEntity
  8
0
100
AcDbCircle
 10
106.2625
 20
-53.875
 30
0.0
 40
0.75
100
AcDbArc
 50
270.0
 51
360.0
  0
LINE
  5
21A
330
FA
100
AcDbEntity
  8
0
100
AcDbLine
 10
112.8125
 20
-40.625
 30
0.0
 11
125.3125
 21
-40.625
 31
0.0
  0
LINE
  5
21B
330
FA
100
AcDbEntity
  8
0
100
AcDbLine
 10
112.8125
 20
-54.625
 30
0.0
 11
125.3125
 21
-54.625
 31
0.0
  0
LINE
  5
21C
330
FA
100
AcDbEntity
  8
0
100
AcDbLine
 10
112.0625
 20
-41.375
 30
0.0
 11
112.0625
 21
-53.875
 31
0.0
  0
LINE
  5
21D
330
FA
100
AcDbEntity
  8
0
100
AcDbLine
 10
126.0625
 20
-41.375
 30
0.0
 11
126.0625
 21
-53.875
 31
0.0
  0
ARC
  5
21E
330
FA
100
AcDbEntity
  8
0
100
AcDbCircle
 10
112.8125
 20
-41.375
 30
0.0
 40
0.75
100
AcDbArc
 50
90.0
 51
180.0
  0
ARC
  5
21F
330
FA
100
AcDbEntity
  8
0
100
AcDbCircle
 10
125.3125
 20
-41.375
 30
0.0
 40
0.75
100
AcDbArc
 50
0.0
 51
90.0
  0
ARC
  5
220
330
FA
100
AcDbEntity
  8
0
100
AcDbCircle
 10
112.8125
 20
-53.875
 30
0.0
 40
0.75
100
AcDbArc
 50
180.0
 51
270.0
  0
ARC
  5
221
330
FA
100
AcDbEntity
  8
0
100
AcDbCircle
 10
125.3125
 20
-53.875
 30
0.0
 40
0.75
100
AcDbArc
 50
270.0
 51
360.0
  0
LINE
  5
222
330
FA
100
AcDbEntity
  8
0
100
AcDbLine
 10
131.8625
 20
-40.625
 30
0.0
 11
144.3625
 21
-40.625
 31
0.0
  0
LINE
  5
223
330
FA
100
AcDbEntity
  8
0
100
AcDbLine
 10
131.8625
 20
-54.625
 30
0.0
 11
144.3625
 21
-54.625
 31
0.0
  0
LINE
  5
224
330
FA
100
AcDbEntity
  8
0
100
AcDbLine
 10
131.1125
 20
-41.375
 30
0.0
 11
131.1125
 21
-53.875
 31
0.0
  0
LINE
  5
225
330
FA
100
AcDbEntity
  8
0
100
AcDbLine
 10
145.1125
 20
-41.375
 30
0.0
 11
145.1125
 21
-53.875
 31
0.0
  0
ARC
  5
226
330
FA
100
AcDbEntity
  8
0
100
AcDbCircle
 10
131.8625
 20
-41.375
 30
0.0
 40
0.75
100
AcDbArc
 50
90.0
 51
180.0
  0
ARC
  5
227
330
FA
100
AcDbEntity
  8
0
100
AcDbCircle
 10
144.3625
 20
-41.375
 30
0.0
 40
0.75
100
AcDbArc
 50
0.0
 51
90.0
  0
ARC
  5
228
330
FA
100
AcDbEntity
  8
0
100
AcDbCircle
 10
131.8625
 20
-53.875
 30
0.0
 40
0.75
100
AcDbArc
 50
180.0
 51
270.0
  0
ARC
  5
229
330
FA
100
AcDbEntity
  8
0
100
AcDbCircle
 10
144.3625
 20
-53.875
 30
0.0
 40
0.75
100
AcDbArc
 50
270.0
 51
360.0
  0
LINE
  5
22A
330
FA
100
AcDbEntity
  8
0
100
AcDbLine
 10
150.9125
 20
-40.625
 30
0.0
 11
163.4125
 21
-40.625
 31
0.0
  0
LINE
  5
22B
330
FA
100
AcDbEntity
  8
0
100
AcDbLine
 10
150.9125
 20
-54.625
 30
0.0
 11
163.4125
 21
-54.625
 31
0.0
  0
LINE
  5
22C
330
FA
100
AcDbEntity
  8
0
100
AcDbLine
 10
150.1625
 20
-41.375
 30
0.0
 11
150.1625
 21
-53.875
 31
0.0
  0
LINE
  5
22D
330
FA
100
AcDbEntity
  8
0
100
AcDbLine
 10
164.1625
 20
-41.375
 30
0.0
 11
164.1625
 21
-53.875
 31
0.0
  0
ARC
  5
22E
330
FA
100
AcDbEntity
  8
0
100
AcDbCircle
 10
150.9125
 20
-41.375
 30
0.0
 40
0.75
100
AcDbArc
 50
90.0
 51
180.0
  0
ARC
  5
22F
330
FA
100
AcDbEntity
  8
0
100
AcDbCircle
 10
163.4125
 20
-41.375
 30
0.0
 40
0.75
100
AcDbArc
 50
0.0
 51
90.0
  0
ARC
  5
230
330
FA
100
AcDbEntity
  8
0
100
AcDbCircle
 10
150.9125
 20
-53.875
 30
0.0
 40
0.75
100
AcDbArc
 50
180.0
 51
270.0
  0
ARC
  5
231
330
FA
100
AcDbEntity
  8
0
100
AcDbCircle
 10
163.4125
 20
-53.875
 30
0.0
 40
0.75
100
AcDbArc
 50
270.0
 51
360.0
  0
LINE
  5
232
330
FA
100
AcDbEntity
  8
0
100
AcDbLine
 10
169.9625
 20
-40.625
 30
0.0
 11
182.4625
 21
-40.625
 31
0.0
  0
LINE
  5
233
330
FA
100
AcDbEntity
  8
0
100
AcDbLine
 10
169.9625
 20
-54.625
 30
0.0
 11
182.4625
 21
-54.625
 31
0.0
  0
LINE
  5
234
330
FA
100
AcDbEntity
  8
0
100
AcDbLine
 10
169.2125
 20
-41.375
 30
0.0
 11
169.2125
 21
-53.875
 31
0.0
  0
LINE
  5
235
330
FA
100
AcDbEntity
  8
0
100
AcDbLine
 10
183.2125
 20
-41.375
 30
0.0
 11
183.2125
 21
-53.875
 31
0.0
  0
ARC
  5
236
330
FA
100
AcDbEntity
  8
0
100
AcDbCircle
 10
169.9625
 20
-41.375
 30
0.0
 40
0.75
100
AcDbArc
 50
90.0
 51
180.0
  0
ARC
  5
237
330
FA
100
AcDbEntity
  8
0
100
AcDbCircle
 10
182.4625
 20
-41.375
 30
0.0
 40
0.75
100
AcDbArc
 50
0.0
 51
90.0
  0
ARC
  5
238
330
FA
100
AcDbEntity
  8
0
100
AcDbCircle
 10
169.9625
 20
-53.875
 30
0.0
 40
0.75
100
AcDbArc
 50
180.0
 51
270.0
  0
ARC
  5
239
330
FA
100
AcDbEntity
  8
0
100
AcDbCircle
 10
182.4625
 20
-53.875
 30
0.0
 40
0.75
100
AcDbArc
 50
270.0
 51
360.0
  0
LINE
  5
23A
330
FA
100
AcDbEntity
  8
0
100
AcDbLine
 10
189.0125
 20
-40.625
 30
0.0
 11
201.5125
 21
-40.625
 31
0.0
  0
LINE
  5
23B
330
FA
100
AcDbEntity
  8
0
100
AcDbLine
 10
189.0125
 20
-54.625
 30
0.0
 11
201.5125
 21
-54.625
 31
0.0
  0
LINE
  5
23C
330
FA
100
AcDbEntity
  8
0
100
AcDbLine
 10
188.2625
 20
-41.375
 30
0.0
 11
188.2625
 21
-53.875
 31
0.0
  0
LINE
  5
23D
330
FA
100
AcDbEntity
  8
0
100
AcDbLine
 10
202.2625
 20
-41.375
 30
0.0
 11
202.2625
 21
-53.875
 31
0.0
  0
ARC
  5
23E
330
FA
100
AcDbEntity
  8
0
100
AcDbCircle
 10
189.0125
 20
-41.375
 30
0.0
 40
0.75
100
AcDbArc
 50
90.0
 51
180.0
  0
ARC
  5
23F
330
FA
100
AcDbEntity
  8
0
100
AcDbCircle
 10
201.5125
 20
-41.375
 30
0.0
 40
0.75
100
AcDbArc
 50
0.0
 51
90.0
  0
ARC
  5
240
330
FA
100
AcDbEntity
  8
0
100
AcDbCircle
 10
189.0125
 20
-53.875
 30
0.0
 40
0.75
100
AcDbArc
 50
180.0
 51
270.0
  0
ARC
  5
241
330
FA
100
AcDbEntity
  8
0
100
AcDbCircle
 10
201.5125
 20
-53.875
 30
0.0
 40
0.75
100
AcDbArc
 50
270.0
 51
360.0
  0
LINE
  5
242
330
FA
100
AcDbEntity
  8
0
100
AcDbLine
 10
208.0625
 20
-40.625
 30
0.0
 11
220.5625
 21
-40.625
 31
0.0
  0
LINE
  5
243
330
FA
100
AcDbEntity
  8
0
100
AcDbLine
 10
208.0625
 20
-54.625
 30
0.0
 11
220.5625
 21
-54.625
 31
0.0
  0
LINE
  5
244
330
FA
100
AcDbEntity
  8
0
100
AcDbLine
 10
207.3125
 20
-41.375
 30
0.0
 11
207.3125
 21
-53.875
 31
0.0
  0
LINE
  5
245
330
FA
100
AcDbEntity
  8
0
100
AcDbLine
 10
221.3125
 20
-41.375
 30
0.0
 11
221.3125
 21
-53.875
 31
0.0
  0
ARC
  5
246
330
FA
100
AcDbEntity
  8
0
100
AcDbCircle
 10
208.0625
 20
-41.375
 30
0.0
 40
0.75
100
AcDbArc
 50
90.0
 51
180.0
  0
ARC
  5
247
330
FA
100
AcDbEntity
  8
0
100
AcDbCircle
 10
220.5625
 20
-41.375
 30
0.0
 40
0.75
100
AcDbArc
 50
0.0
 51
90.0
  0
ARC
  5
248
330
FA
100
AcDbEntity
  8
0
100
AcDbCircle
 10
208.0625
 20
-53.875
 30
0.0
 40
0.75
100
AcDbArc
 50
180.0
 51
270.0
  0
ARC
  5
249
330
FA
100
AcDbEntity
  8
0
100
AcDbCircle
 10
220.5625
 20
-53.875
 30
0.0
 40
0.75
100
AcDbArc
 50
270.0
 51
360.0
  0
LINE
  5
24A
330
FA
100
AcDbEntity
  8
0
100
AcDbLine
 10
227.1125
 20
-40.625
 30
0.0
 11
239.6125
 21
-40.625
 31
0.0
  0
LINE
  5
24B
330
FA
100
AcDbEntity
  8
0
100
AcDbLine
 10
227.1125
 20
-54.625
 30
0.0
 11
239.6125
 21
-54.625
 31
0.0
  0
LINE
  5
24C
330
FA
100
AcDbEntity
  8
0
100
AcDbLine
 10
226.3625
 20
-41.375
 30
0.0
 11
226.3625
 21
-53.875
 31
0.0
  0
LINE
  5
24D
330
FA
100
AcDbEntity
  8
0
100
AcDbLine
 10
240.3625
 20
-41.375
 30
0.0
 11
240.3625
 21
-53.875
 31
0.0
  0
ARC
  5
24E
330
FA
100
AcDbEntity
  8
0
100
AcDbCircle
 10
227.1125
 20
-41.375
 30
0.0
 40
0.75
100
AcDbArc
 50
90.0
 51
180.0
  0
ARC
  5
24F
330
FA
100
AcDbEntity
  8
0
100
AcDbCircle
 10
239.6125
 20
-41.375
 30
0.0
 40
0.75
100
AcDbArc
 50
0.0
 51
90.0
  0
ARC
  5
250
330
FA
100
AcDbEntity
  8
0
100
AcDbCircle
 10
227.1125
 20
-53.875
 30
0.0
 40
0.75
100
AcDbArc
 50
180.0
 51
270.0
  0
ARC
  5
251
330
FA
100
AcDbEntity
  8
0
100
AcDbCircle
 10
239.6125
 20
-53.875
 30
0.0
 40
0.75
100
AcDbArc
 50
270.0
 51
360.0
  0
ARC
  5
252
330
FA
100
AcDbEntity
  8
0
100
AcDbCircle
 10
273.50675
 20
-55.875
 30
0.0
 40
0.75
100
AcDbArc
 50
180.0
 51
270.0
  0
LINE
  5
253
330
FA
100
AcDbEntity
  8
0
100
AcDbLine
 10
249.63075
 20
-56.625
 30
0.0
 11
255.13075
 21
-56.625
 31
0.0
  0
ARC
  5
254
330
FA
100
AcDbEntity
  8
0
100
AcDbCircle
 10
249.63075
 20
-55.875
 30
0.0
 40
0.75
100
AcDbArc
 50
180.0
 51
270.0
  0
ARC
  5
255
330
FA
100
AcDbEntity
  8
0
100
AcDbCircle
 10
255.13075
 20
-55.875
 30
0.0
 40
0.75
100
AcDbArc
 50
270.0
 51
360.0
  0
LINE
  5
256
330
FA
100
AcDbEntity
  8
0
100
AcDbLine
 10
245.4125
 20
-41.375
 30
0.0
 11
245.4125
 21
-53.875
 31
0.0
  0
ARC
  5
257
330
FA
100
AcDbEntity
  8
0
100
AcDbCircle
 10
246.1625
 20
-41.375
 30
0.0
 40
0.75
100
AcDbArc
 50
90.0
 51
180.0
  0
ARC
  5
258
330
FA
100
AcDbEntity
  8
0
100
AcDbCircle
 10
246.1625
 20
-53.875
 30
0.0
 40
0.75
100
AcDbArc
 50
180.0
 51
270.0
  0
LINE
  5
259
330
FA
100
AcDbEntity
  8
0
100
AcDbLine
 10
289.025
 20
-40.625
 30
0.0
 11
301.525
 21
-40.625
 31
0.0
  0
LINE
  5
25A
330
FA
100
AcDbEntity
  8
0
100
AcDbLine
 10
289.025
 20
-54.625
 30
0.0
 11
301.525
 21
-54.625
 31
0.0
  0
LINE
  5
25B
330
FA
100
AcDbEntity
  8
0
100
AcDbLine
 10
288.275
 20
-41.375
 30
0.0
 11
288.275
 21
-53.875
 31
0.0
  0
LINE
  5
25C
330
FA
100
AcDbEntity
  8
0
100
AcDbLine
 10
302.275
 20
-41.375
 30
0.0
 11
302.275
 21
-53.875
 31
0.0
  0
ARC
  5
25D
330
FA
100
AcDbEntity
  8
0
100
AcDbCircle
 10
289.025
 20
-41.375
 30
0.0
 40
0.75
100
AcDbArc
 50
90.0
 51
180.0
  0
ARC
  5
25E
330
FA
100
AcDbEntity
  8
0
100
AcDbCircle
 10
301.525
 20
-41.375
 30
0.0
 40
0.75
100
AcDbArc
 50
0.0
 51
90.0
  0
ARC
  5
25F
330
FA
100
AcDbEntity
  8
0
100
AcDbCircle
 10
289.025
 20
-53.875
 30
0.0
 40
0.75
100
AcDbArc
 50
180.0
 51
270.0
  0
ARC
  5
260
330
FA
100
AcDbEntity
  8
0
100
AcDbCircle
 10
301.525
 20
-53.875
 30
0.0
 40
0.75
100
AcDbArc
 50
270.0
 51
360.0
  0
LINE
  5
261
330
FA
100
AcDbEntity
  8
0
100
AcDbLine
 10
4.90625
 20
-60.425
 30
0.0
 11
4.90625
 21
-72.925
 31
0.0
  0
ARC
  5
262
330
FA
100
AcDbEntity
  8
0
100
AcDbCircle
 10
5.65625
 20
-60.425
 30
0.0
 40
0.75
100
AcDbArc
 50
90.0
 51
180.0
  0
ARC
  5
263
330
FA
100
AcDbEntity
  8
0
100
AcDbCircle
 10
5.65625
 20
-72.925
 30
0.0
 40
0.75
100
AcDbArc
 50
180.0
 51
247.7370905896971
  0
LINE
  5
264
330
FA
100
AcDbEntity
  8
0
100
AcDbLine
 10
30.61925
 20
-75.67499999999999
 30
0.0
 11
36.11925
 21
-75.67499999999999
 31
0.0
  0
ARC
  5
265
330
FA
100
AcDbEntity
  8
0
100
AcDbCircle
 10
30.61925
 20
-74.92499999999998
 30
0.0
 40
0.75
100
AcDbArc
 50
180.0
 51
270.0
  0
ARC
  5
266
330
FA
100
AcDbEntity
  8
0
100
AcDbCircle
 10
36.11925
 20
-74.92499999999998
 30
0.0
 40
0.75
100
AcDbArc
 50
270.0
 51
360.0
  0
LINE
  5
267
330
FA
100
AcDbEntity
  8
0
100
AcDbLine
 10
6.743249999999997
 20
-75.67499999999999
 30
0.0
 11
12.24325
 21
-75.67499999999999
 31
0.0
  0
ARC
  5
268
330
FA
100
AcDbEntity
  8
0
100
AcDbCircle
 10
6.743249999999997
 20
-74.92499999999998
 30
0.0
 40
0.75
100
AcDbArc
 50
180.0
 51
270.0
  0
ARC
  5
269
330
FA
100
AcDbEntity
  8
0
100
AcDbCircle
 10
12.24325
 20
-74.92499999999998
 30
0.0
 40
0.75
100
AcDbArc
 50
270.0
 51
360.0
  0
LINE
  5
26A
330
FA
100
AcDbEntity
  8
0
100
AcDbLine
 10
40.3375
 20
-60.425
 30
0.0
 11
40.3375
 21
-72.925
 31
0.0
  0
ARC
  5
26B
330
FA
100
AcDbEntity
  8
0
100
AcDbCircle
 10
39.5875
 20
-60.425
 30
0.0
 40
0.75
100
AcDbArc
 50
0.0
 51
90.0
  0
ARC
  5
26C
330
FA
100
AcDbEntity
  8
0
100
AcDbCircle
 10
39.5875
 20
-72.925
 30
0.0
 40
0.75
100
AcDbArc
 50
270.0
 51
360.0
  0
LINE
  5
26D
330
FA
100
AcDbEntity
  8
0
100
AcDbLine
 10
46.1375
 20
-59.675
 30
0.0
 11
58.6375
 21
-59.675
 31
0.0
  0
LINE
  5
26E
330
FA
100
AcDbEntity
  8
0
100
AcDbLine
 10
46.1375
 20
-73.67499999999998
 30
0.0
 11
58.6375
 21
-73.67499999999998
 31
0.0
  0
LINE
  5
26F
330
FA
100
AcDbEntity
  8
0
100
AcDbLine
 10
45.3875
 20
-60.425
 30
0.0
 11
45.3875
 21
-72.925
 31
0.0
  0
LINE
  5
270
330
FA
100
AcDbEntity
  8
0
100
AcDbLine
 10
59.3875
 20
-60.425
 30
0.0
 11
59.3875
 21
-72.925
 31
0.0
  0
ARC
  5
271
330
FA
100
AcDbEntity
  8
0
100
AcDbCircle
 10
46.1375
 20
-60.425
 30
0.0
 40
0.75
100
AcDbArc
 50
90.0
 51
180.0
  0
ARC
  5
272
330
FA
100
AcDbEntity
  8
0
100
AcDbCircle
 10
58.6375
 20
-60.425
 30
0.0
 40
0.75
100
AcDbArc
 50
0.0
 51
90.0
  0
ARC
  5
273
330
FA
100
AcDbEntity
  8
0
100
AcDbCircle
 10
46.1375
 20
-72.925
 30
0.0
 40
0.75
100
AcDbArc
 50
180.0
 51
270.0
  0
ARC
  5
274
330
FA
100
AcDbEntity
  8
0
100
AcDbCircle
 10
58.6375
 20
-72.925
 30
0.0
 40
0.75
100
AcDbArc
 50
270.0
 51
360.0
  0
LINE
  5
275
330
FA
100
AcDbEntity
  8
0
100
AcDbLine
 10
65.1875
 20
-59.675
 30
0.0
 11
77.6875
 21
-59.675
 31
0.0
  0
LINE
  5
276
330
FA
100
AcDbEntity
  8
0
100
AcDbLine
 10
65.1875
 20
-73.67499999999998
 30
0.0
 11
77.6875
 21
-73.67499999999998
 31
0.0
  0
LINE
  5
277
330
FA
100
AcDbEntity
  8
0
100
AcDbLine
 10
64.4375
 20
-60.425
 30
0.0
 11
64.4375
 21
-72.925
 31
0.0
  0
LINE
  5
278
330
FA
100
AcDbEntity
  8
0
100
AcDbLine
 10
78.4375
 20
-60.425
 30
0.0
 11
78.4375
 21
-72.925
 31
0.0
  0
ARC
  5
279
330
FA
100
AcDbEntity
  8
0
100
AcDbCircle
 10
65.1875
 20
-60.425
 30
0.0
 40
0.75
100
AcDbArc
 50
90.0
 51
180.0
  0
ARC
  5
27A
330
FA
100
AcDbEntity
  8
0
100
AcDbCircle
 10
77.6875
 20
-60.425
 30
0.0
 40
0.75
100
AcDbArc
 50
0.0
 51
90.0
  0
ARC
  5
27B
330
FA
100
AcDbEntity
  8
0
100
AcDbCircle
 10
65.1875
 20
-72.925
 30
0.0
 40
0.75
100
AcDbArc
 50
180.0
 51
270.0
  0
ARC
  5
27C
330
FA
100
AcDbEntity
  8
0
100
AcDbCircle
 10
77.6875
 20
-72.925
 30
0.0
 40
0.75
100
AcDbArc
 50
270.0
 51
360.0
  0
LINE
  5
27D
330
FA
100
AcDbEntity
  8
0
100
AcDbLine
 10
84.2375
 20
-59.675
 30
0.0
 11
96.7375
 21
-59.675
 31
0.0
  0
LINE
  5
27E
330
FA
100
AcDbEntity
  8
0
100
AcDbLine
 10
84.2375
 20
-73.67499999999998
 30
0.0
 11
96.7375
 21
-73.67499999999998
 31
0.0
  0
LINE
  5
27F
330
FA
100
AcDbEntity
  8
0
100
AcDbLine
 10
83.4875
 20
-60.425
 30
0.0
 11
83.4875
 21
-72.925
 31
0.0
  0
LINE
  5
280
330
FA
100
AcDbEntity
  8
0
100
AcDbLine
 10
97.48750000000001
 20
-60.425
 30
0.0
 11
97.48750000000001
 21
-72.925
 31
0.0
  0
ARC
  5
281
330
FA
100
AcDbEntity
  8
0
100
AcDbCircle
 10
84.2375
 20
-60.425
 30
0.0
 40
0.75
100
AcDbArc
 50
90.0
 51
180.0
  0
ARC
  5
282
330
FA
100
AcDbEntity
  8
0
100
AcDbCircle
 10
96.7375
 20
-60.425
 30
0.0
 40
0.75
100
AcDbArc
 50
0.0
 51
90.0
  0
ARC
  5
283
330
FA
100
AcDbEntity
  8
0
100
AcDbCircle
 10
84.2375
 20
-72.925
 30
0.0
 40
0.75
100
AcDbArc
 50
180.0
 51
270.0
  0
ARC
  5
284
330
FA
100
AcDbEntity
  8
0
100
AcDbCircle
 10
96.7375
 20
-72.925
 30
0.0
 40
0.75
100
AcDbArc
 50
270.0
 51
360.0
  0
LINE
  5
285
330
FA
100
AcDbEntity
  8
0
100
AcDbLine
 10
103.2875
 20
-59.675
 30
0.0
 11
115.7875
 21
-59.675
 31
0.0
  0
LINE
  5
286
330
FA
100
AcDbEntity
  8
0
100
AcDbLine
 10
103.2875
 20
-73.67499999999998
 30
0.0
 11
115.7875
 21
-73.67499999999998
 31
0.0
  0
LINE
  5
287
330
FA
100
AcDbEntity
  8
0
100
AcDbLine
 10
102.5375
 20
-60.425
 30
0.0
 11
102.5375
 21
-72.925
 31
0.0
  0
LINE
  5
288
330
FA
100
AcDbEntity
  8
0
100
AcDbLine
 10
116.5375
 20
-60.425
 30
0.0
 11
116.5375
 21
-72.925
 31
0.0
  0
ARC
  5
289
330
FA
100
AcDbEntity
  8
0
100
AcDbCircle
 10
103.2875
 20
-60.425
 30
0.0
 40
0.75
100
AcDbArc
 50
90.0
 51
180.0
  0
ARC
  5
28A
330
FA
100
AcDbEntity
  8
0
100
AcDbCircle
 10
115.7875
 20
-60.425
 30
0.0
 40
0.75
100
AcDbArc
 50
0.0
 51
90.0
  0
ARC
  5
28B
330
FA
100
AcDbEntity
  8
0
100
AcDbCircle
 10
103.2875
 20
-72.925
 30
0.0
 40
0.75
100
AcDbArc
 50
180.0
 51
270.0
  0
ARC
  5
28C
330
FA
100
AcDbEntity
  8
0
100
AcDbCircle
 10
115.7875
 20
-72.925
 30
0.0
 40
0.75
100
AcDbArc
 50
270.0
 51
360.0
  0
LINE
  5
28D
330
FA
100
AcDbEntity
  8
0
100
AcDbLine
 10
122.3375
 20
-59.675
 30
0.0
 11
134.8375
 21
-59.675
 31
0.0
  0
LINE
  5
28E
330
FA
100
AcDbEntity
  8
0
100
AcDbLine
 10
122.3375
 20
-73.67499999999998
 30
0.0
 11
134.8375
 21
-73.67499999999998
 31
0.0
  0
LINE
  5
28F
330
FA
100
AcDbEntity
  8
0
100
AcDbLine
 10
121.5875
 20
-60.425
 30
0.0
 11
121.5875
 21
-72.925
 31
0.0
  0
LINE
  5
290
330
FA
100
AcDbEntity
  8
0
100
AcDbLine
 10
135.5875
 20
-60.425
 30
0.0
 11
135.5875
 21
-72.925
 31
0.0
  0
ARC
  5
291
330
FA
100
AcDbEntity
  8
0
100
AcDbCircle
 10
122.3375
 20
-60.425
 30
0.0
 40
0.75
100
AcDbArc
 50
90.0
 51
180.0
  0
ARC
  5
292
330
FA
100
AcDbEntity
  8
0
100
AcDbCircle
 10
134.8375
 20
-60.425
 30
0.0
 40
0.75
100
AcDbArc
 50
0.0
 51
90.0
  0
ARC
  5
293
330
FA
100
AcDbEntity
  8
0
100
AcDbCircle
 10
122.3375
 20
-72.925
 30
0.0
 40
0.75
100
AcDbArc
 50
180.0
 51
270.0
  0
ARC
  5
294
330
FA
100
AcDbEntity
  8
0
100
AcDbCircle
 10
134.8375
 20
-72.925
 30
0.0
 40
0.75
100
AcDbArc
 50
270.0
 51
360.0
  0
LINE
  5
295
330
FA
100
AcDbEntity
  8
0
100
AcDbLine
 10
141.3875
 20
-59.675
 30
0.0
 11
153.8875
 21
-59.675
 31
0.0
  0
LINE
  5
296
330
FA
100
AcDbEntity
  8
0
100
AcDbLine
 10
141.3875
 20
-73.67499999999998
 30
0.0
 11
153.8875
 21
-73.67499999999998
 31
0.0
  0
LINE
  5
297
330
FA
100
AcDbEntity
  8
0
100
AcDbLine
 10
140.6375
 20
-60.425
 30
0.0
 11
140.6375
 21
-72.925
 31
0.0
  0
LINE
  5
298
330
FA
100
AcDbEntity
  8
0
100
AcDbLine
 10
154.6375
 20
-60.425
 30
0.0
 11
154.6375
 21
-72.925
 31
0.0
  0
ARC
  5
299
330
FA
100
AcDbEntity
  8
0
100
AcDbCircle
 10
141.3875
 20
-60.425
 30
0.0
 40
0.75
100
AcDbArc
 50
90.0
 51
180.0
  0
ARC
  5
29A
330
FA
100
AcDbEntity
  8
0
100
AcDbCircle
 10
153.8875
 20
-60.425
 30
0.0
 40
0.75
100
AcDbArc
 50
0.0
 51
90.0
  0
ARC
  5
29B
330
FA
100
AcDbEntity
  8
0
100
AcDbCircle
 10
141.3875
 20
-72.925
 30
0.0
 40
0.75
100
AcDbArc
 50
180.0
 51
270.0
  0
ARC
  5
29C
330
FA
100
AcDbEntity
  8
0
100
AcDbCircle
 10
153.8875
 20
-72.925
 30
0.0
 40
0.75
100
AcDbArc
 50
270.0
 51
360.0
  0
LINE
  5
29D
330
FA
100
AcDbEntity
  8
0
100
AcDbLine
 10
160.4375
 20
-59.675
 30
0.0
 11
172.9375
 21
-59.675
 31
0.0
  0
LINE
  5
29E
330
FA
100
AcDbEntity
  8
0
100
AcDbLine
 10
160.4375
 20
-73.67499999999998
 30
0.0
 11
172.9375
 21
-73.67499999999998
 31
0.0
  0
LINE
  5
29F
330
FA
100
AcDbEntity
  8
0
100
AcDbLine
 10
159.6875
 20
-60.425
 30
0.0
 11
159.6875
 21
-72.925
 31
0.0
  0
LINE
  5
2A0
330
FA
100
AcDbEntity
  8
0
100
AcDbLine
 10
173.6875
 20
-60.425
 30
0.0
 11
173.6875
 21
-72.925
 31
0.0
  0
ARC
  5
2A1
330
FA
100
AcDbEntity
  8
0
100
AcDbCircle
 10
160.4375
 20
-60.425
 30
0.0
 40
0.75
100
AcDbArc
 50
90.0
 51
180.0
  0
ARC
  5
2A2
330
FA
100
AcDbEntity
  8
0
100
AcDbCircle
 10
172.9375
 20
-60.425
 30
0.0
 40
0.75
100
AcDbArc
 50
0.0
 51
90.0
  0
ARC
  5
2A3
330
FA
100
AcDbEntity
  8
0
100
AcDbCircle
 10
160.4375
 20
-72.925
 30
0.0
 40
0.75
100
AcDbArc
 50
180.0
 51
270.0
  0
ARC
  5
2A4
330
FA
100
AcDbEntity
  8
0
100
AcDbCircle
 10
172.9375
 20
-72.925
 30
0.0
 40
0.75
100
AcDbArc
 50
270.0
 51
360.0
  0
LINE
  5
2A5
330
FA
100
AcDbEntity
  8
0
100
AcDbLine
 10
179.4875
 20
-59.675
 30
0.0
 11
191.9875
 21
-59.675
 31
0.0
  0
LINE
  5
2A6
330
FA
100
AcDbEntity
  8
0
100
AcDbLine
 10
179.4875
 20
-73.67499999999998
 30
0.0
 11
191.9875
 21
-73.67499999999998
 31
0.0
  0
LINE
  5
2A7
330
FA
100
AcDbEntity
  8
0
100
AcDbLine
 10
178.7375
 20
-60.425
 30
0.0
 11
178.7375
 21
-72.925
 31
0.0
  0
LINE
  5
2A8
330
FA
100
AcDbEntity
  8
0
100
AcDbLine
 10
192.7375
 20
-60.425
 30
0.0
 11
192.7375
 21
-72.925
 31
0.0
  0
ARC
  5
2A9
330
FA
100
AcDbEntity
  8
0
100
AcDbCircle
 10
179.4875
 20
-60.425
 30
0.0
 40
0.75
100
AcDbArc
 50
90.0
 51
180.0
  0
ARC
  5
2AA
330
FA
100
AcDbEntity
  8
0
100
AcDbCircle
 10
191.9875
 20
-60.425
 30
0.0
 40
0.75
100
AcDbArc
 50
0.0
 51
90.0
  0
ARC
  5
2AB
330
FA
100
AcDbEntity
  8
0
100
AcDbCircle
 10
179.4875
 20
-72.925
 30
0.0
 40
0.75
100
AcDbArc
 50
180.0
 51
270.0
  0
ARC
  5
2AC
330
FA
100
AcDbEntity
  8
0
100
AcDbCircle
 10
191.9875
 20
-72.925
 30
0.0
 40
0.75
100
AcDbArc
 50
270.0
 51
360.0
  0
LINE
  5
2AD
330
FA
100
AcDbEntity
  8
0
100
AcDbLine
 10
198.5375
 20
-59.675
 30
0.0
 11
211.0375
 21
-59.675
 31
0.0
  0
LINE
  5
2AE
330
FA
100
AcDbEntity
  8
0
100
AcDbLine
 10
198.5375
 20
-73.67499999999998
 30
0.0
 11
211.0375
 21
-73.67499999999998
 31
0.0
  0
LINE
  5
2AF
330
FA
100
AcDbEntity
  8
0
100
AcDbLine
 10
197.7875
 20
-60.425
 30
0.0
 11
197.7875
 21
-72.925
 31
0.0
  0
LINE
  5
2B0
330
FA
100
AcDbEntity
  8
0
100
AcDbLine
 10
211.7875
 20
-60.425
 30
0.0
 11
211.7875
 21
-72.925
 31
0.0
  0
ARC
  5
2B1
330
FA
100
AcDbEntity
  8
0
100
AcDbCircle
 10
198.5375
 20
-60.425
 30
0.0
 40
0.75
100
AcDbArc
 50
90.0
 51
180.0
  0
ARC
  5
2B2
330
FA
100
AcDbEntity
  8
0
100
AcDbCircle
 10
211.0375
 20
-60.425
 30
0.0
 40
0.75
100
AcDbArc
 50
0.0
 51
90.0
  0
ARC
  5
2B3
330
FA
100
AcDbEntity
  8
0
100
AcDbCircle
 10
198.5375
 20
-72.925
 30
0.0
 40
0.75
100
AcDbArc
 50
180.0
 51
270.0
  0
ARC
  5
2B4
330
FA
100
AcDbEntity
  8
0
100
AcDbCircle
 10
211.0375
 20
-72.925
 30
0.0
 40
0.75
100
AcDbArc
 50
270.0
 51
360.0
  0
LINE
  5
2B5
330
FA
100
AcDbEntity
  8
0
100
AcDbLine
 10
217.5875
 20
-59.675
 30
0.0
 11
230.0875
 21
-59.675
 31
0.0
  0
LINE
  5
2B6
330
FA
100
AcDbEntity
  8
0
100
AcDbLine
 10
217.5875
 20
-73.67499999999998
 30
0.0
 11
230.0875
 21
-73.67499999999998
 31
0.0
  0
LINE
  5
2B7
330
FA
100
AcDbEntity
  8
0
100
AcDbLine
 10
216.8375
 20
-60.425
 30
0.0
 11
216.8375
 21
-72.925
 31
0.0
  0
LINE
  5
2B8
330
FA
100
AcDbEntity
  8
0
100
AcDbLine
 10
230.8375
 20
-60.425
 30
0.0
 11
230.8375
 21
-72.925
 31
0.0
  0
ARC
  5
2B9
330
FA
100
AcDbEntity
  8
0
100
AcDbCircle
 10
217.5875
 20
-60.425
 30
0.0
 40
0.75
100
AcDbArc
 50
90.0
 51
180.0
  0
ARC
  5
2BA
330
FA
100
AcDbEntity
  8
0
100
AcDbCircle
 10
230.0875
 20
-60.425
 30
0.0
 40
0.75
100
AcDbArc
 50
0.0
 51
90.0
  0
ARC
  5
2BB
330
FA
100
AcDbEntity
  8
0
100
AcDbCircle
 10
217.5875
 20
-72.925
 30
0.0
 40
0.75
100
AcDbArc
 50
180.0
 51
270.0
  0
ARC
  5
2BC
330
FA
100
AcDbEntity
  8
0
100
AcDbCircle
 10
230.0875
 20
-72.925
 30
0.0
 40
0.75
100
AcDbArc
 50
270.0
 51
360.0
  0
LINE
  5
2BD
330
FA
100
AcDbEntity
  8
0
100
AcDbLine
 10
243.78125
 20
-59.675
 30
0.0
 11
256.28125
 21
-59.675
 31
0.0
  0
LINE
  5
2BE
330
FA
100
AcDbEntity
  8
0
100
AcDbLine
 10
243.78125
 20
-73.67499999999998
 30
0.0
 11
256.28125
 21
-73.67499999999998
 31
0.0
  0
LINE
  5
2BF
330
FA
100
AcDbEntity
  8
0
100
AcDbLine
 10
243.03125
 20
-60.425
 30
0.0
 11
243.03125
 21
-72.925
 31
0.0
  0
LINE
  5
2C0
330
FA
100
AcDbEntity
  8
0
100
AcDbLine
 10
257.03125
 20
-60.425
 30
0.0
 11
257.03125
 21
-72.925
 31
0.0
  0
ARC
  5
2C1
330
FA
100
AcDbEntity
  8
0
100
AcDbCircle
 10
243.78125
 20
-60.425
 30
0.0
 40
0.75
100
AcDbArc
 50
90.0
 51
180.0
  0
ARC
  5
2C2
330
FA
100
AcDbEntity
  8
0
100
AcDbCircle
 10
256.28125
 20
-60.425
 30
0.0
 40
0.75
100
AcDbArc
 50
0.0
 51
90.0
  0
ARC
  5
2C3
330
FA
100
AcDbEntity
  8
0
100
AcDbCircle
 10
243.78125
 20
-72.925
 30
0.0
 40
0.75
100
AcDbArc
 50
180.0
 51
270.0
  0
ARC
  5
2C4
330
FA
100
AcDbEntity
  8
0
100
AcDbCircle
 10
256.28125
 20
-72.925
 30
0.0
 40
0.75
100
AcDbArc
 50
270.0
 51
360.0
  0
LINE
  5
2C5
330
FA
100
AcDbEntity
  8
0
100
AcDbLine
 10
269.975
 20
-59.675
 30
0.0
 11
282.475
 21
-59.675
 31
0.0
  0
LINE
  5
2C6
330
FA
100
AcDbEntity
  8
0
100
AcDbLine
 10
269.975
 20
-73.67499999999998
 30
0.0
 11
282.475
 21
-73.67499999999998
 31
0.0
  0
LINE
  5
2C7
330
FA
100
AcDbEntity
  8
0
100
AcDbLine
 10
269.225
 20
-60.425
 30
0.0
 11
269.225
 21
-72.925
 31
0.0
  0
LINE
  5
2C8
330
FA
100
AcDbEntity
  8
0
100
AcDbLine
 10
283.225
 20
-60.425
 30
0.0
 11
283.225
 21
-72.925
 31
0.0
  0
ARC
  5
2C9
330
FA
100
AcDbEntity
  8
0
100
AcDbCircle
 10
269.975
 20
-60.425
 30
0.0
 40
0.75
100
AcDbArc
 50
90.0
 51
180.0
  0
ARC
  5
2CA
330
FA
100
AcDbEntity
  8
0
100
AcDbCircle
 10
282.475
 20
-60.425
 30
0.0
 40
0.75
100
AcDbArc
 50
0.0
 51
90.0
  0
ARC
  5
2CB
330
FA
100
AcDbEntity
  8
0
100
AcDbCircle
 10
269.975
 20
-72.925
 30
0.0
 40
0.75
100
AcDbArc
 50
180.0
 51
270.0
  0
ARC
  5
2CC
330
FA
100
AcDbEntity
  8
0
100
AcDbCircle
 10
282.475
 20
-72.925
 30
0.0
 40
0.75
100
AcDbArc
 50
270.0
 51
360.0
  0
LINE
  5
2CD
330
FA
100
AcDbEntity
  8
0
100
AcDbLine
 10
289.025
 20
-59.675
 30
0.0
 11
301.525
 21
-59.675
 31
0.0
  0
LINE
  5
2CE
330
FA
100
AcDbEntity
  8
0
100
AcDbLine
 10
289.025
 20
-73.67499999999998
 30
0.0
 11
301.525
 21
-73.67499999999998
 31
0.0
  0
LINE
  5
2CF
330
FA
100
AcDbEntity
  8
0
100
AcDbLine
 10
288.275
 20
-60.425
 30
0.0
 11
288.275
 21
-72.925
 31
0.0
  0
LINE
  5
2D0
330
FA
100
AcDbEntity
  8
0
100
AcDbLine
 10
302.275
 20
-60.425
 30
0.0
 11
302.275
 21
-72.925
 31
0.0
  0
ARC
  5
2D1
330
FA
100
AcDbEntity
  8
0
100
AcDbCircle
 10
289.025
 20
-60.425
 30
0.0
 40
0.75
100
AcDbArc
 50
90.0
 51
180.0
  0
ARC
  5
2D2
330
FA
100
AcDbEntity
  8
0
100
AcDbCircle
 10
301.525
 20
-60.425
 30
0.0
 40
0.75
100
AcDbArc
 50
0.0
 51
90.0
  0
ARC
  5
2D3
330
FA
100
AcDbEntity
  8
0
100
AcDbCircle
 10
289.025
 20
-72.925
 30
0.0
 40
0.75
100
AcDbArc
 50
180.0
 51
270.0
  0
ARC
  5
2D4
330
FA
100
AcDbEntity
  8
0
100
AcDbCircle
 10
301.525
 20
-72.925
 30
0.0
 40
0.75
100
AcDbArc
 50
270.0
 51
360.0
  0
LINE
  5
2D5
330
FA
100
AcDbEntity
  8
0
100
AcDbLine
 10
4.90625
 20
-79.47499999999998
 30
0.0
 11
4.90625
 21
-91.97499999999999
 31
0.0
  0
ARC
  5
2D6
330
FA
100
AcDbEntity
  8
0
100
AcDbCircle
 10
5.65625
 20
-79.47499999999998
 30
0.0
 40
0.75
100
AcDbArc
 50
90.0
 51
180.0
  0
ARC
  5
2D7
330
FA
100
AcDbEntity
  8
0
100
AcDbCircle
 10
5.65625
 20
-91.97499999999999
 30
0.0
 40
0.75
100
AcDbArc
 50
180.0
 51
270.0
  0
LINE
  5
2D8
330
FA
100
AcDbEntity
  8
0
100
AcDbLine
 10
21.2875
 20
-79.47499999999998
 30
0.0
 11
21.2875
 21
-91.97499999999999
 31
0.0
  0
ARC
  5
2D9
330
FA
100
AcDbEntity
  8
0
100
AcDbCircle
 10
20.5375
 20
-79.47499999999998
 30
0.0
 40
0.75
100
AcDbArc
 50
0.0
 51
90.0
  0
ARC
  5
2DA
330
FA
100
AcDbEntity
  8
0
100
AcDbCircle
 10
20.5375
 20
-91.97499999999999
 30
0.0
 40
0.75
100
AcDbArc
 50
270.0
 51
360.0
  0
LINE
  5
2DB
330
FA
100
AcDbEntity
  8
0
100
AcDbLine
 10
28.71875
 20
-79.47499999999998
 30
0.0
 11
28.71875
 21
-91.97499999999999
 31
0.0
  0
ARC
  5
2DC
330
FA
100
AcDbEntity
  8
0
100
AcDbCircle
 10
29.46875
 20
-79.47499999999998
 30
0.0
 40
0.75
100
AcDbArc
 50
90.0
 51
180.0
  0
ARC
  5
2DD
330
FA
100
AcDbEntity
  8
0
100
AcDbCircle
 10
29.46875
 20
-91.97499999999999
 30
0.0
 40
0.75
100
AcDbArc
 50
180.0
 51
270.0
  0
LINE
  5
2DE
330
FA
100
AcDbEntity
  8
0
100
AcDbLine
 10
49.8625
 20
-79.47499999999998
 30
0.0
 11
49.8625
 21
-91.97499999999999
 31
0.0
  0
ARC
  5
2DF
330
FA
100
AcDbEntity
  8
0
100
AcDbCircle
 10
49.11249999999999
 20
-79.47499999999998
 30
0.0
 40
0.75
100
AcDbArc
 50
0.0
 51
90.0
  0
ARC
  5
2E0
330
FA
100
AcDbEntity
  8
0
100
AcDbCircle
 10
49.11249999999999
 20
-91.97499999999999
 30
0.0
 40
0.75
100
AcDbArc
 50
270.0
 51
360.0
  0
LINE
  5
2E1
330
FA
100
AcDbEntity
  8
0
100
AcDbLine
 10
53.28125
 20
-92.72499999999999
 30
0.0
 11
65.78125
 21
-92.72499999999999
 31
0.0
  0
LINE
  5
2E2
330
FA
100
AcDbEntity
  8
0
100
AcDbLine
 10
52.53125
 20
-79.47499999999998
 30
0.0
 11
52.53125
 21
-91.97499999999999
 31
0.0
  0
ARC
  5
2E3
330
FA
100
AcDbEntity
  8
0
100
AcDbCircle
 10
53.28125
 20
-79.47499999999998
 30
0.0
 40
0.75
100
AcDbArc
 50
90.0
 51
180.0
  0
ARC
  5
2E4
330
FA
100
AcDbEntity
  8
0
100
AcDbCircle
 10
53.28125
 20
-91.97499999999999
 30
0.0
 40
0.75
100
AcDbArc
 50
180.0
 51
270.0
  0
ARC
  5
2E5
330
FA
100
AcDbEntity
  8
0
100
AcDbCircle
 10
65.78125
 20
-91.97499999999999
 30
0.0
 40
0.75
100
AcDbArc
 50
270.0
 51
334.6230664748468
  0
LINE
  5
2E6
330
FA
100
AcDbEntity
  8
0
100
AcDbLine
 10
116.825
 20
-79.47499999999998
 30
0.0
 11
116.825
 21
-91.97499999999999
 31
0.0
  0
ARC
  5
2E7
330
FA
100
AcDbEntity
  8
0
100
AcDbCircle
 10
117.575
 20
-79.47499999999998
 30
0.0
 40
0.75
100
AcDbArc
 50
90.0
 51
180.0
  0
ARC
  5
2E8
330
FA
100
AcDbEntity
  8
0
100
AcDbCircle
 10
117.575
 20
-91.97499999999999
 30
0.0
 40
0.75
100
AcDbArc
 50
180.0
 51
270.0
  0
LINE
  5
2E9
330
FA
100
AcDbEntity
  8
0
100
AcDbLine
 10
69.42499999999999
 20
-76.72499999999998
 30
0.0
 11
63.925
 21
-76.72499999999998
 31
0.0
  0
LINE
  5
2EA
330
FA
100
AcDbEntity
  8
0
100
AcDbLine
 10
70.175
 20
-90.975
 30
0.0
 11
70.175
 21
-77.47499999999998
 31
0.0
  0
ARC
  5
2EB
330
FA
100
AcDbEntity
  8
0
100
AcDbCircle
 10
69.42499999999999
 20
-90.975
 30
0.0
 40
0.75
100
AcDbArc
 50
-90.0
 51
0.0
  0
ARC
  5
2EC
330
FA
100
AcDbEntity
  8
0
100
AcDbCircle
 10
69.42499999999999
 20
-77.47499999999998
 30
0.0
 40
0.75
100
AcDbArc
 50
0.0
 51
90.0
  0
ARC
  5
2ED
330
FA
100
AcDbEntity
  8
0
100
AcDbCircle
 10
63.925
 20
-77.47499999999998
 30
0.0
 40
0.75
100
AcDbArc
 50
90.0
 51
180.0
  0
LINE
  5
2EE
330
FA
100
AcDbEntity
  8
0
100
AcDbLine
 10
183.725
 20
-91.72499999999999
 30
0.0
 11
178.225
 21
-91.72499999999999
 31
0.0
  0
LINE
  5
2EF
330
FA
100
AcDbEntity
  8
0
100
AcDbLine
 10
183.725
 20
-76.72499999999998
 30
0.0
 11
178.225
 21
-76.72499999999998
 31
0.0
  0
LINE
  5
2F0
330
FA
100
AcDbEntity
  8
0
100
AcDbLine
 10
184.475
 20
-90.975
 30
0.0
 11
184.475
 21
-77.47499999999998
 31
0.0
  0
LINE
  5
2F1
330
FA
100
AcDbEntity
  8
0
100
AcDbLine
 10
177.475
 20
-90.975
 30
0.0
 11
177.475
 21
-77.47499999999998
 31
0.0
  0
ARC
  5
2F2
330
FA
100
AcDbEntity
  8
0
100
AcDbCircle
 10
183.725
 20
-90.975
 30
0.0
 40
0.75
100
AcDbArc
 50
-90.0
 51
0.0
  0
ARC
  5
2F3
330
FA
100
AcDbEntity
  8
0
100
AcDbCircle
 10
178.225
 20
-90.975
 30
0.0
 40
0.75
100
AcDbArc
 50
-180.0
 51
-90.0
  0
ARC
  5
2F4
330
FA
100
AcDbEntity
  8
0
100
AcDbCircle
 10
183.725
 20
-77.47499999999998
 30
0.0
 40
0.75
100
AcDbArc
 50
0.0
 51
90.0
  0
ARC
  5
2F5
330
FA
100
AcDbEntity
  8
0
100
AcDbCircle
 10
178.225
 20
-77.47499999999998
 30
0.0
 40
0.75
100
AcDbArc
 50
90.0
 51
180.0
  0
LINE
  5
2F6
330
FA
100
AcDbEntity
  8
0
100
AcDbLine
 10
137.96875
 20
-79.47499999999998
 30
0.0
 11
137.96875
 21
-91.97499999999999
 31
0.0
  0
ARC
  5
2F7
330
FA
100
AcDbEntity
  8
0
100
AcDbCircle
 10
137.21875
 20
-79.47499999999998
 30
0.0
 40
0.75
100
AcDbArc
 50
0.0
 51
90.0
  0
ARC
  5
2F8
330
FA
100
AcDbEntity
  8
0
100
AcDbCircle
 10
137.21875
 20
-91.97499999999999
 30
0.0
 40
0.75
100
AcDbArc
 50
270.0
 51
360.0
  0
LINE
  5
2F9
330
FA
100
AcDbEntity
  8
0
100
AcDbLine
 10
83.71875000000001
 20
-91.72499999999999
 30
0.0
 11
78.21875
 21
-91.72499999999999
 31
0.0
  0
LINE
  5
2FA
330
FA
100
AcDbEntity
  8
0
100
AcDbLine
 10
83.71875000000001
 20
-76.72499999999998
 30
0.0
 11
78.21875
 21
-76.72499999999998
 31
0.0
  0
LINE
  5
2FB
330
FA
100
AcDbEntity
  8
0
100
AcDbLine
 10
84.46875
 20
-90.975
 30
0.0
 11
84.46875
 21
-77.47499999999998
 31
0.0
  0
LINE
  5
2FC
330
FA
100
AcDbEntity
  8
0
100
AcDbLine
 10
77.46875
 20
-90.975
 30
0.0
 11
77.46875
 21
-77.47499999999998
 31
0.0
  0
ARC
  5
2FD
330
FA
100
AcDbEntity
  8
0
100
AcDbCircle
 10
83.71875000000001
 20
-90.975
 30
0.0
 40
0.75
100
AcDbArc
 50
-90.0
 51
0.0
  0
ARC
  5
2FE
330
FA
100
AcDbEntity
  8
0
100
AcDbCircle
 10
78.21875
 20
-90.975
 30
0.0
 40
0.75
100
AcDbArc
 50
-180.0
 51
-90.0
  0
ARC
  5
2FF
330
FA
100
AcDbEntity
  8
0
100
AcDbCircle
 10
83.71875000000001
 20
-77.47499999999998
 30
0.0
 40
0.75
100
AcDbArc
 50
0.0
 51
90.0
  0
ARC
  5
300
330
FA
100
AcDbEntity
  8
0
100
AcDbCircle
 10
78.21875
 20
-77.47499999999998
 30
0.0
 40
0.75
100
AcDbArc
 50
90.0
 51
180.0
  0
LINE
  5
301
330
FA
100
AcDbEntity
  8
0
100
AcDbLine
 10
183.71875
 20
-91.72499999999999
 30
0.0
 11
178.21875
 21
-91.72499999999999
 31
0.0
  0
LINE
  5
302
330
FA
100
AcDbEntity
  8
0
100
AcDbLine
 10
183.71875
 20
-76.72499999999998
 30
0.0
 11
178.21875
 21
-76.72499999999998
 31
0.0
  0
LINE
  5
303
330
FA
100
AcDbEntity
  8
0
100
AcDbLine
 10
184.46875
 20
-90.975
 30
0.0
 11
184.46875
 21
-77.47499999999998
 31
0.0
  0
LINE
  5
304
330
FA
100
AcDbEntity
  8
0
100
AcDbLine
 10
177.46875
 20
-90.975
 30
0.0
 11
177.46875
 21
-77.47499999999998
 31
0.0
  0
ARC
  5
305
330
FA
100
AcDbEntity
  8
0
100
AcDbCircle
 10
183.71875
 20
-90.975
 30
0.0
 40
0.75
100
AcDbArc
 50
-90.0
 51
0.0
  0
ARC
  5
306
330
FA
100
AcDbEntity
  8
0
100
AcDbCircle
 10
178.21875
 20
-90.975
 30
0.0
 40
0.75
100
AcDbArc
 50
-180.0
 51
-90.0
  0
ARC
  5
307
330
FA
100
AcDbEntity
  8
0
100
AcDbCircle
 10
183.71875
 20
-77.47499999999998
 30
0.0
 40
0.75
100
AcDbArc
 50
0.0
 51
90.0
  0
ARC
  5
308
330
FA
100
AcDbEntity
  8
0
100
AcDbCircle
 10
178.21875
 20
-77.47499999999998
 30
0.0
 40
0.75
100
AcDbArc
 50
90.0
 51
180.0
  0
LINE
  5
309
330
FA
100
AcDbEntity
  8
0
100
AcDbLine
 10
193.025
 20
-79.47499999999998
 30
0.0
 11
193.025
 21
-91.97499999999999
 31
0.0
  0
ARC
  5
30A
330
FA
100
AcDbEntity
  8
0
100
AcDbCircle
 10
193.775
 20
-79.47499999999998
 30
0.0
 40
0.75
100
AcDbArc
 50
90.0
 51
180.0
  0
ARC
  5
30B
330
FA
100
AcDbEntity
  8
0
100
AcDbCircle
 10
193.775
 20
-91.97499999999999
 30
0.0
 40
0.75
100
AcDbArc
 50
180.0
 51
270.0
  0
LINE
  5
30C
330
FA
100
AcDbEntity
  8
0
100
AcDbLine
 10
245.125
 20
-79.47499999999998
 30
0.0
 11
245.125
 21
-91.97499999999999
 31
0.0
  0
ARC
  5
30D
330
FA
100
AcDbEntity
  8
0
100
AcDbCircle
 10
244.375
 20
-79.47499999999998
 30
0.0
 40
0.75
100
AcDbArc
 50
0.0
 51
90.0
  0
ARC
  5
30E
330
FA
100
AcDbEntity
  8
0
100
AcDbCircle
 10
244.375
 20
-91.97499999999999
 30
0.0
 40
0.75
100
AcDbArc
 50
270.0
 51
360.0
  0
LINE
  5
30F
330
FA
100
AcDbEntity
  8
0
100
AcDbLine
 10
250.925
 20
-78.72499999999998
 30
0.0
 11
263.425
 21
-78.72499999999998
 31
0.0
  0
LINE
  5
310
330
FA
100
AcDbEntity
  8
0
100
AcDbLine
 10
250.925
 20
-92.72499999999999
 30
0.0
 11
263.425
 21
-92.72499999999999
 31
0.0
  0
LINE
  5
311
330
FA
100
AcDbEntity
  8
0
100
AcDbLine
 10
250.175
 20
-79.47499999999998
 30
0.0
 11
250.175
 21
-91.97499999999999
 31
0.0
  0
LINE
  5
312
330
FA
100
AcDbEntity
  8
0
100
AcDbLine
 10
264.175
 20
-79.47499999999998
 30
0.0
 11
264.175
 21
-91.97499999999999
 31
0.0
  0
ARC
  5
313
330
FA
100
AcDbEntity
  8
0
100
AcDbCircle
 10
250.925
 20
-79.47499999999998
 30
0.0
 40
0.75
100
AcDbArc
 50
90.0
 51
180.0
  0
ARC
  5
314
330
FA
100
AcDbEntity
  8
0
100
AcDbCircle
 10
263.425
 20
-79.47499999999998
 30
0.0
 40
0.75
100
AcDbArc
 50
0.0
 51
90.0
  0
ARC
  5
315
330
FA
100
AcDbEntity
  8
0
100
AcDbCircle
 10
250.925
 20
-91.97499999999999
 30
0.0
 40
0.75
100
AcDbArc
 50
180.0
 51
270.0
  0
ARC
  5
316
330
FA
100
AcDbEntity
  8
0
100
AcDbCircle
 10
263.425
 20
-91.97499999999999
 30
0.0
 40
0.75
100
AcDbArc
 50
270.0
 51
360.0
  0
LINE
  5
317
330
FA
100
AcDbEntity
  8
0
100
AcDbLine
 10
269.975
 20
-78.72499999999998
 30
0.0
 11
282.475
 21
-78.72499999999998
 31
0.0
  0
LINE
  5
318
330
FA
100
AcDbEntity
  8
0
100
AcDbLine
 10
269.975
 20
-92.72499999999999
 30
0.0
 11
282.475
 21
-92.72499999999999
 31
0.0
  0
LINE
  5
319
330
FA
100
AcDbEntity
  8
0
100
AcDbLine
 10
269.225
 20
-79.47499999999998
 30
0.0
 11
269.225
 21
-91.97499999999999
 31
0.0
  0
LINE
  5
31A
330
FA
100
AcDbEntity
  8
0
100
AcDbLine
 10
283.225
 20
-79.47499999999998
 30
0.0
 11
283.225
 21
-91.97499999999999
 31
0.0
  0
ARC
  5
31B
330
FA
100
AcDbEntity
  8
0
100
AcDbCircle
 10
269.975
 20
-79.47499999999998
 30
0.0
 40
0.75
100
AcDbArc
 50
90.0
 51
180.0
  0
ARC
  5
31C
330
FA
100
AcDbEntity
  8
0
100
AcDbCircle
 10
282.475
 20
-79.47499999999998
 30
0.0
 40
0.75
100
AcDbArc
 50
0.0
 51
90.0
  0
ARC
  5
31D
330
FA
100
AcDbEntity
  8
0
100
AcDbCircle
 10
269.975
 20
-91.97499999999999
 30
0.0
 40
0.75
100
AcDbArc
 50
180.0
 51
270.0
  0
ARC
  5
31E
330
FA
100
AcDbEntity
  8
0
100
AcDbCircle
 10
282.475
 20
-91.97499999999999
 30
0.0
 40
0.75
100
AcDbArc
 50
270.0
 51
360.0
  0
LINE
  5
31F
330
FA
100
AcDbEntity
  8
0
100
AcDbLine
 10
289.025
 20
-78.72499999999998
 30
0.0
 11
301.525
 21
-78.72499999999998
 31
0.0
  0
LINE
  5
320
330
FA
100
AcDbEntity
  8
0
100
AcDbLine
 10
289.025
 20
-92.72499999999999
 30
0.0
 11
301.525
 21
-92.72499999999999
 31
0.0
  0
LINE
  5
321
330
FA
100
AcDbEntity
  8
0
100
AcDbLine
 10
288.275
 20
-79.47499999999998
 30
0.0
 11
288.275
 21
-91.97499999999999
 31
0.0
  0
LINE
  5
322
330
FA
100
AcDbEntity
  8
0
100
AcDbLine
 10
302.275
 20
-79.47499999999998
 30
0.0
 11
302.275
 21
-91.97499999999999
 31
0.0
  0
ARC
  5
323
330
FA
100
AcDbEntity
  8
0
100
AcDbCircle
 10
289.025
 20
-79.47499999999998
 30
0.0
 40
0.75
100
AcDbArc
 50
90.0
 51
180.0
  0
ARC
  5
324
330
FA
100
AcDbEntity
  8
0
100
AcDbCircle
 10
301.525
 20
-79.47499999999998
 30
0.0
 40
0.75
100
AcDbArc
 50
0.0
 51
90.0
  0
ARC
  5
325
330
FA
100
AcDbEntity
  8
0
100
AcDbCircle
 10
289.025
 20
-91.97499999999999
 30
0.0
 40
0.75
100
AcDbArc
 50
180.0
 51
270.0
  0
ARC
  5
326
330
FA
100
AcDbEntity
  8
0
100
AcDbCircle
 10
301.525
 20
-91.97499999999999
 30
0.0
 40
0.75
100
AcDbArc
 50
270.0
 51
360.0
  0
LINE
  5
327
330
FA
100
AcDbEntity
  8
0
100
AcDbLine
 10
193.775
 20
-78.72499999999998
 30
0.0
 11
244.375
 21
-78.72499999999998
 31
0.0
  0
LINE
  5
328
330
FA
100
AcDbEntity
  8
0
100
AcDbLine
 10
193.775
 20
-92.72499999999999
 30
0.0
 11
244.375
 21
-92.72499999999999
 31
0.0
  0
LINE
  5
329
330
FA
100
AcDbEntity
  8
0
100
AcDbLine
 10
117.575
 20
-78.72499999999998
 30
0.0
 11
137.21875
 21
-78.72499999999998
 31
0.0
  0
LINE
  5
32A
330
FA
100
AcDbEntity
  8
0
100
AcDbLine
 10
117.575
 20
-92.72499999999999
 30
0.0
 11
137.21875
 21
-92.72499999999999
 31
0.0
  0
LINE
  5
32B
330
FA
100
AcDbEntity
  8
0
100
AcDbLine
 10
67.36238883008418
 20
-91.72499999999999
 30
0.0
 11
69.42499999999999
 21
-91.72499999999999
 31
0.0
  0
LINE
  5
32C
330
FA
100
AcDbEntity
  8
0
100
AcDbLine
 10
53.28125
 20
-78.72499999999998
 30
0.0
 11
62.175
 21
-78.72499999999998
 31
0.0
  0
LINE
  5
32D
330
FA
100
AcDbEntity
  8
0
100
AcDbLine
 10
63.17499999999999
 20
-77.72499999999998
 30
0.0
 11
63.17499999999999
 21
-77.47499999999998
 31
0.0
  0
ARC
  5
32E
330
FA
100
AcDbEntity
  8
0
100
AcDbCircle
 10
62.175
 20
-77.72499999999998
 30
0.0
 40
1.0
100
AcDbArc
 50
270.0
 51
0.0
  0
ARC
  5
32F
330
FA
100
AcDbEntity
  8
0
100
AcDbCircle
 10
67.36238883008418
 20
-92.72499999999999
 30
0.0
 40
1.0
100
AcDbArc
 50
90.0
 51
154.6230664748475
  0
LINE
  5
330
330
FA
100
AcDbEntity
  8
0
100
AcDbLine
 10
29.46875
 20
-78.72499999999998
 30
0.0
 11
49.11249999999999
 21
-78.72499999999998
 31
0.0
  0
LINE
  5
331
330
FA
100
AcDbEntity
  8
0
100
AcDbLine
 10
29.46875
 20
-92.72499999999999
 30
0.0
 11
49.11249999999999
 21
-92.72499999999999
 31
0.0
  0
LINE
  5
332
330
FA
100
AcDbEntity
  8
0
100
AcDbLine
 10
5.65625
 20
-78.72499999999998
 30
0.0
 11
20.5375
 21
-78.72499999999998
 31
0.0
  0
LINE
  5
333
330
FA
100
AcDbEntity
  8
0
100
AcDbLine
 10
5.65625
 20
-92.72499999999999
 30
0.0
 11
20.5375
 21
-92.72499999999999
 31
0.0
  0
LINE
  5
334
330
FA
100
AcDbEntity
  8
0
100
AcDbLine
 10
5.993249999999997
 20
-74.92499999999998
 30
0.0
 11
5.993249999999997
 21
-74.54454654147387
 31
0.0
  0
LINE
  5
335
330
FA
100
AcDbEntity
  8
0
100
AcDbLine
 10
12.99325
 20
-74.92499999999998
 30
0.0
 11
12.99325
 21
-74.675
 31
0.0
  0
LINE
  5
336
330
FA
100
AcDbEntity
  8
0
100
AcDbLine
 10
29.86925
 20
-74.92499999999998
 30
0.0
 11
29.86925
 21
-74.675
 31
0.0
  0
LINE
  5
337
330
FA
100
AcDbEntity
  8
0
100
AcDbLine
 10
36.86925
 20
-74.92499999999998
 30
0.0
 11
36.86925
 21
-74.675
 31
0.0
  0
LINE
  5
338
330
FA
100
AcDbEntity
  8
0
100
AcDbLine
 10
5.65625
 20
-59.675
 30
0.0
 11
39.5875
 21
-59.675
 31
0.0
  0
LINE
  5
339
330
FA
100
AcDbEntity
  8
0
100
AcDbLine
 10
37.86925
 20
-73.67499999999998
 30
0.0
 11
39.5875
 21
-73.67499999999998
 31
0.0
  0
LINE
  5
33A
330
FA
100
AcDbEntity
  8
0
100
AcDbLine
 10
28.86925
 20
-73.67499999999998
 30
0.0
 11
13.99325
 21
-73.67499999999998
 31
0.0
  0
ARC
  5
33B
330
FA
100
AcDbEntity
  8
0
100
AcDbCircle
 10
4.993249999999997
 20
-74.54454654147387
 30
0.0
 40
1.0
100
AcDbArc
 50
0.0
 51
67.73709058969711
  0
ARC
  5
33C
330
FA
100
AcDbEntity
  8
0
100
AcDbCircle
 10
13.99325
 20
-74.675
 30
0.0
 40
1.0
100
AcDbArc
 50
90.0
 51
180.0
  0
ARC
  5
33D
330
FA
100
AcDbEntity
  8
0
100
AcDbCircle
 10
28.86925
 20
-74.675
 30
0.0
 40
1.0
100
AcDbArc
 50
0.0
 51
90.0
  0
ARC
  5
33E
330
FA
100
AcDbEntity
  8
0
100
AcDbCircle
 10
37.86925
 20
-74.675
 30
0.0
 40
1.0
100
AcDbArc
 50
90.0
 51
180.0
  0
LINE
  5
33F
330
FA
100
AcDbEntity
  8
0
100
AcDbLine
 10
5.65625
 20
-40.625
 30
0.0
 11
22.91875
 21
-40.625
 31
0.0
  0
LINE
  5
340
330
FA
100
AcDbEntity
  8
0
100
AcDbLine
 10
5.65625
 20
-54.625
 30
0.0
 11
22.91875
 21
-54.625
 31
0.0
  0
LINE
  5
341
330
FA
100
AcDbEntity
  8
0
100
AcDbLine
 10
252.012
 20
-3.524999999999999
 30
0.0
 11
258.8688611699158
 21
-3.524999999999999
 31
0.0
  0
LINE
  5
342
330
FA
100
AcDbEntity
  8
0
100
AcDbLine
 10
281.388
 20
-3.524999999999999
 30
0.0
 11
274.5311388300842
 21
-3.524999999999999
 31
0.0
  0
LINE
  5
343
330
FA
100
AcDbEntity
  8
0
100
AcDbLine
 10
258.262
 20
-17.775
 30
0.0
 11
258.262
 21
-17.525
 31
0.0
  0
LINE
  5
344
330
FA
100
AcDbEntity
  8
0
100
AcDbLine
 10
275.138
 20
-17.775
 30
0.0
 11
275.138
 21
-17.525
 31
0.0
  0
LINE
  5
345
330
FA
100
AcDbEntity
  8
0
100
AcDbLine
 10
259.262
 20
-16.525
 30
0.0
 11
274.138
 21
-16.525
 31
0.0
  0
ARC
  5
346
330
FA
100
AcDbEntity
  8
0
100
AcDbCircle
 10
258.8688611699158
 20
-2.524999999999999
 30
0.0
 40
1.0
100
AcDbArc
 50
270.0
 51
334.6230664748473
  0
ARC
  5
347
330
FA
100
AcDbEntity
  8
0
100
AcDbCircle
 10
274.5311388300842
 20
-2.524999999999999
 30
0.0
 40
1.0
100
AcDbArc
 50
205.3769335251526
 51
270.0
  0
ARC
  5
348
330
FA
100
AcDbEntity
  8
0
100
AcDbCircle
 10
259.262
 20
-17.525
 30
0.0
 40
1.0
100
AcDbArc
 50
90.0
 51
180.0
  0
ARC
  5
349
330
FA
100
AcDbEntity
  8
0
100
AcDbCircle
 10
274.138
 20
-17.525
 30
0.0
 40
1.0
100
AcDbArc
 50
0.0
 51
90.0
  0
ARC
  5
34A
330
FA
100
AcDbEntity
  8
0
100
AcDbCircle
 10
279.3390100387059
 20
-21.67927165619824
 30
0.0
 40
1.0
100
AcDbArc
 50
201.6531950431791
 51
261.9435551964166
  0
LINE
  5
34B
330
FA
100
AcDbEntity
  8
0
100
AcDbLine
 10
279.84375
 20
-23.412
 30
0.0
 11
279.84375
 21
-30.26886116991582
 31
0.0
  0
ARC
  5
34C
330
FA
100
AcDbEntity
  8
0
100
AcDbCircle
 10
280.84375
 20
-30.26886116991582
 30
0.0
 40
1.0
100
AcDbArc
 50
180.0
 51
244.6230664748468
  0
LINE
  5
34D
330
FA
100
AcDbEntity
  8
0
100
AcDbLine
 10
265.2125
 20
-35.575
 30
0.0
 11
265.84375
 21
-35.575
 31
0.0
  0
LINE
  5
34E
330
FA
100
AcDbEntity
  8
0
100
AcDbLine
 10
266.84375
 20
-36.57500000000001
 30
0.0
 11
266.84375
 21
-39.625
 31
0.0
  0
LINE
  5
34F
330
FA
100
AcDbEntity
  8
0
100
AcDbLine
 10
265.84375
 20
-40.625
 30
0.0
 11
246.1625
 21
-40.625
 31
0.0
  0
ARC
  5
350
330
FA
100
AcDbEntity
  8
0
100
AcDbCircle
 10
265.84375
 20
-36.57500000000001
 30
0.0
 40
1.0
100
AcDbArc
 50
0.0
 51
90.0
  0
ARC
  5
351
330
FA
100
AcDbEntity
  8
0
100
AcDbCircle
 10
265.84375
 20
-39.625
 30
0.0
 40
1.0
100
AcDbArc
 50
270.0
 51
0.0
  0
LINE
  5
352
330
FA
100
AcDbEntity
  8
0
100
AcDbLine
 10
248.88075
 20
-55.875
 30
0.0
 11
248.88075
 21
-55.625
 31
0.0
  0
LINE
  5
353
330
FA
100
AcDbEntity
  8
0
100
AcDbLine
 10
255.88075
 20
-55.875
 30
0.0
 11
255.88075
 21
-55.625
 31
0.0
  0
LINE
  5
354
330
FA
100
AcDbEntity
  8
0
100
AcDbLine
 10
246.1625
 20
-54.625
 30
0.0
 11
247.88075
 21
-54.625
 31
0.0
  0
LINE
  5
355
330
FA
100
AcDbEntity
  8
0
100
AcDbLine
 10
256.8807500000001
 20
-54.625
 30
0.0
 11
271.75675
 21
-54.625
 31
0.0
  0
ARC
  5
356
330
FA
100
AcDbEntity
  8
0
100
AcDbCircle
 10
247.88075
 20
-55.625
 30
0.0
 40
1.0
100
AcDbArc
 50
0.0
 51
90.0
  0
ARC
  5
357
330
FA
100
AcDbEntity
  8
0
100
AcDbCircle
 10
256.8807500000001
 20
-55.625
 30
0.0
 40
1.0
100
AcDbArc
 50
90.0
 51
180.0
  0
LINE
  5
358
330
FA
100
AcDbEntity
  8
0
100
AcDbLine
 10
272.75675
 20
-55.875
 30
0.0
 11
272.75675
 21
-55.625
 31
0.0
  0
ARC
  5
359
330
FA
100
AcDbEntity
  8
0
100
AcDbCircle
 10
271.75675
 20
-55.625
 30
0.0
 40
1.0
100
AcDbArc
 50
0.0
 51
90.0
  0
LINE
  5
35A
330
FA
100
AcDbEntity
  8
0
100
AcDbLine
 10
273.50675
 20
-56.625
 30
0.0
 11
279.09375
 21
-56.625
 31
0.0
  0
LINE
  5
35B
330
FA
100
AcDbEntity
  8
0
100
AcDbLine
 10
279.84375
 20
-55.875
 30
0.0
 11
279.84375
 21
-45.93113883008418
 31
0.0
  0
ARC
  5
35C
330
FA
100
AcDbEntity
  8
0
100
AcDbCircle
 10
280.84375
 20
-45.93113883008418
 30
0.0
 40
1.0
100
AcDbArc
 50
115.3769335251534
 51
180.0
  0
ARC
  5
35D
330
FA
100
AcDbEntity
  8
0
100
AcDbCircle
 10
279.09375
 20
-55.875
 30
0.0
 40
0.75
100
AcDbArc
 50
270.0
 51
0.0
  0
ENDBLK
  5
35E
330
FA
100
AcDbEntity
  8
0
100
AcDbBlockEnd
  0
BLOCK
  5
368
330
364
100
AcDbEntity
  8
0
100
AcDbBlockBegin
  2
A$C7790b3b6
 70
     0
 10
0.0
 20
0.0
 30
0.0
  3
A$C7790b3b6
  1

  0
INSERT
  5
365
330
364
100
AcDbEntity
  8
0
100
AcDbBlockReference
  2
discipline-plate-base
 10
-2.525000029903145
 20
92.72499970645382
 30
0.0
  0
ENDBLK
  5
369
330
364
100
AcDbEntity
  8
0
100
AcDbBlockEnd
  0
ENDSEC
  0
SECTION
  2
ENTITIES
  0
ARC
  5
7B
330
70
100
AcDbEntity
  8
GanJing-open-layer v1_0
100
AcDbCircle
 10
16.89592545758425
 20
19.85611466177554
 30
0.0
 40
3.732002015280099
100
AcDbArc
 50
180.0
 51
269.9999999038485
  0
LINE
  5
7C
330
70
100
AcDbEntity
  8
GanJing-open-layer v1_0
100
AcDbLine
 10
13.16392344230415
 20
19.85611466177554
 30
0.0
 11
13.16392344230446
 21
136.0961179359394
 31
0.0
  0
LINE
  5
7D
330
70
100
AcDbEntity
  8
GanJing-open-layer v1_0
100
AcDbLine
 10
318.9080155440249
 20
136.0961179359395
 30
0.0
 11
318.9137717185973
 21
19.85629896926408
 31
0.0
  0
CIRCLE
  5
7E
330
70
100
AcDbEntity
  8
GanJing-open-layer v1_0
100
AcDbCircle
 10
16.89853129926949
 20
12.35983901182201
 30
0.0
 40
1.700000917999996
  0
ARC
  5
7F
330
70
100
AcDbEntity
  8
GanJing-open-layer v1_0
100
AcDbCircle
 10
18.36108445761631
 20
141.8281800312511
 30
0.0
 40
2.000001079999992
100
AcDbArc
 50
270.0
 51
0.0
  0
CIRCLE
  5
80
330
70
100
AcDbEntity
  8
GanJing-open-layer v1_0
100
AcDbCircle
 10
16.89598445761631
 20
143.6389830417512
 30
0.0
 40
1.700000917999996
  0
LINE
  5
83
330
70
100
AcDbEntity
  8
GanJing-open-layer v1_0
100
AcDbLine
 10
5.588919351804467
 20
136.0961179359394
 30
0.0
 11
5.588918444653693
 21
19.90590787998686
 31
0.0
  0
ARC
  5
84
330
70
100
AcDbEntity
  8
GanJing-open-layer v1_0
100
AcDbCircle
 10
315.1759545287132
 20
136.0961179359394
 30
0.0
 40
11.30706510581187
100
AcDbArc
 50
0.0
 51
90.0
  0
CIRCLE
  5
85
330
70
100
AcDbEntity
  8
GanJing-open-layer v1_0
100
AcDbCircle
 10
257.1317080497652
 20
143.6389830417512
 30
0.0
 40
1.700000918000015
  0
LINE
  5
87
330
70
100
AcDbEntity
  8
GanJing-open-layer v1_0
100
AcDbLine
 10
34.36105344871315
 20
145.4031819617514
 30
0.0
 11
34.36105344871319
 21
141.8281800312511
 31
0.0
  0
ARC
  5
89
330
70
100
AcDbEntity
  8
GanJing-open-layer v1_0
100
AcDbCircle
 10
36.36105452871318
 20
145.4031819617514
 30
0.0
 40
2.00000108000001
100
AcDbArc
 50
90.0
 51
180.0
  0
ARC
  5
8A
330
70
100
AcDbEntity
  8
GanJing-open-layer v1_0
100
AcDbCircle
 10
315.1759545287132
 20
136.0961179359395
 30
0.0
 40
3.732061015311741
100
AcDbArc
 50
0.0
 51
90.0
  0
LINE
  5
8B
330
70
100
AcDbEntity
  8
GanJing-open-layer v1_0
100
AcDbLine
 10
20.36108553761629
 20
141.8281800312511
 30
0.0
 11
20.36108553761629
 21
145.4031819617514
 31
0.0
  0
CIRCLE
  5
8C
330
70
100
AcDbEntity
  8
GanJing-open-layer v1_0
100
AcDbCircle
 10
257.131708082419
 20
12.35983901182201
 30
0.0
 40
1.700000917999975
  0
ARC
  5
8D
330
70
100
AcDbEntity
  8
GanJing-open-layer v1_0
100
AcDbCircle
 10
315.1759545287132
 20
19.90270419152989
 30
0.0
 40
11.30706510581183
100
AcDbArc
 50
269.9999999320785
 51
0.0
  0
CIRCLE
  5
8E
330
70
100
AcDbEntity
  8
GanJing-open-layer v1_0
100
AcDbCircle
 10
135.671242493803
 20
12.35983901182201
 30
0.0
 40
1.700000918000015
  0
CIRCLE
  5
8F
330
70
100
AcDbEntity
  8
GanJing-open-layer v1_0
100
AcDbCircle
 10
135.671242461149
 20
143.6389830417512
 30
0.0
 40
1.700000917999975
  0
ARC
  5
90
330
70
100
AcDbEntity
  8
GanJing-open-layer v1_0
100
AcDbCircle
 10
36.36105452871318
 20
141.8281800312511
 30
0.0
 40
2.000001079999973
100
AcDbArc
 50
180.0
 51
270.0
  0
CIRCLE
  5
91
330
70
100
AcDbEntity
  8
GanJing-open-layer v1_0
100
AcDbCircle
 10
315.1759545156727
 20
12.35983901182201
 30
0.0
 40
1.700000917999948
  0
LINE
  5
92
330
70
100
AcDbEntity
  8
GanJing-open-layer v1_0
100
AcDbLine
 10
16.8985312994916
 20
8.595639011822015
 30
0.0
 11
315.1759545153093
 21
8.595639085718032
 31
0.0
  0
ARC
  5
93
330
70
100
AcDbEntity
  8
GanJing-open-layer v1_0
100
AcDbCircle
 10
315.1817697078933
 20
19.8561141612073
 30
0.0
 40
3.732002015280038
100
AcDbArc
 50
269.9999999038479
 51
0.0028372765165617
  0
CIRCLE
  5
94
330
70
100
AcDbEntity
  8
GanJing-open-layer v1_0
100
AcDbCircle
 10
74.94100966684098
 20
143.6389830417512
 30
0.0
 40
1.700000917999996
  0
LINE
  5
95
330
70
100
AcDbEntity
  8
GanJing-open-layer v1_0
100
AcDbLine
 10
326.4830196345251
 20
19.90270419152989
 30
0.0
 11
326.4830196345251
 21
136.0961179359394
 31
0.0
  0
ARC
  5
96
330
70
100
AcDbEntity
  8
GanJing-open-layer v1_0
100
AcDbCircle
 10
16.89598445761631
 20
19.90270519153042
 30
0.0
 40
11.30706646653799
100
AcDbArc
 50
179.9837711634006
 51
270.0129054951793
  0
CIRCLE
  5
97
330
70
100
AcDbEntity
  8
GanJing-open-layer v1_0
100
AcDbCircle
 10
315.1759545283498
 20
143.6389830417512
 30
0.0
 40
1.700000918000015
  0
CIRCLE
  5
98
330
70
100
AcDbEntity
  8
GanJing-open-layer v1_0
100
AcDbCircle
 10
74.94100969949497
 20
12.35983901182201
 30
0.0
 40
1.700000917999996
  0
CIRCLE
  5
99
330
70
100
AcDbEntity
  8
GanJing-open-layer v1_0
100
AcDbCircle
 10
196.401475255457
 20
143.6389830417512
 30
0.0
 40
1.700000917999975
  0
CIRCLE
  5
9A
330
70
100
AcDbEntity
  8
GanJing-open-layer v1_0
100
AcDbCircle
 10
196.401475288111
 20
12.35983901182201
 30
0.0
 40
1.700000917999975
  0
ARC
  5
9B
330
70
100
AcDbEntity
  8
GanJing-open-layer v1_0
100
AcDbCircle
 10
16.89598445761631
 20
136.0961179359394
 30
0.0
 40
11.30706510581183
100
AcDbArc
 50
90.0
 51
180.0
  0
ARC
  5
9C
330
70
100
AcDbEntity
  8
GanJing-open-layer v1_0
100
AcDbCircle
 10
16.89598445761631
 20
136.0961179359394
 30
0.0
 40
3.732061015311848
100
AcDbArc
 50
90.0
 51
180.0
  0
ARC
  5
9D
330
70
100
AcDbEntity
  8
GanJing-open-layer v1_0
100
AcDbCircle
 10
18.36108445761631
 20
145.4031819617514
 30
0.0
 40
2.000001079999973
100
AcDbArc
 50
0.0
 51
90.0
  0
LINE
  5
9E
330
70
100
AcDbEntity
  8
GanJing-open-layer v1_0
100
AcDbLine
 10
315.1817697016304
 20
16.1241121459275
 30
0.0
 11
16.89592545132136
 21
16.12411264649544
 31
0.0
  0
LINE
  5
387
330
70
100
AcDbEntity
  8
0
100
AcDbLine
 10
16.89598445761631
 20
139.8281789512512
 30
0.0
 11
18.36108445761631
 21
139.8281789512512
 31
0.0
  0
LINE
  5
38D
330
70
100
AcDbEntity
  8
0
100
AcDbLine
 10
16.89598464676138
 20
147.4031828739477
 30
0.0
 11
18.36108464676138
 21
147.4031828739477
 31
0.0
  0
LINE
  5
38E
330
70
100
AcDbEntity
  8
0
100
AcDbLine
 10
315.1759545287132
 20
139.8281789512512
 30
0.0
 11
36.36105452871318
 21
139.8281789512512
 31
0.0
  0
LINE
  5
394
330
70
100
AcDbEntity
  8
0
100
AcDbLine
 10
315.1759545287132
 20
147.4031830417513
 30
0.0
 11
36.36105452871318
 21
147.4031830417512
 31
0.0
  0
CIRCLE
  5
3BC
330
70
100
AcDbEntity
  8
0
 62
     0
100
AcDbCircle
 10
169.0915583842562
 20
53.05212953263787
 30
0.0
 40
1.100000593999989
  0
CIRCLE
  5
3BD
330
70
100
AcDbEntity
  8
0
 62
     0
100
AcDbCircle
 10
293.3316724738816
 20
53.05212953263787
 30
0.0
 40
1.100000593999989
  0
CIRCLE
  5
3BE
330
70
100
AcDbEntity
  8
0
 62
     0
100
AcDbCircle
 10
44.85149129465616
 20
53.05212953263787
 30
0.0
 40
1.100000593999989
  0
LINE
  5
3BF
330
70
100
AcDbEntity
  8
0
 62
     0
100
AcDbLine
 10
44.85149129465616
 20
43.05212413263789
 30
0.0
 11
293.3316724738816
 21
43.05212413263789
 31
0.0
  0
ARC
  5
3C0
330
70
100
AcDbEntity
  8
0
 62
     0
100
AcDbCircle
 10
44.85149129465616
 20
53.05212953263787
 30
0.0
 40
10.0000054
100
AcDbArc
 50
90.0
 51
270.0
  0
LINE
  5
3C1
330
70
100
AcDbEntity
  8
0
 62
     0
100
AcDbLine
 10
293.3316724738816
 20
63.05213493263787
 30
0.0
 11
44.85149129465608
 21
63.05213493263787
 31
0.0
  0
ARC
  5
3C2
330
70
100
AcDbEntity
  8
0
 62
     0
100
AcDbCircle
 10
293.3316724738816
 20
53.05212953263796
 30
0.0
 40
10.0000054000001
100
AcDbArc
 50
270.0
 51
90.0
  0
CIRCLE
  5
3CF
330
70
100
AcDbEntity
  8
0
 62
     0
100
AcDbCircle
 10
293.2795876019015
 20
100.2781410475179
 30
0.0
 40
1.700000918000017
  0
CIRCLE
  5
3D0
330
70
100
AcDbEntity
  8
0
 62
     0
100
AcDbCircle
 10
169.0394735122761
 20
100.2781410475179
 30
0.0
 40
1.700000918000017
  0
CIRCLE
  5
3D1
330
70
100
AcDbEntity
  8
0
 62
     0
100
AcDbCircle
 10
44.79940642267615
 20
100.2781410475179
 30
0.0
 40
1.700000917999998
  0
LINE
  5
3D2
330
70
100
AcDbEntity
  8
0
 62
     0
100
AcDbLine
 10
44.79940642267615
 20
88.27813456751794
 30
0.0
 11
293.2795876019015
 21
88.27813456751794
 31
0.0
  0
ARC
  5
3D3
330
70
100
AcDbEntity
  8
0
 62
     0
100
AcDbCircle
 10
44.79940642267615
 20
100.2781410475179
 30
0.0
 40
12.00000648
100
AcDbArc
 50
90.0
 51
270.0
  0
LINE
  5
3D4
330
70
100
AcDbEntity
  8
0
 62
     0
100
AcDbLine
 10
293.2795876019015
 20
112.2781475275179
 30
0.0
 11
44.79940642267607
 21
112.2781475275179
 31
0.0
  0
ARC
  5
3D5
330
70
100
AcDbEntity
  8
0
 62
     0
100
AcDbCircle
 10
293.2795876019015
 20
100.278141047518
 30
0.0
 40
12.0000064800001
100
AcDbArc
 50
270.0
 51
90.0
  0
VIEWPORT
  5
BD
102
{ACAD_XDICTIONARY
360
BE
102
}
330
6C
100
AcDbEntity
 67
     1
  8
0
348
2F
100
AcDbViewport
 10
13.99090615766754
 20
9.021425964146226
 30
0.0
 40
37.44295421524011
 41
20.83279015532077
 68
     1
 69
     1
 12
13.99090615766754
 22
9.021425964146226
 13
0.0
 23
0.0
 14
10.0
 24
10.0
 15
10.0
 25
10.0
 16
0.0
 26
0.0
 36
1.0
 17
0.0
 27
0.0
 37
0.0
 42
50.0
 43
0.0
 44
0.0
 45
20.83279015532077
 50
0.0
 51
0.0
 72
   100
 90
   819232
  1

281
     0
 71
     1
 74
     0
110
0.0
120
0.0
130
0.0
111
1.0
121
0.0
131
0.0
112
0.0
122
1.0
132
0.0
 79
     0
146
0.0
170
     0
 61
     5
292
     1
282
     1
141
0.0
142
0.0
 63
   250
421
  3355443
  0
VIEWPORT
  5
C2
102
{ACAD_XDICTIONARY
360
C3
102
}
330
6C
100
AcDbEntity
 67
     1
  8
0
348
2F
100
AcDbViewport
 10
5.499999879852054
 20
4.249999879852055
 30
0.0
 40
8.799999807763287
 41
6.799999807763287
 68
     2
 69
     2
 12
16.60359688128017
 22
7.799941088337187
 13
0.0
 23
0.0
 14
1.0
 24
1.0
 15
0.0
 25
0.0
 16
0.0
 26
0.0
 36
1.0
 17
0.0
 27
0.0
 37
0.0
 42
50.0
 43
0.0
 44
0.0
 45
24.92528613420125
 50
0.0
 51
0.0
 72
   100
 90
   819232
  1

281
     0
 71
     1
 74
     0
110
0.0
120
0.0
130
0.0
111
1.0
121
0.0
131
0.0
112
0.0
122
1.0
132
0.0
 79
     0
146
0.0
170
     0
 61
     5
292
     1
282
     1
141
0.0
142
0.0
 63
   250
421
  3355443
  0
ENDSEC
  0
SECTION
  2
OBJECTS
  0
DICTIONARY
  5
C
330
0
100
AcDbDictionary
281
     1
  3
ACAD_BACKGROUND
350
CC
  3
ACAD_CIP_PREVIOUS_PRODUCT_INFO
350
B0
  3
ACAD_COLOR
350
63
  3
ACAD_DETAILVIEWSTYLE
350
6A
  3
ACAD_GROUP
350
D
  3
ACAD_LAYOUT
350
62
  3
ACAD_MATERIAL
350
10
  3
ACAD_MLEADERSTYLE
350
66
  3
ACAD_MLINESTYLE
350
5F
  3
ACAD_PLOTSETTINGS
350
61
  3
ACAD_PLOTSTYLENAME
350
E
  3
ACAD_SCALELIST
350
42
  3
ACAD_SECTIONVIEWSTYLE
350
68
  3
ACAD_TABLESTYLE
350
64
  3
ACAD_VISUALSTYLE
350
29
  3
ACDB_RECOMPOSE_DATA
350
3D9
  3
AcDbVariableDictionary
350
9F
  0
DICTIONARY
  5
B4
330
2
100
AcDbDictionary
280
     1
281
     1
  3
ACAD_LAYERSTATES
360
B5
  0
DICTIONARY
  5
FB
330
FA
100
AcDbDictionary
280
     1
281
     1
  3
ACAD_SORTENTS
360
FC
  0
DICTIONARY
  5
366
330
364
100
AcDbDictionary
280
     1
281
     1
  3
ACAD_SORTENTS
360
367
  0
DICTIONARY
  5
BE
330
BD
100
AcDbDictionary
280
     1
281
     1
  3
ASDK_XREC_ANNOTATION_SCALE_INFO
360
BF
  0
DICTIONARY
  5
C3
330
C2
100
AcDbDictionary
280
     1
281
     1
  3
ASDK_XREC_ANNOTATION_SCALE_INFO
360
C4
  0
DICTIONARY
  5
CC
102
{ACAD_REACTORS
330
C
102
}
330
C
100
AcDbDictionary
281
     1
  0
XRECORD
  5
B0
102
{ACAD_REACTORS
330
C
102
}
330
C
100
AcDbXrecord
280
     1
300
ACD
300
2020
300
ACD_F_S
  0
DICTIONARY
  5
63
102
{ACAD_REACTORS
330
C
102
}
330
C
100
AcDbDictionary
281
     1
  0
DICTIONARY
  5
6A
102
{ACAD_REACTORS
330
C
102
}
330
C
100
AcDbDictionary
281
     1
  3
Imperial24
350
6B
  3
Metric50
350
363
  0
DICTIONARY
  5
D
102
{ACAD_REACTORS
330
C
102
}
330
C
100
AcDbDictionary
281
     1
  0
DICTIONARY
  5
62
102
{ACAD_REACTORS
330
C
102
}
330
C
100
AcDbDictionary
281
     1
  3
Layout1
350
6F
  3
Layout2
350
77
  3
Model
350
73
  0
DICTIONARY
  5
10
102
{ACAD_REACTORS
330
C
102
}
330
C
100
AcDbDictionary
281
     1
  3
ByBlock
350
19
  3
ByLayer
350
11
  3
Global
350
21
  0
DICTIONARY
  5
66
102
{ACAD_REACTORS
330
C
102
}
330
C
100
AcDbDictionary
281
     1
  3
Standard
350
67
  0
DICTIONARY
  5
5F
102
{ACAD_REACTORS
330
C
102
}
330
C
100
AcDbDictionary
281
     1
  3
Standard
350
60
  0
DICTIONARY
  5
61
102
{ACAD_REACTORS
330
C
102
}
330
C
100
AcDbDictionary
281
     1
  0
ACDBDICTIONARYWDFLT
  5
E
102
{ACAD_REACTORS
330
C
102
}
330
C
100
AcDbDictionary
281
     1
  3
Normal
350
F
100
AcDbDictionaryWithDefault
340
F
  0
DICTIONARY
  5
42
102
{ACAD_REACTORS
330
C
102
}
330
C
100
AcDbDictionary
281
     1
  3
A0
350
43
  3
A1
350
44
  3
A2
350
45
  3
A3
350
46
  3
A4
350
47
  3
A5
350
48
  3
A6
350
49
  3
A7
350
4A
  3
A8
350
4B
  3
A9
350
4C
  3
B0
350
4D
  3
B1
350
4E
  3
B2
350
4F
  3
B3
350
50
  3
B4
350
51
  3
B5
350
52
  3
B6
350
53
  0
DICTIONARY
  5
68
102
{ACAD_REACTORS
330
C
102
}
330
C
100
AcDbDictionary
281
     1
  3
Imperial24
350
69
  3
Metric50
350
362
  0
DICTIONARY
  5
64
102
{ACAD_REACTORS
330
C
102
}
330
C
100
AcDbDictionary
281
     1
  3
Standard
350
65
  0
DICTIONARY
  5
29
102
{ACAD_REACTORS
330
C
102
}
330
C
100
AcDbDictionary
281
     1
  3
2dWireframe
350
2F
  3
Basic
350
2E
  3
Brighten
350
35
  3
ColorChange
350
39
  3
Conceptual
350
32
  3
Dim
350
34
  3
EdgeColorOff
350
41
  3
Facepattern
350
38
  3
Flat
350
2A
  3
FlatWithEdges
350
2B
  3
Gouraud
350
2C
  3
GouraudWithEdges
350
2D
  3
Hidden
350
31
  3
JitterOff
350
3F
  3
Linepattern
350
37
  3
OverhangOff
350
40
  3
Realistic
350
33
  3
Shaded
350
3E
  3
Shaded with edges
350
3D
  3
Shades of Gray
350
3A
  3
Sketchy
350
3B
  3
Thicken
350
36
  3
Wireframe
350
30
  3
X-Ray
350
3C
  0
XRECORD
  5
3D9
102
{ACAD_REACTORS
330
C
102
}
330
C
100
AcDbXrecord
280
     1
 90
        1
330
65
  0
DICTIONARY
  5
9F
102
{ACAD_REACTORS
330
C
102
}
330
C
100
AcDbDictionary
281
     1
  3
CANNOSCALE
350
A4
  3
CMLEADERSTYLE
350
A1
  3
CTABLESTYLE
350
A0
  3
CVIEWDETAILSTYLE
350
A2
  3
CVIEWSECTIONSTYLE
350
A3
  0
DICTIONARY
  5
B5
102
{ACAD_REACTORS
330
B4
102
}
330
B4
100
AcDbDictionary
281
     1
  0
SORTENTSTABLE
  5
FC
102
{ACAD_REACTORS
330
FB
102
}
330
FB
100
AcDbSortentsTable
330
FA
  0
SORTENTSTABLE
  5
367
102
{ACAD_REACTORS
330
366
102
}
330
366
100
AcDbSortentsTable
330
364
  0
XRECORD
  5
BF
102
{ACAD_REACTORS
330
BE
102
}
330
BE
100
AcDbXrecord
280
     1
 90
        1
340
43
  0
XRECORD
  5
C4
102
{ACAD_REACTORS
330
C3
102
}
330
C3
100
AcDbXrecord
280
     1
 90
        1
340
43
  0
ACDBDETAILVIEWSTYLE
  5
6B
102
{ACAD_REACTORS
330
6A
102
}
330
6A
100
AcDbModelDocViewStyle
 70
     0
  3
Imperial24
290
     0
300
Imperial24
 90
        0
100
AcDbDetailViewStyle
 70
     0
 71
     0
 90
        3
 71
     1
340
55
 62
   256
 40
0.24
340
0
 62
   256
 40
0.24
300

 40
0.36
280
     3
 71
     2
340
5D
 90
       25
 62
   256
 71
     3
340
55
 62
   256
 40
0.24
 90
        1
 40
0.75
 90
        1
300
%<\AcVar ViewType \f "%tc1">% %<\AcVar ViewDetailId>%\PSCALE %<\AcVar ViewScale \f "%sn">%
 71
     4
340
5D
 90
       25
 62
   256
340
5D
 90
       25
 62
   256
280
     0
  0
ACDBDETAILVIEWSTYLE
  5
363
102
{ACAD_REACTORS
330
6A
102
}
330
6A
100
AcDbModelDocViewStyle
 70
     0
  3
Metric50
290
     0
300
Metric50
 90
        0
100
AcDbDetailViewStyle
 70
     0
 71
     0
 90
        3
 71
     1
340
55
 62
   256
 40
5.0
340
0
 62
   256
 40
5.0
300

 40
0.0
280
     1
 71
     2
340
5D
 90
       25
 62
   256
 71
     3
340
55
 62
   256
 40
5.0
 90
        0
 40
15.0
 90
        1
300
%<\AcVar ViewDetailId>% (%<\AcVar ViewScale \f "%sn">%)
 71
     4
340
5D
 90
       25
 62
   256
340
5D
 90
       25
 62
   256
280
     0
  0
LAYOUT
  5
6F
102
{ACAD_REACTORS
330
62
102
}
330
62
100
AcDbPlotSettings
  1

  2
Microsoft Print to PDF
  4
Letter
  6

 40
0.0
 41
0.0
 42
0.0
 43
0.0
 44
215.8999938964844
 45
279.3999938964844
 46
0.0
 47
0.0
 48
0.0
 49
0.0
140
0.0
141
0.0
142
1.0
143
1.0
 70
   688
 72
     0
 73
     1
 74
     5
  7

 75
    16
147
1.0
 76
     0
 77
     2
 78
   300
148
0.0
149
0.0
100
AcDbLayout
  1
Layout1
 70
     1
 71
     1
 10
0.0
 20
0.0
 11
10.99999975970411
 21
8.49999975970411
 12
0.0
 22
0.0
 32
0.0
 14
1.099999975970409
 24
0.8499999759704115
 34
0.0
 15
9.899999783733695
 25
7.649999783733695
 35
0.0
146
0.0
 13
0.0
 23
0.0
 33
0.0
 16
1.0
 26
0.0
 36
0.0
 17
0.0
 27
1.0
 37
0.0
 76
     0
330
6C
331
BD
1001
ACAD_PSEXT
1000
Microsoft Print to PDF
1000
Microsoft Print To PDF
1000
PORTPROMPT:
1000

1070
     0
  0
LAYOUT
  5
77
102
{ACAD_REACTORS
330
62
102
}
330
62
100
AcDbPlotSettings
  1

  2

  4

  6

 40
0.0
 41
0.0
 42
0.0
 43
0.0
 44
0.0
 45
0.0
 46
0.0
 47
0.0
 48
0.0
 49
0.0
140
0.0
141
0.0
142
1.0
143
1.0
 70
   688
 72
     0
 73
     0
 74
     5
  7

 75
    16
147
1.0
 76
     0
 77
     2
 78
   300
148
0.0
149
0.0
100
AcDbLayout
  1
Layout2
 70
     1
 71
     2
 10
0.0
 20
0.0
 11
12.0
 21
9.0
 12
0.0
 22
0.0
 32
0.0
 14
0.0
 24
0.0
 34
0.0
 15
0.0
 25
0.0
 35
0.0
146
0.0
 13
0.0
 23
0.0
 33
0.0
 16
1.0
 26
0.0
 36
0.0
 17
0.0
 27
1.0
 37
0.0
 76
     0
330
74
  0
LAYOUT
  5
73
102
{ACAD_REACTORS
330
62
102
}
330
62
100
AcDbPlotSettings
  1

  2

  4

  6

 40
0.0
 41
0.0
 42
0.0
 43
0.0
 44
0.0
 45
0.0
 46
0.0
 47
0.0
 48
0.0
 49
0.0
140
0.0
141
0.0
142
1.0
143
1.0
 70
  1712
 72
     0
 73
     0
 74
     0
  7

 75
     0
147
1.0
 76
     0
 77
     2
 78
   300
148
0.0
149
0.0
100
AcDbLayout
  1
Model
 70
     1
 71
     0
 10
0.0
 20
0.0
 11
12.0
 21
9.0
 12
0.0
 22
0.0
 32
0.0
 14
0.0
 24
0.0
 34
0.0
 15
0.0
 25
0.0
 35
0.0
146
0.0
 13
0.0
 23
0.0
 33
0.0
 16
1.0
 26
0.0
 36
0.0
 17
0.0
 27
1.0
 37
0.0
 76
     0
330
70
331
57
  0
MATERIAL
  5
19
102
{ACAD_XDICTIONARY
360
1A
102
}
102
{ACAD_REACTORS
330
10
102
}
330
10
100
AcDbMaterial
  1
ByBlock
 72
     0
 43
0.0208333333333333
 43
0.0
 43
0.0
 43
0.0
 43
0.0
 43
0.0208333333333333
 43
0.0
 43
0.0
 43
0.0
 43
0.0
 43
1.0
 43
0.0
 43
0.0
 43
0.0
 43
0.0
 43
1.0
 77
     0
 47
0.0208333333333333
 47
0.0
 47
0.0
 47
0.0
 47
0.0
 47
0.0208333333333333
 47
0.0
 47
0.0
 47
0.0
 47
0.0
 47
1.0
 47
0.0
 47
0.0
 47
0.0
 47
0.0
 47
1.0
171
     0
 49
0.0208333333333333
 49
0.0
 49
0.0
 49
0.0
 49
0.0
 49
0.0208333333333333
 49
0.0
 49
0.0
 49
0.0
 49
0.0
 49
1.0
 49
0.0
 49
0.0
 49
0.0
 49
0.0
 49
1.0
175
     0
142
0.0208333333333333
142
0.0
142
0.0
142
0.0
142
0.0
142
0.0208333333333333
142
0.0
142
0.0
142
0.0
142
0.0
142
1.0
142
0.0
142
0.0
142
0.0
142
0.0
142
1.0
179
     0
144
0.0208333333333333
144
0.0
144
0.0
144
0.0
144
0.0
144
0.0208333333333333
144
0.0
144
0.0
144
0.0
144
0.0
144
1.0
144
0.0
144
0.0
144
0.0
144
0.0
144
1.0
147
0.0208333333333333
147
0.0
147
0.0
147
0.0
147
0.0
147
0.0208333333333333
147
0.0
147
0.0
147
0.0
147
0.0
147
1.0
147
0.0
147
0.0
147
0.0
147
0.0
147
1.0
  0
MATERIAL
  5
11
102
{ACAD_XDICTIONARY
360
12
102
}
102
{ACAD_REACTORS
330
10
102
}
330
10
100
AcDbMaterial
  1
ByLayer
 72
     0
 43
0.0208333333333333
 43
0.0
 43
0.0
 43
0.0
 43
0.0
 43
0.0208333333333333
 43
0.0
 43
0.0
 43
0.0
 43
0.0
 43
1.0
 43
0.0
 43
0.0
 43
0.0
 43
0.0
 43
1.0
 77
     0
 47
0.0208333333333333
 47
0.0
 47
0.0
 47
0.0
 47
0.0
 47
0.0208333333333333
 47
0.0
 47
0.0
 47
0.0
 47
0.0
 47
1.0
 47
0.0
 47
0.0
 47
0.0
 47
0.0
 47
1.0
171
     0
 49
0.0208333333333333
 49
0.0
 49
0.0
 49
0.0
 49
0.0
 49
0.0208333333333333
 49
0.0
 49
0.0
 49
0.0
 49
0.0
 49
1.0
 49
0.0
 49
0.0
 49
0.0
 49
0.0
 49
1.0
175
     0
142
0.0208333333333333
142
0.0
142
0.0
142
0.0
142
0.0
142
0.0208333333333333
142
0.0
142
0.0
142
0.0
142
0.0
142
1.0
142
0.0
142
0.0
142
0.0
142
0.0
142
1.0
179
     0
144
0.0208333333333333
144
0.0
144
0.0
144
0.0
144
0.0
144
0.0208333333333333
144
0.0
144
0.0
144
0.0
144
0.0
144
1.0
144
0.0
144
0.0
144
0.0
144
0.0
144
1.0
147
0.0208333333333333
147
0.0
147
0.0
147
0.0
147
0.0
147
0.0208333333333333
147
0.0
147
0.0
147
0.0
147
0.0
147
1.0
147
0.0
147
0.0
147
0.0
147
0.0
147
1.0
  0
MATERIAL
  5
21
102
{ACAD_XDICTIONARY
360
22
102
}
102
{ACAD_REACTORS
330
10
102
}
330
10
100
AcDbMaterial
  1
Global
 72
     0
 43
0.0208333333333333
 43
0.0
 43
0.0
 43
0.0
 43
0.0
 43
0.0208333333333333
 43
0.0
 43
0.0
 43
0.0
 43
0.0
 43
1.0
 43
0.0
 43
0.0
 43
0.0
 43
0.0
 43
1.0
 77
     0
 47
0.0208333333333333
 47
0.0
 47
0.0
 47
0.0
 47
0.0
 47
0.0208333333333333
 47
0.0
 47
0.0
 47
0.0
 47
0.0
 47
1.0
 47
0.0
 47
0.0
 47
0.0
 47
0.0
 47
1.0
171
     0
 49
0.0208333333333333
 49
0.0
 49
0.0
 49
0.0
 49
0.0
 49
0.0208333333333333
 49
0.0
 49
0.0
 49
0.0
 49
0.0
 49
1.0
 49
0.0
 49
0.0
 49
0.0
 49
0.0
 49
1.0
175
     0
142
0.0208333333333333
142
0.0
142
0.0
142
0.0
142
0.0
142
0.0208333333333333
142
0.0
142
0.0
142
0.0
142
0.0
142
1.0
142
0.0
142
0.0
142
0.0
142
0.0
142
1.0
179
     0
144
0.0208333333333333
144
0.0
144
0.0
144
0.0
144
0.0
144
0.0208333333333333
144
0.0
144
0.0
144
0.0
144
0.0
144
1.0
144
0.0
144
0.0
144
0.0
144
0.0
144
1.0
147
0.0208333333333333
147
0.0
147
0.0
147
0.0
147
0.0
147
0.0208333333333333
147
0.0
147
0.0
147
0.0
147
0.0
147
1.0
147
0.0
147
0.0
147
0.0
147
0.0
147
1.0
  0
MLEADERSTYLE
  5
67
102
{ACAD_REACTORS
330
66
102
}
330
66
100
AcDbMLeaderStyle
179
     2
170
     2
171
     1
172
     0
 90
        2
 40
0.0
 41
0.0
173
     1
 91
-1056964608
340
5B
 92
       -2
290
     1
 42
0.09
291
     1
 43
0.36
  3
Standard
 44
0.18
300

342
55
174
     1
178
     6
175
     1
176
     0
 93
-1056964608
 45
0.18
292
     0
297
     0
 46
0.18
 94
-1056964608
 47
1.0
 49
1.0
140
1.0
293
     1
141
0.0
294
     1
177
     0
142
1.0
295
     0
296
     0
143
0.125
271
     0
272
     9
273
     9
298
     1
  0
MLINESTYLE
  5
60
102
{ACAD_REACTORS
330
5F
102
}
330
5F
100
AcDbMlineStyle
  2
STANDARD
 70
     0
  3

 62
   256
 51
90.0
 52
90.0
 71
     2
 49
0.5
 62
   256
  6
BYLAYER
 49
-0.5
 62
   256
  6
BYLAYER
  0
ACDBPLACEHOLDER
  5
F
102
{ACAD_REACTORS
330
E
102
}
330
E
  0
SCALE
  5
43
102
{ACAD_REACTORS
330
42
102
}
330
42
100
AcDbScale
 70
     0
300
1:1
140
1.0
141
1.0
290
     1
  0
SCALE
  5
44
102
{ACAD_REACTORS
330
42
102
}
330
42
100
AcDbScale
 70
     0
300
1/128" = 1'-0"
140
0.0078125
141
12.0
290
     0
  0
SCALE
  5
45
102
{ACAD_REACTORS
330
42
102
}
330
42
100
AcDbScale
 70
     0
300
1/64" = 1'-0"
140
0.015625
141
12.0
290
     0
  0
SCALE
  5
46
102
{ACAD_REACTORS
330
42
102
}
330
42
100
AcDbScale
 70
     0
300
1/32" = 1'-0"
140
0.03125
141
12.0
290
     0
  0
SCALE
  5
47
102
{ACAD_REACTORS
330
42
102
}
330
42
100
AcDbScale
 70
     0
300
1/16" = 1'-0"
140
0.0625
141
12.0
290
     0
  0
SCALE
  5
48
102
{ACAD_REACTORS
330
42
102
}
330
42
100
AcDbScale
 70
     0
300
3/32" = 1'-0"
140
0.09375
141
12.0
290
     0
  0
SCALE
  5
49
102
{ACAD_REACTORS
330
42
102
}
330
42
100
AcDbScale
 70
     0
300
1/8" = 1'-0"
140
0.125
141
12.0
290
     0
  0
SCALE
  5
4A
102
{ACAD_REACTORS
330
42
102
}
330
42
100
AcDbScale
 70
     0
300
3/16" = 1'-0"
140
0.1875
141
12.0
290
     0
  0
SCALE
  5
4B
102
{ACAD_REACTORS
330
42
102
}
330
42
100
AcDbScale
 70
     0
300
1/4" = 1'-0"
140
0.25
141
12.0
290
     0
  0
SCALE
  5
4C
102
{ACAD_REACTORS
330
42
102
}
330
42
100
AcDbScale
 70
     0
300
3/8" = 1'-0"
140
0.375
141
12.0
290
     0
  0
SCALE
  5
4D
102
{ACAD_REACTORS
330
42
102
}
330
42
100
AcDbScale
 70
     0
300
1/2" = 1'-0"
140
0.5
141
12.0
290
     0
  0
SCALE
  5
4E
102
{ACAD_REACTORS
330
42
102
}
330
42
100
AcDbScale
 70
     0
300
3/4" = 1'-0"
140
0.75
141
12.0
290
     0
  0
SCALE
  5
4F
102
{ACAD_REACTORS
330
42
102
}
330
42
100
AcDbScale
 70
     0
300
1" = 1'-0"
140
1.0
141
12.0
290
     0
  0
SCALE
  5
50
102
{ACAD_REACTORS
330
42
102
}
330
42
100
AcDbScale
 70
     0
300
1-1/2" = 1'-0"
140
1.5
141
12.0
290
     0
  0
SCALE
  5
51
102
{ACAD_REACTORS
330
42
102
}
330
42
100
AcDbScale
 70
     0
300
3" = 1'-0"
140
3.0
141
12.0
290
     0
  0
SCALE
  5
52
102
{ACAD_REACTORS
330
42
102
}
330
42
100
AcDbScale
 70
     0
300
6" = 1'-0"
140
6.0
141
12.0
290
     0
  0
SCALE
  5
53
102
{ACAD_REACTORS
330
42
102
}
330
42
100
AcDbScale
 70
     0
300
1'-0" = 1'-0"
140
12.0
141
12.0
290
     0
  0
ACDBSECTIONVIEWSTYLE
  5
69
102
{ACAD_REACTORS
330
68
102
}
330
68
100
AcDbModelDocViewStyle
 70
     0
  3
Imperial24
290
     0
300
Imperial24
 90
        0
100
AcDbSectionViewStyle
 70
     0
 71
     0
 90
       78
 71
     1
340
55
 62
   256
 40
0.24
340
0
340
0
 62
   256
 40
0.24
300
I, O, Q, S, X, Z
 40
0.48
 90
        3
 40
0.18
 90
        1
 71
     2
340
5D
 90
       25
 62
   256
340
5D
 90
       50
 62
   256
 40
0.24
 40
0.0
 40
0.24
 71
     3
340
55
 62
   256
 40
0.24
 90
        1
 40
0.75
 90
        1
300
%<\AcVar ViewType \f "%tc1">% %<\AcVar ViewSectionStartId>%-%<\AcVar ViewSectionEndId>%\PSCALE %<\AcVar ViewScale \f "%sn">%
 71
     4
 62
   256
 62
   257
300
ANSI31
 40
1.0
 90
        0
290
     0
290
     0
 90
        6
 40
0.0
 40
1.570796326794896
 40
0.2617993877991494
 40
1.308996938995747
 40
-0.2617993877991494
 40
1.832595714594044
  0
ACDBSECTIONVIEWSTYLE
  5
362
102
{ACAD_REACTORS
330
68
102
}
330
68
100
AcDbModelDocViewStyle
 70
     0
  3
Metric50
290
     0
300
Metric50
 90
        0
100
AcDbSectionViewStyle
 70
     0
 71
     0
 90
      102
 71
     1
340
55
 62
   256
 40
5.0
340
0
340
0
 62
   256
 40
5.0
300
I, O, Q, S, X, Z
 40
10.0
 90
        0
 40
2.5
 90
        0
 71
     2
340
5D
 90
       25
 62
   256
340
5D
 90
       50
 62
   256
 40
5.0
 40
2.5
 40
5.0
 71
     3
340
55
 62
   256
 40
5.0
 90
        0
 40
15.0
 90
        1
300
%<\AcVar ViewSectionStartId>%-%<\AcVar ViewSectionEndId>% (%<\AcVar ViewScale \f "%sn">%)
 71
     4
 62
   256
 62
   257
300
ANSI31
 40
1.0
 90
        0
290
     0
290
     0
 90
        6
 40
0.0
 40
1.570796326794896
 40
0.2617993877991494
 40
1.308996938995747
 40
-0.2617993877991494
 40
1.832595714594044
  0
TABLESTYLE
  5
65
102
{ACAD_XDICTIONARY
360
A5
102
}
102
{ACAD_REACTORS
330
64
102
}
330
64
100
AcDbTableStyle
280
     0
  3
Standard
 70
     0
 71
     0
 40
0.06
 41
0.06
280
     0
281
     0
  7
Standard
140
0.18
170
     2
 62
     0
 63
     7
283
     0
 90
      512
 91
        0
  1

274
    -2
284
     1
 64
     0
275
    -2
285
     1
 65
     0
276
    -2
286
     1
 66
     0
277
    -2
287
     1
 67
     0
278
    -2
288
     1
 68
     0
279
    -2
289
     1
 69
     0
  7
Standard
140
0.25
170
     5
 62
     0
 63
     7
283
     0
 90
      512
 91
        0
  1

274
    -2
284
     1
 64
     0
275
    -2
285
     1
 65
     0
276
    -2
286
     1
 66
     0
277
    -2
287
     1
 67
     0
278
    -2
288
     1
 68
     0
279
    -2
289
     1
 69
     0
  7
Standard
140
0.18
170
     5
 62
     0
 63
     7
283
     0
 90
      512
 91
        0
  1

274
    -2
284
     1
 64
     0
275
    -2
285
     1
 65
     0
276
    -2
286
     1
 66
     0
277
    -2
287
     1
 67
     0
278
    -2
288
     1
 68
     0
279
    -2
289
     1
 69
     0
  0
VISUALSTYLE
  5
2F
102
{ACAD_REACTORS
330
29
102
}
330
29
100
AcDbVisualStyle
  2
2dWireframe
 70
     4
177
     3
291
     0
 70
    58
 90
        0
176
     1
 90
        2
176
     1
 90
        0
176
     1
 90
        0
176
     1
 40
0.6
176
     1
 40
30.0
176
     1
 62
     7
420
 16777215
176
     1
 90
        1
176
     1
 90
        4
176
     1
 62
     7
176
     1
 62
   257
176
     1
 90
        1
176
     1
 90
        1
176
     1
 40
1.0
176
     1
 90
        0
176
     1
 62
   257
176
     1
 40
1.0
176
     1
 90
        1
176
     1
 90
        6
176
     1
 90
        2
176
     1
 62
     7
176
     1
 90
        5
176
     1
 90
        0
176
     1
 90
        0
176
     1
290
     0
176
     1
 90
        1
176
     1
 40
0.0
176
     1
 90
        0
176
     1
290
     1
176
     1
290
     1
176
     1
290
     0
176
     1
290
     0
176
     1
290
     0
176
     1
290
     0
176
     1
290
     0
176
     1
290
     0
176
     1
290
     0
176
     1
 90
       50
176
     1
 40
0.0
176
     1
 40
1.0
176
     1
 90
        0
176
     1
 62
    18
176
     1
 90
       50
176
     1
 90
        3
176
     1
 62
     5
420
      255
176
     1
290
     0
176
     1
 90
       50
176
     1
 90
       50
176
     1
 90
       50
176
     1
290
     0
176
     1
 90
       50
176
     1
 62
   256
176
     0
 40
1.0
176
     0
 90
        2
176
     1
  1
strokes_ogs.tif
176
     1
290
     0
176
     1
 40
1.0
176
     1
 40
1.0
176
     1
1001
ACAD
1000
AcDbSavedByObjectVersion
1070
     0
  0
VISUALSTYLE
  5
2E
102
{ACAD_REACTORS
330
29
102
}
330
29
100
AcDbVisualStyle
  2
Basic
 70
     7
177
     3
291
     1
 70
    58
 90
        1
176
     1
 90
        0
176
     1
 90
        1
176
     1
 90
        0
176
     1
 40
0.6
176
     1
 40
30.0
176
     1
 62
     7
420
 16777215
176
     1
 90
        0
176
     1
 90
        4
176
     1
 62
     7
176
     1
 62
   257
176
     1
 90
        1
176
     1
 90
        1
176
     1
 40
1.0
176
     1
 90
        8
176
     1
 62
     7
176
     1
 40
1.0
176
     1
 90
        1
176
     1
 90
        6
176
     1
 90
        2
176
     1
 62
     7
176
     1
 90
        5
176
     1
 90
        0
176
     1
 90
        0
176
     1
290
     0
176
     1
 90
        1
176
     1
 40
0.0
176
     1
 90
        0
176
     1
290
     0
176
     1
290
     1
176
     1
290
     1
176
     1
290
     0
176
     1
290
     0
176
     1
290
     0
176
     1
290
     0
176
     1
290
     0
176
     1
290
     0
176
     1
 90
       50
176
     1
 40
0.0
176
     1
 40
1.0
176
     1
 90
        0
176
     1
 62
    18
176
     1
 90
       50
176
     1
 90
        3
176
     1
 62
     5
420
      255
176
     1
290
     0
176
     1
 90
       50
176
     1
 90
       50
176
     1
 90
       50
176
     1
290
     0
176
     1
 90
       50
176
     1
 62
   256
176
     0
 40
1.0
176
     0
 90
        2
176
     1
  1
strokes_ogs.tif
176
     1
290
     0
176
     1
 40
1.0
176
     1
 40
1.0
176
     1
1001
ACAD
1000
AcDbSavedByObjectVersion
1070
     0
  0
VISUALSTYLE
  5
35
102
{ACAD_REACTORS
330
29
102
}
330
29
100
AcDbVisualStyle
  2
Brighten
 70
    12
177
     3
291
     1
 70
    58
 90
        2
176
     1
 90
        2
176
     1
 90
        0
176
     1
 90
        0
176
     1
 40
0.6
176
     1
 40
30.0
176
     1
 62
     7
420
 16777215
176
     1
 90
        1
176
     1
 90
        4
176
     1
 62
     7
176
     1
 62
   257
176
     1
 90
        1
176
     1
 90
        1
176
     1
 40
1.0
176
     1
 90
        8
176
     1
 62
     7
176
     1
 40
1.0
176
     1
 90
        1
176
     1
 90
        6
176
     1
 90
        2
176
     1
 62
     7
176
     1
 90
        5
176
     1
 90
        0
176
     1
 90
        0
176
     1
290
     0
176
     1
 90
        1
176
     1
 40
50.0
176
     1
 90
        0
176
     1
290
     0
176
     1
290
     1
176
     1
290
     1
176
     1
290
     0
176
     1
290
     0
176
     1
290
     0
176
     1
290
     0
176
     1
290
     0
176
     1
290
     0
176
     1
 90
       50
176
     1
 40
0.0
176
     1
 40
1.0
176
     1
 90
        0
176
     1
 62
    18
176
     1
 90
       50
176
     1
 90
        3
176
     1
 62
     5
420
      255
176
     1
290
     0
176
     1
 90
       50
176
     1
 90
       50
176
     1
 90
       50
176
     1
290
     0
176
     1
 90
       50
176
     1
 62
   256
176
     0
 40
1.0
176
     0
 90
        2
176
     1
  1
strokes_ogs.tif
176
     1
290
     0
176
     1
 40
1.0
176
     1
 40
1.0
176
     1
1001
ACAD
1000
AcDbSavedByObjectVersion
1070
     0
  0
VISUALSTYLE
  5
39
102
{ACAD_REACTORS
330
29
102
}
330
29
100
AcDbVisualStyle
  2
ColorChange
 70
    16
177
     3
291
     1
 70
    58
 90
        2
176
     1
 90
        2
176
     1
 90
        3
176
     1
 90
        0
176
     1
 40
0.6
176
     1
 40
30.0
176
     1
 62
     8
420
  8421504
176
     1
 90
        1
176
     1
 90
        4
176
     1
 62
     7
176
     1
 62
   257
176
     1
 90
        1
176
     1
 90
        1
176
     1
 40
1.0
176
     1
 90
        8
176
     1
 62
     8
420
  8421504
176
     1
 40
1.0
176
     1
 90
        1
176
     1
 90
        6
176
     1
 90
        2
176
     1
 62
     7
176
     1
 90
        5
176
     1
 90
        0
176
     1
 90
        0
176
     1
290
     0
176
     1
 90
        1
176
     1
 40
0.0
176
     1
 90
        0
176
     1
290
     0
176
     1
290
     1
176
     1
290
     1
176
     1
290
     0
176
     1
290
     0
176
     1
290
     0
176
     1
290
     0
176
     1
290
     0
176
     1
290
     0
176
     1
 90
       50
176
     1
 40
0.0
176
     1
 40
1.0
176
     1
 90
        0
176
     1
 62
    18
176
     1
 90
       50
176
     1
 90
        3
176
     1
 62
     5
420
      255
176
     1
290
     0
176
     1
 90
       50
176
     1
 90
       50
176
     1
 90
       50
176
     1
290
     0
176
     1
 90
       50
176
     1
 62
   256
176
     0
 40
1.0
176
     0
 90
        2
176
     1
  1
strokes_ogs.tif
176
     1
290
     0
176
     1
 40
1.0
176
     1
 40
1.0
176
     1
1001
ACAD
1000
AcDbSavedByObjectVersion
1070
     0
  0
VISUALSTYLE
  5
32
102
{ACAD_REACTORS
330
29
102
}
330
29
100
AcDbVisualStyle
  2
Conceptual
 70
     9
177
     3
291
     0
 70
    58
 90
        3
176
     1
 90
        2
176
     1
 90
        0
176
     1
 90
        0
176
     1
 40
0.6
176
     1
 40
30.0
176
     1
 62
     7
420
 16777215
176
     1
 90
        2
176
     1
 90
        2
176
     1
 62
     7
176
     1
 62
   257
176
     1
 90
        1
176
     1
 90
        1
176
     1
 40
179.0
176
     1
 90
        8
176
     1
 62
     7
176
     1
 40
1.0
176
     1
 90
        1
176
     1
 90
        6
176
     1
 90
        2
176
     1
 62
     7
176
     1
 90
        3
176
     1
 90
        0
176
     1
 90
        0
176
     1
290
     0
176
     1
 90
        1
176
     1
 40
0.0
176
     1
 90
        0
176
     1
290
     0
176
     1
290
     1
176
     1
290
     1
176
     1
290
     0
176
     1
290
     0
176
     1
290
     0
176
     1
290
     0
176
     1
290
     0
176
     1
290
     0
176
     1
 90
       50
176
     1
 40
0.0
176
     1
 40
1.0
176
     1
 90
        0
176
     1
 62
    18
176
     1
 90
       50
176
     1
 90
        3
176
     1
 62
     5
420
      255
176
     1
290
     0
176
     1
 90
       50
176
     1
 90
       50
176
     1
 90
       50
176
     1
290
     0
176
     1
 90
       50
176
     1
 62
   256
176
     0
 40
1.0
176
     0
 90
        2
176
     1
  1
strokes_ogs.tif
176
     1
290
     0
176
     1
 40
1.0
176
     1
 40
1.0
176
     1
1001
ACAD
1000
AcDbSavedByObjectVersion
1070
     0
  0
VISUALSTYLE
  5
34
102
{ACAD_REACTORS
330
29
102
}
330
29
100
AcDbVisualStyle
  2
Dim
 70
    11
177
     3
291
     1
 70
    58
 90
        2
176
     1
 90
        2
176
     1
 90
        0
176
     1
 90
        0
176
     1
 40
0.6
176
     1
 40
30.0
176
     1
 62
     7
420
 16777215
176
     1
 90
        1
176
     1
 90
        4
176
     1
 62
     7
176
     1
 62
   257
176
     1
 90
        1
176
     1
 90
        1
176
     1
 40
1.0
176
     1
 90
        8
176
     1
 62
     7
176
     1
 40
1.0
176
     1
 90
        1
176
     1
 90
        6
176
     1
 90
        2
176
     1
 62
     7
176
     1
 90
        5
176
     1
 90
        0
176
     1
 90
        0
176
     1
290
     0
176
     1
 90
        1
176
     1
 40
-50.0
176
     1
 90
        0
176
     1
290
     0
176
     1
290
     1
176
     1
290
     1
176
     1
290
     0
176
     1
290
     0
176
     1
290
     0
176
     1
290
     0
176
     1
290
     0
176
     1
290
     0
176
     1
 90
       50
176
     1
 40
0.0
176
     1
 40
1.0
176
     1
 90
        0
176
     1
 62
    18
176
     1
 90
       50
176
     1
 90
        3
176
     1
 62
     5
420
      255
176
     1
290
     0
176
     1
 90
       50
176
     1
 90
       50
176
     1
 90
       50
176
     1
290
     0
176
     1
 90
       50
176
     1
 62
   256
176
     0
 40
1.0
176
     0
 90
        2
176
     1
  1
strokes_ogs.tif
176
     1
290
     0
176
     1
 40
1.0
176
     1
 40
1.0
176
     1
1001
ACAD
1000
AcDbSavedByObjectVersion
1070
     0
  0
VISUALSTYLE
  5
41
102
{ACAD_REACTORS
330
29
102
}
330
29
100
AcDbVisualStyle
  2
EdgeColorOff
 70
    22
177
     3
291
     1
 70
    58
 90
        2
176
     0
 90
        2
176
     0
 90
        0
176
     0
 90
        0
176
     0
 40
0.6
176
     0
 40
30.0
176
     0
 62
     7
420
 16777215
176
     0
 90
        1
176
     0
 90
        4
176
     0
 62
     7
176
     0
 62
   257
176
     0
 90
        1
176
     0
 90
        1
176
     0
 40
1.0
176
     0
 90
        8
176
     2
 62
     7
176
     0
 40
1.0
176
     0
 90
        1
176
     0
 90
        6
176
     0
 90
        2
176
     0
 62
     7
176
     0
 90
        5
176
     0
 90
        0
176
     0
 90
        0
176
     0
290
     0
176
     0
 90
        1
176
     0
 40
0.0
176
     0
 90
        0
176
     0
290
     0
176
     0
290
     1
176
     0
290
     1
176
     0
290
     0
176
     0
290
     0
176
     0
290
     0
176
     0
290
     0
176
     0
290
     0
176
     0
290
     0
176
     0
 90
       50
176
     0
 40
0.0
176
     0
 40
1.0
176
     0
 90
        0
176
     0
 62
    18
176
     0
 90
       50
176
     0
 90
        3
176
     0
 62
     5
420
      255
176
     0
290
     0
176
     0
 90
       50
176
     0
 90
       50
176
     0
 90
       50
176
     0
290
     0
176
     0
 90
       50
176
     0
 62
   256
176
     0
 40
1.0
176
     0
 90
        2
176
     0
  1
strokes_ogs.tif
176
     0
290
     0
176
     0
 40
1.0
176
     0
 40
1.0
176
     0
1001
ACAD
1000
AcDbSavedByObjectVersion
1070
     0
  0
VISUALSTYLE
  5
38
102
{ACAD_REACTORS
330
29
102
}
330
29
100
AcDbVisualStyle
  2
Facepattern
 70
    15
177
     3
291
     1
 70
    58
 90
        2
176
     1
 90
        2
176
     1
 90
        0
176
     1
 90
        0
176
     1
 40
0.6
176
     1
 40
30.0
176
     1
 62
     7
420
 16777215
176
     1
 90
        1
176
     1
 90
        4
176
     1
 62
     7
176
     1
 62
   257
176
     1
 90
        1
176
     1
 90
        1
176
     1
 40
1.0
176
     1
 90
        8
176
     1
 62
     7
176
     1
 40
1.0
176
     1
 90
        1
176
     1
 90
        6
176
     1
 90
        2
176
     1
 62
     7
176
     1
 90
        5
176
     1
 90
        0
176
     1
 90
        0
176
     1
290
     0
176
     1
 90
        1
176
     1
 40
0.0
176
     1
 90
        0
176
     1
290
     0
176
     1
290
     1
176
     1
290
     1
176
     1
290
     0
176
     1
290
     0
176
     1
290
     0
176
     1
290
     0
176
     1
290
     0
176
     1
290
     0
176
     1
 90
       50
176
     1
 40
0.0
176
     1
 40
1.0
176
     1
 90
        0
176
     1
 62
    18
176
     1
 90
       50
176
     1
 90
        3
176
     1
 62
     5
420
      255
176
     1
290
     0
176
     1
 90
       50
176
     1
 90
       50
176
     1
 90
       50
176
     1
290
     0
176
     1
 90
       50
176
     1
 62
   256
176
     0
 40
1.0
176
     0
 90
        2
176
     1
  1
strokes_ogs.tif
176
     1
290
     0
176
     1
 40
1.0
176
     1
 40
1.0
176
     1
1001
ACAD
1000
AcDbSavedByObjectVersion
1070
     0
  0
VISUALSTYLE
  5
2A
102
{ACAD_REACTORS
330
29
102
}
330
29
100
AcDbVisualStyle
  2
Flat
 70
     0
177
     3
291
     1
 70
    58
 90
        2
176
     1
 90
        1
176
     1
 90
        1
176
     1
 90
        2
176
     1
 40
0.6
176
     1
 40
30.0
176
     1
 62
     7
420
 16777215
176
     1
 90
        0
176
     1
 90
        0
176
     1
 62
     7
176
     1
 62
   257
176
     1
 90
        1
176
     1
 90
        1
176
     1
 40
1.0
176
     1
 90
        8
176
     1
 62
     7
176
     1
 40
1.0
176
     1
 90
        1
176
     1
 90
        6
176
     1
 90
        2
176
     1
 62
     7
176
     1
 90
        5
176
     1
 90
        0
176
     1
 90
        0
176
     1
290
     0
176
     1
 90
       13
176
     1
 40
0.0
176
     1
 90
        0
176
     1
290
     0
176
     1
290
     1
176
     1
290
     1
176
     1
290
     0
176
     1
290
     0
176
     1
290
     0
176
     1
290
     0
176
     1
290
     0
176
     1
290
     0
176
     1
 90
       50
176
     1
 40
0.0
176
     1
 40
1.0
176
     1
 90
        0
176
     1
 62
    18
176
     1
 90
       50
176
     1
 90
        3
176
     1
 62
     5
420
      255
176
     1
290
     0
176
     1
 90
       50
176
     1
 90
       50
176
     1
 90
       50
176
     1
290
     0
176
     1
 90
       50
176
     1
 62
   256
176
     0
 40
1.0
176
     0
 90
        2
176
     1
  1
strokes_ogs.tif
176
     1
290
     0
176
     1
 40
1.0
176
     1
 40
1.0
176
     1
1001
ACAD
1000
AcDbSavedByObjectVersion
1070
     0
  0
VISUALSTYLE
  5
2B
102
{ACAD_REACTORS
330
29
102
}
330
29
100
AcDbVisualStyle
  2
FlatWithEdges
 70
     1
177
     3
291
     1
 70
    58
 90
        2
176
     1
 90
        1
176
     1
 90
        1
176
     1
 90
        2
176
     1
 40
0.6
176
     1
 40
30.0
176
     1
 62
     7
420
 16777215
176
     1
 90
        1
176
     1
 90
        0
176
     1
 62
     7
176
     1
 62
   257
176
     1
 90
        1
176
     1
 90
        1
176
     1
 40
1.0
176
     1
 90
        0
176
     1
 62
   257
176
     1
 40
1.0
176
     1
 90
        1
176
     1
 90
        6
176
     1
 90
        2
176
     1
 62
     7
176
     1
 90
        5
176
     1
 90
        0
176
     1
 90
        0
176
     1
290
     0
176
     1
 90
       13
176
     1
 40
0.0
176
     1
 90
        0
176
     1
290
     0
176
     1
290
     1
176
     1
290
     1
176
     1
290
     0
176
     1
290
     0
176
     1
290
     0
176
     1
290
     0
176
     1
290
     0
176
     1
290
     0
176
     1
 90
       50
176
     1
 40
0.0
176
     1
 40
1.0
176
     1
 90
        0
176
     1
 62
    18
176
     1
 90
       50
176
     1
 90
        3
176
     1
 62
     5
420
      255
176
     1
290
     0
176
     1
 90
       50
176
     1
 90
       50
176
     1
 90
       50
176
     1
290
     0
176
     1
 90
       50
176
     1
 62
   256
176
     0
 40
1.0
176
     0
 90
        2
176
     1
  1
strokes_ogs.tif
176
     1
290
     0
176
     1
 40
1.0
176
     1
 40
1.0
176
     1
1001
ACAD
1000
AcDbSavedByObjectVersion
1070
     0
  0
VISUALSTYLE
  5
2C
102
{ACAD_REACTORS
330
29
102
}
330
29
100
AcDbVisualStyle
  2
Gouraud
 70
     2
177
     3
291
     1
 70
    58
 90
        2
176
     1
 90
        2
176
     1
 90
        1
176
     1
 90
        2
176
     1
 40
0.6
176
     1
 40
30.0
176
     1
 62
     7
420
 16777215
176
     1
 90
        0
176
     1
 90
        0
176
     1
 62
     7
176
     1
 62
   257
176
     1
 90
        1
176
     1
 90
        1
176
     1
 40
1.0
176
     1
 90
        0
176
     1
 62
     7
176
     1
 40
1.0
176
     1
 90
        1
176
     1
 90
        6
176
     1
 90
        2
176
     1
 62
     7
176
     1
 90
        5
176
     1
 90
        0
176
     1
 90
        0
176
     1
290
     0
176
     1
 90
       13
176
     1
 40
0.0
176
     1
 90
        0
176
     1
290
     0
176
     1
290
     1
176
     1
290
     1
176
     1
290
     0
176
     1
290
     0
176
     1
290
     0
176
     1
290
     0
176
     1
290
     0
176
     1
290
     0
176
     1
 90
       50
176
     1
 40
0.0
176
     1
 40
1.0
176
     1
 90
        0
176
     1
 62
    18
176
     1
 90
       50
176
     1
 90
        3
176
     1
 62
     5
420
      255
176
     1
290
     0
176
     1
 90
       50
176
     1
 90
       50
176
     1
 90
       50
176
     1
290
     0
176
     1
 90
       50
176
     1
 62
   256
176
     0
 40
1.0
176
     0
 90
        2
176
     1
  1
strokes_ogs.tif
176
     1
290
     0
176
     1
 40
1.0
176
     1
 40
1.0
176
     1
1001
ACAD
1000
AcDbSavedByObjectVersion
1070
     0
  0
VISUALSTYLE
  5
2D
102
{ACAD_REACTORS
330
29
102
}
330
29
100
AcDbVisualStyle
  2
GouraudWithEdges
 70
     3
177
     3
291
     1
 70
    58
 90
        2
176
     1
 90
        2
176
     1
 90
        1
176
     1
 90
        2
176
     1
 40
0.6
176
     1
 40
30.0
176
     1
 62
     7
420
 16777215
176
     1
 90
        1
176
     1
 90
        0
176
     1
 62
     7
176
     1
 62
   257
176
     1
 90
        1
176
     1
 90
        1
176
     1
 40
1.0
176
     1
 90
        0
176
     1
 62
   257
176
     1
 40
1.0
176
     1
 90
        1
176
     1
 90
        6
176
     1
 90
        2
176
     1
 62
     7
176
     1
 90
        5
176
     1
 90
        0
176
     1
 90
        0
176
     1
290
     0
176
     1
 90
       13
176
     1
 40
0.0
176
     1
 90
        0
176
     1
290
     0
176
     1
290
     1
176
     1
290
     1
176
     1
290
     0
176
     1
290
     0
176
     1
290
     0
176
     1
290
     0
176
     1
290
     0
176
     1
290
     0
176
     1
 90
       50
176
     1
 40
0.0
176
     1
 40
1.0
176
     1
 90
        0
176
     1
 62
    18
176
     1
 90
       50
176
     1
 90
        3
176
     1
 62
     5
420
      255
176
     1
290
     0
176
     1
 90
       50
176
     1
 90
       50
176
     1
 90
       50
176
     1
290
     0
176
     1
 90
       50
176
     1
 62
   256
176
     0
 40
1.0
176
     0
 90
        2
176
     1
  1
strokes_ogs.tif
176
     1
290
     0
176
     1
 40
1.0
176
     1
 40
1.0
176
     1
1001
ACAD
1000
AcDbSavedByObjectVersion
1070
     0
  0
VISUALSTYLE
  5
31
102
{ACAD_REACTORS
330
29
102
}
330
29
100
AcDbVisualStyle
  2
Hidden
 70
     6
177
     3
291
     0
 70
    58
 90
        1
176
     1
 90
        2
176
     1
 90
        2
176
     1
 90
        0
176
     1
 40
0.6
176
     1
 40
30.0
176
     1
 62
     7
420
 16777215
176
     1
 90
        2
176
     1
 90
        2
176
     1
 62
     7
176
     1
 62
   257
176
     1
 90
        2
176
     1
 90
        1
176
     1
 40
40.0
176
     1
 90
        0
176
     1
 62
   257
176
     1
 40
1.0
176
     1
 90
        1
176
     1
 90
        6
176
     1
 90
        2
176
     1
 62
     7
176
     1
 90
        3
176
     1
 90
        0
176
     1
 90
        0
176
     1
290
     0
176
     1
 90
        1
176
     1
 40
0.0
176
     1
 90
        0
176
     1
290
     0
176
     1
290
     1
176
     1
290
     1
176
     1
290
     0
176
     1
290
     0
176
     1
290
     0
176
     1
290
     0
176
     1
290
     0
176
     1
290
     0
176
     1
 90
       50
176
     1
 40
0.0
176
     1
 40
1.0
176
     1
 90
        0
176
     1
 62
    18
176
     1
 90
       50
176
     1
 90
        3
176
     1
 62
     5
420
      255
176
     1
290
     0
176
     1
 90
       50
176
     1
 90
       50
176
     1
 90
       50
176
     1
290
     0
176
     1
 90
       50
176
     1
 62
   256
176
     0
 40
1.0
176
     0
 90
        2
176
     1
  1
strokes_ogs.tif
176
     1
290
     0
176
     1
 40
1.0
176
     1
 40
1.0
176
     1
1001
ACAD
1000
AcDbSavedByObjectVersion
1070
     0
  0
VISUALSTYLE
  5
3F
102
{ACAD_REACTORS
330
29
102
}
330
29
100
AcDbVisualStyle
  2
JitterOff
 70
    20
177
     3
291
     1
 70
    58
 90
        2
176
     0
 90
        2
176
     0
 90
        0
176
     0
 90
        0
176
     0
 40
0.6
176
     0
 40
30.0
176
     0
 62
     7
420
 16777215
176
     0
 90
        1
176
     0
 90
        4
176
     0
 62
     7
176
     0
 62
   257
176
     0
 90
        1
176
     0
 90
        1
176
     0
 40
1.0
176
     0
 90
       10
176
     2
 62
     7
176
     0
 40
1.0
176
     0
 90
        1
176
     0
 90
        6
176
     0
 90
        2
176
     0
 62
     7
176
     0
 90
        5
176
     0
 90
        0
176
     0
 90
        0
176
     0
290
     0
176
     0
 90
        1
176
     0
 40
0.0
176
     0
 90
        0
176
     0
290
     0
176
     0
290
     1
176
     0
290
     1
176
     0
290
     0
176
     0
290
     0
176
     0
290
     0
176
     0
290
     0
176
     0
290
     0
176
     0
290
     0
176
     0
 90
       50
176
     0
 40
0.0
176
     0
 40
1.0
176
     0
 90
        0
176
     0
 62
    18
176
     0
 90
       50
176
     0
 90
        3
176
     0
 62
     5
420
      255
176
     0
290
     0
176
     0
 90
       50
176
     0
 90
       50
176
     0
 90
       50
176
     0
290
     0
176
     0
 90
       50
176
     0
 62
   256
176
     0
 40
1.0
176
     0
 90
        2
176
     0
  1
strokes_ogs.tif
176
     0
290
     0
176
     0
 40
1.0
176
     0
 40
1.0
176
     0
1001
ACAD
1000
AcDbSavedByObjectVersion
1070
     0
  0
VISUALSTYLE
  5
37
102
{ACAD_REACTORS
330
29
102
}
330
29
100
AcDbVisualStyle
  2
Linepattern
 70
    14
177
     3
291
     1
 70
    58
 90
        2
176
     1
 90
        2
176
     1
 90
        0
176
     1
 90
        0
176
     1
 40
0.6
176
     1
 40
30.0
176
     1
 62
     7
420
 16777215
176
     1
 90
        1
176
     1
 90
        4
176
     1
 62
     7
176
     1
 62
   257
176
     1
 90
        7
176
     1
 90
        7
176
     1
 40
1.0
176
     1
 90
        8
176
     1
 62
     7
176
     1
 40
1.0
176
     1
 90
        1
176
     1
 90
        6
176
     1
 90
        2
176
     1
 62
     7
176
     1
 90
        5
176
     1
 90
        0
176
     1
 90
        0
176
     1
290
     0
176
     1
 90
        1
176
     1
 40
0.0
176
     1
 90
        0
176
     1
290
     0
176
     1
290
     1
176
     1
290
     1
176
     1
290
     0
176
     1
290
     0
176
     1
290
     0
176
     1
290
     0
176
     1
290
     0
176
     1
290
     0
176
     1
 90
       50
176
     1
 40
0.0
176
     1
 40
1.0
176
     1
 90
        0
176
     1
 62
    18
176
     1
 90
       50
176
     1
 90
        3
176
     1
 62
     5
420
      255
176
     1
290
     0
176
     1
 90
       50
176
     1
 90
       50
176
     1
 90
       50
176
     1
290
     0
176
     1
 90
       50
176
     1
 62
   256
176
     0
 40
1.0
176
     0
 90
        2
176
     1
  1
strokes_ogs.tif
176
     1
290
     0
176
     1
 40
1.0
176
     1
 40
1.0
176
     1
1001
ACAD
1000
AcDbSavedByObjectVersion
1070
     0
  0
VISUALSTYLE
  5
40
102
{ACAD_REACTORS
330
29
102
}
330
29
100
AcDbVisualStyle
  2
OverhangOff
 70
    21
177
     3
291
     1
 70
    58
 90
        2
176
     0
 90
        2
176
     0
 90
        0
176
     0
 90
        0
176
     0
 40
0.6
176
     0
 40
30.0
176
     0
 62
     7
420
 16777215
176
     0
 90
        1
176
     0
 90
        4
176
     0
 62
     7
176
     0
 62
   257
176
     0
 90
        1
176
     0
 90
        1
176
     0
 40
1.0
176
     0
 90
        9
176
     2
 62
     7
176
     0
 40
1.0
176
     0
 90
        1
176
     0
 90
        6
176
     0
 90
        2
176
     0
 62
     7
176
     0
 90
        5
176
     0
 90
        0
176
     0
 90
        0
176
     0
290
     0
176
     0
 90
        1
176
     0
 40
0.0
176
     0
 90
        0
176
     0
290
     0
176
     0
290
     1
176
     0
290
     1
176
     0
290
     0
176
     0
290
     0
176
     0
290
     0
176
     0
290
     0
176
     0
290
     0
176
     0
290
     0
176
     0
 90
       50
176
     0
 40
0.0
176
     0
 40
1.0
176
     0
 90
        0
176
     0
 62
    18
176
     0
 90
       50
176
     0
 90
        3
176
     0
 62
     5
420
      255
176
     0
290
     0
176
     0
 90
       50
176
     0
 90
       50
176
     0
 90
       50
176
     0
290
     0
176
     0
 90
       50
176
     0
 62
   256
176
     0
 40
1.0
176
     0
 90
        2
176
     0
  1
strokes_ogs.tif
176
     0
290
     0
176
     0
 40
1.0
176
     0
 40
1.0
176
     0
1001
ACAD
1000
AcDbSavedByObjectVersion
1070
     0
  0
VISUALSTYLE
  5
33
102
{ACAD_REACTORS
330
29
102
}
330
29
100
AcDbVisualStyle
  2
Realistic
 70
     8
177
     3
291
     0
 70
    58
 90
        2
176
     1
 90
        3
176
     1
 90
        0
176
     1
 90
        2
176
     1
 40
0.6
176
     1
 40
30.0
176
     1
 62
     7
420
 16777215
176
     1
 90
        0
176
     1
 90
        0
176
     1
 62
     7
176
     1
 62
   257
176
     1
 90
        1
176
     1
 90
        1
176
     1
 40
1.0
176
     1
 90
        8
176
     1
 62
   257
176
     1
 40
1.0
176
     1
 90
        1
176
     1
 90
        6
176
     1
 90
        2
176
     1
 62
     7
176
     1
 90
        3
176
     1
 90
        0
176
     1
 90
        0
176
     1
290
     0
176
     1
 90
       13
176
     1
 40
0.0
176
     1
 90
        0
176
     1
290
     0
176
     1
290
     1
176
     1
290
     1
176
     1
290
     0
176
     1
290
     0
176
     1
290
     0
176
     1
290
     0
176
     1
290
     0
176
     1
290
     0
176
     1
 90
       50
176
     1
 40
0.0
176
     1
 40
1.0
176
     1
 90
        0
176
     1
 62
    18
176
     1
 90
       50
176
     1
 90
        3
176
     1
 62
     5
420
      255
176
     1
290
     0
176
     1
 90
       50
176
     1
 90
       50
176
     1
 90
       50
176
     1
290
     0
176
     1
 90
       50
176
     1
 62
   256
176
     0
 40
1.0
176
     0
 90
        2
176
     1
  1
strokes_ogs.tif
176
     1
290
     0
176
     1
 40
1.0
176
     1
 40
1.0
176
     1
1001
ACAD
1000
AcDbSavedByObjectVersion
1070
     0
  0
VISUALSTYLE
  5
3E
102
{ACAD_REACTORS
330
29
102
}
330
29
100
AcDbVisualStyle
  2
Shaded
 70
    27
177
     3
291
     0
 70
    58
 90
        2
176
     1
 90
        2
176
     1
 90
        1
176
     1
 90
        2
176
     1
 40
0.6
176
     1
 40
30.0
176
     1
 62
     7
420
 16777215
176
     1
 90
        0
176
     1
 90
        4
176
     1
 62
     7
176
     1
 62
   257
176
     1
 90
        1
176
     1
 90
        1
176
     1
 40
1.0
176
     1
 90
        8
176
     1
 62
   257
176
     1
 40
1.0
176
     1
 90
        1
176
     1
 90
        6
176
     1
 90
        2
176
     1
 62
     8
420
  7895160
176
     1
 90
        3
176
     1
 90
        0
176
     1
 90
        0
176
     1
290
     0
176
     1
 90
        5
176
     1
 40
0.0
176
     1
 90
        0
176
     1
290
     0
176
     1
290
     1
176
     1
290
     1
176
     1
290
     0
176
     1
290
     0
176
     1
290
     0
176
     1
290
     0
176
     1
290
     0
176
     1
290
     0
176
     1
 90
       50
176
     1
 40
0.0
176
     1
 40
1.0
176
     1
 90
        0
176
     1
 62
    18
176
     1
 90
       50
176
     1
 90
        3
176
     1
 62
     5
420
      255
176
     1
290
     0
176
     1
 90
       50
176
     1
 90
       50
176
     1
 90
       50
176
     1
290
     0
176
     1
 90
       50
176
     1
 62
   256
176
     0
 40
1.0
176
     0
 90
        2
176
     1
  1
strokes_ogs.tif
176
     1
290
     0
176
     1
 40
1.0
176
     1
 40
1.0
176
     1
1001
ACAD
1000
AcDbSavedByObjectVersion
1070
     0
  0
VISUALSTYLE
  5
3D
102
{ACAD_REACTORS
330
29
102
}
330
29
100
AcDbVisualStyle
  2
Shaded with edges
 70
    26
177
     3
291
     0
 70
    58
 90
        2
176
     1
 90
        2
176
     1
 90
        1
176
     1
 90
        2
176
     1
 40
0.6
176
     1
 40
30.0
176
     1
 62
     7
420
 16777215
176
     1
 90
        1
176
     1
 90
        2
176
     1
 62
     7
176
     1
 62
   257
176
     1
 90
        2
176
     1
 90
        1
176
     1
 40
1.0
176
     1
 90
        8
176
     1
 62
   257
176
     1
 40
1.0
176
     1
 90
        1
176
     1
 90
        6
176
     1
 90
        2
176
     1
 62
     7
176
     1
 90
        3
176
     1
 90
        0
176
     1
 90
        0
176
     1
290
     0
176
     1
 90
        5
176
     1
 40
0.0
176
     1
 90
        0
176
     1
290
     0
176
     1
290
     1
176
     1
290
     1
176
     1
290
     0
176
     1
290
     0
176
     1
290
     0
176
     1
290
     0
176
     1
290
     0
176
     1
290
     0
176
     1
 90
       50
176
     1
 40
0.0
176
     1
 40
1.0
176
     1
 90
        0
176
     1
 62
    18
176
     1
 90
       50
176
     1
 90
        3
176
     1
 62
     5
420
      255
176
     1
290
     0
176
     1
 90
       50
176
     1
 90
       50
176
     1
 90
       50
176
     1
290
     0
176
     1
 90
       50
176
     1
 62
   256
176
     0
 40
1.0
176
     0
 90
        2
176
     1
  1
strokes_ogs.tif
176
     1
290
     0
176
     1
 40
1.0
176
     1
 40
1.0
176
     1
1001
ACAD
1000
AcDbSavedByObjectVersion
1070
     0
  0
VISUALSTYLE
  5
3A
102
{ACAD_REACTORS
330
29
102
}
330
29
100
AcDbVisualStyle
  2
Shades of Gray
 70
    23
177
     3
291
     0
 70
    58
 90
        2
176
     1
 90
        2
176
     1
 90
        3
176
     1
 90
        0
176
     1
 40
0.6
176
     1
 40
30.0
176
     1
 62
     7
420
 16777215
176
     1
 90
        2
176
     1
 90
        2
176
     1
 62
     7
176
     1
 62
     7
176
     1
 90
        1
176
     1
 90
        1
176
     1
 40
40.0
176
     1
 90
        8
176
     1
 62
     7
176
     1
 40
1.0
176
     1
 90
        1
176
     1
 90
        6
176
     1
 90
        2
176
     1
 62
     7
176
     1
 90
        3
176
     1
 90
        0
176
     1
 90
        0
176
     1
290
     0
176
     1
 90
        1
176
     1
 40
0.0
176
     1
 90
        0
176
     1
290
     0
176
     1
290
     1
176
     1
290
     1
176
     1
290
     0
176
     1
290
     0
176
     1
290
     0
176
     1
290
     0
176
     1
290
     0
176
     1
290
     0
176
     1
 90
       50
176
     1
 40
0.0
176
     1
 40
1.0
176
     1
 90
        0
176
     1
 62
    18
176
     1
 90
       50
176
     1
 90
        3
176
     1
 62
     5
420
      255
176
     1
290
     0
176
     1
 90
       50
176
     1
 90
       50
176
     1
 90
       50
176
     1
290
     0
176
     1
 90
       50
176
     1
 62
   256
176
     0
 40
1.0
176
     0
 90
        2
176
     1
  1
strokes_ogs.tif
176
     1
290
     0
176
     1
 40
1.0
176
     1
 40
1.0
176
     1
1001
ACAD
1000
AcDbSavedByObjectVersion
1070
     0
  0
VISUALSTYLE
  5
3B
102
{ACAD_REACTORS
330
29
102
}
330
29
100
AcDbVisualStyle
  2
Sketchy
 70
    24
177
     3
291
     0
 70
    58
 90
        1
176
     1
 90
        2
176
     1
 90
        2
176
     1
 90
        0
176
     1
 40
0.6
176
     1
 40
30.0
176
     1
 62
     7
420
 16777215
176
     1
 90
        2
176
     1
 90
        2
176
     1
 62
     7
176
     1
 62
     7
176
     1
 90
        1
176
     1
 90
        1
176
     1
 40
40.0
176
     1
 90
       11
176
     1
 62
     7
176
     1
 40
1.0
176
     1
 90
        1
176
     1
 90
        6
176
     1
 90
        2
176
     1
 62
     7
176
     1
 90
        6
176
     1
 90
        0
176
     1
 90
        0
176
     1
290
     0
176
     1
 90
        1
176
     1
 40
0.0
176
     1
 90
        0
176
     1
290
     0
176
     1
290
     1
176
     1
290
     1
176
     1
290
     0
176
     1
290
     0
176
     1
290
     0
176
     1
290
     0
176
     1
290
     0
176
     1
290
     0
176
     1
 90
       50
176
     1
 40
0.0
176
     1
 40
1.0
176
     1
 90
        0
176
     1
 62
    18
176
     1
 90
       50
176
     1
 90
        3
176
     1
 62
     5
420
      255
176
     1
290
     0
176
     1
 90
       50
176
     1
 90
       50
176
     1
 90
       50
176
     1
290
     0
176
     1
 90
       50
176
     1
 62
   256
176
     0
 40
1.0
176
     0
 90
        2
176
     1
  1
strokes_ogs.tif
176
     1
290
     0
176
     1
 40
1.0
176
     1
 40
1.0
176
     1
1001
ACAD
1000
AcDbSavedByObjectVersion
1070
     0
  0
VISUALSTYLE
  5
36
102
{ACAD_REACTORS
330
29
102
}
330
29
100
AcDbVisualStyle
  2
Thicken
 70
    13
177
     3
291
     1
 70
    58
 90
        2
176
     1
 90
        2
176
     1
 90
        0
176
     1
 90
        0
176
     1
 40
0.6
176
     1
 40
30.0
176
     1
 62
     7
420
 16777215
176
     1
 90
        1
176
     1
 90
        4
176
     1
 62
     7
176
     1
 62
   257
176
     1
 90
        1
176
     1
 90
        1
176
     1
 40
1.0
176
     1
 90
       12
176
     1
 62
     7
176
     1
 40
1.0
176
     1
 90
        1
176
     1
 90
        6
176
     1
 90
        2
176
     1
 62
     7
176
     1
 90
        5
176
     1
 90
        0
176
     1
 90
        0
176
     1
290
     0
176
     1
 90
        1
176
     1
 40
0.0
176
     1
 90
        0
176
     1
290
     0
176
     1
290
     1
176
     1
290
     1
176
     1
290
     0
176
     1
290
     0
176
     1
290
     0
176
     1
290
     0
176
     1
290
     0
176
     1
290
     0
176
     1
 90
       50
176
     1
 40
0.0
176
     1
 40
1.0
176
     1
 90
        0
176
     1
 62
    18
176
     1
 90
       50
176
     1
 90
        3
176
     1
 62
     5
420
      255
176
     1
290
     0
176
     1
 90
       50
176
     1
 90
       50
176
     1
 90
       50
176
     1
290
     0
176
     1
 90
       50
176
     1
 62
   256
176
     0
 40
1.0
176
     0
 90
        2
176
     1
  1
strokes_ogs.tif
176
     1
290
     0
176
     1
 40
1.0
176
     1
 40
1.0
176
     1
1001
ACAD
1000
AcDbSavedByObjectVersion
1070
     0
  0
VISUALSTYLE
  5
30
102
{ACAD_REACTORS
330
29
102
}
330
29
100
AcDbVisualStyle
  2
Wireframe
 70
     5
177
     3
291
     0
 70
    58
 90
        0
176
     1
 90
        2
176
     1
 90
        0
176
     1
 90
        0
176
     1
 40
0.6
176
     1
 40
30.0
176
     1
 62
     7
420
 16777215
176
     1
 90
        1
176
     1
 90
        4
176
     1
 62
     7
176
     1
 62
   257
176
     1
 90
        1
176
     1
 90
        1
176
     1
 40
1.0
176
     1
 90
        0
176
     1
 62
   257
176
     1
 40
1.0
176
     1
 90
        1
176
     1
 90
        6
176
     1
 90
        2
176
     1
 62
     7
176
     1
 90
        3
176
     1
 90
        0
176
     1
 90
        0
176
     1
290
     0
176
     1
 90
        1
176
     1
 40
0.0
176
     1
 90
        0
176
     1
290
     0
176
     1
290
     1
176
     1
290
     1
176
     1
290
     0
176
     1
290
     0
176
     1
290
     0
176
     1
290
     0
176
     1
290
     0
176
     1
290
     0
176
     1
 90
       50
176
     1
 40
0.0
176
     1
 40
1.0
176
     1
 90
        0
176
     1
 62
    18
176
     1
 90
       50
176
     1
 90
        3
176
     1
 62
     5
420
      255
176
     1
290
     0
176
     1
 90
       50
176
     1
 90
       50
176
     1
 90
       50
176
     1
290
     0
176
     1
 90
       50
176
     1
 62
   256
176
     0
 40
1.0
176
     0
 90
        2
176
     1
  1
strokes_ogs.tif
176
     1
290
     0
176
     1
 40
1.0
176
     1
 40
1.0
176
     1
1001
ACAD
1000
AcDbSavedByObjectVersion
1070
     0
  0
VISUALSTYLE
  5
3C
102
{ACAD_REACTORS
330
29
102
}
330
29
100
AcDbVisualStyle
  2
X-Ray
 70
    25
177
     3
291
     0
 70
    58
 90
        2
176
     1
 90
        2
176
     1
 90
        1
176
     1
 90
        1
176
     1
 40
0.5
176
     1
 40
30.0
176
     1
 62
     7
420
 16777215
176
     1
 90
        1
176
     1
 90
        0
176
     1
 62
     7
176
     1
 62
   257
176
     1
 90
        1
176
     1
 90
        1
176
     1
 40
1.0
176
     1
 90
        8
176
     1
 62
     7
176
     1
 40
1.0
176
     1
 90
        1
176
     1
 90
        6
176
     1
 90
        2
176
     1
 62
     7
176
     1
 90
        3
176
     1
 90
        0
176
     1
 90
        0
176
     1
290
     0
176
     1
 90
       13
176
     1
 40
0.0
176
     1
 90
        0
176
     1
290
     0
176
     1
290
     1
176
     1
290
     1
176
     1
290
     0
176
     1
290
     0
176
     1
290
     0
176
     1
290
     0
176
     1
290
     0
176
     1
290
     0
176
     1
 90
       50
176
     1
 40
0.0
176
     1
 40
1.0
176
     1
 90
        0
176
     1
 62
    18
176
     1
 90
       50
176
     1
 90
        3
176
     1
 62
     5
420
      255
176
     1
290
     0
176
     1
 90
       50
176
     1
 90
       50
176
     1
 90
       50
176
     1
290
     0
176
     1
 90
       50
176
     1
 62
   256
176
     0
 40
1.0
176
     0
 90
        2
176
     1
  1
strokes_ogs.tif
176
     1
290
     0
176
     1
 40
1.0
176
     1
 40
1.0
176
     1
1001
ACAD
1000
AcDbSavedByObjectVersion
1070
     0
  0
DICTIONARYVAR
  5
A4
102
{ACAD_REACTORS
330
9F
102
}
330
9F
100
DictionaryVariables
280
     0
  1
1:1
  0
DICTIONARYVAR
  5
A1
102
{ACAD_REACTORS
330
9F
102
}
330
9F
100
DictionaryVariables
280
     0
  1
STANDARD
  0
DICTIONARYVAR
  5
A0
102
{ACAD_REACTORS
330
9F
102
}
330
9F
100
DictionaryVariables
280
     0
  1
STANDARD
  0
DICTIONARYVAR
  5
A2
102
{ACAD_REACTORS
330
9F
102
}
330
9F
100
DictionaryVariables
280
     0
  1
Imperial24
  0
DICTIONARYVAR
  5
A3
102
{ACAD_REACTORS
330
9F
102
}
330
9F
100
DictionaryVariables
280
     0
  1
Imperial24
  0
DICTIONARY
  5
1A
330
19
100
AcDbDictionary
280
     1
281
     1
  3
BUMPTILE
360
1C
  3
DIFFUSETILE
360
1B
  3
OPACITYTILE
360
1F
  3
REFLECTIONTILE
360
1E
  3
REFRACTIONTILE
360
20
  3
SPECULARTILE
360
1D
  0
DICTIONARY
  5
12
330
11
100
AcDbDictionary
280
     1
281
     1
  3
BUMPTILE
360
14
  3
DIFFUSETILE
360
13
  3
OPACITYTILE
360
17
  3
REFLECTIONTILE
360
16
  3
REFRACTIONTILE
360
18
  3
SPECULARTILE
360
15
  0
DICTIONARY
  5
22
330
21
100
AcDbDictionary
280
     1
281
     1
  3
BUMPTILE
360
24
  3
DIFFUSETILE
360
23
  3
OPACITYTILE
360
27
  3
REFLECTIONTILE
360
26
  3
REFRACTIONTILE
360
28
  3
SPECULARTILE
360
25
  0
DICTIONARY
  5
A5
330
65
100
AcDbDictionary
280
     1
281
     1
  3
ACAD_ROUNDTRIP_2008_TABLESTYLE_CELLSTYLEMAP
360
3D8
  0
XRECORD
  5
1C
102
{ACAD_REACTORS
330
1A
102
}
330
1A
100
AcDbXrecord
280
     1
270
     1
271
     1
  0
XRECORD
  5
1B
102
{ACAD_REACTORS
330
1A
102
}
330
1A
100
AcDbXrecord
280
     1
270
     1
271
     1
  0
XRECORD
  5
1F
102
{ACAD_REACTORS
330
1A
102
}
330
1A
100
AcDbXrecord
280
     1
270
     1
271
     1
  0
XRECORD
  5
1E
102
{ACAD_REACTORS
330
1A
102
}
330
1A
100
AcDbXrecord
280
     1
270
     1
271
     1
  0
XRECORD
  5
20
102
{ACAD_REACTORS
330
1A
102
}
330
1A
100
AcDbXrecord
280
     1
270
     1
271
     1
  0
XRECORD
  5
1D
102
{ACAD_REACTORS
330
1A
102
}
330
1A
100
AcDbXrecord
280
     1
270
     1
271
     1
  0
XRECORD
  5
14
102
{ACAD_REACTORS
330
12
102
}
330
12
100
AcDbXrecord
280
     1
270
     1
271
     1
  0
XRECORD
  5
13
102
{ACAD_REACTORS
330
12
102
}
330
12
100
AcDbXrecord
280
     1
270
     1
271
     1
  0
XRECORD
  5
17
102
{ACAD_REACTORS
330
12
102
}
330
12
100
AcDbXrecord
280
     1
270
     1
271
     1
  0
XRECORD
  5
16
102
{ACAD_REACTORS
330
12
102
}
330
12
100
AcDbXrecord
280
     1
270
     1
271
     1
  0
XRECORD
  5
18
102
{ACAD_REACTORS
330
12
102
}
330
12
100
AcDbXrecord
280
     1
270
     1
271
     1
  0
XRECORD
  5
15
102
{ACAD_REACTORS
330
12
102
}
330
12
100
AcDbXrecord
280
     1
270
     1
271
     1
  0
XRECORD
  5
24
102
{ACAD_REACTORS
330
22
102
}
330
22
100
AcDbXrecord
280
     1
270
     1
271
     1
  0
XRECORD
  5
23
102
{ACAD_REACTORS
330
22
102
}
330
22
100
AcDbXrecord
280
     1
270
     1
271
     1
  0
XRECORD
  5
27
102
{ACAD_REACTORS
330
22
102
}
330
22
100
AcDbXrecord
280
     1
270
     1
271
     1
  0
XRECORD
  5
26
102
{ACAD_REACTORS
330
22
102
}
330
22
100
AcDbXrecord
280
     1
270
     1
271
     1
  0
XRECORD
  5
28
102
{ACAD_REACTORS
330
22
102
}
330
22
100
AcDbXrecord
280
     1
270
     1
271
     1
  0
XRECORD
  5
25
102
{ACAD_REACTORS
330
22
102
}
330
22
100
AcDbXrecord
280
     1
270
     1
271
     1
  0
CELLSTYLEMAP
  5
3D8
102
{ACAD_REACTORS
330
A5
102
}
330
A5
100
AcDbCellStyleMap
 90
        3
300
CELLSTYLE
  1
TABLEFORMAT_BEGIN
 90
        5
170
     1
 91
        0
 92
    32768
 62
   257
 93
        1
300
CONTENTFORMAT
  1
CONTENTFORMAT_BEGIN
 90
        0
 91
        0
 92
      512
 93
        0
300

 40
0.0
140
1.0
 94
        5
 62
     0
340
55
144
0.25
309
CONTENTFORMAT_END
171
     1
301
MARGIN
  1
CELLMARGIN_BEGIN
 40
0.06
 40
0.06
 40
0.06
 40
0.06
 40
0.18
 40
0.18
309
CELLMARGIN_END
 94
        6
 95
        1
302
GRIDFORMAT
  1
GRIDFORMAT_BEGIN
 90
        0
 91
        1
 62
     0
 92
       -2
340
0
 93
        0
 40
0.045
309
GRIDFORMAT_END
 95
        2
302
GRIDFORMAT
  1
GRIDFORMAT_BEGIN
 90
        0
 91
        1
 62
     0
 92
       -2
340
0
 93
        0
 40
0.045
309
GRIDFORMAT_END
 95
        4
302
GRIDFORMAT
  1
GRIDFORMAT_BEGIN
 90
        0
 91
        1
 62
     0
 92
       -2
340
0
 93
        0
 40
0.045
309
GRIDFORMAT_END
 95
        8
302
GRIDFORMAT
  1
GRIDFORMAT_BEGIN
 90
        0
 91
        1
 62
     0
 92
       -2
340
0
 93
        0
 40
0.045
309
GRIDFORMAT_END
 95
       16
302
GRIDFORMAT
  1
GRIDFORMAT_BEGIN
 90
        0
 91
        1
 62
     0
 92
       -2
340
0
 93
        0
 40
0.045
309
GRIDFORMAT_END
 95
       32
302
GRIDFORMAT
  1
GRIDFORMAT_BEGIN
 90
        0
 91
        1
 62
     0
 92
       -2
340
0
 93
        0
 40
0.045
309
GRIDFORMAT_END
309
TABLEFORMAT_END
  1
CELLSTYLE_BEGIN
 90
        1
 91
        1
300
_TITLE
309
CELLSTYLE_END
300
CELLSTYLE
  1
TABLEFORMAT_BEGIN
 90
        5
170
     1
 91
        0
 92
        0
 62
   257
 93
        1
300
CONTENTFORMAT
  1
CONTENTFORMAT_BEGIN
 90
        0
 91
        0
 92
      512
 93
        0
300

 40
0.0
140
1.0
 94
        5
 62
     0
340
55
144
0.18
309
CONTENTFORMAT_END
171
     1
301
MARGIN
  1
CELLMARGIN_BEGIN
 40
0.06
 40
0.06
 40
0.06
 40
0.06
 40
0.18
 40
0.18
309
CELLMARGIN_END
 94
        6
 95
        1
302
GRIDFORMAT
  1
GRIDFORMAT_BEGIN
 90
        0
 91
        1
 62
     0
 92
       -2
340
0
 93
        0
 40
0.045
309
GRIDFORMAT_END
 95
        2
302
GRIDFORMAT
  1
GRIDFORMAT_BEGIN
 90
        0
 91
        1
 62
     0
 92
       -2
340
0
 93
        0
 40
0.045
309
GRIDFORMAT_END
 95
        4
302
GRIDFORMAT
  1
GRIDFORMAT_BEGIN
 90
        0
 91
        1
 62
     0
 92
       -2
340
0
 93
        0
 40
0.045
309
GRIDFORMAT_END
 95
        8
302
GRIDFORMAT
  1
GRIDFORMAT_BEGIN
 90
        0
 91
        1
 62
     0
 92
       -2
340
0
 93
        0
 40
0.045
309
GRIDFORMAT_END
 95
       16
302
GRIDFORMAT
  1
GRIDFORMAT_BEGIN
 90
        0
 91
        1
 62
     0
 92
       -2
340
0
 93
        0
 40
0.045
309
GRIDFORMAT_END
 95
       32
302
GRIDFORMAT
  1
GRIDFORMAT_BEGIN
 90
        0
 91
        1
 62
     0
 92
       -2
340
0
 93
        0
 40
0.045
309
GRIDFORMAT_END
309
TABLEFORMAT_END
  1
CELLSTYLE_BEGIN
 90
        2
 91
        1
300
_HEADER
309
CELLSTYLE_END
300
CELLSTYLE
  1
TABLEFORMAT_BEGIN
 90
        5
170
     1
 91
        0
 92
        0
 62
   257
 93
        1
300
CONTENTFORMAT
  1
CONTENTFORMAT_BEGIN
 90
        0
 91
        0
 92
      512
 93
        0
300

 40
0.0
140
1.0
 94
        2
 62
     0
340
55
144
0.18
309
CONTENTFORMAT_END
171
     1
301
MARGIN
  1
CELLMARGIN_BEGIN
 40
0.06
 40
0.06
 40
0.06
 40
0.06
 40
0.18
 40
0.18
309
CELLMARGIN_END
 94
        6
 95
        1
302
GRIDFORMAT
  1
GRIDFORMAT_BEGIN
 90
        0
 91
        1
 62
     0
 92
       -2
340
0
 93
        0
 40
0.045
309
GRIDFORMAT_END
 95
        2
302
GRIDFORMAT
  1
GRIDFORMAT_BEGIN
 90
        0
 91
        1
 62
     0
 92
       -2
340
0
 93
        0
 40
0.045
309
GRIDFORMAT_END
 95
        4
302
GRIDFORMAT
  1
GRIDFORMAT_BEGIN
 90
        0
 91
        1
 62
     0
 92
       -2
340
0
 93
        0
 40
0.045
309
GRIDFORMAT_END
 95
        8
302
GRIDFORMAT
  1
GRIDFORMAT_BEGIN
 90
        0
 91
        1
 62
     0
 92
       -2
340
0
 93
        0
 40
0.045
309
GRIDFORMAT_END
 95
       16
302
GRIDFORMAT
  1
GRIDFORMAT_BEGIN
 90
        0
 91
        1
 62
     0
 92
       -2
340
0
 93
        0
 40
0.045
309
GRIDFORMAT_END
 95
       32
302
GRIDFORMAT
  1
GRIDFORMAT_BEGIN
 90
        0
 91
        1
 62
     0
 92
       -2
340
0
 93
        0
 40
0.045
309
GRIDFORMAT_END
309
TABLEFORMAT_END
  1
CELLSTYLE_BEGIN
 90
        3
 91
        2
300
_DATA
309
CELLSTYLE_END
  0
ENDSEC
  0
SECTION
  2
ACDSDATA
 70
     2
 71
     8
  0
ACDSSCHEMA
 90
        0
  1
AcDb_Thumbnail_Schema
  2
AcDbDs::ID
280
    10
 91
        8
  2
Thumbnail_Data
280
    15
 91
        0
101
ACDSRECORD
 95
        0
 90
        1
  2
AcDbDs::TreatedAsObjectData
280
     1
291
     1
101
ACDSRECORD
 95
        0
 90
        2
  2
AcDbDs::Legacy
280
     1
291
     1
101
ACDSRECORD
  1
AcDbDs::ID
 90
        3
  2
AcDs:Indexable
280
     1
291
     1
101
ACDSRECORD
  1
AcDbDs::ID
 90
        4
  2
AcDbDs::HandleAttribute
280
     7
282
     1
  0
ACDSSCHEMA
 90
        1
  1
AcDbDs::TreatedAsObjectDataSchema
  2
AcDbDs::TreatedAsObjectData
280
     1
 91
        0
  0
ACDSSCHEMA
 90
        2
  1
AcDbDs::LegacySchema
  2
AcDbDs::Legacy
280
     1
 91
        0
  0
ACDSSCHEMA
 90
        3
  1
AcDbDs::IndexedPropertySchema
  2
AcDs:Indexable
280
     1
 91
        0
  0
ACDSSCHEMA
 90
        4
  1
AcDbDs::HandleAttributeSchema
  2
AcDbDs::HandleAttribute
280
     7
 91
        1
284
     1
  0
ACDSRECORD
 90
        0
  2
AcDbDs::ID
280
    10
320
6F
  2
Thumbnail_Data
280
    15
 94
     1350
310
89504E470D0A1A0A0000000D4948445200000100000000C608030000000A6AAE4900000300504C5445FFFFFFFFFFFFFFFFFF0000000000000000000000000000000000000000000000000000330000660000990000CC0000FF0033000033330033660033990033CC0033FF0066000066330066660066990066CC0066FF0099
310
000099330099660099990099CC0099FF00CC0000CC3300CC6600CC9900CCCC00CCFF00FF0000FF3300FF6600FF9900FFCC00FFFF3300003300333300663300993300CC3300FF3333003333333333663333993333CC3333FF3366003366333366663366993366CC3366FF3399003399333399663399993399CC3399FF33CC00
310
33CC3333CC6633CC9933CCCC33CCFF33FF0033FF3333FF6633FF9933FFCC33FFFF6600006600336600666600996600CC6600FF6633006633336633666633996633CC6633FF6666006666336666666666996666CC6666FF6699006699336699666699996699CC6699FF66CC0066CC3366CC6666CC9966CCCC66CCFF66FF0066
310
FF3366FF6666FF9966FFCC66FFFF9900009900339900669900999900CC9900FF9933009933339933669933999933CC9933FF9966009966339966669966999966CC9966FF9999009999339999669999999999CC9999FF99CC0099CC3399CC6699CC9999CCCC99CCFF99FF0099FF3399FF6699FF9999FFCC99FFFFCC0000CC00
310
33CC0066CC0099CC00CCCC00FFCC3300CC3333CC3366CC3399CC33CCCC33FFCC6600CC6633CC6666CC6699CC66CCCC66FFCC9900CC9933CC9966CC9999CC99CCCC99FFCCCC00CCCC33CCCC66CCCC99CCCCCCCCCCFFCCFF00CCFF33CCFF66CCFF99CCFFCCCCFFFFFF0000FF0033FF0066FF0099FF00CCFF00FFFF3300FF3333
310
FF3366FF3399FF33CCFF33FFFF6600FF6633FF6666FF6699FF66CCFF66FFFF9900FF9933FF9966FF9999FF99CCFF99FFFFCC00FFCC33FFCC66FFCC99FFCCCCFFCCFFFFFF00FFFF33FFFF66FFFF99FFFFCCFFFFFF0000000D0D0D1A1A1A2828283535354343435050505D5D5D6B6B6B787878868686939393A1A1A1AEAEAEBB
310
BBBBC9C9C9D6D6D6E4E4E4F1F1F1FFFFFF000000000000000000000000000000000000000000000000000000000000AD4AB4E4000002014944415478DAEDDB416EC4200C0040FEFF4CCEFB884AAD2A6DF7520504B6617CE790894962E3B4D7E5D15EEDE60000000000000000000000000000000000000000E02DFA393108F0
310
8F5E7F86DDE3EEF32A806797D4FB6900755200400E803801000000A40008135805502605006401881200900620482011408C402680100100AB00AA08E40208E88C2403D89F04EB008A08E403D8BC0D12027C37DDEF06F831E8D501A677F31683CC007B0EA0520314DF02250400AC04A820006029400101006B01F20B00580C
310
905E603940760100CB01C605FA8E9A382DC0EFB5AF36D80030DD20EFD501A6CF097B7580E961815E1D603A637A7580D9870680F200B39F4EBD3CC064F97000C05C057902C05417E50880994EE21900E30207BC059EAC3B1860F44CED1C803181FAB5C09F42FFC26AF0F9E2B3FA014302077584865F0687F40457AC2F0F10F9
310
B36C0E803404710049F64124408A240805C840100C104F100E104D900060EF70744A80B671383A2B4058226402686FD3D1B7027C4ADC0BF0911035C7E54B0400000000000000000000000000000000000000000000000000000000000000000000000000000000000000000000000000000000000000000000000000000000
310
00000000000000000000000000000000000000000000000000C03500E7C418C00D01000000000000000000000000000000000000E04680CBE37A802FCF87B02917FB7D530000000049454E44AE426082
  0
ACDSRECORD
 90
        0
  2
AcDbDs::ID
280
    10
320
73
  2
Thumbnail_Data
280
    15
 94
     1034
310
89504E470D0A1A0A0000000D49484452000001000000008E0803000000E961264800000300504C5445212830FFFFFF2128300000000000000000000000000000000000000000000000000000330000660000990000CC0000FF0033000033330033660033990033CC0033FF0066000066330066660066990066CC0066FF0099
310
000099330099660099990099CC0099FF00CC0000CC3300CC6600CC9900CCCC00CCFF00FF0000FF3300FF6600FF9900FFCC00FFFF3300003300333300663300993300CC3300FF3333003333333333663333993333CC3333FF3366003366333366663366993366CC3366FF3399003399333399663399993399CC3399FF33CC00
310
33CC3333CC6633CC9933CCCC33CCFF33FF0033FF3333FF6633FF9933FFCC33FFFF6600006600336600666600996600CC6600FF6633006633336633666633996633CC6633FF6666006666336666666666996666CC6666FF6699006699336699666699996699CC6699FF66CC0066CC3366CC6666CC9966CCCC66CCFF66FF0066
310
FF3366FF6666FF9966FFCC66FFFF9900009900339900669900999900CC9900FF9933009933339933669933999933CC9933FF9966009966339966669966999966CC9966FF9999009999339999669999999999CC9999FF99CC0099CC3399CC6699CC9999CCCC99CCFF99FF0099FF3399FF6699FF9999FFCC99FFFFCC0000CC00
310
33CC0066CC0099CC00CCCC00FFCC3300CC3333CC3366CC3399CC33CCCC33FFCC6600CC6633CC6666CC6699CC66CCCC66FFCC9900CC9933CC9966CC9999CC99CCCC99FFCCCC00CCCC33CCCC66CCCC99CCCCCCCCCCFFCCFF00CCFF33CCFF66CCFF99CCFFCCCCFFFFFF0000FF0033FF0066FF0099FF00CCFF00FFFF3300FF3333
310
FF3366FF3399FF33CCFF33FFFF6600FF6633FF6666FF6699FF66CCFF66FFFF9900FF9933FF9966FF9999FF99CCFF99FFFFCC00FFCC33FFCC66FFCC99FFCCCCFFCCFFFFFF00FFFF33FFFF66FFFF99FFFFCCFFFFFF0000000D0D0D1A1A1A2828283535354343435050505D5D5D6B6B6B787878868686939393A1A1A1AEAEAEBB
310
BBBBC9C9C9D6D6D6E4E4E4F1F1F1FFFFFF0000000000000000000000000000000000000000000000000000000000002E4550F1000000AF4944415478DAEDDA310A80300C40D1DCFFBED90571113314A425DAF716A153FAB15B2200000000000000000000000000000000000000809732AFCF4CADEF7F8E771B32E339F1E859
310
75D8BA4015A0BAD7F05919A56F805CF404B2EFFDD776DE3740082080000208208000020820800002082080000208208000020820800002082080000208208000020820800002FC3940D755C13505FAEE09CE5E90FCC0B27035DC56BBC2B1F90F00000000AC70004C434320AB8A17AC0000000049454E44AE426082E63642E1
310
BE956C36F7600000000049454E44AE426082
  0
ENDSEC
  0
EOF
