G04 #@! TF.GenerationSoftware,KiCad,Pcbnew,(5.1.7)-1*
G04 #@! TF.CreationDate,2020-12-20T09:08:33-05:00*
G04 #@! TF.ProjectId,Ganjing 65,47616e6a-696e-4672-9036-352e6b696361,rev?*
G04 #@! TF.SameCoordinates,Original*
G04 #@! TF.FileFunction,Soldermask,Bot*
G04 #@! TF.FilePolarity,Negative*
%FSLAX46Y46*%
G04 Gerber Fmt 4.6, Leading zero omitted, Abs format (unit mm)*
G04 Created by KiCad (PCBNEW (5.1.7)-1) date 2020-12-20 09:08:33*
%MOMM*%
%LPD*%
G01*
G04 APERTURE LIST*
%ADD10C,2.250000*%
%ADD11C,3.987800*%
%ADD12C,1.750000*%
%ADD13C,3.048000*%
%ADD14C,2.000000*%
%ADD15O,1.400000X1.400000*%
%ADD16C,1.400000*%
%ADD17O,0.650000X1.000000*%
%ADD18O,0.900000X2.400000*%
%ADD19O,0.900000X1.700000*%
%ADD20R,1.700000X1.700000*%
%ADD21C,1.700000*%
%ADD22C,1.524000*%
%ADD23C,1.500000*%
%ADD24O,1.600000X1.600000*%
%ADD25R,1.600000X1.600000*%
%ADD26C,4.400000*%
%ADD27R,2.000000X2.000000*%
%ADD28R,2.000000X3.200000*%
%ADD29C,1.800000*%
%ADD30R,1.800000X1.800000*%
%ADD31R,1.200000X1.200000*%
%ADD32C,1.200000*%
%ADD33C,1.600000*%
G04 APERTURE END LIST*
D10*
X185896250Y-204470000D03*
D11*
X183356250Y-209550000D03*
D10*
X179546250Y-207010000D03*
D12*
X178276250Y-209550000D03*
X188436250Y-209550000D03*
D13*
X126206250Y-216535000D03*
X240506250Y-216535000D03*
D11*
X126206250Y-201295000D03*
X240506250Y-201295000D03*
D10*
X335915000Y-156845000D03*
D11*
X333375000Y-161925000D03*
D10*
X329565000Y-159385000D03*
D12*
X328295000Y-161925000D03*
X338455000Y-161925000D03*
D13*
X340360000Y-173863000D03*
X340360000Y-149987000D03*
D11*
X325120000Y-173863000D03*
X325120000Y-149987000D03*
D10*
X193040000Y-204470000D03*
D11*
X190500000Y-209550000D03*
D10*
X186690000Y-207010000D03*
D12*
X185420000Y-209550000D03*
X195580000Y-209550000D03*
D13*
X140500100Y-216535000D03*
X240499900Y-216535000D03*
D11*
X140500100Y-201295000D03*
X240499900Y-201295000D03*
D14*
X173500000Y-99100000D03*
X173500000Y-103600000D03*
X167000000Y-99100000D03*
X167000000Y-103600000D03*
X163200000Y-99100000D03*
X163200000Y-103600000D03*
X156700000Y-99100000D03*
X156700000Y-103600000D03*
D15*
X96380000Y-120400000D03*
D16*
X91300000Y-120400000D03*
D15*
X91320000Y-116900000D03*
D16*
X96400000Y-116900000D03*
D15*
X91320000Y-113400000D03*
D16*
X96400000Y-113400000D03*
D15*
X96380000Y-109900000D03*
D16*
X91300000Y-109900000D03*
D15*
X91320000Y-106400000D03*
D16*
X96400000Y-106400000D03*
D15*
X91320000Y-102700000D03*
D16*
X96400000Y-102700000D03*
D15*
X96380000Y-99300000D03*
D16*
X91300000Y-99300000D03*
D17*
X74525000Y-104850000D03*
X76225000Y-104850000D03*
X75375000Y-104850000D03*
X73675000Y-104850000D03*
X72825000Y-104850000D03*
X71975000Y-104850000D03*
X71125000Y-104850000D03*
X70275000Y-104850000D03*
X76225000Y-103525000D03*
X75370000Y-103525000D03*
X74520000Y-103525000D03*
X73670000Y-103525000D03*
X72820000Y-103525000D03*
X71970000Y-103525000D03*
X71120000Y-103525000D03*
X70270000Y-103525000D03*
D18*
X77575000Y-103870000D03*
X68925000Y-103870000D03*
D19*
X77575000Y-100490000D03*
X68925000Y-100490000D03*
D20*
X183540000Y-100130000D03*
D21*
X183540000Y-102670000D03*
X181000000Y-100130000D03*
X181000000Y-102670000D03*
X178460000Y-100130000D03*
X178460000Y-102670000D03*
D22*
X251581250Y-213360000D03*
X251581250Y-210820000D03*
X251581250Y-208280000D03*
X251581250Y-205740000D03*
D23*
X141640000Y-120400000D03*
X136760000Y-120400000D03*
D24*
X156600000Y-113000000D03*
D25*
X156600000Y-107920000D03*
D24*
X169200000Y-113000000D03*
D25*
X169200000Y-107920000D03*
D24*
X181800000Y-113000000D03*
D25*
X181800000Y-107920000D03*
D24*
X194400000Y-113000000D03*
D25*
X194400000Y-107920000D03*
D24*
X207000000Y-113000000D03*
D25*
X207000000Y-107920000D03*
D24*
X219600000Y-113000000D03*
D25*
X219600000Y-107920000D03*
D24*
X232200000Y-113000000D03*
D25*
X232200000Y-107920000D03*
D24*
X244800000Y-113000000D03*
D25*
X244800000Y-107920000D03*
D24*
X257400000Y-113000000D03*
D25*
X257400000Y-107920000D03*
D24*
X270000000Y-113000000D03*
D25*
X270000000Y-107920000D03*
D24*
X282600000Y-113000000D03*
D25*
X282600000Y-107920000D03*
D24*
X295200000Y-113050000D03*
D25*
X295200000Y-107970000D03*
D24*
X307800000Y-113050000D03*
D25*
X307800000Y-107970000D03*
D24*
X320400000Y-113050000D03*
D25*
X320400000Y-107970000D03*
D24*
X336100000Y-114350000D03*
D25*
X336100000Y-109270000D03*
D24*
X159700000Y-114350000D03*
D25*
X159700000Y-109270000D03*
D24*
X172300000Y-114350000D03*
D25*
X172300000Y-109270000D03*
D24*
X184900000Y-114350000D03*
D25*
X184900000Y-109270000D03*
D24*
X197500000Y-114350000D03*
D25*
X197500000Y-109270000D03*
D24*
X210100000Y-114350000D03*
D25*
X210100000Y-109270000D03*
D24*
X222700000Y-114380000D03*
D25*
X222700000Y-109300000D03*
D24*
X235300000Y-114350000D03*
D25*
X235300000Y-109270000D03*
D24*
X247900000Y-114350000D03*
D25*
X247900000Y-109270000D03*
D24*
X260500000Y-114350000D03*
D25*
X260500000Y-109270000D03*
D24*
X273100000Y-114350000D03*
D25*
X273100000Y-109270000D03*
D24*
X285700000Y-114350000D03*
D25*
X285700000Y-109270000D03*
D24*
X298300000Y-114350000D03*
D25*
X298300000Y-109270000D03*
D24*
X310900000Y-114350000D03*
D25*
X310900000Y-109270000D03*
D24*
X323500000Y-114350000D03*
D25*
X323500000Y-109270000D03*
D24*
X339200000Y-115650000D03*
D25*
X339200000Y-110570000D03*
D24*
X162800000Y-115650000D03*
D25*
X162800000Y-110570000D03*
D24*
X175400000Y-115650000D03*
D25*
X175400000Y-110570000D03*
D24*
X188000000Y-115650000D03*
D25*
X188000000Y-110570000D03*
D24*
X200600000Y-115650000D03*
D25*
X200600000Y-110570000D03*
D24*
X213200000Y-115550000D03*
D25*
X213200000Y-110470000D03*
D24*
X225800000Y-115650000D03*
D25*
X225800000Y-110570000D03*
D24*
X238400000Y-115650000D03*
D25*
X238400000Y-110570000D03*
D24*
X251000000Y-115650000D03*
D25*
X251000000Y-110570000D03*
D24*
X263600000Y-115650000D03*
D25*
X263600000Y-110570000D03*
D24*
X276200000Y-115650000D03*
D25*
X276200000Y-110570000D03*
D24*
X288800000Y-115650000D03*
D25*
X288800000Y-110570000D03*
D24*
X301400000Y-115650000D03*
D25*
X301400000Y-110570000D03*
D24*
X314000000Y-115650000D03*
D25*
X314000000Y-110570000D03*
D24*
X326600000Y-115650000D03*
D25*
X326600000Y-110570000D03*
D24*
X165900000Y-116950000D03*
D25*
X165900000Y-111870000D03*
D24*
X191100000Y-116980000D03*
D25*
X191100000Y-111900000D03*
D24*
X203700000Y-116950000D03*
D25*
X203700000Y-111870000D03*
D24*
X216300000Y-116950000D03*
D25*
X216300000Y-111870000D03*
D24*
X228900000Y-116950000D03*
D25*
X228900000Y-111870000D03*
D24*
X241500000Y-116950000D03*
D25*
X241500000Y-111870000D03*
D24*
X254100000Y-116950000D03*
D25*
X254100000Y-111870000D03*
D24*
X266700000Y-116950000D03*
D25*
X266700000Y-111870000D03*
D24*
X279300000Y-116950000D03*
D25*
X279300000Y-111870000D03*
D24*
X291900000Y-116950000D03*
D25*
X291900000Y-111870000D03*
D24*
X304500000Y-116950000D03*
D25*
X304500000Y-111870000D03*
D24*
X317100000Y-116950000D03*
D25*
X317100000Y-111870000D03*
D24*
X329700000Y-116950000D03*
D25*
X329700000Y-111870000D03*
D24*
X342300000Y-116950000D03*
D25*
X342300000Y-111870000D03*
D24*
X333000000Y-113050000D03*
D25*
X333000000Y-107970000D03*
D24*
X345600000Y-113050000D03*
D25*
X345600000Y-107970000D03*
D24*
X348700000Y-114350000D03*
D25*
X348700000Y-109270000D03*
D24*
X351800000Y-115650000D03*
D25*
X351800000Y-110570000D03*
D24*
X354900000Y-116950000D03*
D25*
X354900000Y-111870000D03*
D24*
X312450000Y-198600000D03*
D25*
X317530000Y-198600000D03*
D24*
X333150000Y-198600000D03*
D25*
X338230000Y-198600000D03*
D24*
X352250000Y-198600000D03*
D25*
X357330000Y-198600000D03*
D24*
X178500000Y-116950000D03*
D25*
X178500000Y-111870000D03*
D24*
X86800000Y-120350000D03*
D25*
X86800000Y-115270000D03*
D24*
X81700000Y-120350000D03*
D25*
X81700000Y-115270000D03*
D10*
X326390000Y-166370000D03*
D11*
X323850000Y-171450000D03*
D10*
X320040000Y-168910000D03*
D12*
X318770000Y-171450000D03*
X328930000Y-171450000D03*
D13*
X311943750Y-164465000D03*
X335756250Y-164465000D03*
D11*
X311943750Y-179705000D03*
X335756250Y-179705000D03*
D10*
X83502500Y-185420000D03*
D11*
X80962500Y-190500000D03*
D10*
X77152500Y-187960000D03*
D12*
X75882500Y-190500000D03*
X86042500Y-190500000D03*
D13*
X69056250Y-183515000D03*
X92868750Y-183515000D03*
D11*
X69056250Y-198755000D03*
X92868750Y-198755000D03*
D10*
X73977500Y-185420000D03*
D11*
X71437500Y-190500000D03*
D10*
X67627500Y-187960000D03*
D12*
X66357500Y-190500000D03*
X76517500Y-190500000D03*
D10*
X121602500Y-204470000D03*
D11*
X119062500Y-209550000D03*
D10*
X115252500Y-207010000D03*
D12*
X113982500Y-209550000D03*
X124142500Y-209550000D03*
D10*
X97790000Y-204470000D03*
D11*
X95250000Y-209550000D03*
D10*
X91440000Y-207010000D03*
D12*
X90170000Y-209550000D03*
X100330000Y-209550000D03*
D10*
X73977500Y-204470000D03*
D11*
X71437500Y-209550000D03*
D10*
X67627500Y-207010000D03*
D12*
X66357500Y-209550000D03*
X76517500Y-209550000D03*
D10*
X333533750Y-147320000D03*
D11*
X330993750Y-152400000D03*
D10*
X327183750Y-149860000D03*
D12*
X325913750Y-152400000D03*
X336073750Y-152400000D03*
D10*
X104933750Y-204470000D03*
D11*
X102393750Y-209550000D03*
D10*
X98583750Y-207010000D03*
D12*
X97313750Y-209550000D03*
X107473750Y-209550000D03*
D10*
X76358750Y-204470000D03*
D11*
X73818750Y-209550000D03*
D10*
X70008750Y-207010000D03*
D12*
X68738750Y-209550000D03*
X78898750Y-209550000D03*
D10*
X76358750Y-147320000D03*
D11*
X73818750Y-152400000D03*
D10*
X70008750Y-149860000D03*
D12*
X68738750Y-152400000D03*
X78898750Y-152400000D03*
X314642500Y-190500000D03*
X304482500Y-190500000D03*
D10*
X305752500Y-187960000D03*
D11*
X309562500Y-190500000D03*
D10*
X312102500Y-185420000D03*
D12*
X81280000Y-171450000D03*
X71120000Y-171450000D03*
D10*
X72390000Y-168910000D03*
D11*
X76200000Y-171450000D03*
D10*
X78740000Y-166370000D03*
X328771250Y-128270000D03*
D11*
X326231250Y-133350000D03*
D10*
X322421250Y-130810000D03*
D12*
X321151250Y-133350000D03*
X331311250Y-133350000D03*
D13*
X314325000Y-126365000D03*
X338137500Y-126365000D03*
D11*
X314325000Y-141605000D03*
X338137500Y-141605000D03*
D10*
X214471250Y-147320000D03*
D11*
X211931250Y-152400000D03*
D10*
X208121250Y-149860000D03*
D12*
X206851250Y-152400000D03*
X217011250Y-152400000D03*
D11*
X71463000Y-171475400D03*
D12*
X66383000Y-171475400D03*
X76543000Y-171475400D03*
D10*
X67653000Y-168935400D03*
X74003000Y-166395400D03*
X143033750Y-166370000D03*
D11*
X140493750Y-171450000D03*
D10*
X136683750Y-168910000D03*
D12*
X135413750Y-171450000D03*
X145573750Y-171450000D03*
D10*
X314483750Y-166370000D03*
D11*
X311943750Y-171450000D03*
D10*
X308133750Y-168910000D03*
D12*
X306863750Y-171450000D03*
X317023750Y-171450000D03*
D10*
X95408750Y-185420000D03*
D11*
X92868750Y-190500000D03*
D10*
X89058750Y-187960000D03*
D12*
X87788750Y-190500000D03*
X97948750Y-190500000D03*
D10*
X357346250Y-204470000D03*
D11*
X354806250Y-209550000D03*
D10*
X350996250Y-207010000D03*
D12*
X349726250Y-209550000D03*
X359886250Y-209550000D03*
D10*
X338296250Y-204470000D03*
D11*
X335756250Y-209550000D03*
D10*
X331946250Y-207010000D03*
D12*
X330676250Y-209550000D03*
X340836250Y-209550000D03*
D10*
X319246250Y-204470000D03*
D11*
X316706250Y-209550000D03*
D10*
X312896250Y-207010000D03*
D12*
X311626250Y-209550000D03*
X321786250Y-209550000D03*
D10*
X300196250Y-204470000D03*
D11*
X297656250Y-209550000D03*
D10*
X293846250Y-207010000D03*
D12*
X292576250Y-209550000D03*
X302736250Y-209550000D03*
D10*
X357346250Y-185420000D03*
D11*
X354806250Y-190500000D03*
D10*
X350996250Y-187960000D03*
D12*
X349726250Y-190500000D03*
X359886250Y-190500000D03*
D10*
X338296250Y-185420000D03*
D11*
X335756250Y-190500000D03*
D10*
X331946250Y-187960000D03*
D12*
X330676250Y-190500000D03*
X340836250Y-190500000D03*
D10*
X285908750Y-185420000D03*
D11*
X283368750Y-190500000D03*
D10*
X279558750Y-187960000D03*
D12*
X278288750Y-190500000D03*
X288448750Y-190500000D03*
D10*
X266858750Y-185420000D03*
D11*
X264318750Y-190500000D03*
D10*
X260508750Y-187960000D03*
D12*
X259238750Y-190500000D03*
X269398750Y-190500000D03*
D10*
X247808750Y-185420000D03*
D11*
X245268750Y-190500000D03*
D10*
X241458750Y-187960000D03*
D12*
X240188750Y-190500000D03*
X250348750Y-190500000D03*
D10*
X228758750Y-185420000D03*
D11*
X226218750Y-190500000D03*
D10*
X222408750Y-187960000D03*
D12*
X221138750Y-190500000D03*
X231298750Y-190500000D03*
D10*
X209708750Y-185420000D03*
D11*
X207168750Y-190500000D03*
D10*
X203358750Y-187960000D03*
D12*
X202088750Y-190500000D03*
X212248750Y-190500000D03*
D10*
X190658750Y-185420000D03*
D11*
X188118750Y-190500000D03*
D10*
X184308750Y-187960000D03*
D12*
X183038750Y-190500000D03*
X193198750Y-190500000D03*
D10*
X171608750Y-185420000D03*
D11*
X169068750Y-190500000D03*
D10*
X165258750Y-187960000D03*
D12*
X163988750Y-190500000D03*
X174148750Y-190500000D03*
D10*
X152558750Y-185420000D03*
D11*
X150018750Y-190500000D03*
D10*
X146208750Y-187960000D03*
D12*
X144938750Y-190500000D03*
X155098750Y-190500000D03*
D10*
X133508750Y-185420000D03*
D11*
X130968750Y-190500000D03*
D10*
X127158750Y-187960000D03*
D12*
X125888750Y-190500000D03*
X136048750Y-190500000D03*
D10*
X114458750Y-185420000D03*
D11*
X111918750Y-190500000D03*
D10*
X108108750Y-187960000D03*
D12*
X106838750Y-190500000D03*
X116998750Y-190500000D03*
D10*
X357346250Y-166370000D03*
D11*
X354806250Y-171450000D03*
D10*
X350996250Y-168910000D03*
D12*
X349726250Y-171450000D03*
X359886250Y-171450000D03*
D10*
X295433750Y-166370000D03*
D11*
X292893750Y-171450000D03*
D10*
X289083750Y-168910000D03*
D12*
X287813750Y-171450000D03*
X297973750Y-171450000D03*
D10*
X276383750Y-166370000D03*
D11*
X273843750Y-171450000D03*
D10*
X270033750Y-168910000D03*
D12*
X268763750Y-171450000D03*
X278923750Y-171450000D03*
D10*
X257333750Y-166370000D03*
D11*
X254793750Y-171450000D03*
D10*
X250983750Y-168910000D03*
D12*
X249713750Y-171450000D03*
X259873750Y-171450000D03*
D10*
X238283750Y-166370000D03*
D11*
X235743750Y-171450000D03*
D10*
X231933750Y-168910000D03*
D12*
X230663750Y-171450000D03*
X240823750Y-171450000D03*
D10*
X219233750Y-166370000D03*
D11*
X216693750Y-171450000D03*
D10*
X212883750Y-168910000D03*
D12*
X211613750Y-171450000D03*
X221773750Y-171450000D03*
D10*
X200183750Y-166370000D03*
D11*
X197643750Y-171450000D03*
D10*
X193833750Y-168910000D03*
D12*
X192563750Y-171450000D03*
X202723750Y-171450000D03*
D10*
X181133750Y-166370000D03*
D11*
X178593750Y-171450000D03*
D10*
X174783750Y-168910000D03*
D12*
X173513750Y-171450000D03*
X183673750Y-171450000D03*
D10*
X162083750Y-166370000D03*
D11*
X159543750Y-171450000D03*
D10*
X155733750Y-168910000D03*
D12*
X154463750Y-171450000D03*
X164623750Y-171450000D03*
D10*
X123983750Y-166370000D03*
D11*
X121443750Y-171450000D03*
D10*
X117633750Y-168910000D03*
D12*
X116363750Y-171450000D03*
X126523750Y-171450000D03*
D10*
X104933750Y-166370000D03*
D11*
X102393750Y-171450000D03*
D10*
X98583750Y-168910000D03*
D12*
X97313750Y-171450000D03*
X107473750Y-171450000D03*
D10*
X357346250Y-147320000D03*
D11*
X354806250Y-152400000D03*
D10*
X350996250Y-149860000D03*
D12*
X349726250Y-152400000D03*
X359886250Y-152400000D03*
D10*
X309721250Y-147320000D03*
D11*
X307181250Y-152400000D03*
D10*
X303371250Y-149860000D03*
D12*
X302101250Y-152400000D03*
X312261250Y-152400000D03*
D10*
X290671250Y-147320000D03*
D11*
X288131250Y-152400000D03*
D10*
X284321250Y-149860000D03*
D12*
X283051250Y-152400000D03*
X293211250Y-152400000D03*
D10*
X271621250Y-147320000D03*
D11*
X269081250Y-152400000D03*
D10*
X265271250Y-149860000D03*
D12*
X264001250Y-152400000D03*
X274161250Y-152400000D03*
D10*
X252571250Y-147320000D03*
D11*
X250031250Y-152400000D03*
D10*
X246221250Y-149860000D03*
D12*
X244951250Y-152400000D03*
X255111250Y-152400000D03*
D10*
X233521250Y-147320000D03*
D11*
X230981250Y-152400000D03*
D10*
X227171250Y-149860000D03*
D12*
X225901250Y-152400000D03*
X236061250Y-152400000D03*
D10*
X195421250Y-147320000D03*
D11*
X192881250Y-152400000D03*
D10*
X189071250Y-149860000D03*
D12*
X187801250Y-152400000D03*
X197961250Y-152400000D03*
D10*
X176371250Y-147320000D03*
D11*
X173831250Y-152400000D03*
D10*
X170021250Y-149860000D03*
D12*
X168751250Y-152400000D03*
X178911250Y-152400000D03*
D10*
X157321250Y-147320000D03*
D11*
X154781250Y-152400000D03*
D10*
X150971250Y-149860000D03*
D12*
X149701250Y-152400000D03*
X159861250Y-152400000D03*
D10*
X138271250Y-147320000D03*
D11*
X135731250Y-152400000D03*
D10*
X131921250Y-149860000D03*
D12*
X130651250Y-152400000D03*
X140811250Y-152400000D03*
D10*
X119221250Y-147320000D03*
D11*
X116681250Y-152400000D03*
D10*
X112871250Y-149860000D03*
D12*
X111601250Y-152400000D03*
X121761250Y-152400000D03*
D10*
X100171250Y-147320000D03*
D11*
X97631250Y-152400000D03*
D10*
X93821250Y-149860000D03*
D12*
X92551250Y-152400000D03*
X102711250Y-152400000D03*
D10*
X300196250Y-128270000D03*
D11*
X297656250Y-133350000D03*
D10*
X293846250Y-130810000D03*
D12*
X292576250Y-133350000D03*
X302736250Y-133350000D03*
D10*
X281146250Y-128270000D03*
D11*
X278606250Y-133350000D03*
D10*
X274796250Y-130810000D03*
D12*
X273526250Y-133350000D03*
X283686250Y-133350000D03*
D10*
X262096250Y-128270000D03*
D11*
X259556250Y-133350000D03*
D10*
X255746250Y-130810000D03*
D12*
X254476250Y-133350000D03*
X264636250Y-133350000D03*
D10*
X243046250Y-128270000D03*
D11*
X240506250Y-133350000D03*
D10*
X236696250Y-130810000D03*
D12*
X235426250Y-133350000D03*
X245586250Y-133350000D03*
D10*
X223996250Y-128320000D03*
D11*
X221456250Y-133400000D03*
D10*
X217646250Y-130860000D03*
D12*
X216376250Y-133400000D03*
X226536250Y-133400000D03*
D10*
X204946250Y-128270000D03*
D11*
X202406250Y-133350000D03*
D10*
X198596250Y-130810000D03*
D12*
X197326250Y-133350000D03*
X207486250Y-133350000D03*
D10*
X185896250Y-128270000D03*
D11*
X183356250Y-133350000D03*
D10*
X179546250Y-130810000D03*
D12*
X178276250Y-133350000D03*
X188436250Y-133350000D03*
D10*
X166846250Y-128270000D03*
D11*
X164306250Y-133350000D03*
D10*
X160496250Y-130810000D03*
D12*
X159226250Y-133350000D03*
X169386250Y-133350000D03*
D10*
X147796250Y-128270000D03*
D11*
X145256250Y-133350000D03*
D10*
X141446250Y-130810000D03*
D12*
X140176250Y-133350000D03*
X150336250Y-133350000D03*
D10*
X128746250Y-128270000D03*
D11*
X126206250Y-133350000D03*
D10*
X122396250Y-130810000D03*
D12*
X121126250Y-133350000D03*
X131286250Y-133350000D03*
D10*
X109696250Y-128270000D03*
D11*
X107156250Y-133350000D03*
D10*
X103346250Y-130810000D03*
D12*
X102076250Y-133350000D03*
X112236250Y-133350000D03*
D10*
X90646250Y-128270000D03*
D11*
X88106250Y-133350000D03*
D10*
X84296250Y-130810000D03*
D12*
X83026250Y-133350000D03*
X93186250Y-133350000D03*
D10*
X71596250Y-128270000D03*
D11*
X69056250Y-133350000D03*
D10*
X65246250Y-130810000D03*
D12*
X63976250Y-133350000D03*
X74136250Y-133350000D03*
D26*
X63531250Y-119017531D03*
X63531250Y-100267531D03*
X360331250Y-100267531D03*
X360331250Y-119062500D03*
D27*
X352425000Y-140493750D03*
D14*
X354925000Y-140493750D03*
X357425000Y-140493750D03*
D28*
X349325000Y-132993750D03*
X360525000Y-132993750D03*
D14*
X352425000Y-125993750D03*
X357425000Y-125993750D03*
D24*
X103650000Y-101160000D03*
X151910000Y-116400000D03*
X106190000Y-101160000D03*
X149370000Y-116400000D03*
X108730000Y-101160000D03*
X146830000Y-116400000D03*
X111270000Y-101160000D03*
X144290000Y-116400000D03*
X113810000Y-101160000D03*
X141750000Y-116400000D03*
X116350000Y-101160000D03*
X139210000Y-116400000D03*
X118890000Y-101160000D03*
X136670000Y-116400000D03*
X121430000Y-101160000D03*
X134130000Y-116400000D03*
X123970000Y-101160000D03*
X131590000Y-116400000D03*
X126510000Y-101160000D03*
X129050000Y-116400000D03*
X129050000Y-101160000D03*
X126510000Y-116400000D03*
X131590000Y-101160000D03*
X123970000Y-116400000D03*
X134130000Y-101160000D03*
X121430000Y-116400000D03*
X136670000Y-101160000D03*
X118890000Y-116400000D03*
X139210000Y-101160000D03*
X116350000Y-116400000D03*
X141750000Y-101160000D03*
X113810000Y-116400000D03*
X144290000Y-101160000D03*
X111270000Y-116400000D03*
X146830000Y-101160000D03*
X108730000Y-116400000D03*
X149370000Y-101160000D03*
X106190000Y-116400000D03*
X151910000Y-101160000D03*
D25*
X103650000Y-116400000D03*
D16*
X86750000Y-112000000D03*
X81650000Y-112000000D03*
D29*
X70540000Y-115700000D03*
D30*
X68000000Y-115700000D03*
D31*
X116500000Y-119900000D03*
D32*
X116500000Y-121400000D03*
D33*
X134150000Y-98900000D03*
X129150000Y-98900000D03*
X129500000Y-119150000D03*
X124500000Y-119150000D03*
X132000000Y-119150000D03*
X132000000Y-121650000D03*
X146400000Y-119150000D03*
X146400000Y-121650000D03*
M02*
