M48
; DRILL file {KiCad (5.1.7)-1} date 10/27/20 22:40:35
; FORMAT={-:-/ absolute / inch / decimal}
; #@! TF.CreationDate,2020-10-27T22:40:35-04:00
; #@! TF.GenerationSoftware,Kicad,Pcbnew,(5.1.7)-1
; #@! TF.FileFunction,NonPlated,1,2,NPTH
FMAT,2
INCH
T1C0.0689
T2C0.1200
T3C0.1570
%
G90
G05
T1
X2.5187Y-5.25
X2.9187Y-5.25
X13.0187Y-7.5
X13.4187Y-7.5
X4.5812Y-6.75
X4.9813Y-6.75
X11.9875Y-7.5
X12.3875Y-7.5
X10.3937Y-6.0
X10.7937Y-6.0
X12.2687Y-8.25
X12.6687Y-8.25
X9.8312Y-6.75
X10.2312Y-6.75
X12.6437Y-5.25
X13.0437Y-5.25
X11.5187Y-8.25
X11.9187Y-8.25
X13.7687Y-6.75
X14.1687Y-6.75
X9.4562Y-7.5
X9.8562Y-7.5
X3.2687Y-5.25
X3.6687Y-5.25
X11.1437Y-6.0
X11.5437Y-6.0
X10.9562Y-7.5
X11.3562Y-7.5
X4.3937Y-6.0
X4.7938Y-6.0
X12.925Y-6.375
X13.325Y-6.375
X5.3312Y-6.75
X5.7313Y-6.75
X12.0812Y-6.75
X12.4812Y-6.75
X4.2062Y-7.5
X4.6063Y-7.5
X7.0187Y-5.25
X7.4188Y-5.25
X8.8937Y-6.0
X9.2937Y-6.0
X4.4875Y-8.25
X4.8875Y-8.25
X5.5187Y-5.25
X5.9188Y-5.25
X6.8312Y-6.75
X7.2313Y-6.75
X4.7687Y-5.25
X5.1688Y-5.25
X10.0187Y-5.25
X10.4187Y-5.25
X2.9875Y-7.5
X3.3875Y-7.5
X2.6125Y-7.5
X3.0125Y-7.5
X11.5187Y-5.25
X11.9187Y-5.25
X8.5187Y-5.252
X8.9187Y-5.252
X4.9562Y-7.5
X5.3563Y-7.5
X4.0187Y-5.25
X4.4188Y-5.25
X10.5812Y-6.75
X10.9812Y-6.75
X5.7062Y-7.5
X6.1063Y-7.5
X2.7062Y-6.0
X3.1062Y-6.0
X8.3312Y-6.75
X8.7312Y-6.75
X3.6437Y-6.0
X4.0438Y-6.0
X7.3Y-8.25
X7.7Y-8.25
X2.7062Y-8.25
X3.1062Y-8.25
X3.8312Y-8.25
X4.2313Y-8.25
X8.1437Y-6.0
X8.5437Y-6.0
X6.0812Y-6.75
X6.4813Y-6.75
X6.4562Y-7.5
X6.8563Y-7.5
X2.8Y-6.75
X3.2Y-6.75
X8.7062Y-7.5
X9.1062Y-7.5
X6.2687Y-5.25
X6.6688Y-5.25
X11.8937Y-6.0
X12.2937Y-6.0
X7.7687Y-5.25
X8.1687Y-5.25
X2.6135Y-6.751
X3.0135Y-6.751
X13.0187Y-8.25
X13.4187Y-8.25
X3.55Y-8.25
X3.95Y-8.25
X7.5812Y-6.75
X7.9813Y-6.75
X7.2062Y-7.5
X7.6063Y-7.5
X6.6437Y-6.0
X7.0438Y-6.0
X9.0812Y-6.75
X9.4812Y-6.75
X10.2062Y-7.5
X10.6062Y-7.5
X5.1437Y-6.0
X5.5438Y-6.0
X11.3312Y-6.75
X11.7312Y-6.75
X5.8937Y-6.0
X6.2938Y-6.0
X13.7687Y-8.25
X14.1687Y-8.25
X10.7687Y-5.25
X11.1687Y-5.25
X13.7687Y-7.5
X14.1687Y-7.5
X3.8312Y-6.75
X4.2313Y-6.75
X7.9562Y-7.5
X8.3562Y-7.5
X7.3937Y-6.0
X7.7938Y-6.0
X9.6437Y-6.0
X10.0437Y-6.0
X2.6125Y-8.25
X3.0125Y-8.25
X9.2687Y-5.25
X9.6687Y-5.25
X13.7687Y-6.0
X14.1687Y-6.0
X7.0187Y-8.25
X7.4188Y-8.25
X12.8312Y-6.0
X13.2312Y-6.0
X12.55Y-6.75
X12.95Y-6.75
X3.4562Y-7.5
X3.8562Y-7.5
T2
X4.9688Y-8.525
X9.4688Y-8.525
X12.2812Y-6.475
X13.2188Y-6.475
X12.375Y-4.975
X13.3125Y-4.975
X13.4Y-5.905
X13.4Y-6.845
X2.7188Y-7.225
X3.6562Y-7.225
X5.5315Y-8.525
X9.4685Y-8.525
T3
X11.7188Y-5.25
X8.7188Y-5.252
X5.1562Y-7.5
X4.2188Y-5.25
X10.7812Y-6.75
X5.9062Y-7.5
X2.9062Y-6.0
X8.5312Y-6.75
X3.8438Y-6.0
X5.5315Y-7.925
X7.5Y-8.25
X9.4685Y-7.925
X2.9062Y-8.25
X4.0312Y-8.25
X8.3438Y-6.0
X6.2812Y-6.75
X6.6562Y-7.5
X3.0Y-6.75
X8.9062Y-7.5
X6.4688Y-5.25
X12.0938Y-6.0
X7.9688Y-5.25
X2.8135Y-6.751
X13.2188Y-8.25
X3.75Y-8.25
X7.7812Y-6.75
X7.4062Y-7.5
X6.8438Y-6.0
X9.2812Y-6.75
X10.4062Y-7.5
X5.3438Y-6.0
X11.5312Y-6.75
X6.0938Y-6.0
X13.9688Y-8.25
X10.9688Y-5.25
X13.9688Y-7.5
X4.0312Y-6.75
X8.1562Y-7.5
X7.5938Y-6.0
X9.8438Y-6.0
X2.8125Y-8.25
X9.4688Y-5.25
X13.9688Y-6.0
X4.9688Y-7.925
X7.2188Y-8.25
X9.4688Y-7.925
X13.0312Y-6.0
X12.2812Y-7.075
X12.75Y-6.75
X13.2188Y-7.075
X3.6562Y-7.5
X2.7188Y-5.25
X13.2188Y-7.5
X4.7812Y-6.75
X12.1875Y-7.5
X10.5938Y-6.0
X12.4688Y-8.25
X10.0312Y-6.75
X12.375Y-5.575
X12.8438Y-5.25
X13.3125Y-5.575
X11.7188Y-8.25
X13.9688Y-6.75
X9.6562Y-7.5
X3.4688Y-5.25
X11.3438Y-6.0
X11.1562Y-7.5
X4.5938Y-6.0
X12.8Y-5.905
X12.8Y-6.845
X13.125Y-6.375
X5.5312Y-6.75
X12.2812Y-6.75
X4.4062Y-7.5
X7.2188Y-5.25
X9.0938Y-6.0
X4.6875Y-8.25
X5.7188Y-5.25
X7.0312Y-6.75
X4.9688Y-5.25
X10.2188Y-5.25
X2.7188Y-7.825
X3.1875Y-7.5
X3.6562Y-7.825
X2.8125Y-7.5
T0
M30
