M48
; DRILL file {KiCad (5.1.6)-1} date 09/11/20 16:15:25
; FORMAT={-:-/ absolute / inch / decimal}
; #@! TF.CreationDate,2020-09-11T16:15:25-04:00
; #@! TF.GenerationSoftware,Kicad,Pcbnew,(5.1.6)-1
; #@! TF.FileFunction,Plated,1,2,PTH
FMAT,2
INCH
T1C0.0157
T2C0.0236
T3C0.0276
T4C0.0300
T5C0.0315
T6C0.0354
T7C0.0394
T8C0.0400
T9C0.0472
T10C0.0579
T11C0.0591
T12C0.0866
%
G90
G05
T1
X2.8504Y-4.185
X2.8819Y-4.2165
X2.9173Y-4.248
X3.4921Y-3.8622
X3.5354Y-3.8632
X3.685Y-4.8819
X3.7323Y-4.878
X3.9488Y-4.7638
X3.9528Y-4.4685
X3.9961Y-4.7638
X4.0236Y-4.4685
X4.0433Y-4.7638
X4.0945Y-4.7638
X4.1299Y-4.4685
X4.1457Y-4.7638
X4.1811Y-4.4016
X4.1969Y-4.7638
X4.2323Y-4.4685
X4.248Y-4.7638
X4.2807Y-4.4004
X4.3307Y-4.4685
X4.437Y-4.4685
X4.5315Y-4.4685
X4.5472Y-5.5394
X4.6024Y-5.5394
X4.6299Y-4.4685
X4.6575Y-5.5394
X4.6762Y-4.7638
X4.7087Y-5.5394
X4.7283Y-4.4685
X4.752Y-4.7638
X4.8307Y-4.4685
X4.8307Y-4.7441
X5.2992Y-5.6102
X5.3425Y-5.6102
X5.3857Y-5.6098
X5.437Y-5.6102
X5.6403Y-4.4198
X5.689Y-4.4193
X5.7382Y-4.4193
X5.7874Y-4.4193
X5.8307Y-4.4197
X5.8583Y-4.189
X5.8583Y-4.2362
X5.8583Y-4.2835
X5.8858Y-4.7874
X5.8858Y-5.6732
X5.9646Y-4.7874
X6.0079Y-5.3612
X6.0394Y-4.3819
X6.0394Y-4.4213
X6.0399Y-4.342
X6.0472Y-4.7874
X6.0551Y-5.3622
X6.0984Y-5.3622
X6.1181Y-4.7874
X6.1417Y-5.3622
X6.189Y-4.7874
X6.4449Y-4.2116
X6.6496Y-5.6732
X6.748Y-5.3622
X6.7913Y-5.3622
X6.8346Y-5.3622
X6.878Y-5.3622
X7.3937Y-5.7451
X7.4841Y-5.4013
X7.4843Y-5.4449
X7.4843Y-5.4921
X7.4843Y-5.3583
X7.5797Y-5.3583
X7.5797Y-5.4016
X7.5827Y-5.4449
X7.5827Y-5.4921
X8.2278Y-5.4911
X8.2283Y-5.3583
X8.2283Y-5.4488
X8.2283Y-5.4016
X8.3218Y-5.3583
X8.3223Y-5.4911
X8.3223Y-5.4483
X8.3228Y-5.4016
X12.9744Y-4.8169
X13.5157Y-6.5512
X13.9567Y-4.7795
X13.9961Y-4.7795
X2.7665Y-4.0758
X2.7667Y-4.128
X2.8Y-4.0758
X2.8002Y-4.128
X2.8335Y-4.0758
X2.8337Y-4.128
X2.8669Y-4.0758
X2.8671Y-4.128
X2.9004Y-4.0758
X2.9006Y-4.128
X2.9339Y-4.0758
X2.9341Y-4.128
X2.9673Y-4.0758
X2.9675Y-4.128
X3.001Y-4.0758
X3.001Y-4.128
T2
X4.5866Y-4.7205
X4.5866Y-4.7795
T3
X3.5953Y-4.4961
X3.7953Y-4.4961
X3.5953Y-4.1417
X3.7953Y-4.1417
X3.5953Y-4.0236
X3.7953Y-4.0236
X3.5945Y-4.2598
X3.7945Y-4.2598
X3.5945Y-4.7323
X3.7945Y-4.7323
X3.5945Y-4.6142
X3.7945Y-4.6142
X3.5953Y-4.378
X3.7953Y-4.378
X3.2146Y-4.4094
X3.4154Y-4.4094
X3.5945Y-3.9094
X3.7945Y-3.9094
T4
X9.9048Y-8.1
X9.9048Y-8.2
X9.9048Y-8.3
X9.9048Y-8.4
T5
X6.1654Y-4.2488
X6.1654Y-4.4488
X9.1417Y-4.2488
X9.1417Y-4.4488
X7.2795Y-4.302
X7.2795Y-4.502
X11.622Y-4.2508
X11.622Y-4.4508
X13.9724Y-4.4043
X13.9724Y-4.6043
X12.1181Y-4.2508
X12.1181Y-4.4508
X9.0118Y-4.4043
X9.0118Y-4.6043
X8.8898Y-4.3531
X8.8898Y-4.5531
X12.8583Y-4.3531
X12.8583Y-4.5531
X3.4173Y-4.5382
X3.4173Y-4.7382
X8.1496Y-4.2488
X8.1496Y-4.4488
X13.2323Y-4.302
X13.2323Y-4.502
X12.9803Y-4.4043
X12.9803Y-4.6043
X9.2638Y-4.302
X9.2638Y-4.502
X7.5236Y-4.4055
X7.5236Y-4.6055
X6.7835Y-4.302
X6.7835Y-4.502
X9.3858Y-4.3531
X9.3858Y-4.5531
X13.1102Y-4.2508
X13.1102Y-4.4508
X10.874Y-4.3531
X10.874Y-4.5531
X11.3701Y-4.3531
X11.3701Y-4.5531
X13.1161Y-7.8189
X13.3161Y-7.8189
X8.7677Y-4.3031
X8.7677Y-4.5031
X13.7283Y-4.302
X13.7283Y-4.502
X6.2874Y-4.302
X6.2874Y-4.502
X9.5079Y-4.4043
X9.5079Y-4.6043
X11.7441Y-4.302
X11.7441Y-4.502
X12.2402Y-4.302
X12.2402Y-4.502
X11.4921Y-4.4043
X11.4921Y-4.6043
X12.3622Y-4.3531
X12.3622Y-4.5531
X6.5315Y-4.4043
X6.5315Y-4.6043
X13.8681Y-7.8189
X14.0681Y-7.8189
X7.6535Y-4.2488
X7.6535Y-4.4488
X4.0807Y-3.9827
X4.0807Y-4.5827
X4.1807Y-3.9827
X4.1807Y-4.5827
X4.2807Y-3.9827
X4.2807Y-4.5827
X4.3807Y-3.9827
X4.3807Y-4.5827
X4.4807Y-3.9827
X4.4807Y-4.5827
X4.5807Y-3.9827
X4.5807Y-4.5827
X4.6807Y-3.9827
X4.6807Y-4.5827
X4.7807Y-3.9827
X4.7807Y-4.5827
X4.8807Y-3.9827
X4.8807Y-4.5827
X4.9807Y-3.9827
X4.9807Y-4.5827
X5.0807Y-3.9827
X5.0807Y-4.5827
X5.1807Y-3.9827
X5.1807Y-4.5827
X5.2807Y-3.9827
X5.2807Y-4.5827
X5.3807Y-3.9827
X5.3807Y-4.5827
X5.4807Y-3.9827
X5.4807Y-4.5827
X5.5807Y-3.9827
X5.5807Y-4.5827
X5.6807Y-3.9827
X5.6807Y-4.5827
X5.7807Y-3.9827
X5.7807Y-4.5827
X5.8807Y-3.9827
X5.8807Y-4.5827
X5.9807Y-3.9827
X5.9807Y-4.5827
X9.7598Y-4.302
X9.7598Y-4.502
X5.7638Y-4.6909
X5.7638Y-4.7894
X13.8504Y-4.3531
X13.8504Y-4.5531
X10.2559Y-4.302
X10.2559Y-4.502
X5.0846Y-3.8937
X5.2815Y-3.8937
X10.0039Y-4.4043
X10.0039Y-4.6043
X7.7756Y-4.302
X7.7756Y-4.502
X12.7362Y-4.302
X12.7362Y-4.502
X11.9882Y-4.4043
X11.9882Y-4.6043
X6.9055Y-4.3531
X6.9055Y-4.5531
X8.3937Y-4.3492
X8.3937Y-4.5492
X3.2165Y-4.5382
X3.2165Y-4.7382
X9.6378Y-4.2488
X9.6378Y-4.4488
X11.248Y-4.302
X11.248Y-4.502
X5.1969Y-4.6909
X5.1969Y-4.7894
X13.4764Y-4.4043
X13.4764Y-4.6043
X11.126Y-4.2488
X11.126Y-4.4488
X10.5Y-4.4043
X10.5Y-4.6043
X13.3543Y-4.3531
X13.3543Y-4.5531
X12.4843Y-4.4043
X12.4843Y-4.6043
X7.4016Y-4.3531
X7.4016Y-4.5531
X7.0276Y-4.4043
X7.0276Y-4.6043
X9.8819Y-4.3531
X9.8819Y-4.5531
X6.6614Y-4.2488
X6.6614Y-4.4488
X7.1575Y-4.2488
X7.1575Y-4.4488
X5.3846Y-4.7402
X5.5768Y-4.7402
X10.1339Y-4.2488
X10.1339Y-4.4488
X4.9016Y-4.6909
X5.0984Y-4.6909
X13.6063Y-4.2508
X13.6063Y-4.4508
X12.6142Y-4.2508
X12.6142Y-4.4508
X8.0197Y-4.4043
X8.0197Y-4.6043
X6.4094Y-4.3531
X6.4094Y-4.5531
X11.8661Y-4.3531
X11.8661Y-4.5531
X8.2717Y-4.302
X8.2717Y-4.502
X8.5157Y-4.4043
X8.5157Y-4.6043
X8.6457Y-4.2488
X8.6457Y-4.4488
X10.6299Y-4.2488
X10.6299Y-4.4488
X12.3642Y-7.8189
X12.5642Y-7.8189
X10.752Y-4.302
X10.752Y-4.502
X10.9961Y-4.4043
X10.9961Y-4.6043
X7.8976Y-4.3531
X7.8976Y-4.5531
X10.378Y-4.3531
X10.378Y-4.5531
T6
X2.6772Y-4.439
X2.7772Y-4.439
X2.6772Y-4.685
X2.7772Y-4.685
T7
X13.875Y-4.9604
X13.875Y-5.5312
X13.9734Y-5.5312
X14.0719Y-4.9604
X14.0719Y-5.5312
T8
X7.026Y-3.9421
X7.026Y-4.0421
X7.126Y-3.9421
X7.126Y-4.0421
X7.226Y-3.9421
X7.226Y-4.0421
T9
X6.1693Y-3.9016
X6.1693Y-4.0787
X6.4252Y-3.9016
X6.4252Y-4.0787
X6.5748Y-3.9016
X6.5748Y-4.0787
X6.8307Y-3.9016
X6.8307Y-4.0787
T10
X10.4437Y-5.9
X10.6937Y-5.8
X11.3812Y-6.65
X11.6312Y-6.55
X6.8812Y-6.65
X7.1312Y-6.55
X12.6937Y-5.15
X12.9437Y-5.05
X5.0062Y-7.4
X5.2562Y-7.3
X4.4437Y-5.9
X4.6937Y-5.8
X13.8187Y-8.15
X14.0687Y-8.05
X13.8187Y-7.4
X14.0687Y-7.3
X5.1937Y-5.9
X5.4437Y-5.8
X2.6625Y-7.4
X2.9125Y-7.3
X2.6625Y-8.15
X2.9125Y-8.05
X8.9437Y-5.9
X9.1937Y-5.8
X3.8813Y-6.65
X4.1312Y-6.55
X3.0375Y-7.4
X3.2875Y-7.3
X9.1312Y-6.65
X9.3812Y-6.55
X9.6937Y-5.9
X9.9437Y-5.8
X11.0062Y-7.4
X11.2562Y-7.3
X3.5063Y-7.4
X3.7563Y-7.3
X9.5062Y-7.4
X9.7562Y-7.3
X4.8187Y-5.15
X5.0687Y-5.05
X2.7563Y-8.15
X3.0063Y-8.05
X4.5375Y-8.15
X4.7875Y-8.05
X5.5687Y-5.15
X5.8187Y-5.05
X12.975Y-6.275
X13.225Y-6.175
X7.35Y-8.15
X7.6Y-8.05
X11.1937Y-5.9
X11.4437Y-5.8
X7.6312Y-6.65
X7.8812Y-6.55
X2.85Y-6.65
X3.1Y-6.55
X4.2562Y-7.4
X4.5062Y-7.3
X7.4437Y-5.9
X7.6937Y-5.8
X13.0687Y-8.15
X13.3187Y-8.05
X3.6Y-8.15
X3.85Y-8.05
X8.5687Y-5.152
X8.8187Y-5.052
X12.8812Y-5.9
X13.1312Y-5.8
X10.2562Y-7.4
X10.5062Y-7.3
X10.8187Y-5.15
X11.0687Y-5.05
X11.9437Y-5.9
X12.1937Y-5.8
X9.8812Y-6.65
X10.1312Y-6.55
X13.8187Y-6.65
X14.0687Y-6.55
X9.3187Y-5.15
X9.5687Y-5.05
X7.0687Y-8.15
X7.3187Y-8.05
X5.7562Y-7.4
X6.0062Y-7.3
X2.6635Y-6.651
X2.9135Y-6.551
X12.3187Y-8.15
X12.5687Y-8.05
X6.3187Y-5.15
X6.5687Y-5.05
X5.9437Y-5.9
X6.1937Y-5.8
X13.8187Y-5.9
X14.0687Y-5.8
X6.1312Y-6.65
X6.3812Y-6.55
X4.0687Y-5.15
X4.3187Y-5.05
X11.5687Y-5.15
X11.8187Y-5.05
X2.7563Y-5.9
X3.0063Y-5.8
X6.5062Y-7.4
X6.7562Y-7.3
X3.3188Y-5.15
X3.5688Y-5.05
X12.1312Y-6.65
X12.3812Y-6.55
X8.7562Y-7.4
X9.0062Y-7.3
X7.8187Y-5.15
X8.0687Y-5.05
X4.6312Y-6.65
X4.8812Y-6.55
X8.3812Y-6.65
X8.6312Y-6.55
X6.6937Y-5.9
X6.9437Y-5.8
X7.0687Y-5.15
X7.3187Y-5.05
X7.2562Y-7.4
X7.5062Y-7.3
X8.1937Y-5.9
X8.4437Y-5.8
X11.5687Y-8.15
X11.8187Y-8.05
X3.6938Y-5.9
X3.9438Y-5.8
X3.8813Y-8.15
X4.1312Y-8.05
X10.6312Y-6.65
X10.8812Y-6.55
X12.6Y-6.65
X12.85Y-6.55
X13.0687Y-7.4
X13.3187Y-7.3
X10.0687Y-5.15
X10.3187Y-5.05
X12.0375Y-7.4
X12.2875Y-7.3
X2.5688Y-5.15
X2.8188Y-5.05
X8.0062Y-7.4
X8.2562Y-7.3
X5.3812Y-6.65
X5.6312Y-6.55
T12
X2.5012Y-4.6857
X2.5012Y-3.9475
X8.3438Y-4.6875
X14.1863Y-4.6875
X14.1863Y-3.9475
X8.3438Y-3.9475
T2
G00X2.7136Y-3.972
M15
G01X2.7136Y-3.9406
M16
G05
G00X2.7136Y-4.1189
M15
G01X2.7136Y-4.0598
M16
G05
G00X3.0541Y-3.972
M15
G01X3.0541Y-3.9406
M16
G05
G00X3.0541Y-4.1189
M15
G01X3.0541Y-4.0598
M16
G05
T11
G00X13.753Y-5.2616
M15
G01X13.753Y-5.2104
M16
G05
G00X14.1939Y-5.2616
M15
G01X14.1939Y-5.2104
M16
G05
T0
M30
