G04 #@! TF.GenerationSoftware,KiCad,Pcbnew,(5.1.7)-1*
G04 #@! TF.CreationDate,2020-12-11T20:26:52-05:00*
G04 #@! TF.ProjectId,Ganjing keyboard,47616e6a-696e-4672-906b-6579626f6172,rev?*
G04 #@! TF.SameCoordinates,Original*
G04 #@! TF.FileFunction,Soldermask,Bot*
G04 #@! TF.FilePolarity,Negative*
%FSLAX46Y46*%
G04 Gerber Fmt 4.6, Leading zero omitted, Abs format (unit mm)*
G04 Created by KiCad (PCBNEW (5.1.7)-1) date 2020-12-11 20:26:52*
%MOMM*%
%LPD*%
G01*
G04 APERTURE LIST*
%ADD10O,0.752000X1.102000*%
%ADD11O,1.002000X2.502000*%
%ADD12O,1.002000X1.802000*%
%ADD13C,1.802000*%
%ADD14C,1.626000*%
%ADD15C,1.602000*%
%ADD16O,1.702000X1.702000*%
%ADD17C,2.302000*%
%ADD18C,2.352000*%
%ADD19C,4.089800*%
%ADD20C,1.852000*%
%ADD21C,3.150000*%
%ADD22C,4.502000*%
%ADD23C,2.102000*%
%ADD24O,1.502000X1.502000*%
%ADD25C,1.502000*%
%ADD26C,1.902000*%
%ADD27C,1.302000*%
%ADD28C,1.702000*%
%ADD29C,0.100000*%
G04 APERTURE END LIST*
D10*
X74525000Y-104850000D03*
X76225000Y-104850000D03*
X75375000Y-104850000D03*
X73675000Y-104850000D03*
X72825000Y-104850000D03*
X71975000Y-104850000D03*
X71125000Y-104850000D03*
X70275000Y-104850000D03*
X76225000Y-103525000D03*
X75370000Y-103525000D03*
X74520000Y-103525000D03*
X73670000Y-103525000D03*
X72820000Y-103525000D03*
X71970000Y-103525000D03*
X71120000Y-103525000D03*
X70270000Y-103525000D03*
D11*
X77575000Y-103870000D03*
X68925000Y-103870000D03*
D12*
X77575000Y-100490000D03*
X68925000Y-100490000D03*
G36*
G01*
X184441000Y-99280000D02*
X184441000Y-100980000D01*
G75*
G02*
X184390000Y-101031000I-51000J0D01*
G01*
X182690000Y-101031000D01*
G75*
G02*
X182639000Y-100980000I0J51000D01*
G01*
X182639000Y-99280000D01*
G75*
G02*
X182690000Y-99229000I51000J0D01*
G01*
X184390000Y-99229000D01*
G75*
G02*
X184441000Y-99280000I0J-51000D01*
G01*
G37*
D13*
X183540000Y-102670000D03*
X181000000Y-100130000D03*
X181000000Y-102670000D03*
X178460000Y-100130000D03*
X178460000Y-102670000D03*
D14*
X251581250Y-213360000D03*
X251581250Y-210820000D03*
X251581250Y-208280000D03*
X251581250Y-205740000D03*
D15*
X141640000Y-120400000D03*
X136760000Y-120400000D03*
D16*
X156600000Y-113000000D03*
G36*
G01*
X155800000Y-107069000D02*
X157400000Y-107069000D01*
G75*
G02*
X157451000Y-107120000I0J-51000D01*
G01*
X157451000Y-108720000D01*
G75*
G02*
X157400000Y-108771000I-51000J0D01*
G01*
X155800000Y-108771000D01*
G75*
G02*
X155749000Y-108720000I0J51000D01*
G01*
X155749000Y-107120000D01*
G75*
G02*
X155800000Y-107069000I51000J0D01*
G01*
G37*
X169200000Y-113000000D03*
G36*
G01*
X168400000Y-107069000D02*
X170000000Y-107069000D01*
G75*
G02*
X170051000Y-107120000I0J-51000D01*
G01*
X170051000Y-108720000D01*
G75*
G02*
X170000000Y-108771000I-51000J0D01*
G01*
X168400000Y-108771000D01*
G75*
G02*
X168349000Y-108720000I0J51000D01*
G01*
X168349000Y-107120000D01*
G75*
G02*
X168400000Y-107069000I51000J0D01*
G01*
G37*
X181800000Y-113000000D03*
G36*
G01*
X181000000Y-107069000D02*
X182600000Y-107069000D01*
G75*
G02*
X182651000Y-107120000I0J-51000D01*
G01*
X182651000Y-108720000D01*
G75*
G02*
X182600000Y-108771000I-51000J0D01*
G01*
X181000000Y-108771000D01*
G75*
G02*
X180949000Y-108720000I0J51000D01*
G01*
X180949000Y-107120000D01*
G75*
G02*
X181000000Y-107069000I51000J0D01*
G01*
G37*
X194400000Y-113000000D03*
G36*
G01*
X193600000Y-107069000D02*
X195200000Y-107069000D01*
G75*
G02*
X195251000Y-107120000I0J-51000D01*
G01*
X195251000Y-108720000D01*
G75*
G02*
X195200000Y-108771000I-51000J0D01*
G01*
X193600000Y-108771000D01*
G75*
G02*
X193549000Y-108720000I0J51000D01*
G01*
X193549000Y-107120000D01*
G75*
G02*
X193600000Y-107069000I51000J0D01*
G01*
G37*
X207000000Y-113000000D03*
G36*
G01*
X206200000Y-107069000D02*
X207800000Y-107069000D01*
G75*
G02*
X207851000Y-107120000I0J-51000D01*
G01*
X207851000Y-108720000D01*
G75*
G02*
X207800000Y-108771000I-51000J0D01*
G01*
X206200000Y-108771000D01*
G75*
G02*
X206149000Y-108720000I0J51000D01*
G01*
X206149000Y-107120000D01*
G75*
G02*
X206200000Y-107069000I51000J0D01*
G01*
G37*
X219600000Y-113000000D03*
G36*
G01*
X218800000Y-107069000D02*
X220400000Y-107069000D01*
G75*
G02*
X220451000Y-107120000I0J-51000D01*
G01*
X220451000Y-108720000D01*
G75*
G02*
X220400000Y-108771000I-51000J0D01*
G01*
X218800000Y-108771000D01*
G75*
G02*
X218749000Y-108720000I0J51000D01*
G01*
X218749000Y-107120000D01*
G75*
G02*
X218800000Y-107069000I51000J0D01*
G01*
G37*
X232200000Y-113000000D03*
G36*
G01*
X231400000Y-107069000D02*
X233000000Y-107069000D01*
G75*
G02*
X233051000Y-107120000I0J-51000D01*
G01*
X233051000Y-108720000D01*
G75*
G02*
X233000000Y-108771000I-51000J0D01*
G01*
X231400000Y-108771000D01*
G75*
G02*
X231349000Y-108720000I0J51000D01*
G01*
X231349000Y-107120000D01*
G75*
G02*
X231400000Y-107069000I51000J0D01*
G01*
G37*
X244800000Y-113000000D03*
G36*
G01*
X244000000Y-107069000D02*
X245600000Y-107069000D01*
G75*
G02*
X245651000Y-107120000I0J-51000D01*
G01*
X245651000Y-108720000D01*
G75*
G02*
X245600000Y-108771000I-51000J0D01*
G01*
X244000000Y-108771000D01*
G75*
G02*
X243949000Y-108720000I0J51000D01*
G01*
X243949000Y-107120000D01*
G75*
G02*
X244000000Y-107069000I51000J0D01*
G01*
G37*
X257400000Y-113000000D03*
G36*
G01*
X256600000Y-107069000D02*
X258200000Y-107069000D01*
G75*
G02*
X258251000Y-107120000I0J-51000D01*
G01*
X258251000Y-108720000D01*
G75*
G02*
X258200000Y-108771000I-51000J0D01*
G01*
X256600000Y-108771000D01*
G75*
G02*
X256549000Y-108720000I0J51000D01*
G01*
X256549000Y-107120000D01*
G75*
G02*
X256600000Y-107069000I51000J0D01*
G01*
G37*
X270000000Y-113000000D03*
G36*
G01*
X269200000Y-107069000D02*
X270800000Y-107069000D01*
G75*
G02*
X270851000Y-107120000I0J-51000D01*
G01*
X270851000Y-108720000D01*
G75*
G02*
X270800000Y-108771000I-51000J0D01*
G01*
X269200000Y-108771000D01*
G75*
G02*
X269149000Y-108720000I0J51000D01*
G01*
X269149000Y-107120000D01*
G75*
G02*
X269200000Y-107069000I51000J0D01*
G01*
G37*
X282600000Y-113000000D03*
G36*
G01*
X281800000Y-107069000D02*
X283400000Y-107069000D01*
G75*
G02*
X283451000Y-107120000I0J-51000D01*
G01*
X283451000Y-108720000D01*
G75*
G02*
X283400000Y-108771000I-51000J0D01*
G01*
X281800000Y-108771000D01*
G75*
G02*
X281749000Y-108720000I0J51000D01*
G01*
X281749000Y-107120000D01*
G75*
G02*
X281800000Y-107069000I51000J0D01*
G01*
G37*
X295200000Y-113050000D03*
G36*
G01*
X294400000Y-107119000D02*
X296000000Y-107119000D01*
G75*
G02*
X296051000Y-107170000I0J-51000D01*
G01*
X296051000Y-108770000D01*
G75*
G02*
X296000000Y-108821000I-51000J0D01*
G01*
X294400000Y-108821000D01*
G75*
G02*
X294349000Y-108770000I0J51000D01*
G01*
X294349000Y-107170000D01*
G75*
G02*
X294400000Y-107119000I51000J0D01*
G01*
G37*
X307800000Y-113050000D03*
G36*
G01*
X307000000Y-107119000D02*
X308600000Y-107119000D01*
G75*
G02*
X308651000Y-107170000I0J-51000D01*
G01*
X308651000Y-108770000D01*
G75*
G02*
X308600000Y-108821000I-51000J0D01*
G01*
X307000000Y-108821000D01*
G75*
G02*
X306949000Y-108770000I0J51000D01*
G01*
X306949000Y-107170000D01*
G75*
G02*
X307000000Y-107119000I51000J0D01*
G01*
G37*
X320400000Y-113050000D03*
G36*
G01*
X319600000Y-107119000D02*
X321200000Y-107119000D01*
G75*
G02*
X321251000Y-107170000I0J-51000D01*
G01*
X321251000Y-108770000D01*
G75*
G02*
X321200000Y-108821000I-51000J0D01*
G01*
X319600000Y-108821000D01*
G75*
G02*
X319549000Y-108770000I0J51000D01*
G01*
X319549000Y-107170000D01*
G75*
G02*
X319600000Y-107119000I51000J0D01*
G01*
G37*
X336100000Y-114350000D03*
G36*
G01*
X335300000Y-108419000D02*
X336900000Y-108419000D01*
G75*
G02*
X336951000Y-108470000I0J-51000D01*
G01*
X336951000Y-110070000D01*
G75*
G02*
X336900000Y-110121000I-51000J0D01*
G01*
X335300000Y-110121000D01*
G75*
G02*
X335249000Y-110070000I0J51000D01*
G01*
X335249000Y-108470000D01*
G75*
G02*
X335300000Y-108419000I51000J0D01*
G01*
G37*
X159700000Y-114350000D03*
G36*
G01*
X158900000Y-108419000D02*
X160500000Y-108419000D01*
G75*
G02*
X160551000Y-108470000I0J-51000D01*
G01*
X160551000Y-110070000D01*
G75*
G02*
X160500000Y-110121000I-51000J0D01*
G01*
X158900000Y-110121000D01*
G75*
G02*
X158849000Y-110070000I0J51000D01*
G01*
X158849000Y-108470000D01*
G75*
G02*
X158900000Y-108419000I51000J0D01*
G01*
G37*
X172300000Y-114350000D03*
G36*
G01*
X171500000Y-108419000D02*
X173100000Y-108419000D01*
G75*
G02*
X173151000Y-108470000I0J-51000D01*
G01*
X173151000Y-110070000D01*
G75*
G02*
X173100000Y-110121000I-51000J0D01*
G01*
X171500000Y-110121000D01*
G75*
G02*
X171449000Y-110070000I0J51000D01*
G01*
X171449000Y-108470000D01*
G75*
G02*
X171500000Y-108419000I51000J0D01*
G01*
G37*
X184900000Y-114350000D03*
G36*
G01*
X184100000Y-108419000D02*
X185700000Y-108419000D01*
G75*
G02*
X185751000Y-108470000I0J-51000D01*
G01*
X185751000Y-110070000D01*
G75*
G02*
X185700000Y-110121000I-51000J0D01*
G01*
X184100000Y-110121000D01*
G75*
G02*
X184049000Y-110070000I0J51000D01*
G01*
X184049000Y-108470000D01*
G75*
G02*
X184100000Y-108419000I51000J0D01*
G01*
G37*
X197500000Y-114350000D03*
G36*
G01*
X196700000Y-108419000D02*
X198300000Y-108419000D01*
G75*
G02*
X198351000Y-108470000I0J-51000D01*
G01*
X198351000Y-110070000D01*
G75*
G02*
X198300000Y-110121000I-51000J0D01*
G01*
X196700000Y-110121000D01*
G75*
G02*
X196649000Y-110070000I0J51000D01*
G01*
X196649000Y-108470000D01*
G75*
G02*
X196700000Y-108419000I51000J0D01*
G01*
G37*
X210100000Y-114350000D03*
G36*
G01*
X209300000Y-108419000D02*
X210900000Y-108419000D01*
G75*
G02*
X210951000Y-108470000I0J-51000D01*
G01*
X210951000Y-110070000D01*
G75*
G02*
X210900000Y-110121000I-51000J0D01*
G01*
X209300000Y-110121000D01*
G75*
G02*
X209249000Y-110070000I0J51000D01*
G01*
X209249000Y-108470000D01*
G75*
G02*
X209300000Y-108419000I51000J0D01*
G01*
G37*
X222700000Y-114380000D03*
G36*
G01*
X221900000Y-108449000D02*
X223500000Y-108449000D01*
G75*
G02*
X223551000Y-108500000I0J-51000D01*
G01*
X223551000Y-110100000D01*
G75*
G02*
X223500000Y-110151000I-51000J0D01*
G01*
X221900000Y-110151000D01*
G75*
G02*
X221849000Y-110100000I0J51000D01*
G01*
X221849000Y-108500000D01*
G75*
G02*
X221900000Y-108449000I51000J0D01*
G01*
G37*
X235300000Y-114350000D03*
G36*
G01*
X234500000Y-108419000D02*
X236100000Y-108419000D01*
G75*
G02*
X236151000Y-108470000I0J-51000D01*
G01*
X236151000Y-110070000D01*
G75*
G02*
X236100000Y-110121000I-51000J0D01*
G01*
X234500000Y-110121000D01*
G75*
G02*
X234449000Y-110070000I0J51000D01*
G01*
X234449000Y-108470000D01*
G75*
G02*
X234500000Y-108419000I51000J0D01*
G01*
G37*
X247900000Y-114350000D03*
G36*
G01*
X247100000Y-108419000D02*
X248700000Y-108419000D01*
G75*
G02*
X248751000Y-108470000I0J-51000D01*
G01*
X248751000Y-110070000D01*
G75*
G02*
X248700000Y-110121000I-51000J0D01*
G01*
X247100000Y-110121000D01*
G75*
G02*
X247049000Y-110070000I0J51000D01*
G01*
X247049000Y-108470000D01*
G75*
G02*
X247100000Y-108419000I51000J0D01*
G01*
G37*
X260500000Y-114350000D03*
G36*
G01*
X259700000Y-108419000D02*
X261300000Y-108419000D01*
G75*
G02*
X261351000Y-108470000I0J-51000D01*
G01*
X261351000Y-110070000D01*
G75*
G02*
X261300000Y-110121000I-51000J0D01*
G01*
X259700000Y-110121000D01*
G75*
G02*
X259649000Y-110070000I0J51000D01*
G01*
X259649000Y-108470000D01*
G75*
G02*
X259700000Y-108419000I51000J0D01*
G01*
G37*
X273100000Y-114350000D03*
G36*
G01*
X272300000Y-108419000D02*
X273900000Y-108419000D01*
G75*
G02*
X273951000Y-108470000I0J-51000D01*
G01*
X273951000Y-110070000D01*
G75*
G02*
X273900000Y-110121000I-51000J0D01*
G01*
X272300000Y-110121000D01*
G75*
G02*
X272249000Y-110070000I0J51000D01*
G01*
X272249000Y-108470000D01*
G75*
G02*
X272300000Y-108419000I51000J0D01*
G01*
G37*
X285700000Y-114350000D03*
G36*
G01*
X284900000Y-108419000D02*
X286500000Y-108419000D01*
G75*
G02*
X286551000Y-108470000I0J-51000D01*
G01*
X286551000Y-110070000D01*
G75*
G02*
X286500000Y-110121000I-51000J0D01*
G01*
X284900000Y-110121000D01*
G75*
G02*
X284849000Y-110070000I0J51000D01*
G01*
X284849000Y-108470000D01*
G75*
G02*
X284900000Y-108419000I51000J0D01*
G01*
G37*
X298300000Y-114350000D03*
G36*
G01*
X297500000Y-108419000D02*
X299100000Y-108419000D01*
G75*
G02*
X299151000Y-108470000I0J-51000D01*
G01*
X299151000Y-110070000D01*
G75*
G02*
X299100000Y-110121000I-51000J0D01*
G01*
X297500000Y-110121000D01*
G75*
G02*
X297449000Y-110070000I0J51000D01*
G01*
X297449000Y-108470000D01*
G75*
G02*
X297500000Y-108419000I51000J0D01*
G01*
G37*
X310900000Y-114350000D03*
G36*
G01*
X310100000Y-108419000D02*
X311700000Y-108419000D01*
G75*
G02*
X311751000Y-108470000I0J-51000D01*
G01*
X311751000Y-110070000D01*
G75*
G02*
X311700000Y-110121000I-51000J0D01*
G01*
X310100000Y-110121000D01*
G75*
G02*
X310049000Y-110070000I0J51000D01*
G01*
X310049000Y-108470000D01*
G75*
G02*
X310100000Y-108419000I51000J0D01*
G01*
G37*
X323500000Y-114350000D03*
G36*
G01*
X322700000Y-108419000D02*
X324300000Y-108419000D01*
G75*
G02*
X324351000Y-108470000I0J-51000D01*
G01*
X324351000Y-110070000D01*
G75*
G02*
X324300000Y-110121000I-51000J0D01*
G01*
X322700000Y-110121000D01*
G75*
G02*
X322649000Y-110070000I0J51000D01*
G01*
X322649000Y-108470000D01*
G75*
G02*
X322700000Y-108419000I51000J0D01*
G01*
G37*
X339200000Y-115650000D03*
G36*
G01*
X338400000Y-109719000D02*
X340000000Y-109719000D01*
G75*
G02*
X340051000Y-109770000I0J-51000D01*
G01*
X340051000Y-111370000D01*
G75*
G02*
X340000000Y-111421000I-51000J0D01*
G01*
X338400000Y-111421000D01*
G75*
G02*
X338349000Y-111370000I0J51000D01*
G01*
X338349000Y-109770000D01*
G75*
G02*
X338400000Y-109719000I51000J0D01*
G01*
G37*
X162800000Y-115650000D03*
G36*
G01*
X162000000Y-109719000D02*
X163600000Y-109719000D01*
G75*
G02*
X163651000Y-109770000I0J-51000D01*
G01*
X163651000Y-111370000D01*
G75*
G02*
X163600000Y-111421000I-51000J0D01*
G01*
X162000000Y-111421000D01*
G75*
G02*
X161949000Y-111370000I0J51000D01*
G01*
X161949000Y-109770000D01*
G75*
G02*
X162000000Y-109719000I51000J0D01*
G01*
G37*
X175400000Y-115650000D03*
G36*
G01*
X174600000Y-109719000D02*
X176200000Y-109719000D01*
G75*
G02*
X176251000Y-109770000I0J-51000D01*
G01*
X176251000Y-111370000D01*
G75*
G02*
X176200000Y-111421000I-51000J0D01*
G01*
X174600000Y-111421000D01*
G75*
G02*
X174549000Y-111370000I0J51000D01*
G01*
X174549000Y-109770000D01*
G75*
G02*
X174600000Y-109719000I51000J0D01*
G01*
G37*
X188000000Y-115650000D03*
G36*
G01*
X187200000Y-109719000D02*
X188800000Y-109719000D01*
G75*
G02*
X188851000Y-109770000I0J-51000D01*
G01*
X188851000Y-111370000D01*
G75*
G02*
X188800000Y-111421000I-51000J0D01*
G01*
X187200000Y-111421000D01*
G75*
G02*
X187149000Y-111370000I0J51000D01*
G01*
X187149000Y-109770000D01*
G75*
G02*
X187200000Y-109719000I51000J0D01*
G01*
G37*
X200600000Y-115650000D03*
G36*
G01*
X199800000Y-109719000D02*
X201400000Y-109719000D01*
G75*
G02*
X201451000Y-109770000I0J-51000D01*
G01*
X201451000Y-111370000D01*
G75*
G02*
X201400000Y-111421000I-51000J0D01*
G01*
X199800000Y-111421000D01*
G75*
G02*
X199749000Y-111370000I0J51000D01*
G01*
X199749000Y-109770000D01*
G75*
G02*
X199800000Y-109719000I51000J0D01*
G01*
G37*
X213200000Y-115550000D03*
G36*
G01*
X212400000Y-109619000D02*
X214000000Y-109619000D01*
G75*
G02*
X214051000Y-109670000I0J-51000D01*
G01*
X214051000Y-111270000D01*
G75*
G02*
X214000000Y-111321000I-51000J0D01*
G01*
X212400000Y-111321000D01*
G75*
G02*
X212349000Y-111270000I0J51000D01*
G01*
X212349000Y-109670000D01*
G75*
G02*
X212400000Y-109619000I51000J0D01*
G01*
G37*
X225800000Y-115650000D03*
G36*
G01*
X225000000Y-109719000D02*
X226600000Y-109719000D01*
G75*
G02*
X226651000Y-109770000I0J-51000D01*
G01*
X226651000Y-111370000D01*
G75*
G02*
X226600000Y-111421000I-51000J0D01*
G01*
X225000000Y-111421000D01*
G75*
G02*
X224949000Y-111370000I0J51000D01*
G01*
X224949000Y-109770000D01*
G75*
G02*
X225000000Y-109719000I51000J0D01*
G01*
G37*
X238400000Y-115650000D03*
G36*
G01*
X237600000Y-109719000D02*
X239200000Y-109719000D01*
G75*
G02*
X239251000Y-109770000I0J-51000D01*
G01*
X239251000Y-111370000D01*
G75*
G02*
X239200000Y-111421000I-51000J0D01*
G01*
X237600000Y-111421000D01*
G75*
G02*
X237549000Y-111370000I0J51000D01*
G01*
X237549000Y-109770000D01*
G75*
G02*
X237600000Y-109719000I51000J0D01*
G01*
G37*
X251000000Y-115650000D03*
G36*
G01*
X250200000Y-109719000D02*
X251800000Y-109719000D01*
G75*
G02*
X251851000Y-109770000I0J-51000D01*
G01*
X251851000Y-111370000D01*
G75*
G02*
X251800000Y-111421000I-51000J0D01*
G01*
X250200000Y-111421000D01*
G75*
G02*
X250149000Y-111370000I0J51000D01*
G01*
X250149000Y-109770000D01*
G75*
G02*
X250200000Y-109719000I51000J0D01*
G01*
G37*
X263600000Y-115650000D03*
G36*
G01*
X262800000Y-109719000D02*
X264400000Y-109719000D01*
G75*
G02*
X264451000Y-109770000I0J-51000D01*
G01*
X264451000Y-111370000D01*
G75*
G02*
X264400000Y-111421000I-51000J0D01*
G01*
X262800000Y-111421000D01*
G75*
G02*
X262749000Y-111370000I0J51000D01*
G01*
X262749000Y-109770000D01*
G75*
G02*
X262800000Y-109719000I51000J0D01*
G01*
G37*
X276200000Y-115650000D03*
G36*
G01*
X275400000Y-109719000D02*
X277000000Y-109719000D01*
G75*
G02*
X277051000Y-109770000I0J-51000D01*
G01*
X277051000Y-111370000D01*
G75*
G02*
X277000000Y-111421000I-51000J0D01*
G01*
X275400000Y-111421000D01*
G75*
G02*
X275349000Y-111370000I0J51000D01*
G01*
X275349000Y-109770000D01*
G75*
G02*
X275400000Y-109719000I51000J0D01*
G01*
G37*
X288800000Y-115650000D03*
G36*
G01*
X288000000Y-109719000D02*
X289600000Y-109719000D01*
G75*
G02*
X289651000Y-109770000I0J-51000D01*
G01*
X289651000Y-111370000D01*
G75*
G02*
X289600000Y-111421000I-51000J0D01*
G01*
X288000000Y-111421000D01*
G75*
G02*
X287949000Y-111370000I0J51000D01*
G01*
X287949000Y-109770000D01*
G75*
G02*
X288000000Y-109719000I51000J0D01*
G01*
G37*
X301400000Y-115650000D03*
G36*
G01*
X300600000Y-109719000D02*
X302200000Y-109719000D01*
G75*
G02*
X302251000Y-109770000I0J-51000D01*
G01*
X302251000Y-111370000D01*
G75*
G02*
X302200000Y-111421000I-51000J0D01*
G01*
X300600000Y-111421000D01*
G75*
G02*
X300549000Y-111370000I0J51000D01*
G01*
X300549000Y-109770000D01*
G75*
G02*
X300600000Y-109719000I51000J0D01*
G01*
G37*
X314000000Y-115650000D03*
G36*
G01*
X313200000Y-109719000D02*
X314800000Y-109719000D01*
G75*
G02*
X314851000Y-109770000I0J-51000D01*
G01*
X314851000Y-111370000D01*
G75*
G02*
X314800000Y-111421000I-51000J0D01*
G01*
X313200000Y-111421000D01*
G75*
G02*
X313149000Y-111370000I0J51000D01*
G01*
X313149000Y-109770000D01*
G75*
G02*
X313200000Y-109719000I51000J0D01*
G01*
G37*
X326600000Y-115650000D03*
G36*
G01*
X325800000Y-109719000D02*
X327400000Y-109719000D01*
G75*
G02*
X327451000Y-109770000I0J-51000D01*
G01*
X327451000Y-111370000D01*
G75*
G02*
X327400000Y-111421000I-51000J0D01*
G01*
X325800000Y-111421000D01*
G75*
G02*
X325749000Y-111370000I0J51000D01*
G01*
X325749000Y-109770000D01*
G75*
G02*
X325800000Y-109719000I51000J0D01*
G01*
G37*
X165900000Y-116950000D03*
G36*
G01*
X165100000Y-111019000D02*
X166700000Y-111019000D01*
G75*
G02*
X166751000Y-111070000I0J-51000D01*
G01*
X166751000Y-112670000D01*
G75*
G02*
X166700000Y-112721000I-51000J0D01*
G01*
X165100000Y-112721000D01*
G75*
G02*
X165049000Y-112670000I0J51000D01*
G01*
X165049000Y-111070000D01*
G75*
G02*
X165100000Y-111019000I51000J0D01*
G01*
G37*
X191100000Y-116980000D03*
G36*
G01*
X190300000Y-111049000D02*
X191900000Y-111049000D01*
G75*
G02*
X191951000Y-111100000I0J-51000D01*
G01*
X191951000Y-112700000D01*
G75*
G02*
X191900000Y-112751000I-51000J0D01*
G01*
X190300000Y-112751000D01*
G75*
G02*
X190249000Y-112700000I0J51000D01*
G01*
X190249000Y-111100000D01*
G75*
G02*
X190300000Y-111049000I51000J0D01*
G01*
G37*
X203700000Y-116950000D03*
G36*
G01*
X202900000Y-111019000D02*
X204500000Y-111019000D01*
G75*
G02*
X204551000Y-111070000I0J-51000D01*
G01*
X204551000Y-112670000D01*
G75*
G02*
X204500000Y-112721000I-51000J0D01*
G01*
X202900000Y-112721000D01*
G75*
G02*
X202849000Y-112670000I0J51000D01*
G01*
X202849000Y-111070000D01*
G75*
G02*
X202900000Y-111019000I51000J0D01*
G01*
G37*
X216300000Y-116950000D03*
G36*
G01*
X215500000Y-111019000D02*
X217100000Y-111019000D01*
G75*
G02*
X217151000Y-111070000I0J-51000D01*
G01*
X217151000Y-112670000D01*
G75*
G02*
X217100000Y-112721000I-51000J0D01*
G01*
X215500000Y-112721000D01*
G75*
G02*
X215449000Y-112670000I0J51000D01*
G01*
X215449000Y-111070000D01*
G75*
G02*
X215500000Y-111019000I51000J0D01*
G01*
G37*
X228900000Y-116950000D03*
G36*
G01*
X228100000Y-111019000D02*
X229700000Y-111019000D01*
G75*
G02*
X229751000Y-111070000I0J-51000D01*
G01*
X229751000Y-112670000D01*
G75*
G02*
X229700000Y-112721000I-51000J0D01*
G01*
X228100000Y-112721000D01*
G75*
G02*
X228049000Y-112670000I0J51000D01*
G01*
X228049000Y-111070000D01*
G75*
G02*
X228100000Y-111019000I51000J0D01*
G01*
G37*
X241500000Y-116950000D03*
G36*
G01*
X240700000Y-111019000D02*
X242300000Y-111019000D01*
G75*
G02*
X242351000Y-111070000I0J-51000D01*
G01*
X242351000Y-112670000D01*
G75*
G02*
X242300000Y-112721000I-51000J0D01*
G01*
X240700000Y-112721000D01*
G75*
G02*
X240649000Y-112670000I0J51000D01*
G01*
X240649000Y-111070000D01*
G75*
G02*
X240700000Y-111019000I51000J0D01*
G01*
G37*
X254100000Y-116950000D03*
G36*
G01*
X253300000Y-111019000D02*
X254900000Y-111019000D01*
G75*
G02*
X254951000Y-111070000I0J-51000D01*
G01*
X254951000Y-112670000D01*
G75*
G02*
X254900000Y-112721000I-51000J0D01*
G01*
X253300000Y-112721000D01*
G75*
G02*
X253249000Y-112670000I0J51000D01*
G01*
X253249000Y-111070000D01*
G75*
G02*
X253300000Y-111019000I51000J0D01*
G01*
G37*
X266700000Y-116950000D03*
G36*
G01*
X265900000Y-111019000D02*
X267500000Y-111019000D01*
G75*
G02*
X267551000Y-111070000I0J-51000D01*
G01*
X267551000Y-112670000D01*
G75*
G02*
X267500000Y-112721000I-51000J0D01*
G01*
X265900000Y-112721000D01*
G75*
G02*
X265849000Y-112670000I0J51000D01*
G01*
X265849000Y-111070000D01*
G75*
G02*
X265900000Y-111019000I51000J0D01*
G01*
G37*
X279300000Y-116950000D03*
G36*
G01*
X278500000Y-111019000D02*
X280100000Y-111019000D01*
G75*
G02*
X280151000Y-111070000I0J-51000D01*
G01*
X280151000Y-112670000D01*
G75*
G02*
X280100000Y-112721000I-51000J0D01*
G01*
X278500000Y-112721000D01*
G75*
G02*
X278449000Y-112670000I0J51000D01*
G01*
X278449000Y-111070000D01*
G75*
G02*
X278500000Y-111019000I51000J0D01*
G01*
G37*
X291900000Y-116950000D03*
G36*
G01*
X291100000Y-111019000D02*
X292700000Y-111019000D01*
G75*
G02*
X292751000Y-111070000I0J-51000D01*
G01*
X292751000Y-112670000D01*
G75*
G02*
X292700000Y-112721000I-51000J0D01*
G01*
X291100000Y-112721000D01*
G75*
G02*
X291049000Y-112670000I0J51000D01*
G01*
X291049000Y-111070000D01*
G75*
G02*
X291100000Y-111019000I51000J0D01*
G01*
G37*
X304500000Y-116950000D03*
G36*
G01*
X303700000Y-111019000D02*
X305300000Y-111019000D01*
G75*
G02*
X305351000Y-111070000I0J-51000D01*
G01*
X305351000Y-112670000D01*
G75*
G02*
X305300000Y-112721000I-51000J0D01*
G01*
X303700000Y-112721000D01*
G75*
G02*
X303649000Y-112670000I0J51000D01*
G01*
X303649000Y-111070000D01*
G75*
G02*
X303700000Y-111019000I51000J0D01*
G01*
G37*
X317100000Y-116950000D03*
G36*
G01*
X316300000Y-111019000D02*
X317900000Y-111019000D01*
G75*
G02*
X317951000Y-111070000I0J-51000D01*
G01*
X317951000Y-112670000D01*
G75*
G02*
X317900000Y-112721000I-51000J0D01*
G01*
X316300000Y-112721000D01*
G75*
G02*
X316249000Y-112670000I0J51000D01*
G01*
X316249000Y-111070000D01*
G75*
G02*
X316300000Y-111019000I51000J0D01*
G01*
G37*
X329700000Y-116950000D03*
G36*
G01*
X328900000Y-111019000D02*
X330500000Y-111019000D01*
G75*
G02*
X330551000Y-111070000I0J-51000D01*
G01*
X330551000Y-112670000D01*
G75*
G02*
X330500000Y-112721000I-51000J0D01*
G01*
X328900000Y-112721000D01*
G75*
G02*
X328849000Y-112670000I0J51000D01*
G01*
X328849000Y-111070000D01*
G75*
G02*
X328900000Y-111019000I51000J0D01*
G01*
G37*
X342300000Y-116950000D03*
G36*
G01*
X341500000Y-111019000D02*
X343100000Y-111019000D01*
G75*
G02*
X343151000Y-111070000I0J-51000D01*
G01*
X343151000Y-112670000D01*
G75*
G02*
X343100000Y-112721000I-51000J0D01*
G01*
X341500000Y-112721000D01*
G75*
G02*
X341449000Y-112670000I0J51000D01*
G01*
X341449000Y-111070000D01*
G75*
G02*
X341500000Y-111019000I51000J0D01*
G01*
G37*
X333000000Y-113050000D03*
G36*
G01*
X332200000Y-107119000D02*
X333800000Y-107119000D01*
G75*
G02*
X333851000Y-107170000I0J-51000D01*
G01*
X333851000Y-108770000D01*
G75*
G02*
X333800000Y-108821000I-51000J0D01*
G01*
X332200000Y-108821000D01*
G75*
G02*
X332149000Y-108770000I0J51000D01*
G01*
X332149000Y-107170000D01*
G75*
G02*
X332200000Y-107119000I51000J0D01*
G01*
G37*
X345600000Y-113050000D03*
G36*
G01*
X344800000Y-107119000D02*
X346400000Y-107119000D01*
G75*
G02*
X346451000Y-107170000I0J-51000D01*
G01*
X346451000Y-108770000D01*
G75*
G02*
X346400000Y-108821000I-51000J0D01*
G01*
X344800000Y-108821000D01*
G75*
G02*
X344749000Y-108770000I0J51000D01*
G01*
X344749000Y-107170000D01*
G75*
G02*
X344800000Y-107119000I51000J0D01*
G01*
G37*
X348700000Y-114350000D03*
G36*
G01*
X347900000Y-108419000D02*
X349500000Y-108419000D01*
G75*
G02*
X349551000Y-108470000I0J-51000D01*
G01*
X349551000Y-110070000D01*
G75*
G02*
X349500000Y-110121000I-51000J0D01*
G01*
X347900000Y-110121000D01*
G75*
G02*
X347849000Y-110070000I0J51000D01*
G01*
X347849000Y-108470000D01*
G75*
G02*
X347900000Y-108419000I51000J0D01*
G01*
G37*
X351800000Y-115650000D03*
G36*
G01*
X351000000Y-109719000D02*
X352600000Y-109719000D01*
G75*
G02*
X352651000Y-109770000I0J-51000D01*
G01*
X352651000Y-111370000D01*
G75*
G02*
X352600000Y-111421000I-51000J0D01*
G01*
X351000000Y-111421000D01*
G75*
G02*
X350949000Y-111370000I0J51000D01*
G01*
X350949000Y-109770000D01*
G75*
G02*
X351000000Y-109719000I51000J0D01*
G01*
G37*
X354900000Y-116950000D03*
G36*
G01*
X354100000Y-111019000D02*
X355700000Y-111019000D01*
G75*
G02*
X355751000Y-111070000I0J-51000D01*
G01*
X355751000Y-112670000D01*
G75*
G02*
X355700000Y-112721000I-51000J0D01*
G01*
X354100000Y-112721000D01*
G75*
G02*
X354049000Y-112670000I0J51000D01*
G01*
X354049000Y-111070000D01*
G75*
G02*
X354100000Y-111019000I51000J0D01*
G01*
G37*
X312450000Y-198600000D03*
G36*
G01*
X318381000Y-197800000D02*
X318381000Y-199400000D01*
G75*
G02*
X318330000Y-199451000I-51000J0D01*
G01*
X316730000Y-199451000D01*
G75*
G02*
X316679000Y-199400000I0J51000D01*
G01*
X316679000Y-197800000D01*
G75*
G02*
X316730000Y-197749000I51000J0D01*
G01*
X318330000Y-197749000D01*
G75*
G02*
X318381000Y-197800000I0J-51000D01*
G01*
G37*
X333150000Y-198600000D03*
G36*
G01*
X339081000Y-197800000D02*
X339081000Y-199400000D01*
G75*
G02*
X339030000Y-199451000I-51000J0D01*
G01*
X337430000Y-199451000D01*
G75*
G02*
X337379000Y-199400000I0J51000D01*
G01*
X337379000Y-197800000D01*
G75*
G02*
X337430000Y-197749000I51000J0D01*
G01*
X339030000Y-197749000D01*
G75*
G02*
X339081000Y-197800000I0J-51000D01*
G01*
G37*
X352250000Y-198600000D03*
G36*
G01*
X358181000Y-197800000D02*
X358181000Y-199400000D01*
G75*
G02*
X358130000Y-199451000I-51000J0D01*
G01*
X356530000Y-199451000D01*
G75*
G02*
X356479000Y-199400000I0J51000D01*
G01*
X356479000Y-197800000D01*
G75*
G02*
X356530000Y-197749000I51000J0D01*
G01*
X358130000Y-197749000D01*
G75*
G02*
X358181000Y-197800000I0J-51000D01*
G01*
G37*
X178500000Y-116950000D03*
G36*
G01*
X177700000Y-111019000D02*
X179300000Y-111019000D01*
G75*
G02*
X179351000Y-111070000I0J-51000D01*
G01*
X179351000Y-112670000D01*
G75*
G02*
X179300000Y-112721000I-51000J0D01*
G01*
X177700000Y-112721000D01*
G75*
G02*
X177649000Y-112670000I0J51000D01*
G01*
X177649000Y-111070000D01*
G75*
G02*
X177700000Y-111019000I51000J0D01*
G01*
G37*
X86800000Y-120350000D03*
G36*
G01*
X86000000Y-114419000D02*
X87600000Y-114419000D01*
G75*
G02*
X87651000Y-114470000I0J-51000D01*
G01*
X87651000Y-116070000D01*
G75*
G02*
X87600000Y-116121000I-51000J0D01*
G01*
X86000000Y-116121000D01*
G75*
G02*
X85949000Y-116070000I0J51000D01*
G01*
X85949000Y-114470000D01*
G75*
G02*
X86000000Y-114419000I51000J0D01*
G01*
G37*
X81700000Y-120350000D03*
G36*
G01*
X80900000Y-114419000D02*
X82500000Y-114419000D01*
G75*
G02*
X82551000Y-114470000I0J-51000D01*
G01*
X82551000Y-116070000D01*
G75*
G02*
X82500000Y-116121000I-51000J0D01*
G01*
X80900000Y-116121000D01*
G75*
G02*
X80849000Y-116070000I0J51000D01*
G01*
X80849000Y-114470000D01*
G75*
G02*
X80900000Y-114419000I51000J0D01*
G01*
G37*
D17*
X156700000Y-103600000D03*
X163200000Y-103600000D03*
X163200000Y-99100000D03*
G36*
G01*
X155549000Y-100200000D02*
X155549000Y-98000000D01*
G75*
G02*
X155600000Y-97949000I51000J0D01*
G01*
X157800000Y-97949000D01*
G75*
G02*
X157851000Y-98000000I0J-51000D01*
G01*
X157851000Y-100200000D01*
G75*
G02*
X157800000Y-100251000I-51000J0D01*
G01*
X155600000Y-100251000D01*
G75*
G02*
X155549000Y-100200000I0J51000D01*
G01*
G37*
X167000000Y-103600000D03*
X173500000Y-103600000D03*
X173500000Y-99100000D03*
G36*
G01*
X165849000Y-100200000D02*
X165849000Y-98000000D01*
G75*
G02*
X165900000Y-97949000I51000J0D01*
G01*
X168100000Y-97949000D01*
G75*
G02*
X168151000Y-98000000I0J-51000D01*
G01*
X168151000Y-100200000D01*
G75*
G02*
X168100000Y-100251000I-51000J0D01*
G01*
X165900000Y-100251000D01*
G75*
G02*
X165849000Y-100200000I0J51000D01*
G01*
G37*
D18*
X326390000Y-166370000D03*
D19*
X323850000Y-171450000D03*
D18*
X320040000Y-168910000D03*
D20*
X318770000Y-171450000D03*
X328930000Y-171450000D03*
D21*
X311943750Y-164465000D03*
X335756250Y-164465000D03*
D19*
X311943750Y-179705000D03*
X335756250Y-179705000D03*
D18*
X83502500Y-185420000D03*
D19*
X80962500Y-190500000D03*
D18*
X77152500Y-187960000D03*
D20*
X75882500Y-190500000D03*
X86042500Y-190500000D03*
D21*
X69056250Y-183515000D03*
X92868750Y-183515000D03*
D19*
X69056250Y-198755000D03*
X92868750Y-198755000D03*
D18*
X73977500Y-185420000D03*
D19*
X71437500Y-190500000D03*
D18*
X67627500Y-187960000D03*
D20*
X66357500Y-190500000D03*
X76517500Y-190500000D03*
D18*
X121602500Y-204470000D03*
D19*
X119062500Y-209550000D03*
D18*
X115252500Y-207010000D03*
D20*
X113982500Y-209550000D03*
X124142500Y-209550000D03*
D18*
X97790000Y-204470000D03*
D19*
X95250000Y-209550000D03*
D18*
X91440000Y-207010000D03*
D20*
X90170000Y-209550000D03*
X100330000Y-209550000D03*
D18*
X73977500Y-204470000D03*
D19*
X71437500Y-209550000D03*
D18*
X67627500Y-207010000D03*
D20*
X66357500Y-209550000D03*
X76517500Y-209550000D03*
D18*
X333533750Y-147320000D03*
D19*
X330993750Y-152400000D03*
D18*
X327183750Y-149860000D03*
D20*
X325913750Y-152400000D03*
X336073750Y-152400000D03*
D18*
X104933750Y-204470000D03*
D19*
X102393750Y-209550000D03*
D18*
X98583750Y-207010000D03*
D20*
X97313750Y-209550000D03*
X107473750Y-209550000D03*
D18*
X76358750Y-204470000D03*
D19*
X73818750Y-209550000D03*
D18*
X70008750Y-207010000D03*
D20*
X68738750Y-209550000D03*
X78898750Y-209550000D03*
D18*
X76358750Y-147320000D03*
D19*
X73818750Y-152400000D03*
D18*
X70008750Y-149860000D03*
D20*
X68738750Y-152400000D03*
X78898750Y-152400000D03*
D18*
X193040000Y-204470000D03*
D19*
X190500000Y-209550000D03*
D18*
X186690000Y-207010000D03*
D20*
X185420000Y-209550000D03*
X195580000Y-209550000D03*
D21*
X140500100Y-216535000D03*
X240499900Y-216535000D03*
D19*
X140500100Y-201295000D03*
X240499900Y-201295000D03*
D20*
X314642500Y-190500000D03*
X304482500Y-190500000D03*
D18*
X305752500Y-187960000D03*
D19*
X309562500Y-190500000D03*
D18*
X312102500Y-185420000D03*
D20*
X81280000Y-171450000D03*
X71120000Y-171450000D03*
D18*
X72390000Y-168910000D03*
D19*
X76200000Y-171450000D03*
D18*
X78740000Y-166370000D03*
X328771250Y-128270000D03*
D19*
X326231250Y-133350000D03*
D18*
X322421250Y-130810000D03*
D20*
X321151250Y-133350000D03*
X331311250Y-133350000D03*
D21*
X314325000Y-126365000D03*
X338137500Y-126365000D03*
D19*
X314325000Y-141605000D03*
X338137500Y-141605000D03*
D18*
X214471250Y-147320000D03*
D19*
X211931250Y-152400000D03*
D18*
X208121250Y-149860000D03*
D20*
X206851250Y-152400000D03*
X217011250Y-152400000D03*
D18*
X335915000Y-156845000D03*
D19*
X333375000Y-161925000D03*
D18*
X329565000Y-159385000D03*
D20*
X328295000Y-161925000D03*
X338455000Y-161925000D03*
D21*
X340360000Y-173863000D03*
X340360000Y-149987000D03*
D19*
X325120000Y-173863000D03*
X325120000Y-149987000D03*
D18*
X185896250Y-204470000D03*
D19*
X183356250Y-209550000D03*
D18*
X179546250Y-207010000D03*
D20*
X178276250Y-209550000D03*
X188436250Y-209550000D03*
D21*
X126206250Y-216535000D03*
X240506250Y-216535000D03*
D19*
X126206250Y-201295000D03*
X240506250Y-201295000D03*
X71463000Y-171475400D03*
D20*
X66383000Y-171475400D03*
X76543000Y-171475400D03*
D18*
X67653000Y-168935400D03*
X74003000Y-166395400D03*
X143033750Y-166370000D03*
D19*
X140493750Y-171450000D03*
D18*
X136683750Y-168910000D03*
D20*
X135413750Y-171450000D03*
X145573750Y-171450000D03*
D18*
X314483750Y-166370000D03*
D19*
X311943750Y-171450000D03*
D18*
X308133750Y-168910000D03*
D20*
X306863750Y-171450000D03*
X317023750Y-171450000D03*
D18*
X95408750Y-185420000D03*
D19*
X92868750Y-190500000D03*
D18*
X89058750Y-187960000D03*
D20*
X87788750Y-190500000D03*
X97948750Y-190500000D03*
D18*
X357346250Y-204470000D03*
D19*
X354806250Y-209550000D03*
D18*
X350996250Y-207010000D03*
D20*
X349726250Y-209550000D03*
X359886250Y-209550000D03*
D18*
X338296250Y-204470000D03*
D19*
X335756250Y-209550000D03*
D18*
X331946250Y-207010000D03*
D20*
X330676250Y-209550000D03*
X340836250Y-209550000D03*
D18*
X319246250Y-204470000D03*
D19*
X316706250Y-209550000D03*
D18*
X312896250Y-207010000D03*
D20*
X311626250Y-209550000D03*
X321786250Y-209550000D03*
D18*
X300196250Y-204470000D03*
D19*
X297656250Y-209550000D03*
D18*
X293846250Y-207010000D03*
D20*
X292576250Y-209550000D03*
X302736250Y-209550000D03*
D18*
X357346250Y-185420000D03*
D19*
X354806250Y-190500000D03*
D18*
X350996250Y-187960000D03*
D20*
X349726250Y-190500000D03*
X359886250Y-190500000D03*
D18*
X338296250Y-185420000D03*
D19*
X335756250Y-190500000D03*
D18*
X331946250Y-187960000D03*
D20*
X330676250Y-190500000D03*
X340836250Y-190500000D03*
D18*
X285908750Y-185420000D03*
D19*
X283368750Y-190500000D03*
D18*
X279558750Y-187960000D03*
D20*
X278288750Y-190500000D03*
X288448750Y-190500000D03*
D18*
X266858750Y-185420000D03*
D19*
X264318750Y-190500000D03*
D18*
X260508750Y-187960000D03*
D20*
X259238750Y-190500000D03*
X269398750Y-190500000D03*
D18*
X247808750Y-185420000D03*
D19*
X245268750Y-190500000D03*
D18*
X241458750Y-187960000D03*
D20*
X240188750Y-190500000D03*
X250348750Y-190500000D03*
D18*
X228758750Y-185420000D03*
D19*
X226218750Y-190500000D03*
D18*
X222408750Y-187960000D03*
D20*
X221138750Y-190500000D03*
X231298750Y-190500000D03*
D18*
X209708750Y-185420000D03*
D19*
X207168750Y-190500000D03*
D18*
X203358750Y-187960000D03*
D20*
X202088750Y-190500000D03*
X212248750Y-190500000D03*
D18*
X190658750Y-185420000D03*
D19*
X188118750Y-190500000D03*
D18*
X184308750Y-187960000D03*
D20*
X183038750Y-190500000D03*
X193198750Y-190500000D03*
D18*
X171608750Y-185420000D03*
D19*
X169068750Y-190500000D03*
D18*
X165258750Y-187960000D03*
D20*
X163988750Y-190500000D03*
X174148750Y-190500000D03*
D18*
X152558750Y-185420000D03*
D19*
X150018750Y-190500000D03*
D18*
X146208750Y-187960000D03*
D20*
X144938750Y-190500000D03*
X155098750Y-190500000D03*
D18*
X133508750Y-185420000D03*
D19*
X130968750Y-190500000D03*
D18*
X127158750Y-187960000D03*
D20*
X125888750Y-190500000D03*
X136048750Y-190500000D03*
D18*
X114458750Y-185420000D03*
D19*
X111918750Y-190500000D03*
D18*
X108108750Y-187960000D03*
D20*
X106838750Y-190500000D03*
X116998750Y-190500000D03*
D18*
X357346250Y-166370000D03*
D19*
X354806250Y-171450000D03*
D18*
X350996250Y-168910000D03*
D20*
X349726250Y-171450000D03*
X359886250Y-171450000D03*
D18*
X295433750Y-166370000D03*
D19*
X292893750Y-171450000D03*
D18*
X289083750Y-168910000D03*
D20*
X287813750Y-171450000D03*
X297973750Y-171450000D03*
D18*
X276383750Y-166370000D03*
D19*
X273843750Y-171450000D03*
D18*
X270033750Y-168910000D03*
D20*
X268763750Y-171450000D03*
X278923750Y-171450000D03*
D18*
X257333750Y-166370000D03*
D19*
X254793750Y-171450000D03*
D18*
X250983750Y-168910000D03*
D20*
X249713750Y-171450000D03*
X259873750Y-171450000D03*
D18*
X238283750Y-166370000D03*
D19*
X235743750Y-171450000D03*
D18*
X231933750Y-168910000D03*
D20*
X230663750Y-171450000D03*
X240823750Y-171450000D03*
D18*
X219233750Y-166370000D03*
D19*
X216693750Y-171450000D03*
D18*
X212883750Y-168910000D03*
D20*
X211613750Y-171450000D03*
X221773750Y-171450000D03*
D18*
X200183750Y-166370000D03*
D19*
X197643750Y-171450000D03*
D18*
X193833750Y-168910000D03*
D20*
X192563750Y-171450000D03*
X202723750Y-171450000D03*
D18*
X181133750Y-166370000D03*
D19*
X178593750Y-171450000D03*
D18*
X174783750Y-168910000D03*
D20*
X173513750Y-171450000D03*
X183673750Y-171450000D03*
D18*
X162083750Y-166370000D03*
D19*
X159543750Y-171450000D03*
D18*
X155733750Y-168910000D03*
D20*
X154463750Y-171450000D03*
X164623750Y-171450000D03*
D18*
X123983750Y-166370000D03*
D19*
X121443750Y-171450000D03*
D18*
X117633750Y-168910000D03*
D20*
X116363750Y-171450000D03*
X126523750Y-171450000D03*
D18*
X104933750Y-166370000D03*
D19*
X102393750Y-171450000D03*
D18*
X98583750Y-168910000D03*
D20*
X97313750Y-171450000D03*
X107473750Y-171450000D03*
D18*
X357346250Y-147320000D03*
D19*
X354806250Y-152400000D03*
D18*
X350996250Y-149860000D03*
D20*
X349726250Y-152400000D03*
X359886250Y-152400000D03*
D18*
X309721250Y-147320000D03*
D19*
X307181250Y-152400000D03*
D18*
X303371250Y-149860000D03*
D20*
X302101250Y-152400000D03*
X312261250Y-152400000D03*
D18*
X290671250Y-147320000D03*
D19*
X288131250Y-152400000D03*
D18*
X284321250Y-149860000D03*
D20*
X283051250Y-152400000D03*
X293211250Y-152400000D03*
D18*
X271621250Y-147320000D03*
D19*
X269081250Y-152400000D03*
D18*
X265271250Y-149860000D03*
D20*
X264001250Y-152400000D03*
X274161250Y-152400000D03*
D18*
X252571250Y-147320000D03*
D19*
X250031250Y-152400000D03*
D18*
X246221250Y-149860000D03*
D20*
X244951250Y-152400000D03*
X255111250Y-152400000D03*
D18*
X233521250Y-147320000D03*
D19*
X230981250Y-152400000D03*
D18*
X227171250Y-149860000D03*
D20*
X225901250Y-152400000D03*
X236061250Y-152400000D03*
D18*
X195421250Y-147320000D03*
D19*
X192881250Y-152400000D03*
D18*
X189071250Y-149860000D03*
D20*
X187801250Y-152400000D03*
X197961250Y-152400000D03*
D18*
X176371250Y-147320000D03*
D19*
X173831250Y-152400000D03*
D18*
X170021250Y-149860000D03*
D20*
X168751250Y-152400000D03*
X178911250Y-152400000D03*
D18*
X157321250Y-147320000D03*
D19*
X154781250Y-152400000D03*
D18*
X150971250Y-149860000D03*
D20*
X149701250Y-152400000D03*
X159861250Y-152400000D03*
D18*
X138271250Y-147320000D03*
D19*
X135731250Y-152400000D03*
D18*
X131921250Y-149860000D03*
D20*
X130651250Y-152400000D03*
X140811250Y-152400000D03*
D18*
X119221250Y-147320000D03*
D19*
X116681250Y-152400000D03*
D18*
X112871250Y-149860000D03*
D20*
X111601250Y-152400000D03*
X121761250Y-152400000D03*
D18*
X100171250Y-147320000D03*
D19*
X97631250Y-152400000D03*
D18*
X93821250Y-149860000D03*
D20*
X92551250Y-152400000D03*
X102711250Y-152400000D03*
D18*
X300196250Y-128270000D03*
D19*
X297656250Y-133350000D03*
D18*
X293846250Y-130810000D03*
D20*
X292576250Y-133350000D03*
X302736250Y-133350000D03*
D18*
X281146250Y-128270000D03*
D19*
X278606250Y-133350000D03*
D18*
X274796250Y-130810000D03*
D20*
X273526250Y-133350000D03*
X283686250Y-133350000D03*
D18*
X262096250Y-128270000D03*
D19*
X259556250Y-133350000D03*
D18*
X255746250Y-130810000D03*
D20*
X254476250Y-133350000D03*
X264636250Y-133350000D03*
D18*
X243046250Y-128270000D03*
D19*
X240506250Y-133350000D03*
D18*
X236696250Y-130810000D03*
D20*
X235426250Y-133350000D03*
X245586250Y-133350000D03*
D18*
X223996250Y-128320000D03*
D19*
X221456250Y-133400000D03*
D18*
X217646250Y-130860000D03*
D20*
X216376250Y-133400000D03*
X226536250Y-133400000D03*
D18*
X204946250Y-128270000D03*
D19*
X202406250Y-133350000D03*
D18*
X198596250Y-130810000D03*
D20*
X197326250Y-133350000D03*
X207486250Y-133350000D03*
D18*
X185896250Y-128270000D03*
D19*
X183356250Y-133350000D03*
D18*
X179546250Y-130810000D03*
D20*
X178276250Y-133350000D03*
X188436250Y-133350000D03*
D18*
X166846250Y-128270000D03*
D19*
X164306250Y-133350000D03*
D18*
X160496250Y-130810000D03*
D20*
X159226250Y-133350000D03*
X169386250Y-133350000D03*
D18*
X147796250Y-128270000D03*
D19*
X145256250Y-133350000D03*
D18*
X141446250Y-130810000D03*
D20*
X140176250Y-133350000D03*
X150336250Y-133350000D03*
D18*
X128746250Y-128270000D03*
D19*
X126206250Y-133350000D03*
D18*
X122396250Y-130810000D03*
D20*
X121126250Y-133350000D03*
X131286250Y-133350000D03*
D18*
X109696250Y-128270000D03*
D19*
X107156250Y-133350000D03*
D18*
X103346250Y-130810000D03*
D20*
X102076250Y-133350000D03*
X112236250Y-133350000D03*
D18*
X90646250Y-128270000D03*
D19*
X88106250Y-133350000D03*
D18*
X84296250Y-130810000D03*
D20*
X83026250Y-133350000D03*
X93186250Y-133350000D03*
D18*
X71596250Y-128270000D03*
D19*
X69056250Y-133350000D03*
D18*
X65246250Y-130810000D03*
D20*
X63976250Y-133350000D03*
X74136250Y-133350000D03*
D22*
X63531250Y-119017531D03*
X63531250Y-100267531D03*
X360331250Y-100267531D03*
X360331250Y-119062500D03*
G36*
G01*
X353425000Y-141544750D02*
X351425000Y-141544750D01*
G75*
G02*
X351374000Y-141493750I0J51000D01*
G01*
X351374000Y-139493750D01*
G75*
G02*
X351425000Y-139442750I51000J0D01*
G01*
X353425000Y-139442750D01*
G75*
G02*
X353476000Y-139493750I0J-51000D01*
G01*
X353476000Y-141493750D01*
G75*
G02*
X353425000Y-141544750I-51000J0D01*
G01*
G37*
D23*
X354925000Y-140493750D03*
X357425000Y-140493750D03*
G36*
G01*
X350325000Y-134644750D02*
X348325000Y-134644750D01*
G75*
G02*
X348274000Y-134593750I0J51000D01*
G01*
X348274000Y-131393750D01*
G75*
G02*
X348325000Y-131342750I51000J0D01*
G01*
X350325000Y-131342750D01*
G75*
G02*
X350376000Y-131393750I0J-51000D01*
G01*
X350376000Y-134593750D01*
G75*
G02*
X350325000Y-134644750I-51000J0D01*
G01*
G37*
G36*
G01*
X361525000Y-134644750D02*
X359525000Y-134644750D01*
G75*
G02*
X359474000Y-134593750I0J51000D01*
G01*
X359474000Y-131393750D01*
G75*
G02*
X359525000Y-131342750I51000J0D01*
G01*
X361525000Y-131342750D01*
G75*
G02*
X361576000Y-131393750I0J-51000D01*
G01*
X361576000Y-134593750D01*
G75*
G02*
X361525000Y-134644750I-51000J0D01*
G01*
G37*
X352425000Y-125993750D03*
X357425000Y-125993750D03*
D16*
X103650000Y-101160000D03*
X151910000Y-116400000D03*
X106190000Y-101160000D03*
X149370000Y-116400000D03*
X108730000Y-101160000D03*
X146830000Y-116400000D03*
X111270000Y-101160000D03*
X144290000Y-116400000D03*
X113810000Y-101160000D03*
X141750000Y-116400000D03*
X116350000Y-101160000D03*
X139210000Y-116400000D03*
X118890000Y-101160000D03*
X136670000Y-116400000D03*
X121430000Y-101160000D03*
X134130000Y-116400000D03*
X123970000Y-101160000D03*
X131590000Y-116400000D03*
X126510000Y-101160000D03*
X129050000Y-116400000D03*
X129050000Y-101160000D03*
X126510000Y-116400000D03*
X131590000Y-101160000D03*
X123970000Y-116400000D03*
X134130000Y-101160000D03*
X121430000Y-116400000D03*
X136670000Y-101160000D03*
X118890000Y-116400000D03*
X139210000Y-101160000D03*
X116350000Y-116400000D03*
X141750000Y-101160000D03*
X113810000Y-116400000D03*
X144290000Y-101160000D03*
X111270000Y-116400000D03*
X146830000Y-101160000D03*
X108730000Y-116400000D03*
X149370000Y-101160000D03*
X106190000Y-116400000D03*
X151910000Y-101160000D03*
G36*
G01*
X104450000Y-117251000D02*
X102850000Y-117251000D01*
G75*
G02*
X102799000Y-117200000I0J51000D01*
G01*
X102799000Y-115600000D01*
G75*
G02*
X102850000Y-115549000I51000J0D01*
G01*
X104450000Y-115549000D01*
G75*
G02*
X104501000Y-115600000I0J-51000D01*
G01*
X104501000Y-117200000D01*
G75*
G02*
X104450000Y-117251000I-51000J0D01*
G01*
G37*
D24*
X91320000Y-116900000D03*
D25*
X96400000Y-116900000D03*
D24*
X91320000Y-113400000D03*
D25*
X96400000Y-113400000D03*
D24*
X91320000Y-102700000D03*
D25*
X96400000Y-102700000D03*
D24*
X91320000Y-106400000D03*
D25*
X96400000Y-106400000D03*
D24*
X96380000Y-99300000D03*
D25*
X91300000Y-99300000D03*
D24*
X96380000Y-109900000D03*
D25*
X91300000Y-109900000D03*
D24*
X96380000Y-120400000D03*
D25*
X91300000Y-120400000D03*
X86750000Y-112000000D03*
X81650000Y-112000000D03*
D26*
X70540000Y-115700000D03*
G36*
G01*
X67049000Y-116600000D02*
X67049000Y-114800000D01*
G75*
G02*
X67100000Y-114749000I51000J0D01*
G01*
X68900000Y-114749000D01*
G75*
G02*
X68951000Y-114800000I0J-51000D01*
G01*
X68951000Y-116600000D01*
G75*
G02*
X68900000Y-116651000I-51000J0D01*
G01*
X67100000Y-116651000D01*
G75*
G02*
X67049000Y-116600000I0J51000D01*
G01*
G37*
G36*
G01*
X115899999Y-119249000D02*
X117100001Y-119249000D01*
G75*
G02*
X117151000Y-119299999I0J-50999D01*
G01*
X117151000Y-120500001D01*
G75*
G02*
X117100001Y-120551000I-50999J0D01*
G01*
X115899999Y-120551000D01*
G75*
G02*
X115849000Y-120500001I0J50999D01*
G01*
X115849000Y-119299999D01*
G75*
G02*
X115899999Y-119249000I50999J0D01*
G01*
G37*
D27*
X116500000Y-121400000D03*
D28*
X134150000Y-98900000D03*
X129150000Y-98900000D03*
X129500000Y-119150000D03*
X124500000Y-119150000D03*
X132000000Y-119150000D03*
X132000000Y-121650000D03*
X146400000Y-119150000D03*
X146400000Y-121650000D03*
D29*
G36*
X69893681Y-208178337D02*
G01*
X69929163Y-208178337D01*
X69930895Y-208179337D01*
X69930577Y-208181751D01*
X69858325Y-208254003D01*
X69805399Y-208333212D01*
X69803605Y-208334097D01*
X69801942Y-208332986D01*
X69801972Y-208331158D01*
X69810536Y-208315136D01*
X69817536Y-208292061D01*
X69819899Y-208268070D01*
X69817536Y-208244079D01*
X69810536Y-208221004D01*
X69799171Y-208199740D01*
X69783875Y-208181103D01*
X69765239Y-208165808D01*
X69743975Y-208154443D01*
X69726596Y-208149171D01*
X69725229Y-208147711D01*
X69725810Y-208145797D01*
X69727567Y-208145295D01*
X69893681Y-208178337D01*
G37*
G36*
X71134517Y-207353012D02*
G01*
X71134892Y-207354620D01*
X71133703Y-207360595D01*
X71133655Y-207360785D01*
X71131904Y-207366561D01*
X71129541Y-207390553D01*
X71131904Y-207414544D01*
X71138905Y-207437619D01*
X71150271Y-207458882D01*
X71165566Y-207477519D01*
X71184204Y-207492812D01*
X71205468Y-207504178D01*
X71228543Y-207511178D01*
X71246613Y-207512957D01*
X71248239Y-207514122D01*
X71248043Y-207516112D01*
X71246417Y-207516947D01*
X71237264Y-207516947D01*
X71051420Y-207553914D01*
X71049526Y-207553271D01*
X71049182Y-207551187D01*
X71131082Y-207353465D01*
X71132669Y-207352247D01*
X71134517Y-207353012D01*
G37*
G36*
X68932412Y-206553313D02*
G01*
X68932562Y-206555134D01*
X68885312Y-206669207D01*
X68840413Y-206894931D01*
X68840413Y-207125069D01*
X68885312Y-207350793D01*
X68932563Y-207464867D01*
X68932302Y-207466850D01*
X68930454Y-207467615D01*
X68928951Y-207466575D01*
X68920387Y-207450552D01*
X68905092Y-207431915D01*
X68886455Y-207416619D01*
X68865191Y-207405254D01*
X68842116Y-207398254D01*
X68818125Y-207395891D01*
X68794134Y-207398254D01*
X68771059Y-207405254D01*
X68749796Y-207416619D01*
X68731159Y-207431914D01*
X68715863Y-207450551D01*
X68707300Y-207466574D01*
X68705602Y-207467630D01*
X68703838Y-207466687D01*
X68703688Y-207464866D01*
X68750938Y-207350793D01*
X68795837Y-207125069D01*
X68795837Y-206894931D01*
X68750938Y-206669207D01*
X68703687Y-206555133D01*
X68703948Y-206553150D01*
X68705796Y-206552385D01*
X68707299Y-206553425D01*
X68715863Y-206569448D01*
X68731158Y-206588085D01*
X68749795Y-206603381D01*
X68771059Y-206614746D01*
X68794134Y-206621746D01*
X68818125Y-206624109D01*
X68842116Y-206621746D01*
X68865191Y-206614746D01*
X68886454Y-206603381D01*
X68905091Y-206588086D01*
X68920387Y-206569449D01*
X68928950Y-206553426D01*
X68930648Y-206552370D01*
X68932412Y-206553313D01*
G37*
G36*
X75282412Y-204013313D02*
G01*
X75282562Y-204015134D01*
X75235312Y-204129207D01*
X75190413Y-204354931D01*
X75190413Y-204585069D01*
X75235312Y-204810793D01*
X75282563Y-204924867D01*
X75282302Y-204926850D01*
X75280454Y-204927615D01*
X75278951Y-204926575D01*
X75270387Y-204910552D01*
X75255092Y-204891915D01*
X75236455Y-204876619D01*
X75215191Y-204865254D01*
X75192116Y-204858254D01*
X75168125Y-204855891D01*
X75144134Y-204858254D01*
X75121059Y-204865254D01*
X75099796Y-204876619D01*
X75081159Y-204891914D01*
X75065863Y-204910551D01*
X75057300Y-204926574D01*
X75055602Y-204927630D01*
X75053838Y-204926687D01*
X75053688Y-204924866D01*
X75100938Y-204810793D01*
X75145837Y-204585069D01*
X75145837Y-204354931D01*
X75100938Y-204129207D01*
X75053687Y-204015133D01*
X75053948Y-204013150D01*
X75055796Y-204012385D01*
X75057299Y-204013425D01*
X75065863Y-204029448D01*
X75081158Y-204048085D01*
X75099795Y-204063381D01*
X75121059Y-204074746D01*
X75144134Y-204081746D01*
X75168125Y-204084109D01*
X75192116Y-204081746D01*
X75215191Y-204074746D01*
X75236454Y-204063381D01*
X75255091Y-204048086D01*
X75270387Y-204029449D01*
X75278950Y-204013426D01*
X75280648Y-204012370D01*
X75282412Y-204013313D01*
G37*
G36*
X86917473Y-190799428D02*
G01*
X86973864Y-190935566D01*
X87017324Y-191000609D01*
X87017455Y-191002605D01*
X87015792Y-191003716D01*
X87014115Y-191002989D01*
X87002592Y-190988948D01*
X86983955Y-190973652D01*
X86962692Y-190962287D01*
X86939617Y-190955287D01*
X86915626Y-190952924D01*
X86891635Y-190955287D01*
X86868560Y-190962287D01*
X86847296Y-190973652D01*
X86828659Y-190988947D01*
X86817135Y-191002989D01*
X86815263Y-191003693D01*
X86813717Y-191002424D01*
X86813926Y-191000609D01*
X86857386Y-190935566D01*
X86913777Y-190799428D01*
X86915364Y-190798210D01*
X86917473Y-190799428D01*
G37*
G36*
X86817135Y-189997011D02*
G01*
X86828658Y-190011052D01*
X86847295Y-190026348D01*
X86868558Y-190037713D01*
X86891633Y-190044713D01*
X86915624Y-190047076D01*
X86939615Y-190044713D01*
X86962690Y-190037713D01*
X86983954Y-190026348D01*
X87002591Y-190011053D01*
X87014115Y-189997011D01*
X87015987Y-189996307D01*
X87017533Y-189997576D01*
X87017324Y-189999391D01*
X86973864Y-190064434D01*
X86917473Y-190200572D01*
X86915886Y-190201790D01*
X86913777Y-190200572D01*
X86857386Y-190064434D01*
X86813926Y-189999391D01*
X86813795Y-189997395D01*
X86815458Y-189996284D01*
X86817135Y-189997011D01*
G37*
G36*
X317898723Y-171749428D02*
G01*
X317955114Y-171885566D01*
X317998574Y-171950609D01*
X317998705Y-171952605D01*
X317997042Y-171953716D01*
X317995365Y-171952989D01*
X317983842Y-171938948D01*
X317965205Y-171923652D01*
X317943942Y-171912287D01*
X317920867Y-171905287D01*
X317896876Y-171902924D01*
X317872885Y-171905287D01*
X317849810Y-171912287D01*
X317828546Y-171923652D01*
X317809909Y-171938947D01*
X317798385Y-171952989D01*
X317796513Y-171953693D01*
X317794967Y-171952424D01*
X317795176Y-171950609D01*
X317838636Y-171885566D01*
X317895027Y-171749428D01*
X317896614Y-171748210D01*
X317898723Y-171749428D01*
G37*
G36*
X317798385Y-170947011D02*
G01*
X317809908Y-170961052D01*
X317828545Y-170976348D01*
X317849808Y-170987713D01*
X317872883Y-170994713D01*
X317896874Y-170997076D01*
X317920865Y-170994713D01*
X317943940Y-170987713D01*
X317965204Y-170976348D01*
X317983841Y-170961053D01*
X317995365Y-170947011D01*
X317997237Y-170946307D01*
X317998783Y-170947576D01*
X317998574Y-170949391D01*
X317955114Y-171014434D01*
X317898723Y-171150572D01*
X317897136Y-171151790D01*
X317895027Y-171150572D01*
X317838636Y-171014434D01*
X317795176Y-170949391D01*
X317795045Y-170947395D01*
X317796708Y-170946284D01*
X317798385Y-170947011D01*
G37*
G36*
X334384907Y-163698942D02*
G01*
X334384574Y-163700184D01*
X334368997Y-163723497D01*
X334259387Y-163988119D01*
X334257800Y-163989337D01*
X334255952Y-163988572D01*
X334255625Y-163986773D01*
X334260903Y-163969374D01*
X334263266Y-163945383D01*
X334260903Y-163921392D01*
X334253903Y-163898317D01*
X334242537Y-163877053D01*
X334227242Y-163858417D01*
X334208605Y-163843122D01*
X334187341Y-163831757D01*
X334164266Y-163824757D01*
X334140275Y-163822394D01*
X334116284Y-163824757D01*
X334098901Y-163830031D01*
X334096953Y-163829577D01*
X334096372Y-163827663D01*
X334097555Y-163826269D01*
X334338012Y-163726668D01*
X334381800Y-163697410D01*
X334383796Y-163697279D01*
X334384907Y-163698942D01*
G37*
G36*
X335224836Y-162779566D02*
G01*
X335225163Y-162781365D01*
X335219890Y-162798745D01*
X335217527Y-162822736D01*
X335219890Y-162846727D01*
X335226890Y-162869802D01*
X335238255Y-162891065D01*
X335253550Y-162909702D01*
X335272187Y-162924998D01*
X335293451Y-162936363D01*
X335316526Y-162943363D01*
X335340517Y-162945726D01*
X335358606Y-162943944D01*
X335360428Y-162944769D01*
X335360624Y-162946759D01*
X335359192Y-162947896D01*
X335299634Y-162959743D01*
X335069432Y-163055095D01*
X335067449Y-163054834D01*
X335067004Y-163052136D01*
X335176668Y-162888012D01*
X335221401Y-162780019D01*
X335222988Y-162778801D01*
X335224836Y-162779566D01*
G37*
G36*
X116771858Y-120550000D02*
G01*
X116771858Y-120552000D01*
X116770322Y-120552990D01*
X116746135Y-120555372D01*
X116723060Y-120562372D01*
X116701796Y-120573737D01*
X116683159Y-120589032D01*
X116667864Y-120607669D01*
X116656499Y-120628933D01*
X116649499Y-120652008D01*
X116647136Y-120675999D01*
X116649499Y-120699990D01*
X116656499Y-120723065D01*
X116667864Y-120744329D01*
X116683159Y-120762966D01*
X116701796Y-120778261D01*
X116717820Y-120786825D01*
X116718876Y-120788524D01*
X116717933Y-120790287D01*
X116716112Y-120790437D01*
X116688393Y-120778956D01*
X116563610Y-120754135D01*
X116436390Y-120754135D01*
X116311607Y-120778956D01*
X116283888Y-120790437D01*
X116281905Y-120790176D01*
X116281140Y-120788328D01*
X116282180Y-120786825D01*
X116298204Y-120778261D01*
X116316841Y-120762965D01*
X116332136Y-120744328D01*
X116343501Y-120723065D01*
X116350501Y-120699990D01*
X116352864Y-120675999D01*
X116350501Y-120652008D01*
X116343501Y-120628933D01*
X116332136Y-120607669D01*
X116316840Y-120589032D01*
X116298203Y-120573737D01*
X116276940Y-120562372D01*
X116253865Y-120555372D01*
X116229678Y-120552990D01*
X116228052Y-120551825D01*
X116228248Y-120549835D01*
X116229874Y-120549000D01*
X116770126Y-120549000D01*
X116771858Y-120550000D01*
G37*
G36*
X74844838Y-104475363D02*
G01*
X74854933Y-104490470D01*
X74871981Y-104507516D01*
X74892029Y-104520910D01*
X74914303Y-104530135D01*
X74937953Y-104534839D01*
X74962059Y-104534838D01*
X74985709Y-104530132D01*
X75007983Y-104520905D01*
X75028030Y-104507509D01*
X75045076Y-104490461D01*
X75055161Y-104475367D01*
X75056955Y-104474482D01*
X75058618Y-104475593D01*
X75058588Y-104477421D01*
X75029479Y-104531880D01*
X75008195Y-104602041D01*
X75001000Y-104675094D01*
X75001000Y-105024906D01*
X75008195Y-105097958D01*
X75029478Y-105168119D01*
X75058590Y-105222583D01*
X75058524Y-105224582D01*
X75056761Y-105225525D01*
X75055163Y-105224637D01*
X75045072Y-105209535D01*
X75028025Y-105192488D01*
X75007978Y-105179093D01*
X74985704Y-105169867D01*
X74962054Y-105165162D01*
X74937948Y-105165162D01*
X74914297Y-105169866D01*
X74892024Y-105179092D01*
X74871976Y-105192487D01*
X74854929Y-105209534D01*
X74844839Y-105224634D01*
X74843045Y-105225519D01*
X74841382Y-105224408D01*
X74841412Y-105222580D01*
X74870522Y-105168120D01*
X74891805Y-105097959D01*
X74899000Y-105024906D01*
X74899000Y-104675094D01*
X74891805Y-104602041D01*
X74870522Y-104531880D01*
X74841411Y-104477417D01*
X74841477Y-104475418D01*
X74843240Y-104474475D01*
X74844838Y-104475363D01*
G37*
G36*
X70594838Y-104475363D02*
G01*
X70604933Y-104490470D01*
X70621981Y-104507516D01*
X70642029Y-104520910D01*
X70664303Y-104530135D01*
X70687953Y-104534839D01*
X70712059Y-104534838D01*
X70735709Y-104530132D01*
X70757983Y-104520905D01*
X70778030Y-104507509D01*
X70795076Y-104490461D01*
X70805161Y-104475367D01*
X70806955Y-104474482D01*
X70808618Y-104475593D01*
X70808588Y-104477421D01*
X70779479Y-104531880D01*
X70758195Y-104602041D01*
X70751000Y-104675094D01*
X70751000Y-105024906D01*
X70758195Y-105097958D01*
X70779478Y-105168119D01*
X70808590Y-105222583D01*
X70808524Y-105224582D01*
X70806761Y-105225525D01*
X70805163Y-105224637D01*
X70795072Y-105209535D01*
X70778025Y-105192488D01*
X70757978Y-105179093D01*
X70735704Y-105169867D01*
X70712054Y-105165162D01*
X70687948Y-105165162D01*
X70664297Y-105169866D01*
X70642024Y-105179092D01*
X70621976Y-105192487D01*
X70604929Y-105209534D01*
X70594839Y-105224634D01*
X70593045Y-105225519D01*
X70591382Y-105224408D01*
X70591412Y-105222580D01*
X70620522Y-105168120D01*
X70641805Y-105097959D01*
X70649000Y-105024906D01*
X70649000Y-104675094D01*
X70641805Y-104602041D01*
X70620522Y-104531880D01*
X70591411Y-104477417D01*
X70591477Y-104475418D01*
X70593240Y-104474475D01*
X70594838Y-104475363D01*
G37*
G36*
X73994838Y-104475363D02*
G01*
X74004933Y-104490470D01*
X74021981Y-104507516D01*
X74042029Y-104520910D01*
X74064303Y-104530135D01*
X74087953Y-104534839D01*
X74112059Y-104534838D01*
X74135709Y-104530132D01*
X74157983Y-104520905D01*
X74178030Y-104507509D01*
X74195076Y-104490461D01*
X74205161Y-104475367D01*
X74206955Y-104474482D01*
X74208618Y-104475593D01*
X74208588Y-104477421D01*
X74179479Y-104531880D01*
X74158195Y-104602041D01*
X74151000Y-104675094D01*
X74151000Y-105024906D01*
X74158195Y-105097958D01*
X74179478Y-105168119D01*
X74208590Y-105222583D01*
X74208524Y-105224582D01*
X74206761Y-105225525D01*
X74205163Y-105224637D01*
X74195072Y-105209535D01*
X74178025Y-105192488D01*
X74157978Y-105179093D01*
X74135704Y-105169867D01*
X74112054Y-105165162D01*
X74087948Y-105165162D01*
X74064297Y-105169866D01*
X74042024Y-105179092D01*
X74021976Y-105192487D01*
X74004929Y-105209534D01*
X73994839Y-105224634D01*
X73993045Y-105225519D01*
X73991382Y-105224408D01*
X73991412Y-105222580D01*
X74020522Y-105168120D01*
X74041805Y-105097959D01*
X74049000Y-105024906D01*
X74049000Y-104675094D01*
X74041805Y-104602041D01*
X74020522Y-104531880D01*
X73991411Y-104477417D01*
X73991477Y-104475418D01*
X73993240Y-104474475D01*
X73994838Y-104475363D01*
G37*
G36*
X73144838Y-104475363D02*
G01*
X73154933Y-104490470D01*
X73171981Y-104507516D01*
X73192029Y-104520910D01*
X73214303Y-104530135D01*
X73237953Y-104534839D01*
X73262059Y-104534838D01*
X73285709Y-104530132D01*
X73307983Y-104520905D01*
X73328030Y-104507509D01*
X73345076Y-104490461D01*
X73355161Y-104475367D01*
X73356955Y-104474482D01*
X73358618Y-104475593D01*
X73358588Y-104477421D01*
X73329479Y-104531880D01*
X73308195Y-104602041D01*
X73301000Y-104675094D01*
X73301000Y-105024906D01*
X73308195Y-105097958D01*
X73329478Y-105168119D01*
X73358590Y-105222583D01*
X73358524Y-105224582D01*
X73356761Y-105225525D01*
X73355163Y-105224637D01*
X73345072Y-105209535D01*
X73328025Y-105192488D01*
X73307978Y-105179093D01*
X73285704Y-105169867D01*
X73262054Y-105165162D01*
X73237948Y-105165162D01*
X73214297Y-105169866D01*
X73192024Y-105179092D01*
X73171976Y-105192487D01*
X73154929Y-105209534D01*
X73144839Y-105224634D01*
X73143045Y-105225519D01*
X73141382Y-105224408D01*
X73141412Y-105222580D01*
X73170522Y-105168120D01*
X73191805Y-105097959D01*
X73199000Y-105024906D01*
X73199000Y-104675094D01*
X73191805Y-104602041D01*
X73170522Y-104531880D01*
X73141411Y-104477417D01*
X73141477Y-104475418D01*
X73143240Y-104474475D01*
X73144838Y-104475363D01*
G37*
G36*
X72294838Y-104475363D02*
G01*
X72304933Y-104490470D01*
X72321981Y-104507516D01*
X72342029Y-104520910D01*
X72364303Y-104530135D01*
X72387953Y-104534839D01*
X72412059Y-104534838D01*
X72435709Y-104530132D01*
X72457983Y-104520905D01*
X72478030Y-104507509D01*
X72495076Y-104490461D01*
X72505161Y-104475367D01*
X72506955Y-104474482D01*
X72508618Y-104475593D01*
X72508588Y-104477421D01*
X72479479Y-104531880D01*
X72458195Y-104602041D01*
X72451000Y-104675094D01*
X72451000Y-105024906D01*
X72458195Y-105097958D01*
X72479478Y-105168119D01*
X72508590Y-105222583D01*
X72508524Y-105224582D01*
X72506761Y-105225525D01*
X72505163Y-105224637D01*
X72495072Y-105209535D01*
X72478025Y-105192488D01*
X72457978Y-105179093D01*
X72435704Y-105169867D01*
X72412054Y-105165162D01*
X72387948Y-105165162D01*
X72364297Y-105169866D01*
X72342024Y-105179092D01*
X72321976Y-105192487D01*
X72304929Y-105209534D01*
X72294839Y-105224634D01*
X72293045Y-105225519D01*
X72291382Y-105224408D01*
X72291412Y-105222580D01*
X72320522Y-105168120D01*
X72341805Y-105097959D01*
X72349000Y-105024906D01*
X72349000Y-104675094D01*
X72341805Y-104602041D01*
X72320522Y-104531880D01*
X72291411Y-104477417D01*
X72291477Y-104475418D01*
X72293240Y-104474475D01*
X72294838Y-104475363D01*
G37*
G36*
X75694838Y-104475363D02*
G01*
X75704933Y-104490470D01*
X75721981Y-104507516D01*
X75742029Y-104520910D01*
X75764303Y-104530135D01*
X75787953Y-104534839D01*
X75812059Y-104534838D01*
X75835709Y-104530132D01*
X75857983Y-104520905D01*
X75878030Y-104507509D01*
X75895076Y-104490461D01*
X75905161Y-104475367D01*
X75906955Y-104474482D01*
X75908618Y-104475593D01*
X75908588Y-104477421D01*
X75879479Y-104531880D01*
X75858195Y-104602041D01*
X75851000Y-104675094D01*
X75851000Y-105024906D01*
X75858195Y-105097958D01*
X75879478Y-105168119D01*
X75908590Y-105222583D01*
X75908524Y-105224582D01*
X75906761Y-105225525D01*
X75905163Y-105224637D01*
X75895072Y-105209535D01*
X75878025Y-105192488D01*
X75857978Y-105179093D01*
X75835704Y-105169867D01*
X75812054Y-105165162D01*
X75787948Y-105165162D01*
X75764297Y-105169866D01*
X75742024Y-105179092D01*
X75721976Y-105192487D01*
X75704929Y-105209534D01*
X75694839Y-105224634D01*
X75693045Y-105225519D01*
X75691382Y-105224408D01*
X75691412Y-105222580D01*
X75720522Y-105168120D01*
X75741805Y-105097959D01*
X75749000Y-105024906D01*
X75749000Y-104675094D01*
X75741805Y-104602041D01*
X75720522Y-104531880D01*
X75691411Y-104477417D01*
X75691477Y-104475418D01*
X75693240Y-104474475D01*
X75694838Y-104475363D01*
G37*
G36*
X71444838Y-104475363D02*
G01*
X71454933Y-104490470D01*
X71471981Y-104507516D01*
X71492029Y-104520910D01*
X71514303Y-104530135D01*
X71537953Y-104534839D01*
X71562059Y-104534838D01*
X71585709Y-104530132D01*
X71607983Y-104520905D01*
X71628030Y-104507509D01*
X71645076Y-104490461D01*
X71655161Y-104475367D01*
X71656955Y-104474482D01*
X71658618Y-104475593D01*
X71658588Y-104477421D01*
X71629479Y-104531880D01*
X71608195Y-104602041D01*
X71601000Y-104675094D01*
X71601000Y-105024906D01*
X71608195Y-105097958D01*
X71629478Y-105168119D01*
X71658590Y-105222583D01*
X71658524Y-105224582D01*
X71656761Y-105225525D01*
X71655163Y-105224637D01*
X71645072Y-105209535D01*
X71628025Y-105192488D01*
X71607978Y-105179093D01*
X71585704Y-105169867D01*
X71562054Y-105165162D01*
X71537948Y-105165162D01*
X71514297Y-105169866D01*
X71492024Y-105179092D01*
X71471976Y-105192487D01*
X71454929Y-105209534D01*
X71444839Y-105224634D01*
X71443045Y-105225519D01*
X71441382Y-105224408D01*
X71441412Y-105222580D01*
X71470522Y-105168120D01*
X71491805Y-105097959D01*
X71499000Y-105024906D01*
X71499000Y-104675094D01*
X71491805Y-104602041D01*
X71470522Y-104531880D01*
X71441411Y-104477417D01*
X71441477Y-104475418D01*
X71443240Y-104474475D01*
X71444838Y-104475363D01*
G37*
G36*
X74839838Y-103150363D02*
G01*
X74849933Y-103165470D01*
X74866981Y-103182516D01*
X74887029Y-103195910D01*
X74909303Y-103205135D01*
X74932953Y-103209839D01*
X74957059Y-103209838D01*
X74980709Y-103205132D01*
X75002983Y-103195905D01*
X75023030Y-103182509D01*
X75040076Y-103165461D01*
X75050161Y-103150367D01*
X75051955Y-103149482D01*
X75053618Y-103150593D01*
X75053588Y-103152421D01*
X75024479Y-103206880D01*
X75003195Y-103277041D01*
X74996000Y-103350094D01*
X74996000Y-103699906D01*
X75003195Y-103772958D01*
X75024478Y-103843119D01*
X75053590Y-103897583D01*
X75053524Y-103899582D01*
X75051761Y-103900525D01*
X75050163Y-103899637D01*
X75040072Y-103884535D01*
X75023025Y-103867488D01*
X75002978Y-103854093D01*
X74980704Y-103844867D01*
X74957054Y-103840162D01*
X74932948Y-103840162D01*
X74909297Y-103844866D01*
X74887024Y-103854092D01*
X74866976Y-103867487D01*
X74849929Y-103884534D01*
X74839839Y-103899634D01*
X74838045Y-103900519D01*
X74836382Y-103899408D01*
X74836412Y-103897580D01*
X74865522Y-103843120D01*
X74886805Y-103772959D01*
X74894000Y-103699906D01*
X74894000Y-103350094D01*
X74886805Y-103277041D01*
X74865522Y-103206880D01*
X74836411Y-103152417D01*
X74836477Y-103150418D01*
X74838240Y-103149475D01*
X74839838Y-103150363D01*
G37*
G36*
X71439838Y-103150363D02*
G01*
X71449933Y-103165470D01*
X71466981Y-103182516D01*
X71487029Y-103195910D01*
X71509303Y-103205135D01*
X71532953Y-103209839D01*
X71557059Y-103209838D01*
X71580709Y-103205132D01*
X71602983Y-103195905D01*
X71623030Y-103182509D01*
X71640076Y-103165461D01*
X71650161Y-103150367D01*
X71651955Y-103149482D01*
X71653618Y-103150593D01*
X71653588Y-103152421D01*
X71624479Y-103206880D01*
X71603195Y-103277041D01*
X71596000Y-103350094D01*
X71596000Y-103699906D01*
X71603195Y-103772958D01*
X71624478Y-103843119D01*
X71653590Y-103897583D01*
X71653524Y-103899582D01*
X71651761Y-103900525D01*
X71650163Y-103899637D01*
X71640072Y-103884535D01*
X71623025Y-103867488D01*
X71602978Y-103854093D01*
X71580704Y-103844867D01*
X71557054Y-103840162D01*
X71532948Y-103840162D01*
X71509297Y-103844866D01*
X71487024Y-103854092D01*
X71466976Y-103867487D01*
X71449929Y-103884534D01*
X71439839Y-103899634D01*
X71438045Y-103900519D01*
X71436382Y-103899408D01*
X71436412Y-103897580D01*
X71465522Y-103843120D01*
X71486805Y-103772959D01*
X71494000Y-103699906D01*
X71494000Y-103350094D01*
X71486805Y-103277041D01*
X71465522Y-103206880D01*
X71436411Y-103152417D01*
X71436477Y-103150418D01*
X71438240Y-103149475D01*
X71439838Y-103150363D01*
G37*
G36*
X70589838Y-103150363D02*
G01*
X70599933Y-103165470D01*
X70616981Y-103182516D01*
X70637029Y-103195910D01*
X70659303Y-103205135D01*
X70682953Y-103209839D01*
X70707059Y-103209838D01*
X70730709Y-103205132D01*
X70752983Y-103195905D01*
X70773030Y-103182509D01*
X70790076Y-103165461D01*
X70800161Y-103150367D01*
X70801955Y-103149482D01*
X70803618Y-103150593D01*
X70803588Y-103152421D01*
X70774479Y-103206880D01*
X70753195Y-103277041D01*
X70746000Y-103350094D01*
X70746000Y-103699906D01*
X70753195Y-103772958D01*
X70774478Y-103843119D01*
X70803590Y-103897583D01*
X70803524Y-103899582D01*
X70801761Y-103900525D01*
X70800163Y-103899637D01*
X70790072Y-103884535D01*
X70773025Y-103867488D01*
X70752978Y-103854093D01*
X70730704Y-103844867D01*
X70707054Y-103840162D01*
X70682948Y-103840162D01*
X70659297Y-103844866D01*
X70637024Y-103854092D01*
X70616976Y-103867487D01*
X70599929Y-103884534D01*
X70589839Y-103899634D01*
X70588045Y-103900519D01*
X70586382Y-103899408D01*
X70586412Y-103897580D01*
X70615522Y-103843120D01*
X70636805Y-103772959D01*
X70644000Y-103699906D01*
X70644000Y-103350094D01*
X70636805Y-103277041D01*
X70615522Y-103206880D01*
X70586411Y-103152417D01*
X70586477Y-103150418D01*
X70588240Y-103149475D01*
X70589838Y-103150363D01*
G37*
G36*
X73139838Y-103150363D02*
G01*
X73149933Y-103165470D01*
X73166981Y-103182516D01*
X73187029Y-103195910D01*
X73209303Y-103205135D01*
X73232953Y-103209839D01*
X73257059Y-103209838D01*
X73280709Y-103205132D01*
X73302983Y-103195905D01*
X73323030Y-103182509D01*
X73340076Y-103165461D01*
X73350161Y-103150367D01*
X73351955Y-103149482D01*
X73353618Y-103150593D01*
X73353588Y-103152421D01*
X73324479Y-103206880D01*
X73303195Y-103277041D01*
X73296000Y-103350094D01*
X73296000Y-103699906D01*
X73303195Y-103772958D01*
X73324478Y-103843119D01*
X73353590Y-103897583D01*
X73353524Y-103899582D01*
X73351761Y-103900525D01*
X73350163Y-103899637D01*
X73340072Y-103884535D01*
X73323025Y-103867488D01*
X73302978Y-103854093D01*
X73280704Y-103844867D01*
X73257054Y-103840162D01*
X73232948Y-103840162D01*
X73209297Y-103844866D01*
X73187024Y-103854092D01*
X73166976Y-103867487D01*
X73149929Y-103884534D01*
X73139839Y-103899634D01*
X73138045Y-103900519D01*
X73136382Y-103899408D01*
X73136412Y-103897580D01*
X73165522Y-103843120D01*
X73186805Y-103772959D01*
X73194000Y-103699906D01*
X73194000Y-103350094D01*
X73186805Y-103277041D01*
X73165522Y-103206880D01*
X73136411Y-103152417D01*
X73136477Y-103150418D01*
X73138240Y-103149475D01*
X73139838Y-103150363D01*
G37*
G36*
X72289838Y-103150363D02*
G01*
X72299933Y-103165470D01*
X72316981Y-103182516D01*
X72337029Y-103195910D01*
X72359303Y-103205135D01*
X72382953Y-103209839D01*
X72407059Y-103209838D01*
X72430709Y-103205132D01*
X72452983Y-103195905D01*
X72473030Y-103182509D01*
X72490076Y-103165461D01*
X72500161Y-103150367D01*
X72501955Y-103149482D01*
X72503618Y-103150593D01*
X72503588Y-103152421D01*
X72474479Y-103206880D01*
X72453195Y-103277041D01*
X72446000Y-103350094D01*
X72446000Y-103699906D01*
X72453195Y-103772958D01*
X72474478Y-103843119D01*
X72503590Y-103897583D01*
X72503524Y-103899582D01*
X72501761Y-103900525D01*
X72500163Y-103899637D01*
X72490072Y-103884535D01*
X72473025Y-103867488D01*
X72452978Y-103854093D01*
X72430704Y-103844867D01*
X72407054Y-103840162D01*
X72382948Y-103840162D01*
X72359297Y-103844866D01*
X72337024Y-103854092D01*
X72316976Y-103867487D01*
X72299929Y-103884534D01*
X72289839Y-103899634D01*
X72288045Y-103900519D01*
X72286382Y-103899408D01*
X72286412Y-103897580D01*
X72315522Y-103843120D01*
X72336805Y-103772959D01*
X72344000Y-103699906D01*
X72344000Y-103350094D01*
X72336805Y-103277041D01*
X72315522Y-103206880D01*
X72286411Y-103152417D01*
X72286477Y-103150418D01*
X72288240Y-103149475D01*
X72289838Y-103150363D01*
G37*
G36*
X73989838Y-103150363D02*
G01*
X73999933Y-103165470D01*
X74016981Y-103182516D01*
X74037029Y-103195910D01*
X74059303Y-103205135D01*
X74082953Y-103209839D01*
X74107059Y-103209838D01*
X74130709Y-103205132D01*
X74152983Y-103195905D01*
X74173030Y-103182509D01*
X74190076Y-103165461D01*
X74200161Y-103150367D01*
X74201955Y-103149482D01*
X74203618Y-103150593D01*
X74203588Y-103152421D01*
X74174479Y-103206880D01*
X74153195Y-103277041D01*
X74146000Y-103350094D01*
X74146000Y-103699906D01*
X74153195Y-103772958D01*
X74174478Y-103843119D01*
X74203590Y-103897583D01*
X74203524Y-103899582D01*
X74201761Y-103900525D01*
X74200163Y-103899637D01*
X74190072Y-103884535D01*
X74173025Y-103867488D01*
X74152978Y-103854093D01*
X74130704Y-103844867D01*
X74107054Y-103840162D01*
X74082948Y-103840162D01*
X74059297Y-103844866D01*
X74037024Y-103854092D01*
X74016976Y-103867487D01*
X73999929Y-103884534D01*
X73989839Y-103899634D01*
X73988045Y-103900519D01*
X73986382Y-103899408D01*
X73986412Y-103897580D01*
X74015522Y-103843120D01*
X74036805Y-103772959D01*
X74044000Y-103699906D01*
X74044000Y-103350094D01*
X74036805Y-103277041D01*
X74015522Y-103206880D01*
X73986411Y-103152417D01*
X73986477Y-103150418D01*
X73988240Y-103149475D01*
X73989838Y-103150363D01*
G37*
G36*
X75692337Y-103155039D02*
G01*
X75702431Y-103170145D01*
X75719478Y-103187192D01*
X75739526Y-103200586D01*
X75761800Y-103209812D01*
X75785450Y-103214516D01*
X75809556Y-103214516D01*
X75833206Y-103209811D01*
X75855480Y-103200584D01*
X75875527Y-103187189D01*
X75892574Y-103170142D01*
X75902658Y-103155050D01*
X75904452Y-103154165D01*
X75906115Y-103155276D01*
X75906085Y-103157104D01*
X75879479Y-103206880D01*
X75858195Y-103277041D01*
X75851000Y-103350094D01*
X75851000Y-103699906D01*
X75858195Y-103772958D01*
X75879478Y-103843119D01*
X75906091Y-103892909D01*
X75906025Y-103894908D01*
X75904262Y-103895851D01*
X75902664Y-103894963D01*
X75892572Y-103879858D01*
X75875525Y-103862811D01*
X75855477Y-103849416D01*
X75833203Y-103840189D01*
X75809553Y-103835485D01*
X75785447Y-103835485D01*
X75761797Y-103840189D01*
X75739523Y-103849416D01*
X75719476Y-103862810D01*
X75702429Y-103879857D01*
X75692338Y-103894960D01*
X75690544Y-103895845D01*
X75688881Y-103894734D01*
X75688911Y-103892906D01*
X75715522Y-103843120D01*
X75736805Y-103772959D01*
X75744000Y-103699906D01*
X75744000Y-103350094D01*
X75736805Y-103277041D01*
X75715522Y-103206880D01*
X75688910Y-103157093D01*
X75688976Y-103155094D01*
X75690739Y-103154151D01*
X75692337Y-103155039D01*
G37*
M02*
